%FSLAX23Y23*%
%MOIN*%
G70*
G01*
G75*
%ADD10C,0.020*%
%ADD11C,0.050*%
%ADD12C,0.025*%
%ADD13C,0.010*%
%ADD14R,0.071X0.071*%
%ADD15C,0.071*%
%ADD16C,0.059*%
%ADD17R,0.059X0.059*%
%ADD18C,0.098*%
%ADD19R,0.098X0.071*%
%ADD20O,0.098X0.071*%
%ADD21C,0.150*%
%ADD22R,0.098X0.098*%
%ADD23C,0.050*%
%ADD24C,0.012*%
%ADD25C,0.030*%
%ADD26C,0.015*%
%ADD27R,0.079X0.079*%
%ADD28C,0.079*%
%ADD29C,0.067*%
%ADD30R,0.067X0.067*%
%ADD31C,0.106*%
%ADD32R,0.106X0.079*%
%ADD33O,0.106X0.079*%
%ADD34C,0.158*%
%ADD35R,0.106X0.106*%
%ADD36C,0.058*%
D27*
X10753Y8903D02*
D03*
X8003Y7863D02*
D03*
Y7963D02*
D03*
Y7663D02*
D03*
X11073Y7503D02*
D03*
X10553Y6763D02*
D03*
X10453D02*
D03*
X10353D02*
D03*
X8003Y7563D02*
D03*
X9203Y6873D02*
D03*
Y6773D02*
D03*
X8153Y9023D02*
D03*
X8003Y7763D02*
D03*
X9203Y7073D02*
D03*
Y6973D02*
D03*
X8963Y6763D02*
D03*
X9893Y7523D02*
D03*
X10653Y8903D02*
D03*
X10553D02*
D03*
X10453D02*
D03*
X8533Y7128D02*
D03*
X11373Y8923D02*
D03*
X8953Y9023D02*
D03*
X10253Y6763D02*
D03*
X10153D02*
D03*
X10053D02*
D03*
D28*
X10753Y9003D02*
D03*
X8103Y7863D02*
D03*
Y7963D02*
D03*
Y7663D02*
D03*
X11073Y7603D02*
D03*
X10973Y7503D02*
D03*
Y7603D02*
D03*
X11073Y7703D02*
D03*
X10973D02*
D03*
Y8103D02*
D03*
X11073D02*
D03*
X10973Y8003D02*
D03*
X11073D02*
D03*
Y7803D02*
D03*
X10973Y7903D02*
D03*
Y7803D02*
D03*
X11073Y7903D02*
D03*
X8623Y7963D02*
D03*
X8223D02*
D03*
X10453Y6863D02*
D03*
X10353D02*
D03*
X9893Y9043D02*
D03*
Y8643D02*
D03*
X7973Y8683D02*
D03*
Y8483D02*
D03*
X11353Y7603D02*
D03*
X11553D02*
D03*
X9053Y9023D02*
D03*
X10353Y7003D02*
D03*
X9153Y9023D02*
D03*
X10253Y7003D02*
D03*
Y6863D02*
D03*
X8453Y9023D02*
D03*
X10453Y7003D02*
D03*
X9303Y7073D02*
D03*
X9523D02*
D03*
X9303Y6973D02*
D03*
X9523D02*
D03*
X9303Y6873D02*
D03*
X9523D02*
D03*
X9303Y6773D02*
D03*
X9523D02*
D03*
X11613Y7203D02*
D03*
X10133Y9003D02*
D03*
X9633Y8643D02*
D03*
X9893Y7403D02*
D03*
X8633Y8223D02*
D03*
X11613Y7323D02*
D03*
X8533Y7028D02*
D03*
X11373Y9023D02*
D03*
X9453D02*
D03*
X8103Y7563D02*
D03*
X9793Y8643D02*
D03*
X10553Y7403D02*
D03*
X10453D02*
D03*
X10353D02*
D03*
X10253D02*
D03*
X10153D02*
D03*
X10053D02*
D03*
X9993Y7523D02*
D03*
X8623Y7763D02*
D03*
Y7863D02*
D03*
X8103Y7763D02*
D03*
X8223D02*
D03*
Y7863D02*
D03*
X8953Y7003D02*
D03*
X8963Y6863D02*
D03*
X10333Y9003D02*
D03*
X10453D02*
D03*
X10553D02*
D03*
X10653D02*
D03*
X8133Y8323D02*
D03*
X8333Y8223D02*
D03*
Y8323D02*
D03*
X8433D02*
D03*
X8633D02*
D03*
X8433Y8223D02*
D03*
X10093Y7523D02*
D03*
X8433Y6878D02*
D03*
X8533Y6928D02*
D03*
X8433Y6978D02*
D03*
X8953Y7403D02*
D03*
X8853D02*
D03*
X8353Y9023D02*
D03*
X8653D02*
D03*
X9353D02*
D03*
X10053Y7003D02*
D03*
Y6863D02*
D03*
X9253Y9023D02*
D03*
X10153Y7003D02*
D03*
Y6863D02*
D03*
X8553Y9023D02*
D03*
X11413Y7203D02*
D03*
X9633Y8443D02*
D03*
X9693Y7403D02*
D03*
X8133Y8223D02*
D03*
X8433Y7078D02*
D03*
X8253Y9023D02*
D03*
X9923Y7073D02*
D03*
Y6973D02*
D03*
Y6873D02*
D03*
Y6773D02*
D03*
X8853Y7003D02*
D03*
X11413Y7323D02*
D03*
X9793Y9043D02*
D03*
X10553Y7003D02*
D03*
Y6863D02*
D03*
D29*
X9993Y8643D02*
D03*
X10093D02*
D03*
X10193D02*
D03*
X10293D02*
D03*
X10393D02*
D03*
X10493D02*
D03*
X10593D02*
D03*
X10693D02*
D03*
X10793Y8343D02*
D03*
Y8643D02*
D03*
X10693Y8343D02*
D03*
X10593D02*
D03*
X10493D02*
D03*
X10393D02*
D03*
X10293D02*
D03*
X10193D02*
D03*
X10093D02*
D03*
X9993D02*
D03*
X8133Y8743D02*
D03*
X8333D02*
D03*
X8633D02*
D03*
X8433D02*
D03*
X8533D02*
D03*
X8733Y8443D02*
D03*
Y8743D02*
D03*
X8633Y8443D02*
D03*
X8533D02*
D03*
X8433D02*
D03*
X8333D02*
D03*
X8233D02*
D03*
Y8743D02*
D03*
X8833Y8443D02*
D03*
Y8743D02*
D03*
X9293Y7623D02*
D03*
X10293D02*
D03*
X9493Y8223D02*
D03*
X10693Y7623D02*
D03*
X10093Y8223D02*
D03*
X9993D02*
D03*
X9893D02*
D03*
X9793D02*
D03*
X10193Y7623D02*
D03*
X9693D02*
D03*
X8893D02*
D03*
X10393D02*
D03*
X8993D02*
D03*
X10493D02*
D03*
X9093D02*
D03*
X10493Y8223D02*
D03*
X9193Y7623D02*
D03*
X10393Y8223D02*
D03*
X9893Y7623D02*
D03*
X9693Y8223D02*
D03*
X9393D02*
D03*
X10593D02*
D03*
X9293D02*
D03*
X9993Y7623D02*
D03*
X10093D02*
D03*
X9593D02*
D03*
X9193Y8223D02*
D03*
X8893D02*
D03*
X8793D02*
D03*
X9493Y7623D02*
D03*
X10593D02*
D03*
X10193Y8223D02*
D03*
X8993D02*
D03*
X9093D02*
D03*
X10293D02*
D03*
X9793Y7623D02*
D03*
X9593Y8223D02*
D03*
X9393Y7623D02*
D03*
X10693Y8223D02*
D03*
D30*
X8133Y8443D02*
D03*
X8793Y7623D02*
D03*
D31*
X11193Y8523D02*
D03*
X11593Y8423D02*
D03*
Y8623D02*
D03*
X11413Y8163D02*
D03*
X11013Y9043D02*
D03*
Y8243D02*
D03*
D32*
X10833Y7023D02*
D03*
D33*
Y6823D02*
D03*
Y6923D02*
D03*
D34*
X11533D02*
D03*
X8183Y6803D02*
D03*
Y7203D02*
D03*
D35*
X11413Y7963D02*
D03*
D36*
X9433Y8743D02*
D03*
X9033Y8812D02*
D03*
X10421Y8051D02*
D03*
X11058Y8788D02*
D03*
X9533Y7414D02*
D03*
X11488Y7863D02*
D03*
X9633Y7073D02*
D03*
X8333Y8939D02*
D03*
X8684Y7313D02*
D03*
X9133Y8638D02*
D03*
X10682Y7188D02*
D03*
X8528Y8538D02*
D03*
X8633Y7690D02*
D03*
X9133Y7913D02*
D03*
X10458Y7813D02*
D03*
X10633Y7863D02*
D03*
Y8168D02*
D03*
X10934Y8413D02*
D03*
X10858Y8513D02*
D03*
X10883Y8263D02*
D03*
Y7513D02*
D03*
X10228Y7988D02*
D03*
X10733Y7315D02*
D03*
X10103Y7813D02*
D03*
X9558Y7163D02*
D03*
X8458Y7988D02*
D03*
X9853Y8363D02*
D03*
X8458Y7544D02*
D03*
X9708Y7213D02*
D03*
X9178Y7338D02*
D03*
X9693Y7759D02*
D03*
X10492Y7888D02*
D03*
X8883Y8013D02*
D03*
X9033Y8743D02*
D03*
X8233Y7563D02*
D03*
X8133Y8850D02*
D03*
M02*
