%FSLAX23Y23*%
%MOIN*%
G70*
G01*
G75*
%ADD10C,0.020*%
%ADD11C,0.050*%
%ADD12C,0.025*%
%ADD13C,0.010*%
%ADD14R,0.071X0.071*%
%ADD15C,0.071*%
%ADD16C,0.059*%
%ADD17R,0.059X0.059*%
%ADD18C,0.098*%
%ADD19R,0.098X0.071*%
%ADD20O,0.098X0.071*%
%ADD21C,0.150*%
%ADD22R,0.098X0.098*%
%ADD23C,0.050*%
D10*
X8088Y6541D02*
X8094Y6549D01*
X8098Y6557D01*
X8102Y6566D01*
X8105Y6575D01*
X8107Y6584D01*
X8109Y6594D01*
X8110Y6603D01*
X8111Y6613D01*
Y6613D02*
X8110Y6623D01*
X8109Y6632D01*
X8107Y6642D01*
X8105Y6652D01*
X8101Y6661D01*
X8097Y6670D01*
X8092Y6679D01*
X8087Y6687D01*
X8081Y6695D01*
X8074Y6702D01*
X8067Y6709D01*
X8059Y6715D01*
X8051Y6721D01*
X8042Y6726D01*
X8034Y6730D01*
X8024Y6734D01*
X8015Y6737D01*
X8005Y6739D01*
X7995Y6740D01*
X7985Y6741D01*
X7976Y6740D01*
X7966Y6740D01*
X7956Y6738D01*
X7946Y6735D01*
X7937Y6732D01*
X7928Y6728D01*
X7919Y6724D01*
X7911Y6718D01*
X8272Y6843D02*
X8268Y6852D01*
X8262Y6860D01*
X8256Y6868D01*
X8249Y6875D01*
X8241Y6881D01*
X8233Y6887D01*
X8224Y6892D01*
X8214Y6895D01*
X8205Y6898D01*
X8195Y6900D01*
X8185Y6901D01*
X8175Y6900D01*
X8165Y6899D01*
X8155Y6897D01*
X8145Y6893D01*
X8136Y6889D01*
X8128Y6884D01*
X8120Y6878D01*
X8112Y6871D01*
X8106Y6863D01*
X8100Y6855D01*
X8095Y6846D01*
X8091Y6837D01*
X8088Y6828D01*
X8086Y6818D01*
X8085Y6808D01*
Y6798D01*
X8086Y6788D01*
X8088Y6778D01*
X8091Y6768D01*
X8095Y6759D01*
X8100Y6750D01*
X8106Y6742D01*
X8112Y6734D01*
X8120Y6728D01*
X8128Y6721D01*
X8136Y6716D01*
X8145Y6712D01*
X8155Y6709D01*
X8165Y6706D01*
X8175Y6705D01*
X8185Y6705D01*
X8195Y6705D01*
X8205Y6707D01*
X8214Y6710D01*
X8224Y6714D01*
X8233Y6718D01*
X8241Y6724D01*
X8249Y6730D01*
X8256Y6737D01*
X8262Y6745D01*
X8268Y6754D01*
X8272Y6763D01*
Y6738D02*
X8273Y6728D01*
X8277Y6720D01*
X8283Y6713D01*
X8272Y6738D02*
X8273Y6728D01*
X8277Y6720D01*
X8283Y6713D01*
X8433Y6563D02*
X8440Y6557D01*
X8448Y6553D01*
X8458Y6552D01*
X8433Y6563D02*
X8440Y6557D01*
X8448Y6553D01*
X8458Y6552D01*
X8475Y7018D02*
X8469Y7023D01*
X8463Y7028D01*
X8475Y7037D02*
X8474Y7028D01*
X8475Y7018D01*
X8463Y7028D02*
X8469Y7032D01*
X8475Y7037D01*
X8903Y7033D02*
X8897Y7041D01*
X8889Y7048D01*
X8881Y7054D01*
X8872Y7058D01*
X8862Y7060D01*
X8852Y7061D01*
X8842Y7060D01*
X8832Y7057D01*
X8823Y7053D01*
X8815Y7047D01*
X8808Y7040D01*
X8802Y7032D01*
X8798Y7022D01*
X8795Y7013D01*
X8794Y7003D01*
X8795Y6993D01*
X8798Y6983D01*
X8802Y6974D01*
X8808Y6965D01*
X8815Y6958D01*
X8823Y6952D01*
X8832Y6948D01*
X8842Y6945D01*
X8852Y6944D01*
X8862Y6945D01*
X8872Y6947D01*
X8881Y6951D01*
X8889Y6957D01*
X8897Y6964D01*
X8903Y6972D01*
X8919Y6902D02*
X8913Y6894D01*
X8909Y6885D01*
X8906Y6876D01*
X8904Y6866D01*
X8905Y6856D01*
X8906Y6846D01*
X8910Y6837D01*
X8915Y6829D01*
X8921Y6821D01*
X9004D02*
X9010Y6828D01*
X9015Y6836D01*
X9018Y6844D01*
X9020Y6853D01*
X9021Y6863D01*
X9020Y6874D01*
X9017Y6884D01*
X9012Y6894D01*
X9006Y6902D01*
X8997Y6910D01*
X8917Y6913D02*
X8919Y6902D01*
X8903Y6972D02*
X8909Y6964D01*
X8917Y6956D01*
X9011Y7003D02*
X9010Y7013D01*
X9008Y7022D01*
X9003Y7032D01*
X8998Y7040D01*
X8991Y7047D01*
X8982Y7053D01*
X8973Y7057D01*
X8963Y7060D01*
X8953Y7061D01*
X8943Y7060D01*
X8934Y7058D01*
X8924Y7054D01*
X8916Y7048D01*
X8909Y7041D01*
X8903Y7033D01*
X8917Y6913D02*
X8919Y6902D01*
X8997Y6910D02*
X8994Y6919D01*
X8988Y6927D01*
X8997Y6910D02*
X8994Y6919D01*
X8988Y6927D01*
Y6956D02*
X8996Y6963D01*
X9002Y6972D01*
X9007Y6982D01*
X9010Y6992D01*
X9011Y7003D01*
X8272Y7243D02*
X8268Y7252D01*
X8262Y7260D01*
X8256Y7268D01*
X8249Y7275D01*
X8241Y7281D01*
X8233Y7287D01*
X8224Y7292D01*
X8214Y7295D01*
X8205Y7298D01*
X8195Y7300D01*
X8185Y7301D01*
X8175Y7300D01*
X8165Y7299D01*
X8155Y7297D01*
X8145Y7293D01*
X8136Y7289D01*
X8128Y7284D01*
X8120Y7278D01*
X8112Y7271D01*
X8106Y7263D01*
X8100Y7255D01*
X8095Y7246D01*
X8091Y7237D01*
X8088Y7228D01*
X8086Y7218D01*
X8085Y7208D01*
Y7198D01*
X8086Y7188D01*
X8088Y7178D01*
X8091Y7168D01*
X8095Y7159D01*
X8100Y7150D01*
X8106Y7142D01*
X8112Y7134D01*
X8120Y7128D01*
X8128Y7121D01*
X8136Y7116D01*
X8145Y7112D01*
X8155Y7109D01*
X8165Y7106D01*
X8175Y7105D01*
X8185Y7105D01*
X8195Y7105D01*
X8205Y7107D01*
X8214Y7110D01*
X8224Y7114D01*
X8233Y7118D01*
X8241Y7124D01*
X8249Y7130D01*
X8256Y7137D01*
X8262Y7145D01*
X8268Y7154D01*
X8272Y7163D01*
X8061Y7521D02*
X8069Y7515D01*
X8077Y7510D01*
X8086Y7506D01*
X8096Y7505D01*
X8106Y7504D01*
X8116Y7506D01*
X8125Y7509D01*
X8134Y7513D01*
X8142Y7519D01*
X8148Y7526D01*
X8154Y7534D01*
X8158Y7543D01*
X8160Y7553D01*
X8161Y7563D01*
X8160Y7573D01*
X8157Y7584D01*
X8152Y7593D01*
X8146Y7602D01*
X8138Y7609D01*
Y7616D02*
X8146Y7623D01*
X8152Y7632D01*
X8157Y7642D01*
X8160Y7652D01*
X8161Y7663D01*
X8160Y7673D01*
X8158Y7682D01*
X8154Y7691D01*
X8148Y7700D01*
X8141Y7707D01*
X8133Y7713D01*
X8141Y7719D01*
X8148Y7726D01*
X8154Y7734D01*
X8158Y7743D01*
X8160Y7753D01*
X8161Y7763D01*
X8160Y7773D01*
X8158Y7782D01*
X8154Y7791D01*
X8148Y7800D01*
X8141Y7807D01*
X8133Y7813D01*
X8192D02*
X8184Y7807D01*
X8177Y7800D01*
X8172Y7792D01*
X8168Y7783D01*
X8165Y7773D01*
X8164Y7764D01*
X8165Y7754D01*
X8167Y7744D01*
X8171Y7735D01*
X8176Y7727D01*
X8183Y7720D01*
X8191Y7714D01*
X8199Y7709D01*
X8209Y7706D01*
X8218Y7704D01*
X8228Y7704D01*
X8238Y7706D01*
X8793Y7388D02*
X8792Y7397D01*
X8788Y7405D01*
X8783Y7413D01*
X8793Y7388D02*
X8792Y7397D01*
X8788Y7405D01*
X8783Y7413D01*
X8817Y7449D02*
X8810Y7443D01*
X8804Y7435D01*
X8799Y7426D01*
X8796Y7417D01*
X8794Y7407D01*
X8794Y7398D01*
X8796Y7388D01*
X8799Y7379D01*
X8804Y7370D01*
X8810Y7363D01*
X8817Y7356D01*
X8826Y7351D01*
X8835Y7347D01*
X8844Y7345D01*
X8854Y7344D01*
X8864Y7345D01*
X8873Y7348D01*
X8882Y7352D01*
X8890Y7358D01*
X8897Y7364D01*
X8903Y7372D01*
Y7433D02*
X8896Y7442D01*
X8888Y7449D01*
X8903Y7372D02*
X8909Y7364D01*
X8916Y7357D01*
X8924Y7351D01*
X8934Y7347D01*
X8943Y7345D01*
X8953Y7344D01*
X8963Y7345D01*
X8973Y7348D01*
X8982Y7352D01*
X8991Y7358D01*
X8998Y7365D01*
X9003Y7374D01*
X9008Y7383D01*
X9010Y7393D01*
X9011Y7403D01*
Y7403D02*
X9010Y7413D01*
X9008Y7422D01*
X9003Y7432D01*
X8998Y7440D01*
X8991Y7447D01*
X8982Y7453D01*
X8973Y7457D01*
X8963Y7460D01*
X8953Y7461D01*
X8943Y7460D01*
X8934Y7458D01*
X8924Y7454D01*
X8916Y7448D01*
X8909Y7441D01*
X8903Y7433D01*
X8197Y7595D02*
X8191Y7587D01*
X8187Y7578D01*
X8185Y7569D01*
X8185Y7559D01*
X8187Y7549D01*
X8190Y7540D01*
X8196Y7532D01*
X8203Y7525D01*
X8211Y7520D01*
X8220Y7516D01*
X8230Y7515D01*
X8240Y7515D01*
X8249Y7518D01*
X8258Y7522D01*
X8266Y7528D01*
X8272Y7535D01*
X8208Y7676D02*
X8202Y7668D01*
X8198Y7660D01*
X8197Y7651D01*
X8208Y7676D02*
X8202Y7668D01*
X8198Y7660D01*
X8197Y7651D01*
X8279Y7747D02*
X8281Y7755D01*
X8281Y7763D01*
X8280Y7773D01*
X8278Y7782D01*
X8274Y7791D01*
X8268Y7800D01*
X8261Y7807D01*
X8253Y7813D01*
X8888Y7563D02*
X8887Y7570D01*
X8888Y7563D02*
X8887Y7570D01*
X8895Y7570D01*
X9261Y6731D02*
X9269Y6725D01*
X9277Y6720D01*
X9286Y6716D01*
X9296Y6715D01*
X9306Y6714D01*
X9316Y6716D01*
X9325Y6719D01*
X9334Y6723D01*
X9342Y6729D01*
X9348Y6736D01*
X9354Y6744D01*
X9358Y6753D01*
X9360Y6763D01*
X9361Y6773D01*
X9360Y6783D01*
X9358Y6792D01*
X9354Y6801D01*
X9348Y6810D01*
X9341Y6817D01*
X9333Y6823D01*
X9422Y6838D02*
X9423Y6828D01*
X9427Y6820D01*
X9433Y6813D01*
X9333Y6823D02*
X9341Y6829D01*
X9348Y6836D01*
X9354Y6844D01*
X9358Y6853D01*
X9360Y6863D01*
X9361Y6873D01*
X9361Y6880D01*
X9913Y6552D02*
X9922Y6553D01*
X9930Y6557D01*
X9938Y6563D01*
X9913Y6552D02*
X9922Y6553D01*
X9930Y6557D01*
X9938Y6563D01*
X9422Y6838D02*
X9423Y6828D01*
X9427Y6820D01*
X9433Y6813D01*
X9465Y6780D02*
X9464Y6770D01*
X9465Y6760D01*
X9468Y6751D01*
X9473Y6742D01*
X9479Y6734D01*
X9486Y6727D01*
X9495Y6721D01*
X9504Y6717D01*
X9514Y6715D01*
X9524Y6714D01*
X9534Y6715D01*
X9543Y6718D01*
X9553Y6722D01*
X9561Y6728D01*
X9568Y6735D01*
X9573Y6744D01*
X9578Y6753D01*
X9580Y6763D01*
X9581Y6773D01*
X9580Y6783D01*
X9578Y6792D01*
X9574Y6801D01*
X9568Y6810D01*
X9561Y6817D01*
X9553Y6823D01*
X9561Y6829D01*
X9568Y6836D01*
X9574Y6844D01*
X9578Y6853D01*
X9580Y6863D01*
X9581Y6873D01*
X9580Y6883D01*
X9578Y6892D01*
X9574Y6901D01*
X9568Y6910D01*
X9561Y6917D01*
X9553Y6923D01*
X9561Y6929D01*
X9568Y6936D01*
X9574Y6944D01*
X9578Y6953D01*
X9580Y6963D01*
X9581Y6973D01*
X9581Y6977D01*
X9683Y6977D02*
X9692Y6978D01*
X9700Y6982D01*
X9708Y6988D01*
X9683Y6977D02*
X9692Y6978D01*
X9700Y6982D01*
X9708Y6988D01*
X9733Y7013D02*
X9738Y7020D01*
X9742Y7028D01*
X9743Y7038D01*
X9733Y7013D02*
X9738Y7020D01*
X9742Y7028D01*
X9743Y7038D01*
X9328Y7125D02*
X9318Y7129D01*
X9308Y7131D01*
X9298Y7131D01*
X9288Y7129D01*
X9278Y7126D01*
X9269Y7121D01*
X9261Y7114D01*
X9130Y7335D02*
X9131Y7326D01*
X9135Y7316D01*
X9140Y7308D01*
X9147Y7301D01*
X9155Y7295D01*
X9164Y7292D01*
X9174Y7290D01*
X9184Y7290D01*
X9193Y7292D01*
X9202Y7296D01*
X9210Y7302D01*
X9217Y7310D01*
X9222Y7318D01*
X9225Y7328D01*
X9226Y7338D01*
X9756Y7213D02*
X9755Y7223D01*
X9751Y7232D01*
X9746Y7241D01*
X9739Y7249D01*
X9731Y7254D01*
X9722Y7258D01*
X9712Y7260D01*
X9702Y7260D01*
X9692Y7258D01*
X9683Y7254D01*
X9675Y7248D01*
X9668Y7240D01*
X9743Y7180D02*
X9748Y7187D01*
X9752Y7195D01*
X9755Y7204D01*
X9756Y7213D01*
X9685Y7345D02*
X9695Y7344D01*
X9705Y7345D01*
X9714Y7348D01*
X9723Y7353D01*
X9731Y7359D01*
X9738Y7366D01*
X9744Y7374D01*
X9748Y7383D01*
X9750Y7393D01*
X9751Y7403D01*
X9751Y7410D01*
X9783Y7088D02*
X9777Y7080D01*
X9773Y7072D01*
X9772Y7063D01*
X9783Y7088D02*
X9777Y7080D01*
X9773Y7072D01*
X9772Y7063D01*
X9883Y7173D02*
X9873Y7172D01*
X9865Y7168D01*
X9858Y7163D01*
X9883Y7173D02*
X9873Y7172D01*
X9865Y7168D01*
X9858Y7163D01*
X9951Y7403D02*
X9950Y7413D01*
X9948Y7422D01*
X9944Y7431D01*
X9938Y7439D01*
X9931Y7447D01*
X9923Y7452D01*
X9914Y7457D01*
X9905Y7460D01*
X9895Y7461D01*
X9885Y7461D01*
X9875Y7459D01*
X9866Y7455D01*
X9858Y7450D01*
X9850Y7443D01*
X9844Y7435D01*
X9839Y7427D01*
X9836Y7417D01*
X9834Y7408D01*
Y7398D01*
X9836Y7388D01*
X9839Y7379D01*
X9844Y7370D01*
X9850Y7362D01*
X9858Y7356D01*
X9866Y7350D01*
X9875Y7347D01*
X9885Y7345D01*
X9895Y7344D01*
X9905Y7345D01*
X9914Y7348D01*
X9923Y7353D01*
X9931Y7359D01*
X9938Y7366D01*
X9944Y7374D01*
X9948Y7383D01*
X9950Y7393D01*
X9951Y7403D01*
X10103Y7433D02*
X10097Y7441D01*
X10089Y7448D01*
X10081Y7454D01*
X10072Y7458D01*
X10062Y7460D01*
X10052Y7461D01*
X10042Y7460D01*
X10032Y7457D01*
X10023Y7453D01*
X10015Y7447D01*
X10008Y7440D01*
X10002Y7432D01*
X9998Y7422D01*
X9995Y7413D01*
X9994Y7403D01*
X9995Y7393D01*
X9998Y7383D01*
X10002Y7374D01*
X10008Y7365D01*
X10015Y7358D01*
X10023Y7352D01*
X10032Y7348D01*
X10042Y7345D01*
X10052Y7344D01*
X10062Y7345D01*
X10072Y7347D01*
X10081Y7351D01*
X10089Y7357D01*
X10097Y7364D01*
X10103Y7372D01*
X9818Y7478D02*
X9823Y7485D01*
X9827Y7493D01*
X9828Y7503D01*
X9818Y7478D02*
X9823Y7485D01*
X9827Y7493D01*
X9828Y7503D01*
Y7584D02*
X9834Y7591D01*
X9839Y7598D01*
X9843Y7607D01*
Y7639D02*
X9839Y7647D01*
X9834Y7655D01*
X9828Y7661D01*
X9843Y7607D02*
X9847Y7597D01*
X9853Y7588D01*
X9860Y7581D01*
X9943Y7639D02*
X9939Y7648D01*
X9933Y7656D01*
X9926Y7664D01*
X9917Y7669D01*
X9908Y7673D01*
X9898Y7675D01*
X9888D01*
X9878Y7673D01*
X9868Y7669D01*
X9860Y7664D01*
X9852Y7656D01*
X9847Y7648D01*
X9843Y7639D01*
X9951Y7481D02*
X9958Y7475D01*
X9967Y7470D01*
X9976Y7467D01*
X9985Y7465D01*
X9995Y7464D01*
X10004Y7465D01*
X10014Y7468D01*
X10022Y7472D01*
X10030Y7478D01*
X10037Y7484D01*
X10043Y7492D01*
Y7639D02*
X10039Y7648D01*
X10033Y7656D01*
X10026Y7664D01*
X10017Y7669D01*
X10008Y7673D01*
X9998Y7675D01*
X9988D01*
X9978Y7673D01*
X9968Y7669D01*
X9960Y7664D01*
X9952Y7656D01*
X9947Y7648D01*
X9943Y7639D01*
X8133Y7813D02*
X8141Y7819D01*
X8148Y7826D01*
X8154Y7834D01*
X8158Y7843D01*
X8160Y7853D01*
X8161Y7863D01*
X8160Y7873D01*
X8158Y7882D01*
X8154Y7891D01*
X8148Y7900D01*
X8141Y7907D01*
X8133Y7913D01*
X8141Y7919D01*
X8148Y7926D01*
X8154Y7934D01*
X8158Y7943D01*
X8160Y7953D01*
X8161Y7963D01*
X8160Y7972D01*
X8158Y7982D01*
X8154Y7991D01*
X8148Y7999D01*
X8142Y8006D01*
X8134Y8012D01*
X8125Y8017D01*
X8116Y8020D01*
X8106Y8021D01*
X8096Y8021D01*
X8086Y8019D01*
X8077Y8015D01*
X8069Y8010D01*
X8061Y8004D01*
X8109Y8038D02*
X8116Y8032D01*
X8124Y8028D01*
X8134Y8027D01*
X8109Y8038D02*
X8116Y8032D01*
X8124Y8028D01*
X8134Y8027D01*
X7998Y8163D02*
X7999Y8153D01*
X8003Y8145D01*
X8009Y8138D01*
X7998Y8163D02*
X7999Y8153D01*
X8003Y8145D01*
X8009Y8138D01*
X7998Y8535D02*
X7989Y8539D01*
X7979Y8541D01*
X7969Y8541D01*
X7960Y8540D01*
X7950Y8537D01*
X7942Y8532D01*
X7934Y8526D01*
X7927Y8519D01*
X7921Y8511D01*
X7917Y8502D01*
X7915Y8492D01*
X7914Y8483D01*
X7915Y8473D01*
X7917Y8463D01*
X7921Y8454D01*
X7927Y8446D01*
X7934Y8439D01*
X7942Y8433D01*
X7950Y8429D01*
X7960Y8426D01*
X7969Y8424D01*
X7979Y8425D01*
X7989Y8426D01*
X7998Y8430D01*
X8192Y7913D02*
X8184Y7907D01*
X8177Y7900D01*
X8172Y7891D01*
X8168Y7882D01*
X8165Y7873D01*
X8164Y7863D01*
X8165Y7853D01*
X8168Y7843D01*
X8172Y7834D01*
X8177Y7826D01*
X8184Y7819D01*
X8192Y7813D01*
X8253D02*
X8261Y7819D01*
X8268Y7826D01*
X8274Y7834D01*
X8278Y7843D01*
X8280Y7853D01*
X8281Y7863D01*
X8280Y7873D01*
X8278Y7882D01*
X8274Y7891D01*
X8268Y7900D01*
X8261Y7907D01*
X8253Y7913D01*
X8281Y7963D02*
X8280Y7973D01*
X8278Y7983D01*
X8273Y7992D01*
X8268Y8000D01*
X8260Y8007D01*
X8252Y8013D01*
X8243Y8017D01*
X8233Y8020D01*
X8223Y8021D01*
X8213Y8020D01*
X8203Y8018D01*
X8194Y8014D01*
X8186Y8008D01*
X8178Y8001D01*
X8172Y7993D01*
X8168Y7983D01*
X8165Y7974D01*
X8164Y7964D01*
X8165Y7954D01*
X8167Y7944D01*
X8171Y7934D01*
X8177Y7926D01*
X8184Y7919D01*
X8192Y7913D01*
X8253D02*
X8261Y7919D01*
X8268Y7926D01*
X8274Y7934D01*
X8278Y7943D01*
X8280Y7953D01*
X8281Y7963D01*
X8491Y8223D02*
X8490Y8233D01*
X8488Y8242D01*
X8484Y8251D01*
X8478Y8260D01*
X8471Y8267D01*
X8463Y8273D01*
X8471Y8279D01*
X8478Y8286D01*
X8484Y8294D01*
X8488Y8303D01*
X8490Y8313D01*
X8491Y8323D01*
X8490Y8333D01*
X8487Y8344D01*
X8482Y8353D01*
X8476Y8362D01*
X8468Y8369D01*
X8491Y8215D02*
X8491Y8223D01*
X8283Y8459D02*
X8279Y8468D01*
X8274Y8476D01*
X8267Y8482D01*
X8259Y8488D01*
X8250Y8492D01*
X8241Y8494D01*
X8231Y8495D01*
X8222Y8494D01*
X8212Y8491D01*
X8204Y8487D01*
X8196Y8481D01*
X8190Y8473D01*
X8185Y8465D01*
X8383Y8459D02*
X8379Y8468D01*
X8373Y8476D01*
X8366Y8484D01*
X8357Y8489D01*
X8348Y8493D01*
X8338Y8495D01*
X8328D01*
X8318Y8493D01*
X8308Y8489D01*
X8300Y8484D01*
X8292Y8476D01*
X8287Y8468D01*
X8283Y8459D01*
X8468Y8404D02*
X8474Y8411D01*
X8479Y8418D01*
X8483Y8427D01*
X8486Y8418D01*
X8492Y8410D01*
X8499Y8403D01*
X8483Y8459D02*
X8479Y8468D01*
X8473Y8476D01*
X8466Y8484D01*
X8457Y8489D01*
X8448Y8493D01*
X8438Y8495D01*
X8428D01*
X8418Y8493D01*
X8408Y8489D01*
X8400Y8484D01*
X8392Y8476D01*
X8387Y8468D01*
X8383Y8459D01*
X8602Y8273D02*
X8594Y8267D01*
X8587Y8260D01*
X8582Y8252D01*
X8578Y8243D01*
X8575Y8233D01*
X8574Y8223D01*
X8575Y8213D01*
X8577Y8204D01*
X8581Y8195D01*
X8587Y8186D01*
X8594Y8179D01*
X8601Y8173D01*
X8514Y8492D02*
X8505Y8488D01*
X8498Y8482D01*
X8491Y8475D01*
X8486Y8467D01*
X8483Y8459D01*
X8575Y8330D02*
X8574Y8321D01*
X8575Y8311D01*
X8578Y8302D01*
X8582Y8293D01*
X8588Y8285D01*
X8594Y8278D01*
X8602Y8273D01*
X8499Y8403D02*
X8503Y8394D01*
X8509Y8386D01*
X8518Y8380D01*
X8528Y8378D01*
X8499Y8403D02*
X8503Y8394D01*
X8509Y8386D01*
X8518Y8380D01*
X8528Y8378D01*
X7998Y8735D02*
X7989Y8739D01*
X7979Y8741D01*
X7969Y8741D01*
X7960Y8740D01*
X7950Y8737D01*
X7942Y8732D01*
X7934Y8726D01*
X7927Y8719D01*
X7921Y8711D01*
X7917Y8702D01*
X7915Y8692D01*
X7914Y8683D01*
X7915Y8673D01*
X7917Y8663D01*
X7921Y8654D01*
X7927Y8646D01*
X7934Y8639D01*
X7942Y8633D01*
X7950Y8629D01*
X7960Y8626D01*
X7969Y8624D01*
X7979Y8625D01*
X7989Y8626D01*
X7998Y8630D01*
X8009Y8776D02*
X8003Y8768D01*
X7999Y8760D01*
X7998Y8751D01*
X8009Y8776D02*
X8003Y8768D01*
X7999Y8760D01*
X7998Y8751D01*
X8183Y8759D02*
X8179Y8768D01*
X8173Y8776D01*
X8166Y8783D01*
X8157Y8789D01*
X8148Y8793D01*
X8138Y8795D01*
X8128Y8795D01*
X8130Y8690D02*
X8140Y8691D01*
X8150Y8693D01*
X8159Y8697D01*
X8167Y8703D01*
X8173Y8710D01*
X8179Y8718D01*
X8183Y8727D01*
X8187Y8717D01*
X8192Y8709D01*
X8200Y8702D01*
X8208Y8696D01*
X8218Y8692D01*
X8228Y8690D01*
X8238D01*
X8248Y8692D01*
X8257Y8696D01*
X8266Y8702D01*
X8273Y8709D01*
X8279Y8717D01*
X8283Y8727D01*
X7911Y8907D02*
X7919Y8902D01*
X7928Y8897D01*
X7937Y8893D01*
X7946Y8890D01*
X7956Y8887D01*
X7966Y8886D01*
X7975Y8885D01*
X7985Y8885D01*
X7995Y8885D01*
X8005Y8887D01*
X8015Y8889D01*
X8024Y8892D01*
X8033Y8895D01*
X8042Y8899D01*
X8051Y8904D01*
X8059Y8910D01*
X8067Y8916D01*
X8074Y8923D01*
X8081Y8930D01*
X8087Y8938D01*
X8092Y8946D01*
X8097Y8955D01*
X8101Y8964D01*
X8094Y9076D02*
X8088Y9085D01*
X8135Y8802D02*
X8145Y8803D01*
X8155Y8807D01*
X8164Y8813D01*
X8171Y8820D01*
X8176Y8829D01*
X8179Y8839D01*
X8181Y8850D01*
X8180Y8859D01*
X8177Y8869D01*
X8172Y8877D01*
X8165Y8885D01*
X8157Y8891D01*
X8148Y8895D01*
X8139Y8897D01*
X8129Y8897D01*
X8119Y8896D01*
X8110Y8892D01*
X8102Y8886D01*
X8095Y8879D01*
X8090Y8871D01*
X8086Y8862D01*
X8085Y8852D01*
X8283Y8759D02*
X8279Y8768D01*
X8273Y8776D01*
X8266Y8784D01*
X8257Y8789D01*
X8248Y8793D01*
X8238Y8795D01*
X8228D01*
X8218Y8793D01*
X8208Y8789D01*
X8200Y8784D01*
X8192Y8776D01*
X8187Y8768D01*
X8183Y8759D01*
X8297Y8781D02*
X8291Y8775D01*
X8286Y8767D01*
X8283Y8759D01*
X8525Y8586D02*
X8515Y8584D01*
X8506Y8580D01*
X8497Y8575D01*
X8490Y8567D01*
X8484Y8558D01*
X8481Y8549D01*
X8480Y8538D01*
X8481Y8528D01*
X8484Y8518D01*
X8489Y8509D01*
X8496Y8502D01*
X8504Y8496D01*
X8514Y8492D01*
X8283Y8727D02*
X8287Y8717D01*
X8292Y8709D01*
X8300Y8702D01*
X8308Y8696D01*
X8318Y8692D01*
X8328Y8690D01*
X8338D01*
X8348Y8692D01*
X8357Y8696D01*
X8366Y8702D01*
X8373Y8709D01*
X8379Y8717D01*
X8383Y8727D01*
X8387Y8717D01*
X8392Y8709D01*
X8400Y8702D01*
X8408Y8696D01*
X8418Y8692D01*
X8428Y8690D01*
X8438D01*
X8448Y8692D01*
X8457Y8696D01*
X8466Y8702D01*
X8473Y8709D01*
X8479Y8717D01*
X8483Y8727D01*
X8487Y8717D01*
X8492Y8709D01*
X8500Y8702D01*
X8508Y8696D01*
X8518Y8692D01*
X8528Y8690D01*
X8538D01*
X8548Y8692D01*
X8557Y8696D01*
X8566Y8702D01*
X8573Y8709D01*
X8579Y8717D01*
X8583Y8727D01*
X8587Y8717D01*
X8593Y8708D01*
X8601Y8701D01*
X8610Y8695D01*
X8620Y8692D01*
X8630Y8690D01*
X8211Y8981D02*
X8218Y8975D01*
X8227Y8970D01*
X8236Y8967D01*
X8245Y8965D01*
X8255Y8964D01*
X8264Y8965D01*
X8274Y8968D01*
X8282Y8972D01*
X8290Y8978D01*
X8297Y8984D01*
X8303Y8992D01*
X8311Y8982D02*
X8303Y8976D01*
X8296Y8969D01*
X8290Y8961D01*
X8287Y8952D01*
X8285Y8943D01*
X8285Y8933D01*
X8287Y8923D01*
X8291Y8914D01*
X8297Y8906D01*
X8303Y8992D02*
X8311Y8982D01*
X8303Y9053D02*
X8297Y9061D01*
X8290Y9068D01*
X8282Y9073D01*
X8274Y9077D01*
X8264Y9080D01*
X8255Y9081D01*
X8245Y9081D01*
X8236Y9079D01*
X8227Y9075D01*
X8218Y9070D01*
X8211Y9064D01*
X8403Y9053D02*
X8397Y9061D01*
X8390Y9068D01*
X8381Y9074D01*
X8372Y9078D01*
X8363Y9080D01*
X8353Y9081D01*
X8343Y9080D01*
X8333Y9078D01*
X8324Y9074D01*
X8316Y9068D01*
X8309Y9061D01*
X8303Y9053D01*
X8503D02*
X8497Y9061D01*
X8490Y9068D01*
X8481Y9074D01*
X8472Y9078D01*
X8463Y9080D01*
X8453Y9081D01*
X8443Y9080D01*
X8433Y9078D01*
X8424Y9074D01*
X8416Y9068D01*
X8409Y9061D01*
X8403Y9053D01*
X8603D02*
X8597Y9061D01*
X8590Y9068D01*
X8581Y9074D01*
X8572Y9078D01*
X8563Y9080D01*
X8553Y9081D01*
X8543Y9080D01*
X8533Y9078D01*
X8524Y9074D01*
X8516Y9068D01*
X8509Y9061D01*
X8503Y9053D01*
X9243Y8239D02*
X9238Y8248D01*
X9232Y8257D01*
X9225Y8264D01*
X9216Y8270D01*
X9206Y8273D01*
X9195Y8275D01*
X9343Y8239D02*
X9339Y8248D01*
X9333Y8256D01*
X9326Y8264D01*
X9317Y8269D01*
X9308Y8273D01*
X9298Y8275D01*
X9288D01*
X9278Y8273D01*
X9268Y8269D01*
X9260Y8264D01*
X9252Y8256D01*
X9247Y8248D01*
X9243Y8239D01*
X9398Y8275D02*
X9388Y8275D01*
X9378Y8273D01*
X9368Y8269D01*
X9360Y8264D01*
X9352Y8256D01*
X9347Y8248D01*
X9343Y8239D01*
X9397Y8283D02*
X9398Y8275D01*
X9397Y8283D02*
X9398Y8275D01*
X9278Y8358D02*
X9283Y8365D01*
X9287Y8373D01*
X9288Y8383D01*
X9278Y8358D02*
X9283Y8365D01*
X9287Y8373D01*
X9288Y8383D01*
X9543Y8239D02*
X9539Y8248D01*
X9533Y8256D01*
X9527Y8263D01*
X9519Y8268D01*
X9510Y8272D01*
X9500Y8275D01*
X9490Y8275D01*
X9595D02*
X9585Y8275D01*
X9576Y8272D01*
X9567Y8268D01*
X9559Y8263D01*
X9552Y8256D01*
X9546Y8248D01*
X9543Y8239D01*
X9743D02*
X9739Y8248D01*
X9733Y8256D01*
X9726Y8264D01*
X9717Y8269D01*
X9708Y8273D01*
X9698Y8275D01*
X9688Y8275D01*
X9678Y8273D01*
X9668Y8269D01*
X9691Y8443D02*
X9690Y8452D01*
X9688Y8462D01*
X9684Y8471D01*
X9678Y8479D01*
X9671Y8486D01*
X9663Y8492D01*
X9655Y8497D01*
X9645Y8500D01*
X9635Y8501D01*
X9626Y8501D01*
X9616Y8499D01*
X9607Y8495D01*
X9598Y8490D01*
X9591Y8483D01*
X9584Y8476D01*
X9580Y8467D01*
X9576Y8458D01*
X9574Y8448D01*
X9574Y8438D01*
X9576Y8429D01*
X9579Y8419D01*
X9584Y8411D01*
X9590Y8403D01*
X9597Y8396D01*
X9668D02*
X9676Y8403D01*
X9682Y8412D01*
X9687Y8422D01*
X9690Y8432D01*
X9691Y8443D01*
X9828Y8023D02*
X9827Y8032D01*
X9823Y8040D01*
X9818Y8048D01*
X9828Y8023D02*
X9827Y8032D01*
X9823Y8040D01*
X9818Y8048D01*
X9695Y8170D02*
X9706Y8172D01*
X9716Y8175D01*
X9725Y8181D01*
X9732Y8188D01*
X9738Y8197D01*
X9743Y8207D01*
X9747Y8197D01*
X9752Y8189D01*
X9760Y8182D01*
X9768Y8176D01*
X9778Y8172D01*
X9788Y8170D01*
X9798D01*
X9808Y8172D01*
X9817Y8176D01*
X9826Y8182D01*
X9833Y8189D01*
X9839Y8197D01*
X9843Y8207D01*
X9847Y8197D01*
X9852Y8189D01*
X9860Y8182D01*
X9868Y8176D01*
X9878Y8172D01*
X9888Y8170D01*
X9898D01*
X9908Y8172D01*
X9917Y8176D01*
X9926Y8182D01*
X9933Y8189D01*
X9939Y8197D01*
X9943Y8207D01*
X9843Y8239D02*
X9839Y8248D01*
X9833Y8256D01*
X9826Y8264D01*
X9817Y8269D01*
X9808Y8273D01*
X9798Y8275D01*
X9788D01*
X9778Y8273D01*
X9768Y8269D01*
X9760Y8264D01*
X9752Y8256D01*
X9747Y8248D01*
X9743Y8239D01*
X9943Y8207D02*
X9946Y8198D01*
X9952Y8190D01*
X9959Y8183D01*
X9967Y8177D01*
X9976Y8173D01*
X9985Y8171D01*
X9995Y8170D01*
X9890Y8275D02*
X9880Y8273D01*
X9870Y8270D01*
X9861Y8264D01*
X9853Y8257D01*
X9847Y8248D01*
X9843Y8239D01*
X9901Y8365D02*
X9899Y8375D01*
X9895Y8384D01*
X9890Y8393D01*
X9883Y8400D01*
X9875Y8405D01*
X9865Y8409D01*
X9855Y8411D01*
X9845Y8410D01*
X9835Y8407D01*
X9826Y8403D01*
X9819Y8397D01*
X9812Y8389D01*
X9808Y8380D01*
X9805Y8370D01*
X9805Y8360D01*
X9806Y8350D01*
X9810Y8341D01*
X9815Y8332D01*
X9823Y8325D01*
X9831Y8320D01*
X9840Y8316D01*
X9850Y8315D01*
X10043Y8359D02*
X10039Y8368D01*
X10033Y8376D01*
X10026Y8383D01*
X10018Y8389D01*
X10009Y8393D01*
X9999Y8395D01*
X9989Y8395D01*
X9980Y8394D01*
X9970Y8390D01*
X9962Y8385D01*
X9954Y8379D01*
X9948Y8371D01*
X9944Y8362D01*
X9941Y8352D01*
X9940Y8343D01*
X9941Y8333D01*
X9944Y8323D01*
X9843Y8612D02*
X9848Y8604D01*
X9855Y8598D01*
X9863Y8592D01*
X9872Y8588D01*
X9882Y8585D01*
X9891Y8584D01*
X9901Y8585D01*
X9911Y8587D01*
X9920Y8591D01*
X9928Y8596D01*
X9935Y8602D01*
X9941Y8610D01*
X9946Y8619D01*
X9952Y8610D01*
X9959Y8603D01*
X9967Y8597D01*
X9977Y8593D01*
X9987Y8590D01*
X9997Y8590D01*
X10007Y8592D01*
X10017Y8596D01*
X10025Y8602D01*
X10033Y8609D01*
X10039Y8617D01*
X10043Y8627D01*
X8847Y9048D02*
X8839Y9053D01*
X8831Y9057D01*
X8822Y9058D01*
X9288Y8976D02*
X9296Y8984D01*
X9303Y8992D01*
X8699Y9058D02*
X8692Y9066D01*
X8684Y9072D01*
X8675Y9077D01*
X8665Y9080D01*
X8655Y9081D01*
X8644Y9081D01*
X8634Y9078D01*
X8625Y9074D01*
X8616Y9068D01*
X8609Y9061D01*
X8603Y9053D01*
X8847Y9048D02*
X8839Y9053D01*
X8831Y9057D01*
X8822Y9058D01*
X9103Y9053D02*
X9097Y9061D01*
X9090Y9068D01*
X9082Y9073D01*
X9074Y9077D01*
X9064Y9080D01*
X9055Y9081D01*
X9045Y9081D01*
X9036Y9079D01*
X9027Y9075D01*
X9018Y9070D01*
X9011Y9064D01*
X9203Y9053D02*
X9197Y9061D01*
X9190Y9068D01*
X9181Y9074D01*
X9172Y9078D01*
X9163Y9080D01*
X9153Y9081D01*
X9143Y9080D01*
X9133Y9078D01*
X9124Y9074D01*
X9116Y9068D01*
X9109Y9061D01*
X9103Y9053D01*
X9303D02*
X9297Y9061D01*
X9290Y9068D01*
X9281Y9074D01*
X9272Y9078D01*
X9263Y9080D01*
X9253Y9081D01*
X9243Y9080D01*
X9233Y9078D01*
X9224Y9074D01*
X9216Y9068D01*
X9209Y9061D01*
X9203Y9053D01*
X9481Y8743D02*
X9480Y8752D01*
X9477Y8762D01*
X9472Y8770D01*
X9465Y8778D01*
X9458Y8784D01*
X9449Y8788D01*
X9439Y8790D01*
X9430Y8791D01*
X9420Y8789D01*
X9411Y8785D01*
X9403Y8780D01*
X9396Y8773D01*
X9390Y8765D01*
X9387Y8756D01*
X9385Y8746D01*
X9385Y8737D01*
X9387Y8727D01*
X9391Y8718D01*
X9397Y8710D01*
X9303Y8992D02*
X9309Y8984D01*
X9316Y8977D01*
X9324Y8972D01*
X9333Y8968D01*
X9343Y8965D01*
X9353Y8964D01*
X9363Y8965D01*
X9372Y8968D01*
X9381Y8972D01*
X9390Y8977D01*
X9397Y8984D01*
X9403Y8992D01*
Y9053D02*
X9397Y9061D01*
X9390Y9068D01*
X9381Y9074D01*
X9372Y9078D01*
X9363Y9080D01*
X9353Y9081D01*
X9343Y9080D01*
X9333Y9078D01*
X9324Y9074D01*
X9316Y9068D01*
X9309Y9061D01*
X9303Y9053D01*
X9468Y8710D02*
X9473Y8717D01*
X9477Y8725D01*
X9480Y8734D01*
X9481Y8743D01*
X9691Y8643D02*
X9690Y8653D01*
X9688Y8662D01*
X9684Y8671D01*
X9678Y8679D01*
X9671Y8687D01*
X9663Y8692D01*
X9654Y8697D01*
X9645Y8700D01*
X9635Y8701D01*
X9625Y8701D01*
X9615Y8699D01*
X9606Y8695D01*
X9598Y8690D01*
X9590Y8683D01*
X9584Y8675D01*
X9579Y8667D01*
X9576Y8657D01*
X9574Y8648D01*
Y8638D01*
X9576Y8628D01*
X9579Y8619D01*
X9584Y8610D01*
X9590Y8602D01*
X9598Y8596D01*
X9606Y8590D01*
X9615Y8587D01*
X9625Y8585D01*
X9635Y8584D01*
X9645Y8585D01*
X9654Y8588D01*
X9663Y8593D01*
X9671Y8599D01*
X9678Y8606D01*
X9684Y8614D01*
X9688Y8623D01*
X9690Y8633D01*
X9691Y8643D01*
X9843Y8673D02*
X9837Y8681D01*
X9829Y8688D01*
X9821Y8694D01*
X9812Y8698D01*
X9802Y8700D01*
X9792Y8701D01*
X9782Y8700D01*
X9772Y8697D01*
X9763Y8693D01*
X9755Y8687D01*
X9748Y8680D01*
X9742Y8672D01*
X9738Y8662D01*
X9735Y8653D01*
X9734Y8643D01*
X9735Y8633D01*
X9738Y8623D01*
X9742Y8614D01*
X9748Y8605D01*
X9755Y8598D01*
X9763Y8592D01*
X9772Y8588D01*
X9782Y8585D01*
X9792Y8584D01*
X9802Y8585D01*
X9812Y8587D01*
X9821Y8591D01*
X9829Y8597D01*
X9837Y8604D01*
X9843Y8612D01*
X9946Y8667D02*
X9941Y8675D01*
X9935Y8683D01*
X9928Y8689D01*
X9920Y8695D01*
X9911Y8698D01*
X9901Y8701D01*
X9891Y8701D01*
X9882Y8700D01*
X9872Y8697D01*
X9863Y8693D01*
X9855Y8688D01*
X9848Y8681D01*
X9843Y8673D01*
X10043Y8659D02*
X10039Y8668D01*
X10033Y8677D01*
X10025Y8684D01*
X10017Y8689D01*
X10007Y8693D01*
X9997Y8695D01*
X9987Y8695D01*
X9977Y8693D01*
X9967Y8689D01*
X9959Y8683D01*
X9952Y8675D01*
X9946Y8667D01*
X9403Y8992D02*
X9409Y8984D01*
X9416Y8977D01*
X9424Y8971D01*
X9434Y8967D01*
X9443Y8965D01*
X9453Y8964D01*
X9463Y8965D01*
X9473Y8968D01*
X9482Y8972D01*
X9491Y8978D01*
X9498Y8985D01*
X9503Y8994D01*
X9508Y9003D01*
X9510Y9013D01*
X9511Y9023D01*
Y9023D02*
X9510Y9033D01*
X9508Y9042D01*
X9503Y9052D01*
X9498Y9060D01*
X9491Y9067D01*
X9482Y9073D01*
X9473Y9077D01*
X9463Y9080D01*
X9453Y9081D01*
X9443Y9080D01*
X9434Y9078D01*
X9424Y9074D01*
X9416Y9068D01*
X9409Y9061D01*
X9403Y9053D01*
X9752Y9085D02*
X9745Y9077D01*
X9740Y9069D01*
X9737Y9059D01*
X9735Y9050D01*
X9734Y9040D01*
X9736Y9030D01*
X9738Y9021D01*
X9743Y9012D01*
X9749Y9004D01*
X9756Y8997D01*
X9764Y8991D01*
X9773Y8987D01*
X9783Y8985D01*
X9793Y8984D01*
X9803Y8985D01*
X9812Y8988D01*
X9821Y8992D01*
X9830Y8997D01*
X9837Y9004D01*
X9843Y9012D01*
X9848Y9004D01*
X9855Y8998D01*
X9863Y8992D01*
X9872Y8988D01*
X9881Y8985D01*
X9891Y8984D01*
X9900Y8985D01*
X9951Y9043D02*
X9950Y9052D01*
X9948Y9061D01*
X9944Y9070D01*
X9940Y9078D01*
X9933Y9085D01*
X9951Y9035D02*
X9951Y9043D01*
X10013Y6638D02*
X10018Y6645D01*
X10022Y6653D01*
X10023Y6663D01*
X10013Y6638D02*
X10018Y6645D01*
X10022Y6653D01*
X10023Y6663D01*
X10303Y7033D02*
X10297Y7041D01*
X10290Y7048D01*
X10282Y7053D01*
X10273Y7057D01*
X10264Y7060D01*
X10255Y7061D01*
X10245Y7061D01*
X10143Y7163D02*
X10135Y7168D01*
X10127Y7172D01*
X10118Y7173D01*
X10143Y7163D02*
X10135Y7168D01*
X10127Y7172D01*
X10118Y7173D01*
X10403Y7033D02*
X10397Y7041D01*
X10390Y7048D01*
X10381Y7054D01*
X10372Y7058D01*
X10363Y7060D01*
X10353Y7061D01*
X10343Y7060D01*
X10333Y7058D01*
X10324Y7054D01*
X10316Y7048D01*
X10309Y7041D01*
X10303Y7033D01*
X10417Y7049D02*
X10409Y7042D01*
X10403Y7033D01*
X10428Y7108D02*
X10422Y7100D01*
X10418Y7092D01*
X10417Y7083D01*
X10428Y7108D02*
X10422Y7100D01*
X10418Y7092D01*
X10417Y7083D01*
X10594Y6821D02*
X10600Y6828D01*
X10605Y6836D01*
X10608Y6844D01*
X10610Y6853D01*
X10611Y6863D01*
X10846Y6764D02*
X10857Y6765D01*
X10867Y6768D01*
X10877Y6773D01*
X10885Y6779D01*
X10893Y6787D01*
X10789Y6873D02*
X10781Y6867D01*
X10774Y6859D01*
X10768Y6851D01*
X10764Y6842D01*
X10761Y6832D01*
X10761Y6822D01*
X10762Y6812D01*
X10764Y6802D01*
X10769Y6793D01*
X10775Y6785D01*
X10782Y6778D01*
X10790Y6772D01*
X10799Y6768D01*
X10809Y6765D01*
X10819Y6764D01*
X10893Y6858D02*
X10885Y6866D01*
X10876Y6873D01*
X10611Y6863D02*
X10611Y6870D01*
X10778Y6964D02*
X10772Y6957D01*
X10767Y6949D01*
X10763Y6940D01*
X10761Y6930D01*
X10761Y6921D01*
X10762Y6911D01*
X10764Y6902D01*
X10769Y6893D01*
X10774Y6885D01*
X10781Y6878D01*
X10789Y6873D01*
X10833Y7188D02*
X10838Y7195D01*
X10842Y7203D01*
X10843Y7213D01*
X10833Y7188D02*
X10838Y7195D01*
X10842Y7203D01*
X10843Y7213D01*
X10876Y6873D02*
X10885Y6879D01*
X10891Y6886D01*
X10897Y6894D01*
X10901Y6903D01*
X10904Y6913D01*
X10905Y6923D01*
X10904Y6932D01*
X10902Y6941D01*
X10898Y6949D01*
X10893Y6957D01*
X10887Y6964D01*
X10937Y7273D02*
X10938Y7263D01*
X10942Y7255D01*
X10948Y7248D01*
X10937Y7273D02*
X10938Y7263D01*
X10942Y7255D01*
X10948Y7248D01*
X10043Y7492D02*
X10049Y7484D01*
X10056Y7477D01*
X10064Y7471D01*
X10074Y7467D01*
X10083Y7465D01*
X10093Y7464D01*
X10103Y7465D01*
X10113Y7468D01*
X10122Y7472D01*
X10131Y7478D01*
X10138Y7485D01*
X10143Y7494D01*
X10148Y7503D01*
X10150Y7513D01*
X10151Y7523D01*
X10103Y7372D02*
X10109Y7364D01*
X10116Y7357D01*
X10124Y7352D01*
X10133Y7348D01*
X10143Y7345D01*
X10153Y7344D01*
X10163Y7345D01*
X10172Y7348D01*
X10181Y7352D01*
X10190Y7357D01*
X10197Y7364D01*
X10203Y7372D01*
X10209Y7364D01*
X10216Y7357D01*
X10224Y7352D01*
X10233Y7348D01*
X10243Y7345D01*
X10253Y7344D01*
X10263Y7345D01*
X10272Y7348D01*
X10281Y7352D01*
X10290Y7357D01*
X10297Y7364D01*
X10303Y7372D01*
X10203Y7433D02*
X10197Y7441D01*
X10190Y7448D01*
X10181Y7454D01*
X10172Y7458D01*
X10163Y7460D01*
X10153Y7461D01*
X10143Y7460D01*
X10133Y7458D01*
X10124Y7454D01*
X10116Y7448D01*
X10109Y7441D01*
X10103Y7433D01*
X10303D02*
X10297Y7441D01*
X10290Y7448D01*
X10281Y7454D01*
X10272Y7458D01*
X10263Y7460D01*
X10253Y7461D01*
X10243Y7460D01*
X10233Y7458D01*
X10224Y7454D01*
X10216Y7448D01*
X10209Y7441D01*
X10203Y7433D01*
X10278Y7488D02*
X10285Y7482D01*
X10293Y7478D01*
X10303Y7477D01*
X10278Y7488D02*
X10285Y7482D01*
X10293Y7478D01*
X10303Y7477D01*
X10151Y7523D02*
X10150Y7533D01*
X10147Y7544D01*
X10142Y7553D01*
X10136Y7562D01*
X10128Y7569D01*
X10143Y7639D02*
X10139Y7648D01*
X10133Y7656D01*
X10126Y7664D01*
X10117Y7669D01*
X10108Y7673D01*
X10098Y7675D01*
X10088D01*
X10078Y7673D01*
X10068Y7669D01*
X10060Y7664D01*
X10052Y7656D01*
X10047Y7648D01*
X10043Y7639D01*
X10128Y7584D02*
X10134Y7591D01*
X10139Y7598D01*
X10143Y7607D01*
X10190Y7675D02*
X10180Y7673D01*
X10170Y7670D01*
X10161Y7664D01*
X10153Y7657D01*
X10147Y7648D01*
X10143Y7639D01*
X10151Y7815D02*
X10149Y7825D01*
X10145Y7834D01*
X10140Y7843D01*
X10133Y7850D01*
X10125Y7855D01*
X10115Y7859D01*
X10105Y7861D01*
X10095Y7860D01*
X10085Y7857D01*
X10076Y7853D01*
X10069Y7847D01*
X10062Y7839D01*
X10058Y7830D01*
X10055Y7820D01*
X10055Y7810D01*
X10056Y7800D01*
X10060Y7791D01*
X10065Y7782D01*
X10073Y7775D01*
X10081Y7770D01*
X10090Y7766D01*
X10100Y7765D01*
X10143Y7607D02*
X10146Y7598D01*
X10152Y7590D01*
X10159Y7583D01*
X10167Y7577D01*
X10176Y7573D01*
X10185Y7571D01*
X10195Y7570D01*
X10343Y7639D02*
X10339Y7648D01*
X10333Y7656D01*
X10327Y7663D01*
X10319Y7668D01*
X10310Y7672D01*
X10300Y7675D01*
X10290Y7675D01*
X10303Y7372D02*
X10309Y7364D01*
X10316Y7357D01*
X10324Y7352D01*
X10333Y7348D01*
X10343Y7345D01*
X10353Y7344D01*
X10363Y7345D01*
X10372Y7348D01*
X10381Y7352D01*
X10390Y7357D01*
X10397Y7364D01*
X10403Y7372D01*
X10409Y7364D01*
X10416Y7357D01*
X10424Y7352D01*
X10433Y7348D01*
X10443Y7345D01*
X10453Y7344D01*
X10463Y7345D01*
X10472Y7348D01*
X10481Y7352D01*
X10490Y7357D01*
X10497Y7364D01*
X10503Y7372D01*
X10403Y7433D02*
X10397Y7441D01*
X10390Y7448D01*
X10381Y7454D01*
X10372Y7458D01*
X10363Y7460D01*
X10353Y7461D01*
X10343Y7460D01*
X10333Y7458D01*
X10324Y7454D01*
X10316Y7448D01*
X10309Y7441D01*
X10303Y7433D01*
X10503D02*
X10497Y7441D01*
X10490Y7448D01*
X10481Y7454D01*
X10472Y7458D01*
X10463Y7460D01*
X10453Y7461D01*
X10443Y7460D01*
X10433Y7458D01*
X10424Y7454D01*
X10416Y7448D01*
X10409Y7441D01*
X10403Y7433D01*
X10503Y7372D02*
X10509Y7364D01*
X10516Y7357D01*
X10524Y7352D01*
X10533Y7347D01*
X10543Y7345D01*
X10553Y7344D01*
X10563Y7345D01*
X10573Y7348D01*
X10582Y7352D01*
X10590Y7358D01*
X10597Y7365D01*
X10536Y7459D02*
X10526Y7455D01*
X10517Y7449D01*
X10509Y7442D01*
X10503Y7433D01*
X10422Y7666D02*
X10414Y7671D01*
X10404Y7674D01*
X10395Y7675D01*
X10385Y7675D01*
X10376Y7672D01*
X10367Y7668D01*
X10359Y7663D01*
X10352Y7656D01*
X10346Y7648D01*
X10343Y7639D01*
X10452Y7860D02*
X10443Y7858D01*
X10434Y7854D01*
X10426Y7849D01*
X10420Y7842D01*
X10415Y7834D01*
X10411Y7825D01*
X10410Y7816D01*
X10410Y7806D01*
X10412Y7797D01*
X10416Y7788D01*
X10422Y7780D01*
X10843Y7485D02*
X10849Y7478D01*
X10857Y7472D01*
X10866Y7468D01*
X10875Y7465D01*
X10884Y7465D01*
X10894Y7466D01*
X10903Y7469D01*
X10911Y7474D01*
X10918Y7481D01*
X10847Y7545D02*
X10843Y7540D01*
X10918Y7481D02*
X10923Y7471D01*
X10929Y7463D01*
X10937Y7456D01*
X11008D02*
X11014Y7461D01*
X11033Y6787D02*
X11042Y6788D01*
X11050Y6792D01*
X11058Y6798D01*
X11033Y6787D02*
X11042Y6788D01*
X11050Y6792D01*
X11058Y6798D01*
X11471Y7203D02*
X11470Y7213D01*
X11468Y7222D01*
X11463Y7232D01*
X11458Y7240D01*
X11451Y7247D01*
X11443Y7253D01*
X11433Y7257D01*
X11424Y7260D01*
X11414Y7261D01*
X11404Y7260D01*
X11394Y7258D01*
X11385Y7254D01*
X11376Y7249D01*
X11369Y7242D01*
X11363Y7234D01*
X11358Y7225D01*
X11355Y7215D01*
X11354Y7205D01*
X11355Y7195D01*
X11503Y7063D02*
X11510Y7057D01*
X11518Y7053D01*
X11528Y7052D01*
X11503Y7063D02*
X11510Y7057D01*
X11518Y7053D01*
X11528Y7052D01*
X11755Y6718D02*
X11746Y6724D01*
X11737Y6728D01*
X11728Y6732D01*
X11718Y6736D01*
X11708Y6738D01*
X11698Y6740D01*
X11688Y6741D01*
X11678Y6741D01*
X11668Y6740D01*
X11658Y6738D01*
X11648Y6736D01*
X11639Y6733D01*
X11629Y6729D01*
X11620Y6724D01*
X11612Y6719D01*
X11603Y6713D01*
X11596Y6707D01*
X11589Y6700D01*
X11582Y6692D01*
X11576Y6684D01*
X11571Y6675D01*
X11566Y6666D01*
X11562Y6657D01*
X11559Y6647D01*
X11557Y6637D01*
X11555Y6627D01*
X11555Y6617D01*
X11555Y6607D01*
X11556Y6597D01*
X11557Y6587D01*
X11560Y6577D01*
X11563Y6568D01*
X11567Y6558D01*
X11571Y6549D01*
X11577Y6541D01*
X11631Y6923D02*
X11630Y6933D01*
X11629Y6942D01*
X11626Y6952D01*
X11623Y6961D01*
X11618Y6970D01*
X11613Y6979D01*
X11607Y6986D01*
X11600Y6994D01*
X11593Y7000D01*
X11584Y7006D01*
X11576Y7011D01*
X11567Y7015D01*
X11557Y7018D01*
X11547Y7020D01*
X11538Y7021D01*
X11528D01*
X11518Y7020D01*
X11508Y7018D01*
X11499Y7015D01*
X11489Y7011D01*
X11481Y7006D01*
X11473Y7000D01*
X11465Y6994D01*
X11458Y6986D01*
X11452Y6979D01*
X11447Y6970D01*
X11443Y6961D01*
X11439Y6952D01*
X11437Y6942D01*
X11435Y6933D01*
X11435Y6923D01*
X11435Y6913D01*
X11437Y6903D01*
X11439Y6893D01*
X11443Y6884D01*
X11447Y6875D01*
X11452Y6867D01*
X11458Y6859D01*
X11465Y6852D01*
X11473Y6845D01*
X11481Y6839D01*
X11489Y6835D01*
X11499Y6831D01*
X11508Y6828D01*
X11518Y6826D01*
X11528Y6825D01*
X11538D01*
X11547Y6826D01*
X11557Y6828D01*
X11567Y6831D01*
X11576Y6835D01*
X11584Y6839D01*
X11593Y6845D01*
X11600Y6852D01*
X11607Y6859D01*
X11613Y6867D01*
X11618Y6875D01*
X11623Y6884D01*
X11626Y6893D01*
X11629Y6903D01*
X11630Y6913D01*
X11631Y6923D01*
X11405Y7145D02*
X11413Y7144D01*
X11420Y7145D01*
X11471Y7195D02*
X11471Y7203D01*
X11633Y7052D02*
X11642Y7053D01*
X11650Y7057D01*
X11658Y7063D01*
X11633Y7052D02*
X11642Y7053D01*
X11650Y7057D01*
X11658Y7063D01*
X11733Y7138D02*
X11738Y7145D01*
X11742Y7153D01*
X11743Y7163D01*
X11733Y7138D02*
X11738Y7145D01*
X11742Y7153D01*
X11743Y7163D01*
X11671Y7203D02*
X11670Y7213D01*
X11668Y7222D01*
X11664Y7231D01*
X11658Y7239D01*
X11651Y7247D01*
X11643Y7252D01*
X11634Y7257D01*
X11625Y7260D01*
X11615Y7261D01*
X11605Y7261D01*
X11595Y7259D01*
X11586Y7255D01*
X11578Y7250D01*
X11570Y7243D01*
X11564Y7235D01*
X11559Y7227D01*
X11556Y7217D01*
X11554Y7208D01*
Y7198D01*
X11556Y7188D01*
X11559Y7179D01*
X11564Y7170D01*
X11570Y7162D01*
X11578Y7156D01*
X11586Y7150D01*
X11595Y7147D01*
X11605Y7145D01*
X11615Y7144D01*
X11625Y7145D01*
X11634Y7148D01*
X11643Y7153D01*
X11651Y7159D01*
X11658Y7166D01*
X11664Y7174D01*
X11668Y7183D01*
X11670Y7193D01*
X11671Y7203D01*
X11471Y7323D02*
X11470Y7333D01*
X11468Y7342D01*
X11464Y7351D01*
X11458Y7359D01*
X11451Y7367D01*
X11443Y7372D01*
X11434Y7377D01*
X11425Y7380D01*
X11415Y7381D01*
X11405Y7381D01*
X11395Y7379D01*
X11386Y7375D01*
X11378Y7370D01*
X11370Y7363D01*
X11364Y7355D01*
X11359Y7347D01*
X11356Y7337D01*
X11354Y7328D01*
Y7318D01*
X11356Y7308D01*
X11359Y7299D01*
X11364Y7290D01*
X11370Y7282D01*
X11378Y7276D01*
X11386Y7270D01*
X11395Y7267D01*
X11405Y7265D01*
X11415Y7264D01*
X11425Y7265D01*
X11434Y7268D01*
X11443Y7273D01*
X11451Y7279D01*
X11458Y7286D01*
X11464Y7294D01*
X11468Y7303D01*
X11470Y7313D01*
X11471Y7323D01*
X11114Y7561D02*
X11120Y7568D01*
X11125Y7576D01*
X11128Y7584D01*
X11130Y7593D01*
X11131Y7603D01*
X11131Y7711D02*
X11128Y7721D01*
X11124Y7730D01*
X11118Y7739D01*
X11111Y7747D01*
X11103Y7753D01*
X11131Y7603D02*
X11131Y7610D01*
X11103Y7753D02*
X11111Y7759D01*
X11118Y7766D01*
X11124Y7774D01*
X11128Y7783D01*
X11130Y7793D01*
X11131Y7803D01*
X11130Y7813D01*
X11128Y7822D01*
X11124Y7831D01*
X11118Y7840D01*
X11111Y7847D01*
X11103Y7853D01*
X11411Y7603D02*
X11410Y7613D01*
X11408Y7622D01*
X11404Y7631D01*
X11398Y7639D01*
X11391Y7647D01*
X11383Y7652D01*
X11374Y7657D01*
X11365Y7660D01*
X11355Y7661D01*
X11345Y7661D01*
X11335Y7659D01*
X11326Y7655D01*
X11318Y7650D01*
X11310Y7643D01*
X11304Y7635D01*
X11299Y7627D01*
X11296Y7617D01*
X11294Y7608D01*
Y7598D01*
X11296Y7588D01*
X11299Y7579D01*
X11304Y7570D01*
X11310Y7562D01*
X11318Y7556D01*
X11326Y7550D01*
X11335Y7547D01*
X11345Y7545D01*
X11355Y7544D01*
X11365Y7545D01*
X11374Y7548D01*
X11383Y7553D01*
X11391Y7559D01*
X11398Y7566D01*
X11404Y7574D01*
X11408Y7583D01*
X11410Y7593D01*
X11411Y7603D01*
X11671Y7323D02*
X11670Y7333D01*
X11668Y7342D01*
X11664Y7351D01*
X11658Y7359D01*
X11651Y7367D01*
X11643Y7372D01*
X11634Y7377D01*
X11625Y7380D01*
X11615Y7381D01*
X11605Y7381D01*
X11595Y7379D01*
X11586Y7375D01*
X11578Y7370D01*
X11570Y7363D01*
X11564Y7355D01*
X11559Y7347D01*
X11556Y7337D01*
X11554Y7328D01*
Y7318D01*
X11556Y7308D01*
X11559Y7299D01*
X11564Y7290D01*
X11570Y7282D01*
X11578Y7276D01*
X11586Y7270D01*
X11595Y7267D01*
X11605Y7265D01*
X11615Y7264D01*
X11625Y7265D01*
X11634Y7268D01*
X11643Y7273D01*
X11651Y7279D01*
X11658Y7286D01*
X11664Y7294D01*
X11668Y7303D01*
X11670Y7313D01*
X11671Y7323D01*
X11611Y7603D02*
X11610Y7613D01*
X11608Y7622D01*
X11604Y7631D01*
X11598Y7639D01*
X11591Y7647D01*
X11583Y7652D01*
X11574Y7657D01*
X11565Y7660D01*
X11555Y7661D01*
X11545Y7661D01*
X11535Y7659D01*
X11526Y7655D01*
X11518Y7650D01*
X11510Y7643D01*
X11504Y7635D01*
X11499Y7627D01*
X11496Y7617D01*
X11494Y7608D01*
Y7598D01*
X11496Y7588D01*
X11499Y7579D01*
X11504Y7570D01*
X11510Y7562D01*
X11518Y7556D01*
X11526Y7550D01*
X11535Y7547D01*
X11545Y7545D01*
X11555Y7544D01*
X11565Y7545D01*
X11574Y7548D01*
X11583Y7553D01*
X11591Y7559D01*
X11598Y7566D01*
X11604Y7574D01*
X11608Y7583D01*
X11610Y7593D01*
X11611Y7603D01*
X11455Y7827D02*
X11463Y7821D01*
X11473Y7817D01*
X11482Y7815D01*
X11492Y7815D01*
X11502Y7817D01*
X11512Y7821D01*
X11520Y7827D01*
X11526Y7834D01*
X11531Y7843D01*
X11535Y7853D01*
X11536Y7863D01*
X10095Y8395D02*
X10085Y8395D01*
X10076Y8392D01*
X10067Y8388D01*
X10059Y8383D01*
X10052Y8376D01*
X10046Y8368D01*
X10043Y8359D01*
X10180Y7985D02*
X10181Y7976D01*
X10185Y7966D01*
X10190Y7958D01*
X10197Y7951D01*
X10205Y7945D01*
X10214Y7942D01*
X10224Y7940D01*
X10234Y7940D01*
X10243Y7942D01*
X10252Y7946D01*
X10260Y7952D01*
X10267Y7960D01*
X10272Y7968D01*
X10275Y7978D01*
X10276Y7988D01*
X10243Y8359D02*
X10238Y8368D01*
X10232Y8377D01*
X10225Y8384D01*
X10216Y8390D01*
X10206Y8393D01*
X10195Y8395D01*
X10328Y7938D02*
X10335Y7932D01*
X10343Y7928D01*
X10353Y7927D01*
X10328Y7938D02*
X10335Y7932D01*
X10343Y7928D01*
X10353Y7927D01*
X10464D02*
X10457Y7921D01*
X10451Y7914D01*
X10447Y7905D01*
X10444Y7896D01*
X10444Y7887D01*
X10445Y7878D01*
X10448Y7869D01*
X10452Y7860D01*
X10295Y8395D02*
X10285Y8395D01*
X10276Y8392D01*
X10267Y8388D01*
X10259Y8383D01*
X10252Y8376D01*
X10246Y8368D01*
X10243Y8359D01*
X10363Y8448D02*
X10353Y8447D01*
X10345Y8443D01*
X10338Y8438D01*
X10263Y8548D02*
X10253Y8547D01*
X10245Y8543D01*
X10238Y8538D01*
X10263Y8548D02*
X10253Y8547D01*
X10245Y8543D01*
X10238Y8538D01*
X10043Y8627D02*
X10047Y8617D01*
X10052Y8609D01*
X10060Y8602D01*
X10068Y8596D01*
X10078Y8592D01*
X10088Y8590D01*
X10098D01*
X10108Y8592D01*
X10117Y8596D01*
X10126Y8602D01*
X10133Y8609D01*
X10139Y8617D01*
X10143Y8627D01*
X10147Y8617D01*
X10152Y8609D01*
X10160Y8602D01*
X10168Y8596D01*
X10178Y8592D01*
X10188Y8590D01*
X10198D01*
X10208Y8592D01*
X10217Y8596D01*
X10226Y8602D01*
X10233Y8609D01*
X10239Y8617D01*
X10243Y8627D01*
X10363Y8448D02*
X10353Y8447D01*
X10345Y8443D01*
X10338Y8438D01*
X10243Y8627D02*
X10247Y8617D01*
X10252Y8609D01*
X10260Y8602D01*
X10268Y8596D01*
X10278Y8592D01*
X10288Y8590D01*
X10298D01*
X10308Y8592D01*
X10317Y8596D01*
X10326Y8602D01*
X10333Y8609D01*
X10339Y8617D01*
X10343Y8627D01*
X10347Y8617D01*
X10352Y8609D01*
X10360Y8602D01*
X10368Y8596D01*
X10378Y8592D01*
X10388Y8590D01*
X10398D01*
X10408Y8592D01*
X10417Y8596D01*
X10426Y8602D01*
X10433Y8609D01*
X10439Y8617D01*
X10443Y8627D01*
X10447Y8617D01*
X10452Y8609D01*
X10460Y8602D01*
X10468Y8596D01*
X10478Y8592D01*
X10488Y8590D01*
X10498D01*
X10508Y8592D01*
X10517Y8596D01*
X10526Y8602D01*
X10533Y8609D01*
X10539Y8617D01*
X10543Y8627D01*
Y8239D02*
X10539Y8247D01*
X10534Y8255D01*
X10528Y8261D01*
X10643Y8239D02*
X10639Y8248D01*
X10633Y8256D01*
X10626Y8264D01*
X10617Y8269D01*
X10608Y8273D01*
X10598Y8275D01*
X10588D01*
X10578Y8273D01*
X10568Y8269D01*
X10560Y8264D01*
X10552Y8256D01*
X10547Y8248D01*
X10543Y8239D01*
X10528Y8304D02*
X10534Y8311D01*
X10539Y8318D01*
X10543Y8327D01*
X10547Y8317D01*
X10552Y8309D01*
X10560Y8302D01*
X10568Y8296D01*
X10578Y8292D01*
X10588Y8290D01*
X10598D01*
X10608Y8292D01*
X10617Y8296D01*
X10626Y8302D01*
X10633Y8309D01*
X10639Y8317D01*
X10643Y8327D01*
X10745Y8223D02*
X10744Y8232D01*
X10741Y8242D01*
X10737Y8251D01*
X10731Y8259D01*
X10723Y8265D01*
X10715Y8270D01*
X10706Y8274D01*
X10696Y8275D01*
X10686Y8275D01*
X10676Y8273D01*
X10667Y8269D01*
X10659Y8263D01*
X10652Y8256D01*
X10647Y8248D01*
X10643Y8239D01*
X10843Y8108D02*
X10842Y8117D01*
X10838Y8125D01*
X10833Y8133D01*
X10843Y8108D02*
X10842Y8117D01*
X10838Y8125D01*
X10833Y8133D01*
X10643Y8327D02*
X10647Y8317D01*
X10652Y8309D01*
X10660Y8302D01*
X10668Y8296D01*
X10678Y8292D01*
X10688Y8290D01*
X10698D01*
X10708Y8292D01*
X10717Y8296D01*
X10726Y8302D01*
X10733Y8309D01*
X10739Y8317D01*
X10743Y8327D01*
X10747Y8318D01*
X10752Y8309D01*
X10759Y8302D01*
X10767Y8297D01*
X10776Y8293D01*
X10786Y8291D01*
X10796Y8290D01*
X10806Y8292D01*
X10815Y8295D01*
X10823Y8300D01*
X10831Y8307D01*
X10837Y8314D01*
X10841Y8323D01*
X10844Y8333D01*
X10845Y8343D01*
Y8343D02*
X10844Y8352D01*
X10842Y8361D01*
X10838Y8370D01*
X10832Y8377D01*
X10543Y8627D02*
X10547Y8617D01*
X10552Y8609D01*
X10560Y8602D01*
X10568Y8596D01*
X10578Y8592D01*
X10588Y8590D01*
X10598D01*
X10608Y8592D01*
X10617Y8596D01*
X10626Y8602D01*
X10633Y8609D01*
X10639Y8617D01*
X10643Y8627D01*
X10647Y8617D01*
X10652Y8609D01*
X10660Y8602D01*
X10668Y8596D01*
X10678Y8592D01*
X10688Y8590D01*
X10698D01*
X10708Y8592D01*
X10717Y8596D01*
X10726Y8602D01*
X10733Y8609D01*
X10739Y8617D01*
X10743Y8627D01*
X10143Y8659D02*
X10139Y8668D01*
X10133Y8676D01*
X10126Y8684D01*
X10117Y8689D01*
X10108Y8693D01*
X10098Y8695D01*
X10088D01*
X10078Y8693D01*
X10068Y8689D01*
X10060Y8684D01*
X10052Y8676D01*
X10047Y8668D01*
X10043Y8659D01*
X10243D02*
X10239Y8668D01*
X10233Y8676D01*
X10226Y8684D01*
X10217Y8689D01*
X10208Y8693D01*
X10198Y8695D01*
X10188D01*
X10178Y8693D01*
X10168Y8689D01*
X10160Y8684D01*
X10152Y8676D01*
X10147Y8668D01*
X10143Y8659D01*
X10123Y8763D02*
X10130Y8757D01*
X10138Y8753D01*
X10148Y8752D01*
X10123Y8763D02*
X10130Y8757D01*
X10138Y8753D01*
X10148Y8752D01*
X10343Y8659D02*
X10339Y8668D01*
X10333Y8676D01*
X10326Y8684D01*
X10317Y8689D01*
X10308Y8693D01*
X10298Y8695D01*
X10288D01*
X10278Y8693D01*
X10268Y8689D01*
X10260Y8684D01*
X10252Y8676D01*
X10247Y8668D01*
X10243Y8659D01*
X10443D02*
X10439Y8668D01*
X10433Y8676D01*
X10426Y8684D01*
X10417Y8689D01*
X10408Y8693D01*
X10398Y8695D01*
X10388D01*
X10378Y8693D01*
X10368Y8689D01*
X10360Y8684D01*
X10352Y8676D01*
X10347Y8668D01*
X10343Y8659D01*
X10191Y9003D02*
X10190Y9013D01*
X10188Y9022D01*
X10184Y9031D01*
X10178Y9039D01*
X10171Y9047D01*
X10163Y9052D01*
X10154Y9057D01*
X10145Y9060D01*
X10135Y9061D01*
X10125Y9061D01*
X10115Y9059D01*
X10106Y9055D01*
X10098Y9050D01*
X10090Y9043D01*
X10084Y9035D01*
X10079Y9027D01*
X10076Y9017D01*
X10074Y9008D01*
Y8998D01*
X10076Y8988D01*
X10079Y8979D01*
X10084Y8970D01*
X10090Y8962D01*
X10098Y8956D01*
X10106Y8950D01*
X10115Y8947D01*
X10125Y8945D01*
X10135Y8944D01*
X10145Y8945D01*
X10154Y8948D01*
X10163Y8953D01*
X10171Y8959D01*
X10178Y8966D01*
X10184Y8974D01*
X10188Y8983D01*
X10190Y8993D01*
X10191Y9003D01*
X10391D02*
X10390Y9013D01*
X10388Y9022D01*
X10384Y9031D01*
X10378Y9039D01*
X10371Y9047D01*
X10363Y9052D01*
X10354Y9057D01*
X10345Y9060D01*
X10335Y9061D01*
X10325Y9061D01*
X10315Y9059D01*
X10306Y9055D01*
X10298Y9050D01*
X10290Y9043D01*
X10284Y9035D01*
X10279Y9027D01*
X10276Y9017D01*
X10274Y9008D01*
Y8998D01*
X10276Y8988D01*
X10279Y8979D01*
X10284Y8970D01*
X10290Y8962D01*
X10298Y8956D01*
X10306Y8950D01*
X10315Y8947D01*
X10325Y8945D01*
X10335Y8944D01*
X10345Y8945D01*
X10354Y8948D01*
X10363Y8953D01*
X10371Y8959D01*
X10378Y8966D01*
X10384Y8974D01*
X10388Y8983D01*
X10390Y8993D01*
X10391Y9003D01*
X10503Y9033D02*
X10497Y9041D01*
X10490Y9048D01*
X10482Y9053D01*
X10473Y9058D01*
X10463Y9060D01*
X10453Y9061D01*
X10443Y9060D01*
X10434Y9058D01*
X10425Y9054D01*
X10416Y9049D01*
X10409Y9042D01*
X10403Y9034D01*
X10399Y9025D01*
X10396Y9016D01*
X10394Y9006D01*
X10394Y8996D01*
X10396Y8986D01*
X10400Y8977D01*
X10405Y8969D01*
X10411Y8961D01*
X10543Y8659D02*
X10539Y8668D01*
X10533Y8676D01*
X10526Y8684D01*
X10517Y8689D01*
X10508Y8693D01*
X10498Y8695D01*
X10488D01*
X10478Y8693D01*
X10468Y8689D01*
X10460Y8684D01*
X10452Y8676D01*
X10447Y8668D01*
X10443Y8659D01*
X10643D02*
X10639Y8668D01*
X10633Y8676D01*
X10626Y8684D01*
X10617Y8689D01*
X10608Y8693D01*
X10598Y8695D01*
X10588D01*
X10578Y8693D01*
X10568Y8689D01*
X10560Y8684D01*
X10552Y8676D01*
X10547Y8668D01*
X10543Y8659D01*
X10743D02*
X10739Y8668D01*
X10733Y8676D01*
X10726Y8684D01*
X10717Y8689D01*
X10708Y8693D01*
X10698Y8695D01*
X10688D01*
X10678Y8693D01*
X10668Y8689D01*
X10660Y8684D01*
X10652Y8676D01*
X10647Y8668D01*
X10643Y8659D01*
X10603Y9033D02*
X10597Y9041D01*
X10590Y9048D01*
X10581Y9054D01*
X10572Y9058D01*
X10563Y9060D01*
X10553Y9061D01*
X10543Y9060D01*
X10533Y9058D01*
X10524Y9054D01*
X10516Y9048D01*
X10509Y9041D01*
X10503Y9033D01*
X10794Y8961D02*
X10800Y8968D01*
X10805Y8976D01*
X10808Y8984D01*
X10810Y8993D01*
X10811Y9003D01*
X10703Y9033D02*
X10697Y9041D01*
X10690Y9048D01*
X10681Y9054D01*
X10672Y9058D01*
X10663Y9060D01*
X10653Y9061D01*
X10643Y9060D01*
X10633Y9058D01*
X10624Y9054D01*
X10616Y9048D01*
X10609Y9041D01*
X10603Y9033D01*
X10811Y9003D02*
X10810Y9013D01*
X10808Y9022D01*
X10803Y9032D01*
X10798Y9040D01*
X10791Y9047D01*
X10782Y9053D01*
X10773Y9057D01*
X10763Y9060D01*
X10753Y9061D01*
X10743Y9060D01*
X10734Y9058D01*
X10724Y9054D01*
X10716Y9048D01*
X10709Y9041D01*
X10703Y9033D01*
X11103Y7853D02*
X11111Y7859D01*
X11118Y7866D01*
X11124Y7874D01*
X11128Y7883D01*
X11130Y7893D01*
X11131Y7903D01*
X11130Y7913D01*
X11128Y7922D01*
X11124Y7931D01*
X11118Y7940D01*
X11111Y7947D01*
X11103Y7953D01*
X11111Y7959D01*
X11118Y7966D01*
X11124Y7974D01*
X11128Y7983D01*
X11130Y7993D01*
X11131Y8003D01*
Y8103D02*
X11130Y8113D01*
X11128Y8122D01*
X11123Y8132D01*
X11118Y8140D01*
X11111Y8147D01*
X11102Y8153D01*
X11093Y8157D01*
X11083Y8160D01*
X11073Y8161D01*
X11063Y8160D01*
X11054Y8158D01*
X11044Y8154D01*
X11036Y8148D01*
X11029Y8141D01*
X11023Y8133D01*
X11017Y8141D01*
X11010Y8148D01*
X11001Y8154D01*
X10992Y8158D01*
X10982Y8160D01*
X10973Y8161D01*
X10963Y8160D01*
X10953Y8158D01*
X10944Y8154D01*
X10936Y8148D01*
X10928Y8141D01*
X10923Y8133D01*
X10918Y8124D01*
X11131Y8003D02*
X11130Y8013D01*
X11128Y8022D01*
X11124Y8031D01*
X11118Y8040D01*
X11111Y8047D01*
X11103Y8053D01*
X11111Y8059D01*
X11118Y8066D01*
X11124Y8074D01*
X11128Y8083D01*
X11130Y8093D01*
X11131Y8103D01*
X10931Y8263D02*
X10930Y8272D01*
X10927Y8282D01*
X10922Y8290D01*
X10915Y8298D01*
X10908Y8304D01*
X10899Y8308D01*
X10889Y8310D01*
X10880Y8311D01*
X10870Y8309D01*
X10861Y8305D01*
X10853Y8300D01*
X10846Y8293D01*
X10840Y8285D01*
X10837Y8276D01*
X10835Y8266D01*
X10835Y8257D01*
X10837Y8247D01*
X10841Y8238D01*
X10847Y8230D01*
X10918D02*
X10923Y8237D01*
X10927Y8245D01*
X10930Y8254D01*
X10931Y8263D01*
X10901Y8377D02*
X10909Y8371D01*
X10919Y8367D01*
X10928Y8365D01*
X10938Y8365D01*
X10948Y8367D01*
X10958Y8371D01*
X10966Y8377D01*
X10972Y8384D01*
X10977Y8393D01*
X10981Y8403D01*
X10982Y8413D01*
X11085Y8243D02*
X11084Y8253D01*
X11082Y8262D01*
X11078Y8272D01*
X11074Y8281D01*
X11068Y8289D01*
X11061Y8296D01*
X11053Y8302D01*
X11044Y8307D01*
X11035Y8311D01*
X11025Y8314D01*
X11015Y8315D01*
X11005Y8314D01*
X10995Y8313D01*
X10986Y8309D01*
X10977Y8305D01*
X10968Y8299D01*
X10961Y8293D01*
X10954Y8285D01*
X10949Y8276D01*
X10945Y8267D01*
X10942Y8258D01*
X10941Y8248D01*
Y8238D01*
X10942Y8228D01*
X10945Y8218D01*
X10949Y8209D01*
X10954Y8200D01*
X10961Y8193D01*
X10968Y8186D01*
X10977Y8180D01*
X10986Y8176D01*
X10995Y8173D01*
X11005Y8171D01*
X11015Y8171D01*
X11025Y8172D01*
X11035Y8174D01*
X11044Y8178D01*
X11053Y8183D01*
X11061Y8189D01*
X11068Y8196D01*
X11074Y8204D01*
X11078Y8213D01*
X11082Y8223D01*
X11084Y8233D01*
X11085Y8243D01*
X11333Y7898D02*
X11323Y7897D01*
X11315Y7893D01*
X11308Y7888D01*
X11333Y7898D02*
X11323Y7897D01*
X11315Y7893D01*
X11308Y7888D01*
X11536Y7863D02*
X11535Y7872D01*
X11532Y7882D01*
X11527Y7890D01*
X11520Y7898D01*
X11513Y7904D01*
X11504Y7908D01*
X11494Y7910D01*
X11485Y7911D01*
Y8163D02*
X11484Y8173D01*
X11482Y8182D01*
X11478Y8192D01*
X11474Y8201D01*
X11468Y8209D01*
X11461Y8216D01*
X11453Y8222D01*
X11444Y8227D01*
X11435Y8231D01*
X11425Y8234D01*
X11415Y8235D01*
X11405Y8234D01*
X11395Y8233D01*
X11386Y8229D01*
X11377Y8225D01*
X11368Y8219D01*
X11361Y8213D01*
X11354Y8205D01*
X11349Y8196D01*
X11345Y8187D01*
X11342Y8178D01*
X11341Y8168D01*
Y8158D01*
X11342Y8148D01*
X11345Y8138D01*
X11349Y8129D01*
X11354Y8120D01*
X11361Y8113D01*
X11368Y8106D01*
X11377Y8100D01*
X11386Y8096D01*
X11395Y8093D01*
X11405Y8091D01*
X11415Y8091D01*
X11425Y8092D01*
X11435Y8094D01*
X11444Y8098D01*
X11453Y8103D01*
X11461Y8109D01*
X11468Y8116D01*
X11474Y8124D01*
X11478Y8133D01*
X11482Y8143D01*
X11484Y8153D01*
X11485Y8163D01*
X11662Y8403D02*
X11664Y8413D01*
X11665Y8423D01*
X11743Y8308D02*
X11742Y8317D01*
X11738Y8325D01*
X11733Y8333D01*
X11743Y8308D02*
X11742Y8317D01*
X11738Y8325D01*
X11733Y8333D01*
X10825Y8477D02*
X10833Y8471D01*
X10843Y8467D01*
X10852Y8465D01*
X10862Y8465D01*
X10872Y8467D01*
X10882Y8471D01*
X10890Y8477D01*
X10896Y8484D01*
X10901Y8493D01*
X10905Y8503D01*
X10906Y8513D01*
X10743Y8627D02*
X10747Y8618D01*
X10752Y8609D01*
X10759Y8602D01*
X10767Y8597D01*
X10776Y8593D01*
X10786Y8591D01*
X10796Y8590D01*
X10806Y8592D01*
X10815Y8595D01*
X10823Y8600D01*
X10831Y8607D01*
X10837Y8614D01*
X10841Y8623D01*
X10844Y8633D01*
X10845Y8643D01*
X10906Y8513D02*
X10905Y8523D01*
X10901Y8532D01*
X10896Y8541D01*
X10890Y8548D01*
X10882Y8554D01*
X10872Y8558D01*
X10862Y8560D01*
X10852Y8560D01*
X10843Y8558D01*
X10833Y8554D01*
X10825Y8548D01*
X10845Y8643D02*
X10844Y8652D01*
X10841Y8662D01*
X10837Y8671D01*
X10831Y8679D01*
X10823Y8685D01*
X10815Y8690D01*
X10806Y8694D01*
X10796Y8695D01*
X10786Y8695D01*
X10776Y8693D01*
X10767Y8689D01*
X10759Y8683D01*
X10752Y8676D01*
X10747Y8668D01*
X10743Y8659D01*
X10982Y8413D02*
X10981Y8423D01*
X10977Y8432D01*
X10972Y8441D01*
X10966Y8448D01*
X10958Y8454D01*
X10948Y8458D01*
X10938Y8460D01*
X10928Y8460D01*
X10919Y8458D01*
X10909Y8454D01*
X10901Y8448D01*
X11265Y8523D02*
X11264Y8533D01*
X11262Y8542D01*
X11258Y8552D01*
X11254Y8561D01*
X11248Y8569D01*
X11241Y8576D01*
X11233Y8582D01*
X11224Y8587D01*
X11215Y8591D01*
X11205Y8594D01*
X11195Y8595D01*
X11185Y8594D01*
X11175Y8593D01*
X11166Y8589D01*
X11157Y8585D01*
X11148Y8579D01*
X11141Y8573D01*
X11134Y8565D01*
X11129Y8556D01*
X11125Y8547D01*
X11122Y8538D01*
X11121Y8528D01*
Y8518D01*
X11122Y8508D01*
X11125Y8498D01*
X11129Y8489D01*
X11134Y8480D01*
X11141Y8473D01*
X11148Y8466D01*
X11157Y8460D01*
X11166Y8456D01*
X11175Y8453D01*
X11185Y8451D01*
X11195Y8451D01*
X11205Y8452D01*
X11215Y8454D01*
X11224Y8458D01*
X11233Y8463D01*
X11241Y8469D01*
X11248Y8476D01*
X11254Y8484D01*
X11258Y8493D01*
X11262Y8503D01*
X11264Y8513D01*
X11265Y8523D01*
X10954Y9085D02*
X10949Y9076D01*
X10945Y9067D01*
X10942Y9057D01*
X10941Y9047D01*
X10941Y9037D01*
X10942Y9027D01*
X10945Y9018D01*
X10949Y9009D01*
X10955Y9000D01*
X10961Y8992D01*
X10968Y8986D01*
X10977Y8980D01*
X10986Y8976D01*
X10995Y8973D01*
X11005Y8971D01*
X11015Y8971D01*
X11025Y8972D01*
X11035Y8974D01*
X11044Y8978D01*
X11053Y8983D01*
X11061Y8989D01*
X11068Y8996D01*
X11074Y9005D01*
X11078Y9013D01*
X11082Y9023D01*
X11084Y9033D01*
X11085Y9043D01*
Y9043D02*
X11084Y9054D01*
X11081Y9065D01*
X11077Y9075D01*
X11071Y9085D01*
X11025Y8752D02*
X11033Y8746D01*
X11043Y8742D01*
X11052Y8740D01*
X11062Y8740D01*
X11072Y8742D01*
X11082Y8746D01*
X11090Y8752D01*
X11096Y8759D01*
X11101Y8768D01*
X11105Y8778D01*
X11106Y8788D01*
X11105Y8798D01*
X11101Y8807D01*
X11096Y8816D01*
X11090Y8823D01*
X11082Y8829D01*
X11072Y8833D01*
X11062Y8835D01*
X11052Y8835D01*
X11043Y8833D01*
X11033Y8829D01*
X11025Y8823D01*
X11665Y8423D02*
X11664Y8433D01*
X11662Y8442D01*
X11659Y8452D01*
X11654Y8460D01*
X11648Y8469D01*
X11641Y8476D01*
X11633Y8482D01*
X11625Y8487D01*
X11616Y8491D01*
X11606Y8493D01*
X11596Y8495D01*
X11586Y8494D01*
X11576Y8493D01*
X11567Y8490D01*
X11558Y8486D01*
X11549Y8480D01*
X11542Y8474D01*
X11535Y8466D01*
X11530Y8458D01*
X11526Y8449D01*
X11523Y8439D01*
X11521Y8430D01*
X11521Y8420D01*
X11522Y8410D01*
X11524Y8400D01*
X11528Y8391D01*
X11533Y8382D01*
X11539Y8374D01*
X11546Y8368D01*
X11554Y8362D01*
X11563Y8357D01*
X11572Y8354D01*
X11582Y8351D01*
X11592Y8351D01*
X11602Y8351D01*
X11612Y8353D01*
X11665Y8623D02*
X11664Y8633D01*
X11662Y8642D01*
X11658Y8652D01*
X11654Y8661D01*
X11648Y8669D01*
X11641Y8676D01*
X11633Y8682D01*
X11624Y8687D01*
X11615Y8691D01*
X11605Y8694D01*
X11595Y8695D01*
X11585Y8694D01*
X11575Y8693D01*
X11566Y8689D01*
X11557Y8685D01*
X11548Y8679D01*
X11541Y8673D01*
X11534Y8665D01*
X11529Y8656D01*
X11525Y8647D01*
X11522Y8638D01*
X11521Y8628D01*
Y8618D01*
X11522Y8608D01*
X11525Y8598D01*
X11529Y8589D01*
X11534Y8580D01*
X11541Y8573D01*
X11548Y8566D01*
X11557Y8560D01*
X11566Y8556D01*
X11575Y8553D01*
X11585Y8551D01*
X11595Y8551D01*
X11605Y8552D01*
X11615Y8554D01*
X11624Y8558D01*
X11633Y8563D01*
X11641Y8569D01*
X11648Y8576D01*
X11654Y8584D01*
X11658Y8593D01*
X11662Y8603D01*
X11664Y8613D01*
X11665Y8623D01*
X11414Y8981D02*
X11420Y8988D01*
X11425Y8996D01*
X11428Y9004D01*
X11430Y9013D01*
X11431Y9023D01*
X11430Y9033D01*
X11428Y9042D01*
X11424Y9051D01*
X11418Y9060D01*
X11411Y9067D01*
X11403Y9073D01*
X11394Y9077D01*
X11384Y9080D01*
X11375Y9081D01*
X11365Y9081D01*
X11355Y9078D01*
X11346Y9075D01*
X11337Y9069D01*
X11330Y9062D01*
X11324Y9055D01*
X11319Y9046D01*
X11316Y9036D01*
X11314Y9026D01*
X11314Y9017D01*
X11316Y9007D01*
X11320Y8997D01*
X11325Y8989D01*
X11331Y8981D01*
X11577Y9085D02*
X11571Y9076D01*
X11567Y9067D01*
X11563Y9058D01*
X11560Y9048D01*
X11557Y9038D01*
X11556Y9028D01*
X11555Y9018D01*
X11555Y9008D01*
X11555Y8998D01*
X11557Y8988D01*
X11559Y8978D01*
X11562Y8969D01*
X11566Y8959D01*
X11571Y8950D01*
X11576Y8942D01*
X11582Y8933D01*
X11589Y8926D01*
X11596Y8919D01*
X11603Y8912D01*
X11612Y8906D01*
X11620Y8901D01*
X11629Y8896D01*
X11639Y8892D01*
X11648Y8889D01*
X11658Y8887D01*
X11668Y8885D01*
X11678Y8885D01*
X11688Y8885D01*
X11698Y8886D01*
X11708Y8887D01*
X11718Y8890D01*
X11728Y8893D01*
X11737Y8897D01*
X11746Y8901D01*
X11755Y8907D01*
X8093Y6541D02*
Y6547D01*
X7911Y6723D02*
X7917D01*
X8153Y6541D02*
Y6709D01*
X8133Y6541D02*
Y6718D01*
X8173Y6541D02*
Y6705D01*
X8193Y6541D02*
Y6705D01*
X8213Y6541D02*
Y6709D01*
X8293Y6541D02*
Y6702D01*
X8233Y6541D02*
Y6718D01*
X8113Y6541D02*
Y6734D01*
X8093Y6678D02*
Y6764D01*
X8048Y6723D02*
X8126D01*
X8253Y6541D02*
Y6734D01*
X8273Y6541D02*
Y6732D01*
X8239Y6723D02*
X8275D01*
X8393Y6541D02*
Y6602D01*
X8413Y6541D02*
Y6582D01*
X8107Y6583D02*
X8412D01*
X8433Y6541D02*
Y6562D01*
X8100Y6563D02*
X8432D01*
X8453Y6541D02*
Y6552D01*
X8473Y6541D02*
Y6552D01*
X8493Y6541D02*
Y6552D01*
X8107Y6643D02*
X8352D01*
X8110Y6603D02*
X8392D01*
X8074Y6703D02*
X8292D01*
X8100Y6663D02*
X8332D01*
X8090Y6683D02*
X8312D01*
X8313Y6541D02*
Y6682D01*
X8353Y6541D02*
Y6642D01*
X8333Y6541D02*
Y6662D01*
X8373Y6541D02*
Y6622D01*
X8110Y6623D02*
X8372D01*
X8283Y6713D02*
X8433Y6563D01*
X7911Y6763D02*
X8093D01*
X7911Y6743D02*
X8105D01*
X7911Y6783D02*
X8087D01*
X7911Y6803D02*
X8085D01*
X7911Y6823D02*
X8087D01*
X8272Y6738D02*
Y6763D01*
X8260Y6743D02*
X8272D01*
X7911Y6843D02*
X8093D01*
X7911Y6863D02*
X8105D01*
X7911Y6883D02*
X8126D01*
X8113Y6871D02*
Y7134D01*
X8133Y6887D02*
Y7118D01*
X7911Y7163D02*
X8093D01*
X7911Y7123D02*
X8126D01*
X7911Y7143D02*
X8105D01*
X8153Y6896D02*
Y7109D01*
X8233Y6887D02*
Y7118D01*
X8253Y6871D02*
Y7134D01*
X8173Y6900D02*
Y7105D01*
X8193Y6900D02*
Y7105D01*
X8213Y6896D02*
Y7109D01*
X7911Y6903D02*
X8272D01*
X7911Y6923D02*
X8272D01*
X7911Y6943D02*
X8272D01*
X7911Y6963D02*
X8272D01*
X7911Y6983D02*
X8272D01*
X8260Y6863D02*
X8272D01*
X8239Y6883D02*
X8272D01*
X7911Y7003D02*
X8272D01*
X7911Y7023D02*
X8272D01*
X8470D02*
X8474D01*
X7911Y7043D02*
X8272D01*
X7911Y7063D02*
X8272D01*
X7911Y7083D02*
X8272D01*
X7911Y7103D02*
X8272D01*
X8239Y7123D02*
X8272D01*
X8473Y7020D02*
Y7035D01*
X8260Y7143D02*
X8272D01*
X8513Y6541D02*
Y6552D01*
X8533Y6541D02*
Y6552D01*
X8553Y6541D02*
Y6552D01*
X8573Y6541D02*
Y6552D01*
X8593Y6541D02*
Y6552D01*
X8613Y6541D02*
Y6552D01*
X8633Y6541D02*
Y6552D01*
X8653Y6541D02*
Y6552D01*
X8673Y6541D02*
Y6552D01*
X8693Y6541D02*
Y6552D01*
X8713Y6541D02*
Y6552D01*
X8733Y6541D02*
Y6552D01*
X8753Y6541D02*
Y6552D01*
X8773Y6541D02*
Y6552D01*
X8793Y6541D02*
Y6552D01*
X8813Y6541D02*
Y6552D01*
X8833Y6541D02*
Y6552D01*
X8853Y6541D02*
Y6552D01*
X8873Y6541D02*
Y6552D01*
X8893Y6541D02*
Y6552D01*
X8913Y6541D02*
Y6552D01*
X8933Y6541D02*
Y6552D01*
X8913Y6698D02*
Y6704D01*
X8953Y6541D02*
Y6552D01*
X8933Y6698D02*
Y6704D01*
X8973Y6541D02*
Y6552D01*
X8993Y6541D02*
Y6552D01*
X9013Y6541D02*
Y6552D01*
X9033Y6541D02*
Y6552D01*
X9053Y6541D02*
Y6552D01*
X8893Y6703D02*
Y6960D01*
X8793Y6802D02*
X8897Y6698D01*
X8904Y6704D02*
Y6821D01*
Y6704D02*
X9021D01*
X8873Y6723D02*
X8904D01*
X8953Y6698D02*
Y6704D01*
X8973Y6698D02*
Y6704D01*
X8993Y6698D02*
Y6704D01*
X9013Y6698D02*
Y6704D01*
X9021D02*
Y6821D01*
X8813Y6783D02*
X8904D01*
X8793Y6803D02*
X8904D01*
X8793Y6863D02*
X8904D01*
X8793Y6843D02*
X8908D01*
X8793Y6883D02*
X8908D01*
X8853Y6743D02*
Y6944D01*
X8853Y6743D02*
X8904D01*
X8833Y6763D02*
Y6948D01*
X8833Y6763D02*
X8904D01*
X8913Y6821D02*
Y6832D01*
X8793Y6963D02*
X8810D01*
X8793Y6983D02*
X8798D01*
X8793Y7023D02*
X8798D01*
X8793Y7043D02*
X8810D01*
X8813Y6783D02*
Y6960D01*
X8873Y6723D02*
Y6948D01*
X8913Y6893D02*
Y6960D01*
X8895Y6963D02*
X8910D01*
X8917Y6913D02*
Y6956D01*
X8895Y7043D02*
X8910D01*
X8793Y6823D02*
X8920D01*
X8793Y6903D02*
X8919D01*
X8904Y6821D02*
X8921D01*
X9004D02*
X9021D01*
X9013D02*
Y6832D01*
X8793Y6923D02*
X8917D01*
X8793Y6943D02*
X8917D01*
X8988Y6927D02*
Y6956D01*
X8993Y6922D02*
Y6960D01*
X7953Y6737D02*
Y7504D01*
X7973Y6740D02*
Y7504D01*
X7911Y7183D02*
X8087D01*
X7911Y7203D02*
X8085D01*
X7911Y7223D02*
X8087D01*
X8033Y6730D02*
Y7504D01*
X8053Y6720D02*
Y7504D01*
X7993Y6740D02*
Y7504D01*
X8093Y6841D02*
Y7164D01*
X8013Y6737D02*
Y7504D01*
X7911Y6718D02*
Y8907D01*
X7913Y6720D02*
Y8905D01*
X7933Y6730D02*
Y8440D01*
X7911Y7523D02*
X7944D01*
X7911Y7543D02*
X7944D01*
Y7504D02*
X8061D01*
X8073Y6704D02*
Y7512D01*
X7944Y7504D02*
Y7604D01*
X8061Y7504D02*
Y7521D01*
X7911Y7243D02*
X8093D01*
X7911Y7263D02*
X8105D01*
X7911Y7283D02*
X8126D01*
X7911Y7303D02*
X8272D01*
X7911Y7323D02*
X8272D01*
X7911Y7343D02*
X8272D01*
X7911Y7363D02*
X8272D01*
X7911Y7383D02*
X8272D01*
X7911Y7403D02*
X8272D01*
X7911Y7423D02*
X8272D01*
X7911Y7443D02*
X8272D01*
X7911Y7463D02*
X8272D01*
X7911Y7483D02*
X8272D01*
X7911Y7503D02*
X8272D01*
X8093Y7241D02*
Y7505D01*
X8113Y7271D02*
Y7505D01*
X8133Y7287D02*
Y7512D01*
X8153Y7296D02*
Y7532D01*
X8145Y7523D02*
X8206D01*
X7911Y7563D02*
X7944D01*
X7911Y7583D02*
X7944D01*
X7911Y7603D02*
X7944D01*
X7911Y7623D02*
X7944D01*
X7911Y7643D02*
X7944D01*
Y7604D02*
Y7621D01*
Y7604D02*
Y7621D01*
X7911Y7663D02*
X7944D01*
X7911Y7683D02*
X7944D01*
X7911Y7703D02*
X7944D01*
X7911Y7723D02*
X7944D01*
X7911Y7743D02*
X7944D01*
X7911Y7763D02*
X7944D01*
Y7621D02*
Y7704D01*
Y7721D01*
Y7704D02*
Y7721D01*
Y7804D01*
X7911Y7783D02*
X7944D01*
X8145Y7603D02*
X8197D01*
X8138Y7609D02*
Y7616D01*
X8145Y7623D02*
X8197D01*
X8161Y7563D02*
X8185D01*
X8158Y7543D02*
X8189D01*
X8153Y7593D02*
Y7632D01*
X8158Y7583D02*
X8189D01*
X8158Y7643D02*
X8197D01*
X8145Y7703D02*
X8234D01*
X8145Y7723D02*
X8180D01*
X8153Y7693D02*
Y7732D01*
X8161Y7663D02*
X8199D01*
X8158Y7683D02*
X8214D01*
X8158Y7743D02*
X8168D01*
X8158Y7783D02*
X8168D01*
X8272Y6843D02*
Y7163D01*
X8260Y7263D02*
X8272D01*
X8239Y7283D02*
X8272D01*
X8773Y7423D02*
X8798D01*
X8793Y6802D02*
Y7388D01*
Y7363D02*
X8810D01*
X8793Y7383D02*
X8798D01*
X8790Y7403D02*
X8794D01*
X8233Y7287D02*
Y7515D01*
X8253Y7271D02*
Y7519D01*
X8173Y7300D02*
Y7732D01*
X8213Y7296D02*
Y7519D01*
X8193Y7300D02*
Y7536D01*
X8272Y7243D02*
Y7535D01*
X8793Y7394D02*
Y7570D01*
X8768Y7427D02*
Y7570D01*
Y7427D02*
X8783Y7413D01*
X8773Y7423D02*
Y7570D01*
X8813Y7045D02*
Y7360D01*
X8893Y7045D02*
Y7360D01*
X8833Y7058D02*
Y7348D01*
X8853Y7061D02*
Y7344D01*
X8873Y7058D02*
Y7348D01*
X8913Y7045D02*
Y7360D01*
X8993Y7045D02*
Y7360D01*
X8933Y7058D02*
Y7348D01*
X8953Y7061D02*
Y7344D01*
X8973Y7058D02*
Y7348D01*
X8895Y7363D02*
X8910D01*
X8768Y7443D02*
X8810D01*
X8895D02*
X8910D01*
X9013Y6893D02*
Y7452D01*
X9053Y6698D02*
Y7412D01*
X9033Y6698D02*
Y7432D01*
X9008Y7423D02*
X9042D01*
X8768Y7463D02*
X8817D01*
X8197Y7595D02*
Y7651D01*
X8259Y7523D02*
X8272D01*
X8813Y7445D02*
Y7552D01*
X8817Y7449D02*
Y7548D01*
X8768Y7570D02*
X8795D01*
X8768Y7483D02*
X8817D01*
X8768Y7563D02*
X8802D01*
X8193Y7589D02*
Y7712D01*
X8213Y7681D02*
Y7705D01*
X8233Y7701D02*
Y7705D01*
X8208Y7676D02*
X8238Y7706D01*
X8279Y7747D02*
X8297Y7765D01*
X8281Y7763D02*
X8294D01*
X8297Y7765D02*
Y7973D01*
X8293Y7761D02*
Y7977D01*
X8888Y7483D02*
X8982D01*
X8888Y7463D02*
X9002D01*
X8768Y7503D02*
X8817D01*
X8888D02*
X8962D01*
X8768Y7523D02*
X8817D01*
X8993Y7445D02*
Y7472D01*
X8995Y7443D02*
X9022D01*
X8888Y7523D02*
X8942D01*
X8973Y7458D02*
Y7492D01*
X8953Y7461D02*
Y7512D01*
X8768Y7543D02*
X8817D01*
X8888Y7449D02*
Y7563D01*
X8795Y7570D02*
X8817Y7548D01*
X8888Y7543D02*
X8922D01*
X8888Y7563D02*
X8902D01*
X8893Y7445D02*
Y7570D01*
X8933Y7458D02*
Y7532D01*
X8913Y7445D02*
Y7552D01*
X9073Y6541D02*
Y6552D01*
X9093Y6541D02*
Y6552D01*
X9113Y6541D02*
Y6552D01*
X9133Y6541D02*
Y6552D01*
X9153Y6541D02*
Y6552D01*
X9173Y6541D02*
Y6552D01*
X9193Y6541D02*
Y6552D01*
X9213Y6541D02*
Y6552D01*
X9233Y6541D02*
Y6552D01*
X9253Y6541D02*
Y6552D01*
X9153Y6698D02*
Y6714D01*
X9173Y6698D02*
Y6714D01*
X9144D02*
Y6814D01*
X9193Y6698D02*
Y6714D01*
X9144D02*
X9261D01*
X9213Y6698D02*
Y6714D01*
X9273Y6541D02*
Y6552D01*
X9233Y6698D02*
Y6714D01*
X9253Y6698D02*
Y6714D01*
X9261D02*
Y6731D01*
X8088Y6541D02*
X11577D01*
X8090Y6543D02*
X11575D01*
X9293Y6541D02*
Y6552D01*
X9313Y6541D02*
Y6552D01*
X8458D02*
X9913D01*
X9333Y6541D02*
Y6552D01*
X9353Y6541D02*
Y6552D01*
X9373Y6541D02*
Y6552D01*
X9393Y6541D02*
Y6552D01*
X9413Y6541D02*
Y6552D01*
X9273Y6698D02*
Y6722D01*
X8897Y6698D02*
X9718D01*
X9293D02*
Y6715D01*
X8893Y6703D02*
X9722D01*
X9313Y6698D02*
Y6715D01*
X9333Y6698D02*
Y6722D01*
X9353Y6698D02*
Y6742D01*
X9373Y6698D02*
Y6892D01*
X9393Y6698D02*
Y6912D01*
X9413Y6698D02*
Y6932D01*
X9021Y6723D02*
X9144D01*
X9021Y6743D02*
X9144D01*
X9021Y6763D02*
X9144D01*
X9005Y6823D02*
X9144D01*
X9018Y6843D02*
X9144D01*
X9021Y6783D02*
X9144D01*
X9021Y6803D02*
X9144D01*
Y6814D02*
Y6831D01*
Y6814D02*
Y6831D01*
X9005Y6903D02*
X9144D01*
X8992Y6923D02*
X9144D01*
X8988Y6943D02*
X9144D01*
X8995Y6963D02*
X9144D01*
X9008Y6983D02*
X9144D01*
Y6831D02*
Y6914D01*
X9021Y6863D02*
X9144D01*
X9018Y6883D02*
X9144D01*
Y6914D02*
Y6931D01*
Y6914D02*
Y6931D01*
X9011Y7003D02*
X9144D01*
X9261Y6723D02*
X9272D01*
X9333D02*
X9492D01*
X9333Y6823D02*
X9425D01*
X9360Y6763D02*
X9465D01*
X9353Y6743D02*
X9472D01*
X9360Y6783D02*
X9462D01*
X9353Y6803D02*
X9442D01*
X9353Y6803D02*
Y6842D01*
X9353Y6843D02*
X9422D01*
X9360Y6863D02*
X9422D01*
X9361Y6880D02*
X9422Y6942D01*
X9363Y6883D02*
X9422D01*
X9383Y6903D02*
X9422D01*
X9403Y6923D02*
X9422D01*
X9433Y6541D02*
Y6552D01*
X9453Y6541D02*
Y6552D01*
X9473Y6541D02*
Y6552D01*
X9493Y6541D02*
Y6552D01*
X9513Y6541D02*
Y6552D01*
X9533Y6541D02*
Y6552D01*
X9553Y6541D02*
Y6552D01*
X9573Y6541D02*
Y6552D01*
X9593Y6541D02*
Y6552D01*
X9613Y6541D02*
Y6552D01*
X9433Y6698D02*
Y6812D01*
X9453Y6698D02*
Y6792D01*
X9473Y6698D02*
Y6742D01*
X9513Y6698D02*
Y6715D01*
X9493Y6698D02*
Y6722D01*
X9633Y6541D02*
Y6552D01*
X9653Y6541D02*
Y6552D01*
X9673Y6541D02*
Y6552D01*
X9693Y6541D02*
Y6552D01*
X9713Y6541D02*
Y6552D01*
X9733Y6541D02*
Y6552D01*
X9753Y6541D02*
Y6552D01*
X9773Y6541D02*
Y6552D01*
X9793Y6541D02*
Y6552D01*
X9813Y6541D02*
Y6552D01*
X9833Y6541D02*
Y6552D01*
X9853Y6541D02*
Y6552D01*
X9873Y6541D02*
Y6552D01*
X9893Y6541D02*
Y6552D01*
X9913Y6541D02*
Y6552D01*
X9933Y6541D02*
Y6558D01*
X9938Y6563D02*
X11565D01*
X9938Y6563D02*
X10013Y6638D01*
X9953Y6541D02*
Y6577D01*
X9973Y6541D02*
Y6597D01*
X9993Y6541D02*
Y6617D01*
X9978Y6603D02*
X11555D01*
X9958Y6583D02*
X11558D01*
X9998Y6623D02*
X11555D01*
X9533Y6698D02*
Y6715D01*
X9553Y6698D02*
Y6722D01*
X9433Y6813D02*
X9465Y6780D01*
X9573Y6698D02*
Y6742D01*
Y6803D02*
Y6842D01*
X9422Y6838D02*
Y6942D01*
X9573Y6903D02*
Y6942D01*
X9583Y6977D02*
X9683D01*
X9593Y6698D02*
Y6977D01*
X9613Y6698D02*
Y6977D01*
X9633Y6698D02*
Y6977D01*
X9653Y6698D02*
Y6977D01*
X9673Y6698D02*
Y6977D01*
X9693Y6698D02*
Y6979D01*
X9553Y6723D02*
X9742D01*
X9573Y6743D02*
X9762D01*
X9573Y6803D02*
X9772D01*
X9553Y6823D02*
X9772D01*
X9573Y6843D02*
X9772D01*
X9718Y6698D02*
X9772Y6752D01*
X9580Y6763D02*
X9772D01*
X9580Y6783D02*
X9772D01*
X9580Y6863D02*
X9772D01*
X9580Y6883D02*
X9772D01*
X9573Y6903D02*
X9772D01*
X9553Y6923D02*
X9772D01*
X9573Y6943D02*
X9772D01*
X9580Y6963D02*
X9772D01*
X9713Y6698D02*
Y6992D01*
X9733Y6713D02*
Y7012D01*
X9708Y6988D02*
X9733Y7013D01*
X9702Y6983D02*
X9772D01*
X9723Y7003D02*
X9772D01*
X9008Y7023D02*
X9144D01*
X8995Y7043D02*
X9144D01*
X8793Y7063D02*
X9144D01*
X8793Y7083D02*
X9144D01*
X8793Y7103D02*
X9144D01*
Y6931D02*
Y7014D01*
Y7031D01*
Y7014D02*
Y7031D01*
X9073Y6698D02*
Y7392D01*
X9093Y6698D02*
Y7372D01*
X9113Y6698D02*
Y7352D01*
X8793Y7123D02*
X9144D01*
X9133Y6698D02*
Y7321D01*
X9144Y7031D02*
Y7131D01*
X9153D02*
Y7297D01*
X9173Y7131D02*
Y7290D01*
X9193Y7131D02*
Y7292D01*
X9213Y7131D02*
Y7305D01*
X9261Y7114D02*
Y7131D01*
X9740Y7023D02*
X9772D01*
X9261Y7123D02*
X9272D01*
X9743Y7043D02*
X9772D01*
X9743Y7063D02*
X9772D01*
X9743Y7083D02*
X9778D01*
X9743Y7103D02*
X9797D01*
X9743Y7123D02*
X9817D01*
X9144Y7131D02*
X9261D01*
X9233D02*
Y7332D01*
X8793Y7143D02*
X9328D01*
X9253Y7131D02*
Y7312D01*
X9273Y7123D02*
Y7292D01*
X9743Y7038D02*
Y7180D01*
X9753Y6733D02*
Y7196D01*
X9293Y7130D02*
Y7272D01*
X9328Y7125D02*
Y7237D01*
X9313Y7130D02*
Y7252D01*
X8793Y7163D02*
X9328D01*
X8793Y7183D02*
X9328D01*
X8793Y7243D02*
X9322D01*
X8793Y7203D02*
X9328D01*
X8793Y7223D02*
X9328D01*
X8793Y7263D02*
X9302D01*
X9668Y7240D02*
Y7268D01*
X8793Y7303D02*
X9145D01*
X8793Y7283D02*
X9282D01*
X9210Y7303D02*
X9262D01*
X8895Y7570D02*
X9130Y7335D01*
X8793Y7323D02*
X9132D01*
X9008Y7383D02*
X9082D01*
X8793Y7343D02*
X9122D01*
X8995Y7363D02*
X9102D01*
X9226Y7339D02*
X9328Y7237D01*
X9668Y7268D02*
Y7328D01*
X9673Y7245D02*
Y7332D01*
X9011Y7403D02*
X9062D01*
X9223Y7323D02*
X9242D01*
X9668Y7263D02*
X10582D01*
X9668Y7283D02*
X10597D01*
X9668Y7303D02*
X10597D01*
X9668Y7323D02*
X10597D01*
X9743Y7143D02*
X9837D01*
X9743Y7163D02*
X9857D01*
X9745Y7183D02*
X10502D01*
X9745Y7243D02*
X10562D01*
X9693Y7258D02*
Y7344D01*
X9713Y7260D02*
Y7348D01*
X9668Y7328D02*
X9685Y7345D01*
X9683Y7343D02*
X10597D01*
X9733Y7254D02*
Y7360D01*
X9735Y7363D02*
X9850D01*
X9748Y7383D02*
X9838D01*
X9751Y7403D02*
X9834D01*
X9751Y7410D02*
X9818Y7478D01*
X9772Y6752D02*
Y7063D01*
X9783Y7088D02*
X9858Y7163D01*
X9853Y7158D02*
Y7360D01*
X9873Y7172D02*
Y7348D01*
X9773Y7069D02*
Y7432D01*
X9793Y7098D02*
Y7452D01*
X9753Y7229D02*
Y7412D01*
X9763Y7423D02*
X9838D01*
X9783Y7443D02*
X9850D01*
X9813Y7118D02*
Y7472D01*
X9833Y7138D02*
Y7589D01*
X9853Y7445D02*
Y7464D01*
X9873Y7458D02*
Y7464D01*
X9893Y7173D02*
Y7344D01*
X9883Y7173D02*
X10118D01*
X9755Y7203D02*
X10522D01*
X9755Y7223D02*
X10542D01*
X9913Y7173D02*
Y7348D01*
X9933Y7173D02*
Y7360D01*
X9948Y7383D02*
X9998D01*
X10013Y7173D02*
Y7360D01*
X9935Y7363D02*
X10010D01*
X9951Y7403D02*
X9994D01*
X9933Y7445D02*
Y7464D01*
X9948Y7423D02*
X9998D01*
X9935Y7443D02*
X10010D01*
X9953Y7173D02*
Y7480D01*
X9993Y7173D02*
Y7464D01*
X9973Y7173D02*
Y7468D01*
X10013Y7445D02*
Y7468D01*
X9822Y7483D02*
X9834D01*
X9828Y7503D02*
X9834D01*
X9828Y7523D02*
X9834D01*
X9828Y7503D02*
Y7584D01*
X9834Y7464D02*
Y7581D01*
X9828Y7543D02*
X9834D01*
X9828Y7563D02*
X9834D01*
Y7581D02*
X9860D01*
X9828Y7583D02*
X9859D01*
X9828Y7661D02*
Y8023D01*
Y7663D02*
X9859D01*
X9853Y7581D02*
Y7589D01*
X9833Y7657D02*
Y8189D01*
X9873Y7671D02*
Y8174D01*
X9853Y7657D02*
Y8189D01*
X9913Y7458D02*
Y7464D01*
X9803Y7463D02*
X10532D01*
X9834Y7464D02*
X9951D01*
X9828Y7683D02*
X10182D01*
X9951Y7464D02*
Y7481D01*
X9927Y7663D02*
X9959D01*
X9893Y7675D02*
Y8170D01*
X9828Y7703D02*
X10162D01*
X9828Y7763D02*
X10102D01*
X9828Y7723D02*
X10142D01*
X9828Y7743D02*
X10122D01*
X9913Y7671D02*
Y8174D01*
X9933Y7657D02*
Y8189D01*
X9953Y7657D02*
Y8189D01*
X9973Y7671D02*
Y8174D01*
X10013Y7671D02*
Y8152D01*
X9993Y7675D02*
Y8170D01*
X7911Y7803D02*
X7944D01*
X7911Y7823D02*
X7944D01*
X7911Y7843D02*
X7944D01*
X7911Y7863D02*
X7944D01*
X7911Y7883D02*
X7944D01*
Y7804D02*
Y7821D01*
Y7804D02*
Y7821D01*
Y7904D01*
X7911Y7903D02*
X7944D01*
Y7904D02*
Y7921D01*
X7911Y7923D02*
X7944D01*
X7911Y7943D02*
X7944D01*
X7911Y7963D02*
X7944D01*
X7911Y7983D02*
X7944D01*
X7911Y8003D02*
X7944D01*
Y7904D02*
Y7921D01*
Y8021D01*
X7953D02*
Y8428D01*
X7973Y8021D02*
Y8424D01*
X7993Y8021D02*
Y8428D01*
X8061Y8004D02*
Y8021D01*
X7944D02*
X8061D01*
X8145Y7803D02*
X8180D01*
X8145Y7823D02*
X8180D01*
X7911Y8023D02*
X8247D01*
X8013Y8021D02*
Y8133D01*
X8053Y8021D02*
Y8093D01*
X8033Y8021D02*
Y8113D01*
X8073Y8013D02*
Y8073D01*
X8133Y8013D02*
Y8027D01*
X8093Y8020D02*
Y8053D01*
X8113Y8020D02*
Y8034D01*
X7911Y8163D02*
X7998D01*
X7911Y8183D02*
X7998D01*
X7911Y8203D02*
X7998D01*
X7911Y8223D02*
X7998D01*
X7911Y8243D02*
X7998D01*
X7911Y8263D02*
X7998D01*
X7911Y8283D02*
X7998D01*
X7911Y8303D02*
X7998D01*
X7911Y8323D02*
X7998D01*
X7911Y8343D02*
X7998D01*
X7911Y8363D02*
X7998D01*
X7911Y8383D02*
X7998D01*
X7911Y8483D02*
X7914D01*
X7911Y8443D02*
X7930D01*
X7911Y8463D02*
X7918D01*
X7998Y8163D02*
Y8430D01*
X7911Y8503D02*
X7918D01*
X7911Y8523D02*
X7930D01*
X7911Y8063D02*
X8083D01*
X7911Y8043D02*
X8103D01*
X7911Y8123D02*
X8023D01*
X7911Y8083D02*
X8063D01*
X7911Y8103D02*
X8043D01*
X8009Y8138D02*
X8109Y8038D01*
X8134Y8027D02*
X8243D01*
X7911Y8143D02*
X8004D01*
X7911Y8403D02*
X7998D01*
X7911Y8423D02*
X7998D01*
X7911Y8543D02*
X7998D01*
X7911Y8563D02*
X7998D01*
X7911Y8583D02*
X7998D01*
X8107Y8495D02*
X8185D01*
X8107Y8503D02*
X8495D01*
X8107Y8543D02*
X8480D01*
X8107Y8523D02*
X8482D01*
X8107Y8563D02*
X8487D01*
X8153Y7793D02*
Y7832D01*
X8158Y7843D02*
X8168D01*
X8153Y7893D02*
Y7932D01*
X8145Y7903D02*
X8180D01*
X8145Y7923D02*
X8180D01*
X8173Y7793D02*
Y7832D01*
X8273Y7793D02*
Y7832D01*
X8158Y7883D02*
X8168D01*
X8173Y7893D02*
Y7932D01*
X8158Y7943D02*
X8168D01*
X8158Y7983D02*
X8168D01*
X8153Y7993D02*
Y8027D01*
X8145Y8003D02*
X8180D01*
X8173Y7993D02*
Y8027D01*
X8193Y8013D02*
Y8027D01*
X8273Y7893D02*
Y7932D01*
X8213Y8020D02*
Y8027D01*
X8253Y8013D02*
Y8017D01*
X8233Y8020D02*
Y8027D01*
X8265Y7803D02*
X8297D01*
X8265Y7823D02*
X8297D01*
X8265Y7903D02*
X8297D01*
X8278Y7783D02*
X8297D01*
X8278Y7843D02*
X8297D01*
X8281Y7863D02*
X8297D01*
X8278Y7883D02*
X8297D01*
X8265Y7923D02*
X8297D01*
X8273Y7993D02*
Y7997D01*
X8278Y7943D02*
X8297D01*
X8243Y8027D02*
X8297Y7973D01*
X8278Y7983D02*
X8287D01*
X8281Y7963D02*
X8297D01*
X8491Y8215D02*
X8532Y8173D01*
X8533D02*
Y8372D01*
X8532Y8173D02*
X8601D01*
X8553D02*
Y8352D01*
X8468Y8369D02*
Y8404D01*
Y8403D02*
X8499D01*
X8513Y8193D02*
Y8383D01*
X8473Y8265D02*
Y8280D01*
Y8365D02*
Y8409D01*
X8493Y8213D02*
Y8409D01*
X8185Y8465D02*
Y8495D01*
Y8483D02*
X8199D01*
X8267D02*
X8299D01*
X8367D02*
X8399D01*
X8467D02*
X8499D01*
X8493Y8477D02*
Y8505D01*
X8491Y8223D02*
X8574D01*
X8503Y8203D02*
X8578D01*
X8488Y8243D02*
X8578D01*
X8475Y8263D02*
X8590D01*
X8475Y8283D02*
X8590D01*
X8593Y8173D02*
Y8180D01*
X8523Y8183D02*
X8590D01*
X8593Y8265D02*
Y8280D01*
X8488Y8343D02*
X8562D01*
X8488Y8303D02*
X8578D01*
X8468Y8383D02*
X8514D01*
X8475Y8363D02*
X8542D01*
X8573Y8173D02*
Y8332D01*
X8491Y8323D02*
X8574D01*
X8528Y8378D02*
X8575Y8330D01*
X7911Y8603D02*
X7998D01*
X7911Y8623D02*
X7998D01*
X7911Y8683D02*
X7914D01*
X7911Y8643D02*
X7930D01*
X7911Y8663D02*
X7918D01*
X7933Y8525D02*
Y8640D01*
X7998Y8535D02*
Y8630D01*
X7953Y8538D02*
Y8628D01*
X7973Y8541D02*
Y8624D01*
X7993Y8538D02*
Y8628D01*
X7911Y8703D02*
X7918D01*
X7911Y8723D02*
X7930D01*
X7911Y8743D02*
X7998D01*
X7911Y8763D02*
X8000D01*
X7933Y8725D02*
Y8895D01*
X7998Y8735D02*
Y8751D01*
X7953Y8738D02*
Y8888D01*
X7973Y8741D02*
Y8885D01*
X7993Y8738D02*
Y8885D01*
X8107Y8583D02*
X8511D01*
X8107Y8603D02*
X8542D01*
X8107Y8623D02*
X8562D01*
X8107Y8643D02*
X8582D01*
X8107Y8663D02*
X8602D01*
X8107Y8495D02*
Y8667D01*
X8113Y8495D02*
Y8672D01*
X8133Y8495D02*
Y8690D01*
X8123Y8683D02*
X8622D01*
X8107Y8667D02*
X8130Y8690D01*
X7911Y8783D02*
X8015D01*
X8009Y8776D02*
X8085Y8852D01*
X8153Y8495D02*
Y8694D01*
X8173Y8495D02*
Y8709D01*
Y8777D02*
Y8823D01*
X8167Y8703D02*
X8199D01*
X7911Y8803D02*
X8035D01*
X7911Y8823D02*
X8055D01*
X7911Y8843D02*
X8075D01*
X7911Y8863D02*
X8086D01*
X7911Y8883D02*
X8098D01*
X8013Y8780D02*
Y8888D01*
X8128Y8795D02*
X8135Y8802D01*
X7911Y8903D02*
X7917D01*
X8133Y8795D02*
Y8799D01*
X8033Y8800D02*
Y8895D01*
X8053Y8820D02*
Y8905D01*
X8073Y8840D02*
Y8922D01*
X8093Y8876D02*
Y8947D01*
X8094Y9076D02*
Y9081D01*
X8113Y8893D02*
Y8964D01*
X8133Y8898D02*
Y8964D01*
X8093Y9078D02*
Y9085D01*
X8113Y9081D02*
Y9085D01*
X8133Y9081D02*
Y9085D01*
X8153Y8791D02*
Y8806D01*
X8142Y8803D02*
X8297D01*
X8048Y8903D02*
X8297D01*
X8167Y8783D02*
X8199D01*
X8172Y8823D02*
X8297D01*
X8180Y8843D02*
X8297D01*
X8179Y8863D02*
X8297D01*
X8167Y8883D02*
X8297D01*
X8090Y8943D02*
X8285D01*
X8074Y8923D02*
X8287D01*
X8101Y8964D02*
X8211D01*
X8100Y8963D02*
X8291D01*
X8094Y9081D02*
X8211D01*
X8153Y8893D02*
Y8964D01*
X8173Y8876D02*
Y8964D01*
X8153Y9081D02*
Y9085D01*
X8173Y9081D02*
Y9085D01*
X8193Y8477D02*
Y8709D01*
X8213Y8491D02*
Y8694D01*
X8233Y8495D02*
Y8690D01*
X8253Y8491D02*
Y8694D01*
X8267Y8703D02*
X8299D01*
X8273Y8477D02*
Y8709D01*
X8293Y8477D02*
Y8709D01*
X8313Y8491D02*
Y8694D01*
X8333Y8495D02*
Y8690D01*
X8353Y8491D02*
Y8694D01*
X8193Y8777D02*
Y8964D01*
X8267Y8783D02*
X8297D01*
X8373Y8477D02*
Y8709D01*
X8273Y8777D02*
Y8968D01*
X8297Y8781D02*
Y8906D01*
X8293Y8777D02*
Y8912D01*
X8413Y8491D02*
Y8694D01*
X8453Y8491D02*
Y8694D01*
X8367Y8703D02*
X8399D01*
X8433Y8495D02*
Y8690D01*
X8513Y8583D02*
Y8694D01*
X8525Y8586D02*
X8630Y8690D01*
X8533Y8593D02*
Y8690D01*
X8553Y8613D02*
Y8694D01*
X8613Y8673D02*
Y8694D01*
X8393Y8477D02*
Y8709D01*
X8473Y8477D02*
Y8709D01*
X8467Y8703D02*
X8499D01*
X8493Y8570D02*
Y8709D01*
X8573Y8633D02*
Y8709D01*
X8593Y8653D02*
Y8709D01*
X8567Y8703D02*
X8599D01*
X8213Y8791D02*
Y8980D01*
X8253Y8791D02*
Y8964D01*
X8211D02*
Y8981D01*
X8233Y8795D02*
Y8968D01*
X8293Y8965D02*
Y8980D01*
X8295Y8983D02*
X8310D01*
X8295Y9063D02*
X8310D01*
X8211Y9064D02*
Y9081D01*
X8193D02*
Y9085D01*
X8213Y9065D02*
Y9085D01*
X8233Y9078D02*
Y9085D01*
X8273Y9078D02*
Y9085D01*
X8293Y9065D02*
Y9085D01*
X8313Y9065D02*
Y9085D01*
X8253Y9081D02*
Y9085D01*
X8333Y9078D02*
Y9085D01*
X8353Y9081D02*
Y9085D01*
X8373Y9078D02*
Y9085D01*
X8395Y9063D02*
X8410D01*
X8393Y9065D02*
Y9085D01*
X8495Y9063D02*
X8510D01*
X8413Y9065D02*
Y9085D01*
X8595Y9063D02*
X8610D01*
X8433Y9078D02*
Y9085D01*
X8493Y9065D02*
Y9085D01*
X8513Y9065D02*
Y9085D01*
X8453Y9081D02*
Y9085D01*
X8473Y9078D02*
Y9085D01*
X8533Y9078D02*
Y9085D01*
X8573Y9078D02*
Y9085D01*
X8593Y9065D02*
Y9085D01*
X8613Y9065D02*
Y9085D01*
X8553Y9081D02*
Y9085D01*
X8633Y9078D02*
Y9085D01*
X8653Y9081D02*
Y9085D01*
X9227Y8263D02*
X9259D01*
X9213Y8271D02*
Y8292D01*
X9203Y8283D02*
X9397D01*
X9223Y8303D02*
X9397D01*
X9327Y8263D02*
X9359D01*
X9233Y8257D02*
Y8312D01*
X9253Y8257D02*
Y8332D01*
X9195Y8275D02*
X9278Y8358D01*
X9243Y8323D02*
X9397D01*
X9263Y8343D02*
X9397D01*
X9273Y8271D02*
Y8352D01*
X9282Y8363D02*
X9397D01*
X9288Y8383D02*
X9397D01*
X9527Y8263D02*
X9559D01*
X9468Y8297D02*
X9490Y8275D01*
X9483Y8283D02*
X9597D01*
X9468Y8303D02*
X9597D01*
X9595Y8275D02*
X9597Y8277D01*
X9668Y8283D02*
X9882D01*
X9668Y8303D02*
X9862D01*
X9593Y8275D02*
Y8400D01*
X9468Y8323D02*
X9597D01*
X9468Y8343D02*
X9597D01*
X9468Y8363D02*
X9597D01*
X9468Y8383D02*
X9597D01*
Y8277D02*
Y8396D01*
X9668Y8269D02*
Y8396D01*
X9673Y8271D02*
Y8400D01*
X9668Y8363D02*
X9805D01*
X9668Y8323D02*
X9826D01*
X9668Y8343D02*
X9809D01*
X9288Y8403D02*
X9397D01*
X9288Y8423D02*
X9397D01*
X9288Y8443D02*
X9397D01*
X9288Y8463D02*
X9397D01*
X9288Y8483D02*
X9397D01*
X9468Y8443D02*
X9574D01*
X9468Y8423D02*
X9578D01*
X9288Y8503D02*
X9397D01*
X9468Y8463D02*
X9578D01*
X9288Y8523D02*
X9397D01*
X9288Y8543D02*
X9397D01*
X9288Y8563D02*
X9397D01*
X9288Y8583D02*
X9397D01*
X9288Y8603D02*
X9397D01*
X9288Y8623D02*
X9397D01*
X9288Y8643D02*
X9397D01*
X9468Y8623D02*
X9578D01*
X9468Y8643D02*
X9574D01*
X9288Y8663D02*
X9397D01*
X9468D02*
X9578D01*
X9288Y8683D02*
X9397D01*
X9468Y8403D02*
X9590D01*
X9468Y8483D02*
X9590D01*
X9468Y8503D02*
X10202D01*
X9468Y8523D02*
X10222D01*
X9468Y8543D02*
X10244D01*
X9668Y8383D02*
X9809D01*
X9675Y8403D02*
X9826D01*
X9468Y8563D02*
X11133D01*
X9593Y8485D02*
Y8600D01*
X9468Y8583D02*
X11153D01*
X9468Y8603D02*
X9590D01*
X9468Y8683D02*
X9590D01*
X9613Y8498D02*
Y8588D01*
X9653Y8498D02*
Y8588D01*
X9673Y8485D02*
Y8600D01*
X9633Y8501D02*
Y8584D01*
X9793Y8073D02*
Y8170D01*
X9695Y8170D02*
X9818Y8048D01*
X9713Y8153D02*
Y8174D01*
X9773Y8093D02*
Y8174D01*
X9727Y8183D02*
X9759D01*
X9813Y8053D02*
Y8174D01*
X9827Y8183D02*
X9859D01*
X9927D02*
X9959D01*
X9733Y8133D02*
Y8189D01*
X9753Y8113D02*
Y8189D01*
X9828Y7803D02*
X10056D01*
X9828Y7783D02*
X10065D01*
X9828Y7823D02*
X10056D01*
X9828Y7843D02*
X10065D01*
X9828Y7863D02*
X10451D01*
X9828Y7883D02*
X10444D01*
X9828Y7903D02*
X10446D01*
X9828Y7963D02*
X10187D01*
X9828Y7923D02*
X10459D01*
X9828Y7943D02*
X10211D01*
X9763Y8103D02*
X10062D01*
X9783Y8083D02*
X10082D01*
X9703Y8163D02*
X10002D01*
X9743Y8123D02*
X10042D01*
X9723Y8143D02*
X10022D01*
X9828Y8003D02*
X10162D01*
X9828Y7983D02*
X10180D01*
X9995Y8170D02*
X10180Y7985D01*
X9803Y8063D02*
X10102D01*
X9828Y8023D02*
X10142D01*
X9822Y8043D02*
X10122D01*
X9727Y8263D02*
X9759D01*
X9773Y8271D02*
Y8588D01*
X9793Y8275D02*
Y8584D01*
X9813Y8271D02*
Y8336D01*
Y8389D02*
Y8588D01*
X9833Y8257D02*
Y8319D01*
X9853Y8257D02*
Y8312D01*
X9827Y8263D02*
X9859D01*
X9873Y8271D02*
Y8292D01*
X9850Y8315D02*
X9890Y8275D01*
X9688Y8623D02*
X9738D01*
X9675Y8603D02*
X9750D01*
X9691Y8643D02*
X9734D01*
X9688Y8663D02*
X9738D01*
X9753Y8257D02*
Y8600D01*
X9873Y8406D02*
Y8588D01*
X9833Y8406D02*
Y8600D01*
X9853Y8411D02*
Y8600D01*
X9835Y8603D02*
X9850D01*
X9879Y8403D02*
X10102D01*
X9688Y8423D02*
X10122D01*
X9691Y8443D02*
X10142D01*
X9688Y8463D02*
X10162D01*
X9901Y8365D02*
X9942Y8323D01*
X9923Y8343D02*
X9940D01*
X9903Y8363D02*
X9944D01*
X9896Y8383D02*
X9959D01*
X9913Y8353D02*
Y8588D01*
X9933Y8333D02*
Y8600D01*
X9893Y8389D02*
Y8584D01*
X9675Y8483D02*
X10182D01*
X9953Y8377D02*
Y8609D01*
X9973Y8391D02*
Y8594D01*
X10013Y8391D02*
Y8594D01*
X9935Y8603D02*
X9959D01*
X9993Y8395D02*
Y8590D01*
X8847Y9048D02*
X8894Y9000D01*
X9288Y8383D02*
Y8976D01*
X8872Y9023D02*
X8894D01*
X8852Y9043D02*
X8894D01*
X9313Y8271D02*
Y8980D01*
X9333Y8257D02*
Y8968D01*
X9293Y8275D02*
Y8980D01*
X9295Y8983D02*
X9310D01*
X8853Y9042D02*
Y9085D01*
X8873Y9022D02*
Y9085D01*
X8833Y9056D02*
Y9085D01*
X8893Y9002D02*
Y9085D01*
X8894Y9000D02*
Y9081D01*
X9288Y8723D02*
X9389D01*
X9288Y8703D02*
X9397D01*
X9288Y8743D02*
X9385D01*
X9288Y8763D02*
X9389D01*
X9288Y8783D02*
X9406D01*
X9393Y8275D02*
Y8716D01*
X9288Y8843D02*
X10042D01*
X9288Y8803D02*
X10082D01*
X9288Y8823D02*
X10062D01*
X9288Y8883D02*
X10002D01*
X9288Y8863D02*
X10022D01*
X9288Y8943D02*
X9942D01*
X9288Y8903D02*
X9982D01*
X9288Y8923D02*
X9962D01*
X9353Y8257D02*
Y8964D01*
X9373Y8271D02*
Y8968D01*
X9393Y8769D02*
Y8980D01*
X9288Y8963D02*
X9922D01*
X8713Y9058D02*
Y9085D01*
X8699Y9058D02*
X8822D01*
X8673Y9078D02*
Y9085D01*
X8695Y9063D02*
X8894D01*
X8693Y9065D02*
Y9085D01*
X8733Y9058D02*
Y9085D01*
X8753Y9058D02*
Y9085D01*
X8773Y9058D02*
Y9085D01*
X9011Y9064D02*
Y9081D01*
X8894D02*
X9011D01*
X8793Y9058D02*
Y9085D01*
X8813Y9058D02*
Y9085D01*
X8913Y9081D02*
Y9085D01*
X8933Y9081D02*
Y9085D01*
X8953Y9081D02*
Y9085D01*
X9013Y9065D02*
Y9085D01*
X9033Y9078D02*
Y9085D01*
X9073Y9078D02*
Y9085D01*
X8973Y9081D02*
Y9085D01*
X8993Y9081D02*
Y9085D01*
X9053Y9081D02*
Y9085D01*
X9093Y9065D02*
Y9085D01*
X9095Y9063D02*
X9110D01*
X9113Y9065D02*
Y9085D01*
X8090Y9083D02*
X9750D01*
X9133Y9078D02*
Y9085D01*
X9195Y9063D02*
X9210D01*
X9295D02*
X9310D01*
X9153Y9081D02*
Y9085D01*
X9173Y9078D02*
Y9085D01*
X9193Y9065D02*
Y9085D01*
X9213Y9065D02*
Y9085D01*
X9233Y9078D02*
Y9085D01*
X9253Y9081D02*
Y9085D01*
X9273Y9078D02*
Y9085D01*
X8088D02*
X9752D01*
X9293Y9065D02*
Y9085D01*
X9313Y9065D02*
Y9085D01*
X9393Y9065D02*
Y9085D01*
X9333Y9078D02*
Y9085D01*
X9353Y9081D02*
Y9085D01*
X9373Y9078D02*
Y9085D01*
X9397Y8283D02*
Y8710D01*
X9493Y8275D02*
Y8980D01*
X9468Y8297D02*
Y8710D01*
X9473Y8293D02*
Y8716D01*
X9513Y8271D02*
Y9085D01*
X9675Y8683D02*
X9750D01*
X9753Y8685D02*
Y9000D01*
X9533Y8257D02*
Y9085D01*
X9553Y8257D02*
Y9085D01*
X9573Y8271D02*
Y9085D01*
X9593Y8685D02*
Y9085D01*
X9613Y8698D02*
Y9085D01*
X9693Y8275D02*
Y9085D01*
X9713Y8271D02*
Y9085D01*
X9733Y8257D02*
Y9085D01*
X9633Y8701D02*
Y9085D01*
X9653Y8698D02*
Y9085D01*
X9673Y8685D02*
Y9085D01*
X9835Y8683D02*
X9850D01*
X9468Y8703D02*
X11755D01*
X9476Y8723D02*
X11755D01*
X9935Y8683D02*
X9959D01*
X10013Y8691D02*
Y8872D01*
X9993Y8695D02*
Y8892D01*
X9833Y8685D02*
Y9000D01*
X9853Y8685D02*
Y9000D01*
X9773Y8698D02*
Y8988D01*
X9793Y8701D02*
Y8984D01*
X9813Y8698D02*
Y8988D01*
X9933Y8685D02*
Y8952D01*
X9973Y8691D02*
Y8912D01*
X9953Y8677D02*
Y8932D01*
X9873Y8698D02*
Y8988D01*
X9913Y8698D02*
Y8972D01*
X9893Y8701D02*
Y8984D01*
X9413Y8786D02*
Y8980D01*
X9453Y8786D02*
Y8964D01*
X9395Y8983D02*
X9410D01*
X9433Y8791D02*
Y8968D01*
X9473Y8769D02*
Y8968D01*
X9508Y9003D02*
X9750D01*
X9511Y9023D02*
X9738D01*
X9395Y9063D02*
X9410D01*
X9413Y9065D02*
Y9085D01*
X9433Y9078D02*
Y9085D01*
X9453Y9081D02*
Y9085D01*
X9508Y9043D02*
X9734D01*
X9473Y9078D02*
Y9085D01*
X9495Y9063D02*
X9738D01*
X9493Y9065D02*
Y9085D01*
X9476Y8763D02*
X10122D01*
X9481Y8743D02*
X11041D01*
X9835Y9003D02*
X9850D01*
X9459Y8783D02*
X10102D01*
X9495Y8983D02*
X9902D01*
X9900Y8985D02*
X10123Y8763D01*
X9983Y9003D02*
X10074D01*
X10003Y8983D02*
X10078D01*
X9963Y9023D02*
X10078D01*
X9951Y9035D02*
X10162Y8823D01*
X9948Y9063D02*
X10943D01*
X9935Y9083D02*
X10953D01*
X9933Y9085D02*
X10954D01*
X9973Y9013D02*
Y9085D01*
X9993Y8993D02*
Y9085D01*
X10013Y8973D02*
Y9085D01*
X9951Y9043D02*
X10090D01*
X9953Y9033D02*
Y9085D01*
X10013Y6541D02*
Y6637D01*
X10023Y6663D02*
Y6704D01*
X10094D01*
X10033Y6541D02*
Y6704D01*
X10053Y6541D02*
Y6704D01*
X10073Y6541D02*
Y6704D01*
X10093Y6541D02*
Y6704D01*
X10113Y6541D02*
Y6704D01*
X10133Y6541D02*
Y6704D01*
X10153Y6541D02*
Y6704D01*
X10094D02*
X10111D01*
X10094D02*
X10111D01*
X10194D01*
X10173Y6541D02*
Y6704D01*
X10193Y6541D02*
Y6704D01*
X10213Y6541D02*
Y6704D01*
X10194D02*
X10211D01*
X10194D02*
X10211D01*
X10233Y6541D02*
Y6704D01*
X10253Y6541D02*
Y6704D01*
X10273Y6541D02*
Y6704D01*
X10293Y6541D02*
Y6704D01*
X10211D02*
X10294D01*
X10313Y6541D02*
Y6704D01*
X10333Y6541D02*
Y6704D01*
X10294D02*
X10311D01*
X10294D02*
X10311D01*
X10353Y6541D02*
Y6704D01*
X10373Y6541D02*
Y6704D01*
X10393Y6541D02*
Y6704D01*
X10413Y6541D02*
Y6704D01*
X10433Y6541D02*
Y6704D01*
X10453Y6541D02*
Y6704D01*
X10473Y6541D02*
Y6704D01*
X10493Y6541D02*
Y6704D01*
X10513Y6541D02*
Y6704D01*
X10533Y6541D02*
Y6704D01*
X10553Y6541D02*
Y6704D01*
X10573Y6541D02*
Y6704D01*
X10143Y7163D02*
X10245Y7061D01*
X10053Y7173D02*
Y7344D01*
X10311Y6704D02*
X10394D01*
X10411D01*
X10295Y7043D02*
X10310D01*
X10394Y6704D02*
X10411D01*
X10153Y7153D02*
Y7344D01*
X10173Y7133D02*
Y7348D01*
X10033Y7173D02*
Y7348D01*
X10073Y7173D02*
Y7348D01*
X10133Y7170D02*
Y7348D01*
X10273Y7058D02*
Y7348D01*
X10333Y7058D02*
Y7348D01*
X10373Y7058D02*
Y7348D01*
X10233Y7073D02*
Y7348D01*
X10253Y7061D02*
Y7344D01*
X10353Y7061D02*
Y7344D01*
X10395Y7043D02*
X10410D01*
X10243Y7063D02*
X10417D01*
X10223Y7083D02*
X10417D01*
X10203Y7103D02*
X10423D01*
X10411Y6704D02*
X10494D01*
X10511D01*
X10417Y7049D02*
Y7083D01*
X10494Y6704D02*
X10511D01*
X10611D01*
X10183Y7123D02*
X10442D01*
X10163Y7143D02*
X10462D01*
X10143Y7163D02*
X10482D01*
X10433Y7113D02*
Y7348D01*
X10428Y7108D02*
X10597Y7277D01*
X10453Y7133D02*
Y7344D01*
X10473Y7153D02*
Y7348D01*
X10553Y7233D02*
Y7344D01*
X10533Y7213D02*
Y7348D01*
X10593Y6541D02*
Y6704D01*
X10611Y6783D02*
X10776D01*
X10594Y6821D02*
X10611D01*
X10595Y6823D02*
X10761D01*
X10608Y6843D02*
X10764D01*
X10773Y6541D02*
Y6787D01*
X10793Y6541D02*
Y6770D01*
X10611Y6704D02*
Y6821D01*
X10813Y6541D02*
Y6765D01*
X10611Y6803D02*
X10764D01*
X10613Y6541D02*
Y6872D01*
X10633Y6541D02*
Y6892D01*
X10653Y6541D02*
Y6912D01*
X10673Y6541D02*
Y6932D01*
X10693Y6541D02*
Y6952D01*
X10713Y6541D02*
Y6972D01*
X10733Y6541D02*
Y6992D01*
X10773Y6858D02*
Y6887D01*
X10753Y6541D02*
Y7012D01*
X10833Y6541D02*
Y6764D01*
X10853Y6541D02*
Y6765D01*
X10819Y6764D02*
X10846D01*
X10873Y6541D02*
Y6770D01*
X10893Y6541D02*
Y6787D01*
X10913Y6541D02*
Y6787D01*
X10933Y6541D02*
Y6787D01*
X10953Y6541D02*
Y6787D01*
X10973Y6541D02*
Y6787D01*
X10893D02*
X11033D01*
X10893Y6858D02*
X11018D01*
X10893D02*
Y6887D01*
X10993Y6541D02*
Y6787D01*
X11013Y6541D02*
Y6787D01*
X11033Y6541D02*
Y6787D01*
X10953Y6858D02*
Y7242D01*
X10993Y6858D02*
Y7202D01*
X10973Y6858D02*
Y7222D01*
X10611Y6863D02*
X10776D01*
X10663Y6923D02*
X10761D01*
X10623Y6883D02*
X10776D01*
X10643Y6903D02*
X10764D01*
X10683Y6943D02*
X10764D01*
X10773Y6958D02*
Y6964D01*
X10703Y6963D02*
X10776D01*
X10761Y6964D02*
X10778D01*
X10611Y6870D02*
X10761Y7020D01*
Y6964D02*
Y7020D01*
X10723Y6983D02*
X10761D01*
X10743Y7003D02*
X10761D01*
X10793Y7081D02*
Y7148D01*
X10813Y7081D02*
Y7167D01*
X10833Y7081D02*
Y7187D01*
X10793Y7148D02*
X10833Y7188D01*
X10889Y6863D02*
X11022D01*
X10793Y7081D02*
X10905D01*
X11013Y6858D02*
Y7182D01*
X11033Y6873D02*
Y7162D01*
X10893Y6958D02*
Y6964D01*
X10887D02*
X10905D01*
Y7081D01*
X10842Y7203D02*
X10992D01*
X10828Y7183D02*
X11012D01*
X10843Y7263D02*
X10939D01*
X10843Y7223D02*
X10972D01*
X10843Y7243D02*
X10952D01*
X10843Y7283D02*
X10937D01*
X10843Y7303D02*
X10937D01*
X10843Y7323D02*
X10937D01*
X10843Y7343D02*
X10937D01*
X10093Y7173D02*
Y7360D01*
X10095Y7363D02*
X10110D01*
X10093Y7445D02*
Y7464D01*
X10113Y7173D02*
Y7360D01*
X10193Y7113D02*
Y7360D01*
X10095Y7443D02*
X10110D01*
X10033Y7458D02*
Y7480D01*
X10073Y7458D02*
Y7468D01*
X10035Y7483D02*
X10050D01*
X10053Y7461D02*
Y7480D01*
X10113Y7445D02*
Y7468D01*
X10193Y7445D02*
Y7570D01*
X10133Y7458D02*
Y7480D01*
X10173Y7458D02*
Y7574D01*
X10153Y7461D02*
Y7589D01*
X10213Y7093D02*
Y7360D01*
X10195Y7363D02*
X10210D01*
X10195Y7443D02*
X10210D01*
X10293Y7045D02*
Y7360D01*
X10295Y7363D02*
X10310D01*
X10295Y7443D02*
X10310D01*
X10213Y7445D02*
Y7552D01*
X10135Y7483D02*
X10284D01*
X10195Y7570D02*
X10278Y7488D01*
X10233Y7458D02*
Y7532D01*
X10293Y7445D02*
Y7479D01*
X10273Y7458D02*
Y7492D01*
X10253Y7461D02*
Y7512D01*
X10128Y7569D02*
Y7584D01*
X10027Y7663D02*
X10059D01*
X10127D02*
X10159D01*
X10133Y7565D02*
Y7589D01*
X10128Y7583D02*
X10159D01*
X10173Y7671D02*
Y7692D01*
X10033Y7657D02*
Y8132D01*
X10053Y7657D02*
Y8112D01*
X10073Y7671D02*
Y7775D01*
X10093Y7675D02*
Y7766D01*
X10113Y7671D02*
Y7752D01*
X10153Y7657D02*
Y7712D01*
X10133Y7657D02*
Y7732D01*
X10153Y7813D02*
Y8012D01*
X10100Y7765D02*
X10190Y7675D01*
X10173Y7793D02*
Y7992D01*
X10151Y7523D02*
X10242D01*
X10148Y7503D02*
X10262D01*
X10148Y7543D02*
X10222D01*
X10135Y7563D02*
X10202D01*
X10283Y7683D02*
X10422D01*
X10263Y7703D02*
X10422D01*
X10243Y7723D02*
X10422D01*
X10223Y7743D02*
X10422D01*
X10193Y7773D02*
Y7955D01*
X10151Y7815D02*
X10290Y7675D01*
X10163Y7803D02*
X10411D01*
X10183Y7783D02*
X10420D01*
X10150Y7823D02*
X10411D01*
X10253Y7713D02*
Y7947D01*
X10273Y7693D02*
Y7971D01*
X10293Y7675D02*
Y7972D01*
X10213Y7753D02*
Y7942D01*
X10203Y7763D02*
X10422D01*
X10233Y7733D02*
Y7940D01*
X10313Y7045D02*
Y7360D01*
X10393Y7045D02*
Y7360D01*
X10395Y7363D02*
X10410D01*
X10413Y7045D02*
Y7360D01*
X10493Y7173D02*
Y7360D01*
X10495Y7363D02*
X10510D01*
X10313Y7445D02*
Y7477D01*
X10395Y7443D02*
X10410D01*
X10393Y7445D02*
Y7477D01*
X10413Y7445D02*
Y7477D01*
X10495Y7443D02*
X10510D01*
X10493Y7445D02*
Y7477D01*
X10513Y7193D02*
Y7360D01*
X10573Y7253D02*
Y7348D01*
X10593Y7273D02*
Y7360D01*
X10597Y7277D02*
Y7365D01*
X10843Y7363D02*
X10937D01*
X10843Y7383D02*
X10937D01*
X10843Y7403D02*
X10937D01*
X10843Y7423D02*
X10937D01*
X10853Y7081D02*
Y7475D01*
X10873Y7081D02*
Y7466D01*
X10843Y7443D02*
X10937D01*
X10843Y7213D02*
Y7485D01*
X10893Y7081D02*
Y7466D01*
X10933Y6858D02*
Y7460D01*
X10913Y6858D02*
Y7475D01*
X10937Y7273D02*
Y7456D01*
X11008Y7287D02*
Y7456D01*
X11013Y7283D02*
Y7460D01*
X10333Y7458D02*
Y7477D01*
X10373Y7458D02*
Y7477D01*
X10353Y7461D02*
Y7477D01*
X10433Y7458D02*
Y7477D01*
X10303D02*
X10518D01*
X10473Y7458D02*
Y7477D01*
X10513Y7445D02*
Y7477D01*
X10453Y7461D02*
Y7477D01*
X10533Y7458D02*
Y7462D01*
X10518Y7477D02*
X10536Y7459D01*
X10333Y7657D02*
Y7933D01*
X10313Y7671D02*
Y7952D01*
X10327Y7663D02*
X10359D01*
X10353Y7657D02*
Y7927D01*
X10373Y7671D02*
Y7927D01*
X10422Y7666D02*
Y7780D01*
X10843Y7540D02*
Y8108D01*
X10393Y7675D02*
Y7927D01*
X10413Y7671D02*
Y7796D01*
X10843Y7463D02*
X10930D01*
X10843Y7563D02*
X10847D01*
X10843Y7583D02*
X10847D01*
X11014Y7444D02*
Y7461D01*
X10843Y7603D02*
X10847D01*
X10843Y7623D02*
X10847D01*
X10843Y7643D02*
X10847D01*
X10843Y7663D02*
X10847D01*
X10843Y7683D02*
X10847D01*
X10843Y7703D02*
X10847D01*
X10843Y7723D02*
X10847D01*
Y7545D02*
Y8230D01*
X10843Y7743D02*
X10847D01*
X10843Y7763D02*
X10847D01*
X10843Y7783D02*
X10847D01*
X10843Y7803D02*
X10847D01*
X10843Y7823D02*
X10847D01*
X11053Y6541D02*
Y6793D01*
X10889Y6883D02*
X11042D01*
X10901Y6903D02*
X11062D01*
X11073Y6541D02*
Y6812D01*
X11093Y6541D02*
Y6832D01*
X11113Y6541D02*
Y6852D01*
X11133Y6541D02*
Y6872D01*
X11153Y6541D02*
Y6892D01*
X11018Y6858D02*
X11177Y7018D01*
X11058Y6798D02*
X11253Y6993D01*
X11053Y6893D02*
Y7142D01*
X10905Y6923D02*
X11082D01*
X11073Y6913D02*
Y7122D01*
X11173Y6541D02*
Y6912D01*
X11193Y6541D02*
Y6932D01*
X11213Y6541D02*
Y6952D01*
X11233Y6541D02*
Y6972D01*
X11253Y6541D02*
Y6992D01*
X10017Y6643D02*
X11558D01*
X10023Y6663D02*
X11565D01*
X10023Y6683D02*
X11575D01*
X10023Y6703D02*
X11592D01*
X10611Y6723D02*
X11617D01*
X10611Y6743D02*
X11755D01*
X10611Y6763D02*
X11755D01*
X10889Y6783D02*
X11755D01*
X11063Y6803D02*
X11755D01*
X11083Y6823D02*
X11755D01*
X11273Y6541D02*
Y7012D01*
X11103Y6843D02*
X11476D01*
X11163Y6903D02*
X11437D01*
X11123Y6863D02*
X11455D01*
X11143Y6883D02*
X11443D01*
X11293Y6541D02*
Y7032D01*
X11313Y6541D02*
Y7052D01*
X11333Y6541D02*
Y7072D01*
X11353Y6541D02*
Y7092D01*
X11373Y6541D02*
Y7112D01*
X11393Y6541D02*
Y7132D01*
X10901Y6943D02*
X11102D01*
X10889Y6963D02*
X11122D01*
X10905Y6983D02*
X11142D01*
X10905Y7003D02*
X11162D01*
X10905Y7023D02*
X11172D01*
X11133Y6973D02*
Y7062D01*
X11153Y6993D02*
Y7042D01*
X10905Y7063D02*
X11132D01*
X11173Y7013D02*
Y7022D01*
X10905Y7043D02*
X11152D01*
X10793Y7103D02*
X11092D01*
X10793Y7083D02*
X11112D01*
X10808Y7163D02*
X11032D01*
X10793Y7123D02*
X11072D01*
X10793Y7143D02*
X11052D01*
X11093Y6933D02*
Y7102D01*
X11113Y6953D02*
Y7082D01*
X10948Y7248D02*
X11177Y7018D01*
X11213Y7083D02*
X11242D01*
X11193Y7103D02*
X11262D01*
X11173Y7123D02*
X11282D01*
X11183Y6923D02*
X11435D01*
X11203Y6943D02*
X11437D01*
X11223Y6963D02*
X11443D01*
X11243Y6983D02*
X11455D01*
X11263Y7003D02*
X11476D01*
X11283Y7023D02*
X11755D01*
X11303Y7043D02*
X11755D01*
X11363Y7103D02*
X11462D01*
X11323Y7063D02*
X11502D01*
X11343Y7083D02*
X11482D01*
X11113Y7183D02*
X11342D01*
X11093Y7203D02*
X11354D01*
X11073Y7223D02*
X11358D01*
X11053Y7243D02*
X11370D01*
X11033Y7263D02*
X11672D01*
X11228Y7068D02*
X11355Y7195D01*
X11383Y7123D02*
X11442D01*
X11253Y6993D02*
X11405Y7145D01*
X11153Y7143D02*
X11302D01*
X11133Y7163D02*
X11322D01*
X11453Y6541D02*
Y6866D01*
X11473Y6541D02*
Y6845D01*
X11493Y6541D02*
Y6833D01*
X11533Y6541D02*
Y6825D01*
X11513Y6541D02*
Y6827D01*
X11553Y6541D02*
Y6827D01*
X11573Y6541D02*
Y6547D01*
X11533Y7021D02*
Y7052D01*
X11573Y6678D02*
Y6833D01*
X11593Y6704D02*
Y6845D01*
X11413Y6541D02*
Y7144D01*
X11433Y6541D02*
Y7132D01*
X11453Y6979D02*
Y7112D01*
X11493Y7012D02*
Y7072D01*
X11473Y7000D02*
Y7092D01*
X11513Y7019D02*
Y7055D01*
X11573Y7012D02*
Y7052D01*
X11553Y7019D02*
Y7052D01*
X11613Y6720D02*
Y6866D01*
X11589Y6843D02*
X11755D01*
X11610Y6863D02*
X11755D01*
X11622Y6883D02*
X11755D01*
X11748Y6723D02*
X11755D01*
X11629Y6903D02*
X11755D01*
X11631Y6923D02*
X11755D01*
X11629Y6943D02*
X11755D01*
X11622Y6963D02*
X11755D01*
X11613Y6979D02*
Y7052D01*
X11593Y7000D02*
Y7052D01*
X11610Y6983D02*
X11755D01*
X11589Y7003D02*
X11755D01*
X11633Y6730D02*
Y7052D01*
X11653Y6737D02*
Y7058D01*
X11733Y6730D02*
Y7137D01*
X11673Y6740D02*
Y7077D01*
X11693Y6740D02*
Y7097D01*
X11713Y6737D02*
Y7117D01*
X11420Y7145D02*
X11503Y7063D01*
X11528Y7052D02*
X11633D01*
X11403Y7143D02*
X11422D01*
X11523D02*
X11637D01*
X11573Y7123D02*
Y7160D01*
X11542Y7123D02*
X11618D01*
X11593D02*
Y7148D01*
X11613Y7123D02*
Y7144D01*
X11633Y7138D02*
Y7148D01*
X11471Y7195D02*
X11542Y7123D01*
X11471Y7203D02*
X11554D01*
X11468Y7223D02*
X11558D01*
X11455Y7243D02*
X11570D01*
X11483Y7183D02*
X11558D01*
X11503Y7163D02*
X11570D01*
X11658Y7063D02*
X11733Y7138D01*
X11658Y7063D02*
X11755D01*
X11678Y7083D02*
X11755D01*
X11698Y7103D02*
X11755D01*
X11718Y7123D02*
X11755D01*
X11737Y7143D02*
X11755D01*
X11618Y7123D02*
X11672Y7177D01*
X11668Y7183D02*
X11672D01*
X11668Y7223D02*
X11672D01*
X11655Y7243D02*
X11672D01*
X11743Y7163D02*
X11755D01*
X11743Y7183D02*
X11755D01*
X11743Y7203D02*
X11755D01*
X11743Y7223D02*
X11755D01*
X11743Y7243D02*
X11755D01*
X11743Y7263D02*
X11755D01*
X11073Y7223D02*
Y7444D01*
X11008Y7287D02*
X11228Y7068D01*
X11033Y7263D02*
Y7444D01*
X11053Y7243D02*
Y7444D01*
X11014D02*
X11131D01*
X11113Y7183D02*
Y7444D01*
X11313Y7153D02*
Y7560D01*
X11093Y7203D02*
Y7444D01*
X11173Y7123D02*
Y7652D01*
X11193Y7103D02*
Y7672D01*
X11133Y7163D02*
Y7612D01*
X11131Y7444D02*
Y7561D01*
X11153Y7143D02*
Y7632D01*
X11213Y7083D02*
Y7692D01*
X11233Y7073D02*
Y7712D01*
X11253Y7093D02*
Y7732D01*
X11273Y7113D02*
Y7752D01*
X11293Y7133D02*
Y7772D01*
X11008Y7323D02*
X11354D01*
X11008Y7303D02*
X11358D01*
X11008Y7343D02*
X11358D01*
X11008Y7363D02*
X11370D01*
X11008Y7383D02*
X11672D01*
X11373Y7245D02*
Y7280D01*
X11393Y7258D02*
Y7268D01*
X11013Y7283D02*
X11370D01*
X11008Y7403D02*
X11672D01*
X11008Y7423D02*
X11672D01*
X11008Y7443D02*
X11672D01*
X11131Y7463D02*
X11672D01*
X11131Y7483D02*
X11672D01*
X11131Y7503D02*
X11672D01*
X11333Y7173D02*
Y7548D01*
X11353Y7193D02*
Y7544D01*
X11373Y7365D02*
Y7548D01*
X11393Y7378D02*
Y7560D01*
X11131Y7523D02*
X11672D01*
X11131Y7543D02*
X11672D01*
X11114Y7561D02*
X11131D01*
X11113Y7745D02*
Y7760D01*
X11115Y7743D02*
X11162D01*
X11131Y7603D02*
X11294D01*
X11128Y7583D02*
X11298D01*
X11128Y7723D02*
X11142D01*
X11115Y7763D02*
X11182D01*
X11128Y7783D02*
X11202D01*
X11131Y7803D02*
X11222D01*
X11128Y7823D02*
X11242D01*
X11133Y7713D02*
Y8483D01*
X11173Y7753D02*
Y8453D01*
X11153Y7733D02*
Y8463D01*
X11193Y7773D02*
Y8451D01*
X11213Y7793D02*
Y8453D01*
X11233Y7813D02*
Y8463D01*
X11143Y7623D02*
X11298D01*
X11115Y7563D02*
X11310D01*
X11163Y7643D02*
X11310D01*
X11183Y7663D02*
X11672D01*
X11203Y7683D02*
X11672D01*
X11395Y7563D02*
X11510D01*
X11395Y7643D02*
X11510D01*
X11223Y7703D02*
X11672D01*
X11243Y7723D02*
X11672D01*
X11131Y7711D02*
X11308Y7888D01*
X11131Y7610D02*
X11347Y7827D01*
X11263Y7743D02*
X11672D01*
X11283Y7763D02*
X11672D01*
X11303Y7783D02*
X11672D01*
X11313Y7645D02*
Y7792D01*
X11333Y7658D02*
Y7812D01*
X11393Y7645D02*
Y7827D01*
X11353Y7661D02*
Y7827D01*
X11323Y7803D02*
X11672D01*
X11373Y7658D02*
Y7827D01*
X11433Y7258D02*
Y7268D01*
X11453Y7245D02*
Y7280D01*
X11468Y7303D02*
X11558D01*
X11455Y7283D02*
X11570D01*
X11455Y7363D02*
X11570D01*
X11573Y7245D02*
Y7280D01*
X11593Y7258D02*
Y7268D01*
X11471Y7323D02*
X11554D01*
X11468Y7343D02*
X11558D01*
X11473Y7193D02*
Y7817D01*
X11493Y7173D02*
Y7815D01*
X11413Y7381D02*
Y7827D01*
X11433Y7378D02*
Y7827D01*
X11453Y7365D02*
Y7827D01*
X11533Y7133D02*
Y7548D01*
X11553Y7123D02*
Y7544D01*
X11513Y7153D02*
Y7560D01*
X11573Y7365D02*
Y7548D01*
X11593Y7378D02*
Y7560D01*
X11633Y7258D02*
Y7268D01*
X11653Y7245D02*
Y7280D01*
X11655Y7283D02*
X11672D01*
X11668Y7303D02*
X11672D01*
X11743Y7283D02*
X11755D01*
X11668Y7343D02*
X11672D01*
X11743Y7303D02*
X11755D01*
X11743Y7323D02*
X11755D01*
X11633Y7378D02*
Y8332D01*
X11655Y7363D02*
X11672D01*
X11653Y7365D02*
Y8312D01*
X11743Y7163D02*
Y8308D01*
X11753Y6720D02*
Y8905D01*
X11755Y6718D02*
Y8907D01*
X11672Y7177D02*
Y8293D01*
X11743Y7343D02*
X11755D01*
X11743Y7363D02*
X11755D01*
X11408Y7583D02*
X11498D01*
X11411Y7603D02*
X11494D01*
X11408Y7623D02*
X11498D01*
X11595Y7563D02*
X11672D01*
X11743Y7383D02*
X11755D01*
X11608Y7583D02*
X11672D01*
X11611Y7603D02*
X11672D01*
X11513Y7645D02*
Y7822D01*
X11533Y7658D02*
Y7846D01*
X11553Y7661D02*
Y8363D01*
X11608Y7623D02*
X11672D01*
X11613Y7381D02*
Y8352D01*
X11573Y7658D02*
Y8353D01*
X11595Y7643D02*
X11672D01*
X11593Y7645D02*
Y8351D01*
X11743Y7403D02*
X11755D01*
X11743Y7423D02*
X11755D01*
X11743Y7443D02*
X11755D01*
X11743Y7463D02*
X11755D01*
X11743Y7483D02*
X11755D01*
X11743Y7503D02*
X11755D01*
X11743Y7523D02*
X11755D01*
X11743Y7543D02*
X11755D01*
X11743Y7563D02*
X11755D01*
X11743Y7583D02*
X11755D01*
X11743Y7603D02*
X11755D01*
X11743Y7623D02*
X11755D01*
X11743Y7643D02*
X11755D01*
X11743Y7663D02*
X11755D01*
X11743Y7683D02*
X11755D01*
X11743Y7703D02*
X11755D01*
X11743Y7723D02*
X11755D01*
X11743Y7743D02*
X11755D01*
X11743Y7763D02*
X11755D01*
X11743Y7783D02*
X11755D01*
X11743Y7803D02*
X11755D01*
X10073Y7850D02*
Y8092D01*
X10093Y7860D02*
Y8072D01*
X10027Y8383D02*
X10059D01*
X10113Y7860D02*
Y8052D01*
X10133Y7850D02*
Y8032D01*
X10213Y8391D02*
Y8412D01*
X10227Y8383D02*
X10259D01*
X10033Y8377D02*
Y8609D01*
X10053Y8377D02*
Y8609D01*
X10073Y8391D02*
Y8594D01*
X10095Y8395D02*
X10238Y8538D01*
X10093Y8395D02*
Y8590D01*
X10233Y8377D02*
Y8432D01*
X10253Y8377D02*
Y8452D01*
X10113Y8413D02*
Y8594D01*
X10273Y8391D02*
Y8472D01*
X10133Y8433D02*
Y8609D01*
X10140Y7843D02*
X10420D01*
X10269Y7963D02*
X10302D01*
X10244Y7943D02*
X10322D01*
X10413Y7829D02*
Y7927D01*
X10433Y7854D02*
Y7927D01*
X10453Y7916D02*
Y7927D01*
X10353D02*
X10464D01*
X10275Y7983D02*
X10282D01*
X10195Y8395D02*
X10277Y8477D01*
X10203Y8403D02*
X10302D01*
X10223Y8423D02*
X10322D01*
X10293Y8395D02*
Y8477D01*
X10276Y7989D02*
X10328Y7938D01*
X10295Y8395D02*
X10338Y8438D01*
X10313Y8413D02*
Y8477D01*
X10333Y8433D02*
Y8477D01*
X10173Y8473D02*
Y8594D01*
X10193Y8493D02*
Y8590D01*
X10027Y8603D02*
X10059D01*
X10213Y8513D02*
Y8594D01*
X10243Y8443D02*
X10344D01*
X10273Y8548D02*
Y8594D01*
X10293Y8548D02*
Y8590D01*
X10313Y8548D02*
Y8594D01*
X10027Y8683D02*
X10059D01*
X10127Y8603D02*
X10159D01*
X10127Y8683D02*
X10159D01*
X10153Y8453D02*
Y8609D01*
X10233Y8533D02*
Y8609D01*
X10253Y8547D02*
Y8609D01*
X10227Y8603D02*
X10259D01*
X10333Y8548D02*
Y8609D01*
X10227Y8683D02*
X10259D01*
X10353Y8447D02*
Y8477D01*
X10373Y8448D02*
Y8477D01*
X10277D02*
X10825D01*
X10263Y8548D02*
X10825D01*
X10393Y8448D02*
Y8477D01*
X10413Y8448D02*
Y8477D01*
X10393Y8548D02*
Y8590D01*
X10433Y8448D02*
Y8477D01*
X10453Y8448D02*
Y8477D01*
X10353Y8548D02*
Y8609D01*
X10327Y8603D02*
X10359D01*
X10327Y8683D02*
X10359D01*
X10373Y8548D02*
Y8594D01*
X10413Y8548D02*
Y8594D01*
X10433Y8548D02*
Y8609D01*
X10427Y8603D02*
X10459D01*
X10427Y8683D02*
X10459D01*
X10528Y8261D02*
Y8304D01*
Y8263D02*
X10559D01*
X10528Y8303D02*
X10559D01*
X10573Y8271D02*
Y8294D01*
X10627Y8263D02*
X10659D01*
X10593Y8275D02*
Y8290D01*
X10613Y8271D02*
Y8294D01*
X10673Y8271D02*
Y8294D01*
X10533Y8257D02*
Y8309D01*
X10473Y8448D02*
Y8477D01*
X10493Y8448D02*
Y8477D01*
X10513Y8448D02*
Y8477D01*
X10553Y8257D02*
Y8309D01*
X10633Y8257D02*
Y8309D01*
X10627Y8303D02*
X10659D01*
X10653Y8257D02*
Y8309D01*
X10727Y8263D02*
X10835D01*
X10693Y8275D02*
Y8290D01*
X10528Y8283D02*
X10839D01*
X10713Y8271D02*
Y8294D01*
X10793Y8173D02*
Y8290D01*
X10745Y8220D02*
X10833Y8133D01*
X10741Y8243D02*
X10839D01*
X10733Y8257D02*
Y8309D01*
X10753Y8213D02*
Y8309D01*
X10727Y8303D02*
X10759D01*
X10773Y8193D02*
Y8294D01*
X10813Y8153D02*
Y8294D01*
X10833Y8133D02*
Y8309D01*
X10533Y8448D02*
Y8477D01*
X10553Y8448D02*
Y8477D01*
X10473Y8548D02*
Y8594D01*
X10573Y8448D02*
Y8477D01*
X10493Y8548D02*
Y8590D01*
X10593Y8448D02*
Y8477D01*
X10613Y8448D02*
Y8477D01*
X10593Y8548D02*
Y8590D01*
X10633Y8448D02*
Y8477D01*
X10653Y8448D02*
Y8477D01*
X10453Y8548D02*
Y8609D01*
X10513Y8548D02*
Y8594D01*
X10533Y8548D02*
Y8609D01*
X10527Y8603D02*
X10559D01*
X10527Y8683D02*
X10559D01*
X10553Y8548D02*
Y8609D01*
X10573Y8548D02*
Y8594D01*
X10613Y8548D02*
Y8594D01*
X10633Y8548D02*
Y8609D01*
X10653Y8548D02*
Y8609D01*
X10673Y8448D02*
Y8477D01*
X10693Y8448D02*
Y8477D01*
Y8548D02*
Y8590D01*
X10713Y8448D02*
Y8477D01*
X10733Y8448D02*
Y8477D01*
X10753Y8448D02*
Y8477D01*
X10773Y8448D02*
Y8477D01*
X10793Y8448D02*
Y8477D01*
X10833Y8448D02*
Y8472D01*
X10813Y8448D02*
Y8477D01*
X10673Y8548D02*
Y8594D01*
X10713Y8548D02*
Y8594D01*
X10627Y8603D02*
X10659D01*
X10727D02*
X10759D01*
X10733Y8548D02*
Y8609D01*
X10773Y8548D02*
Y8594D01*
X10753Y8548D02*
Y8609D01*
X10793Y8548D02*
Y8590D01*
X10813Y8548D02*
Y8594D01*
X10833Y8554D02*
Y8609D01*
X10133Y8677D02*
Y8755D01*
X10153Y8677D02*
Y8752D01*
X10233Y8677D02*
Y8752D01*
X10173Y8691D02*
Y8752D01*
X10193Y8695D02*
Y8752D01*
X10213Y8691D02*
Y8752D01*
X10033Y8677D02*
Y8852D01*
X10053Y8677D02*
Y8832D01*
X10073Y8691D02*
Y8812D01*
X10113Y8691D02*
Y8772D01*
X10093Y8695D02*
Y8792D01*
X10173Y8823D02*
Y8960D01*
X10193Y8823D02*
Y9085D01*
X10153Y8833D02*
Y8948D01*
X10213Y8823D02*
Y9085D01*
X10233Y8823D02*
Y9085D01*
X10253Y8677D02*
Y8752D01*
X10273Y8691D02*
Y8752D01*
X10293Y8695D02*
Y8752D01*
X10313Y8691D02*
Y8752D01*
X10333Y8677D02*
Y8752D01*
X10353Y8677D02*
Y8752D01*
X10373Y8691D02*
Y8752D01*
X10393Y8695D02*
Y8752D01*
X10253Y8823D02*
Y9085D01*
X10273Y8823D02*
Y9085D01*
X10293Y8823D02*
Y8960D01*
X10333Y8823D02*
Y8944D01*
X10313Y8823D02*
Y8948D01*
X10353Y8823D02*
Y8948D01*
X10413Y8691D02*
Y8752D01*
X10433Y8677D02*
Y8752D01*
X10373Y8823D02*
Y8960D01*
X10413Y8823D02*
Y8844D01*
X10393Y8823D02*
Y9085D01*
X10113Y8873D02*
Y8948D01*
X10133Y8853D02*
Y8944D01*
X10023Y8963D02*
X10090D01*
X10093Y8893D02*
Y8960D01*
X10175Y8963D02*
X10290D01*
X10188Y8983D02*
X10278D01*
X10191Y9003D02*
X10274D01*
X10053Y8933D02*
Y9085D01*
X10073Y8913D02*
Y9085D01*
X10033Y8953D02*
Y9085D01*
X10093Y9045D02*
Y9085D01*
X10188Y9023D02*
X10278D01*
X10173Y9045D02*
Y9085D01*
X10113Y9058D02*
Y9085D01*
X10133Y9061D02*
Y9085D01*
X10153Y9058D02*
Y9085D01*
X10123Y8863D02*
X10394D01*
X10103Y8883D02*
X10394D01*
X10083Y8903D02*
X10394D01*
X10063Y8923D02*
X10394D01*
X10043Y8943D02*
X10394D01*
Y8844D02*
Y8961D01*
Y8844D02*
X10494D01*
X10388Y8983D02*
X10398D01*
X10375Y8963D02*
X10410D01*
X10394Y8961D02*
X10411D01*
X10175Y9043D02*
X10290D01*
X10293Y9045D02*
Y9085D01*
X10313Y9058D02*
Y9085D01*
X10333Y9061D02*
Y9085D01*
X10388Y9023D02*
X10398D01*
X10375Y9043D02*
X10410D01*
X10353Y9058D02*
Y9085D01*
X10373Y9045D02*
Y9085D01*
X10413Y9045D02*
Y9085D01*
X10453Y8677D02*
Y8752D01*
X10473Y8691D02*
Y8752D01*
X10493Y8695D02*
Y8752D01*
X10513Y8691D02*
Y8752D01*
X10533Y8677D02*
Y8752D01*
X10553Y8677D02*
Y8752D01*
X10573Y8691D02*
Y8752D01*
X10593Y8695D02*
Y8752D01*
X10613Y8691D02*
Y8752D01*
X10433Y8823D02*
Y8844D01*
X10453Y8823D02*
Y8844D01*
X10473Y8823D02*
Y8844D01*
X10493Y8823D02*
Y8844D01*
X10513Y8823D02*
Y8844D01*
X10533Y8823D02*
Y8844D01*
X10553Y8823D02*
Y8844D01*
X10573Y8823D02*
Y8844D01*
X10593Y8823D02*
Y8844D01*
X10613Y8823D02*
Y8844D01*
X10633Y8677D02*
Y8752D01*
X10627Y8683D02*
X10659D01*
X10653Y8677D02*
Y8752D01*
X10733Y8677D02*
Y8752D01*
X10727Y8683D02*
X10759D01*
X10673Y8691D02*
Y8752D01*
X10693Y8695D02*
Y8752D01*
X10713Y8691D02*
Y8752D01*
X10633Y8823D02*
Y8844D01*
X10653Y8823D02*
Y8844D01*
X10673Y8823D02*
Y8844D01*
X10693Y8823D02*
Y8844D01*
X10713Y8823D02*
Y8844D01*
X10753Y8677D02*
Y8752D01*
X10773Y8691D02*
Y8752D01*
X10833Y8677D02*
Y8752D01*
X10733Y8823D02*
Y8844D01*
X10793Y8695D02*
Y8752D01*
X10813Y8691D02*
Y8752D01*
X10494Y8844D02*
X10511D01*
X10494D02*
X10511D01*
X10433Y9058D02*
Y9085D01*
X10495Y9043D02*
X10510D01*
X10453Y9061D02*
Y9085D01*
X10511Y8844D02*
X10594D01*
X10611D01*
X10594D02*
X10611D01*
X10595Y9043D02*
X10610D01*
X10493Y9045D02*
Y9085D01*
X10513Y9045D02*
Y9085D01*
X10473Y9058D02*
Y9085D01*
X10533Y9058D02*
Y9085D01*
X10553Y9061D02*
Y9085D01*
X10573Y9058D02*
Y9085D01*
X10593Y9045D02*
Y9085D01*
X10613Y9045D02*
Y9085D01*
X10633Y9058D02*
Y9085D01*
X10653Y9061D02*
Y9085D01*
X10673Y9058D02*
Y9085D01*
X10611Y8844D02*
X10694D01*
X10753Y8823D02*
Y8844D01*
X10694D02*
X10711D01*
X10694D02*
X10711D01*
X10811D01*
X10773Y8823D02*
Y8844D01*
X10793Y8823D02*
Y8844D01*
X10811D02*
Y8961D01*
X10794D02*
X10811D01*
X10693Y9045D02*
Y9085D01*
X10695Y9043D02*
X10710D01*
X10713Y9045D02*
Y9085D01*
X10793Y9045D02*
Y9085D01*
X10813Y8823D02*
Y9085D01*
X10833Y8823D02*
Y9085D01*
X10733Y9058D02*
Y9085D01*
X10753Y9061D02*
Y9085D01*
X10773Y9058D02*
Y9085D01*
X10843Y7843D02*
X10847D01*
X10843Y7863D02*
X10847D01*
X10843Y7883D02*
X10847D01*
X10843Y7903D02*
X10847D01*
X10843Y7923D02*
X10847D01*
X10843Y7943D02*
X10847D01*
X10843Y7963D02*
X10847D01*
X10843Y7983D02*
X10847D01*
X10843Y8003D02*
X10847D01*
X10843Y8023D02*
X10847D01*
X10843Y8043D02*
X10847D01*
X10843Y8063D02*
X10847D01*
X10843Y8083D02*
X10847D01*
X10840Y8123D02*
X10847D01*
X10823Y8143D02*
X10847D01*
X10843Y8103D02*
X10847D01*
X10918Y8124D02*
Y8230D01*
Y8143D02*
X10930D01*
X11013Y8145D02*
Y8171D01*
X10933Y8145D02*
Y8365D01*
X11113Y7845D02*
Y7860D01*
X11115Y7843D02*
X11262D01*
X11113Y7945D02*
Y7960D01*
X11115Y7863D02*
X11282D01*
X11128Y7883D02*
X11302D01*
X11128Y7923D02*
X11341D01*
X11115Y7943D02*
X11341D01*
X11115Y7963D02*
X11341D01*
X11015Y8143D02*
X11030D01*
X11033Y8145D02*
Y8173D01*
X11113Y8045D02*
Y8060D01*
X11115Y8043D02*
X11672D01*
X11115Y8063D02*
X11672D01*
X11115Y8143D02*
X11343D01*
X10803Y8163D02*
X10847D01*
X10783Y8183D02*
X10847D01*
X10763Y8203D02*
X10847D01*
X10918Y8183D02*
X10973D01*
X10745Y8223D02*
X10847D01*
X10953Y8158D02*
Y8203D01*
X10973Y8161D02*
Y8183D01*
X10918Y8223D02*
X10943D01*
X10918Y8203D02*
X10953D01*
X10926Y8243D02*
X10941D01*
X10853Y8300D02*
Y8377D01*
X10827Y8303D02*
X10856D01*
X10873Y8310D02*
Y8377D01*
X10832D02*
X10901D01*
X10931Y8263D02*
X10943D01*
X10926Y8283D02*
X10953D01*
X10893Y8310D02*
Y8377D01*
X10953Y8282D02*
Y8369D01*
X10913Y8300D02*
Y8369D01*
X10993Y8158D02*
Y8173D01*
X11053Y8158D02*
Y8183D01*
X11073Y8161D02*
Y8203D01*
X10918Y8163D02*
X11341D01*
X11052Y8183D02*
X11343D01*
X11072Y8203D02*
X11353D01*
X11082Y8223D02*
X11373D01*
X11085Y8243D02*
X11672D01*
X11082Y8263D02*
X11672D01*
X11072Y8283D02*
X11672D01*
X10909Y8303D02*
X10973D01*
X10841Y8323D02*
X11642D01*
X10845Y8343D02*
X11622D01*
X10841Y8363D02*
X11553D01*
X10973Y8303D02*
Y8385D01*
X11052Y8303D02*
X11662D01*
X10981Y8423D02*
X11521D01*
X10971Y8383D02*
X11533D01*
X10981Y8403D02*
X11523D01*
X11131Y7903D02*
X11341D01*
X11128Y7983D02*
X11341D01*
X11131Y8003D02*
X11341D01*
X11343Y7823D02*
X11461D01*
X11514D02*
X11672D01*
X11333Y7898D02*
X11341D01*
X11347Y7827D02*
X11455D01*
X11341Y7898D02*
Y8035D01*
X11128Y8023D02*
X11341D01*
X11353Y8035D02*
Y8123D01*
X11341Y8035D02*
X11485D01*
X11373D02*
Y8103D01*
X11485Y7911D02*
Y8035D01*
X11533Y7879D02*
Y8383D01*
X11393Y8035D02*
Y8093D01*
X11413Y8035D02*
Y8091D01*
X11433Y8035D02*
Y8093D01*
X11531Y7843D02*
X11672D01*
X11536Y7863D02*
X11672D01*
X11531Y7883D02*
X11672D01*
X11514Y7903D02*
X11672D01*
X11485Y7923D02*
X11672D01*
X11743Y7823D02*
X11755D01*
X11743Y7843D02*
X11755D01*
X11743Y7863D02*
X11755D01*
X11743Y7883D02*
X11755D01*
X11743Y7903D02*
X11755D01*
X11485Y7943D02*
X11672D01*
X11485Y7963D02*
X11672D01*
X11485Y7983D02*
X11672D01*
X11485Y8003D02*
X11672D01*
X11485Y8023D02*
X11672D01*
X11743Y7923D02*
X11755D01*
X11743Y7943D02*
X11755D01*
X11743Y7963D02*
X11755D01*
X11743Y7983D02*
X11755D01*
X11743Y8003D02*
X11755D01*
X11743Y8023D02*
X11755D01*
X11131Y8103D02*
X11373D01*
X11128Y8083D02*
X11672D01*
X11128Y8123D02*
X11353D01*
X11453Y8035D02*
Y8103D01*
X11473Y8035D02*
Y8123D01*
X11452Y8103D02*
X11672D01*
X11472Y8123D02*
X11672D01*
X11482Y8143D02*
X11672D01*
X11472Y8203D02*
X11672D01*
X11452Y8223D02*
X11672D01*
X11485Y8163D02*
X11672D01*
X11482Y8183D02*
X11672D01*
X11612Y8353D02*
X11672Y8293D01*
X11662Y8403D02*
X11733Y8333D01*
X11743Y8043D02*
X11755D01*
X11743Y8063D02*
X11755D01*
X11743Y8083D02*
X11755D01*
X11743Y8103D02*
X11755D01*
X11743Y8123D02*
X11755D01*
X11743Y8143D02*
X11755D01*
X11743Y8163D02*
X11755D01*
X11743Y8183D02*
X11755D01*
X11743Y8203D02*
X11755D01*
X11743Y8223D02*
X11755D01*
X11723Y8343D02*
X11755D01*
X11703Y8363D02*
X11755D01*
X11683Y8383D02*
X11755D01*
X11663Y8403D02*
X11755D01*
X11665Y8423D02*
X11755D01*
X11743Y8243D02*
X11755D01*
X11743Y8263D02*
X11755D01*
X11743Y8283D02*
X11755D01*
X11743Y8303D02*
X11755D01*
X11740Y8323D02*
X11755D01*
X10363Y8448D02*
X10901D01*
X11053Y8303D02*
Y8740D01*
X10853Y8448D02*
Y8465D01*
X10873Y8448D02*
Y8467D01*
X10893Y8448D02*
Y8480D01*
X10913Y8456D02*
Y8752D01*
X10933Y8461D02*
Y8752D01*
X10853Y8560D02*
Y8752D01*
X10873Y8558D02*
Y8752D01*
X10893Y8545D02*
Y8752D01*
X10993Y8312D02*
Y8752D01*
X11033Y8312D02*
Y8747D01*
X10953Y8457D02*
Y8752D01*
X10973Y8441D02*
Y8752D01*
X11013Y8315D02*
Y8752D01*
X10895Y8483D02*
X11133D01*
X10263Y8463D02*
X11153D01*
X10895Y8543D02*
X11123D01*
X10827Y8603D02*
X11523D01*
X10841Y8623D02*
X11521D01*
X10971Y8443D02*
X11523D01*
X10905Y8503D02*
X11123D01*
X11232Y8463D02*
X11533D01*
X10905Y8523D02*
X11121D01*
X11073Y8282D02*
Y8742D01*
X11093Y8158D02*
Y8755D01*
X10845Y8643D02*
X11523D01*
X10841Y8663D02*
X11533D01*
X10827Y8683D02*
X11553D01*
X11113Y8145D02*
Y9085D01*
X11133Y8562D02*
Y9085D01*
X11153Y8583D02*
Y9085D01*
X11173Y8592D02*
Y9085D01*
X11193Y8595D02*
Y9085D01*
X11213Y8592D02*
Y9085D01*
X10148Y8752D02*
X11025D01*
X10162Y8823D02*
X11025D01*
X10953D02*
Y9003D01*
X10808Y8983D02*
X10973D01*
X10811Y9003D02*
X10953D01*
X10973Y8823D02*
Y8983D01*
X10993Y8823D02*
Y8973D01*
X11013Y8823D02*
Y8971D01*
X11033Y8829D02*
Y8973D01*
X11053Y8835D02*
Y8983D01*
X10853Y8823D02*
Y9085D01*
X10873Y8823D02*
Y9085D01*
X10893Y8823D02*
Y9085D01*
X10808Y9023D02*
X10943D01*
X10795Y9043D02*
X10941D01*
X10913Y8823D02*
Y9085D01*
X10933Y8823D02*
Y9085D01*
X11093Y8820D02*
Y9085D01*
X11073Y8833D02*
Y9003D01*
X10811Y8883D02*
X11314D01*
X10143Y8843D02*
X11755D01*
X10811Y8863D02*
X11755D01*
X11074Y8743D02*
X11755D01*
X11099Y8763D02*
X11755D01*
X11105Y8783D02*
X11755D01*
X11103Y8803D02*
X11755D01*
X11090Y8823D02*
X11755D01*
X10811Y8903D02*
X11314D01*
X10811Y8923D02*
X11314D01*
X10811Y8943D02*
X11314D01*
X10795Y8963D02*
X11314D01*
X11052Y8983D02*
X11330D01*
X11082Y9023D02*
X11314D01*
X11072Y9003D02*
X11318D01*
X11085Y9043D02*
X11318D01*
X11082Y9063D02*
X11330D01*
X11072Y9083D02*
X11575D01*
X11071Y9085D02*
X11577D01*
X11253Y7833D02*
Y8483D01*
X11333Y7898D02*
Y8864D01*
X11232Y8583D02*
X11533D01*
X11252Y8483D02*
X11553D01*
X11252Y8563D02*
X11553D01*
X11353Y8202D02*
Y8864D01*
X11373Y8223D02*
Y8864D01*
X11393Y8232D02*
Y8864D01*
X11553Y8483D02*
Y8563D01*
X11533Y8462D02*
Y8583D01*
X11273Y7853D02*
Y9085D01*
X11293Y7873D02*
Y9085D01*
X11233Y8583D02*
Y9085D01*
X11253Y8562D02*
Y9085D01*
X11313Y7892D02*
Y9085D01*
X11473Y8202D02*
Y9085D01*
X11493Y7910D02*
Y9085D01*
X11513Y7904D02*
Y9085D01*
X11413Y8235D02*
Y8864D01*
X11433Y8232D02*
Y9085D01*
X11453Y8223D02*
Y9085D01*
X11573Y8492D02*
Y8553D01*
X11262Y8503D02*
X11755D01*
X11265Y8523D02*
X11755D01*
X11262Y8543D02*
X11755D01*
X11662Y8443D02*
X11755D01*
X11652Y8463D02*
X11755D01*
X11593Y8495D02*
Y8551D01*
X11632Y8483D02*
X11755D01*
X11613Y8492D02*
Y8553D01*
X11633Y8483D02*
Y8563D01*
X11632Y8563D02*
X11755D01*
X11652Y8583D02*
X11755D01*
X11693Y8373D02*
Y8885D01*
X11713Y8353D02*
Y8888D01*
X11733Y8333D02*
Y8895D01*
X11653Y8462D02*
Y8583D01*
X11662Y8603D02*
X11755D01*
X11673Y8393D02*
Y8885D01*
X11314Y8864D02*
Y8981D01*
Y8864D02*
X11431D01*
X11314Y8981D02*
X11331D01*
X11431Y8864D02*
Y8981D01*
X11414D02*
X11431D01*
X11415Y8983D02*
X11558D01*
X11428Y9003D02*
X11555D01*
X11333Y9065D02*
Y9085D01*
X11353Y9078D02*
Y9085D01*
X11373Y9081D02*
Y9085D01*
X11533Y8662D02*
Y9085D01*
X11431Y9023D02*
X11555D01*
X11553Y8683D02*
Y9085D01*
X11393Y9078D02*
Y9085D01*
X11428Y9043D02*
X11558D01*
X11413Y9065D02*
Y9085D01*
X11632Y8683D02*
X11755D01*
X11431Y8883D02*
X11755D01*
X11665Y8623D02*
X11755D01*
X11662Y8643D02*
X11755D01*
X11633Y8683D02*
Y8895D01*
X11652Y8663D02*
X11755D01*
X11653Y8662D02*
Y8888D01*
X11431Y8923D02*
X11592D01*
X11431Y8903D02*
X11617D01*
X11431Y8963D02*
X11565D01*
X11431Y8943D02*
X11575D01*
X11415Y9063D02*
X11565D01*
X11573Y8692D02*
Y8947D01*
X11613Y8692D02*
Y8905D01*
X11593Y8695D02*
Y8922D01*
X11573Y9078D02*
Y9085D01*
X11748Y8903D02*
X11755D01*
D11*
X11233Y8343D02*
X11413Y8163D01*
X10793Y8343D02*
X11233D01*
X11553Y7603D02*
Y8093D01*
X11483Y8163D02*
X11553Y8093D01*
X11413Y8163D02*
X11483D01*
X11553Y7603D02*
X11613Y7543D01*
Y7193D02*
Y7323D01*
Y7543D01*
D12*
X10353Y6863D02*
Y7003D01*
X8103Y7563D02*
Y7663D01*
X9433Y8283D02*
Y8743D01*
Y8283D02*
X9493Y8223D01*
X10253Y6863D02*
Y7003D01*
X10193Y7623D02*
X10303Y7513D01*
X10533D01*
X10633Y7413D01*
Y7263D02*
Y7413D01*
X10453Y7083D02*
X10633Y7263D01*
X8993Y7623D02*
X9364Y7252D01*
Y7034D02*
Y7252D01*
X9303Y6973D02*
X9364Y7034D01*
X10493Y8223D02*
Y8343D01*
X11413Y8443D02*
X11593Y8623D01*
X11413Y8163D02*
Y8443D01*
X11073Y7503D02*
X11433D01*
X9993Y7463D02*
X10053Y7403D01*
X9993Y7463D02*
Y7523D01*
X11593Y8623D02*
Y8903D01*
X11473Y9023D02*
X11593Y8903D01*
X11373Y9023D02*
X11473D01*
X9693Y8223D02*
X9893Y8023D01*
Y7623D02*
Y8023D01*
X9693Y8223D02*
X9793Y8323D01*
Y8643D01*
X9183Y6993D02*
X9203Y6973D01*
X9183Y6993D02*
X9203Y7013D01*
Y7073D01*
X7983Y7783D02*
X8003Y7763D01*
X7983Y7783D02*
Y7843D01*
X8003Y7863D01*
X7983Y7683D02*
X8003Y7663D01*
X7983Y7683D02*
X8003Y7703D01*
Y7763D01*
X7983Y7583D02*
X8003Y7563D01*
X7983Y7583D02*
Y7643D01*
X8003Y7663D01*
X7973Y8043D02*
X8003Y8013D01*
X7973Y8043D02*
Y8483D01*
X8153Y9023D02*
X8233Y8943D01*
Y8743D02*
Y8943D01*
X8963Y6863D02*
Y6903D01*
X8953Y6913D02*
X8963Y6903D01*
X8953Y6913D02*
Y7003D01*
X8133Y8323D02*
Y8443D01*
X8233Y8323D02*
X8333Y8223D01*
X8233Y8323D02*
Y8443D01*
X8333Y8323D02*
Y8443D01*
X8433Y8323D02*
Y8443D01*
X8543Y8413D02*
X8633Y8323D01*
X8533Y8413D02*
Y8443D01*
X10093Y7523D02*
Y7623D01*
X8793D02*
X8853Y7563D01*
Y7403D02*
Y7563D01*
X8822Y9023D02*
X9033Y8812D01*
X8653Y9023D02*
X8822D01*
X9253Y8383D02*
Y9023D01*
X10133Y6883D02*
X10153Y6863D01*
X10133Y6883D02*
X10153Y6903D01*
Y7003D01*
X10421Y8051D02*
X10593Y8223D01*
X8072Y8682D02*
X8133Y8743D01*
X8072Y8284D02*
Y8682D01*
Y8284D02*
X8133Y8223D01*
X9923Y6973D02*
X9933Y6983D01*
Y7063D01*
X9923D02*
X9933D01*
X9923D02*
Y7073D01*
X9593Y8223D02*
X9793Y8023D01*
X9593Y8223D02*
X9633Y8263D01*
Y8443D01*
X10833Y6823D02*
X11033D01*
X10553Y6923D02*
Y7003D01*
X10693Y8223D02*
X10808Y8108D01*
Y7213D02*
Y8108D01*
X10758Y7163D02*
X10808Y7213D01*
X10758Y7068D02*
Y7163D01*
X9893Y9043D02*
X10148Y8788D01*
X11058D01*
X9533Y7414D02*
Y7483D01*
X9393Y7623D02*
X9533Y7483D01*
X11073Y7603D02*
X11333Y7863D01*
X11488D01*
X11593Y8423D02*
X11708Y8308D01*
Y7163D02*
Y8308D01*
X11633Y7088D02*
X11708Y7163D01*
X11528Y7088D02*
X11633D01*
X11413Y7203D02*
X11528Y7088D01*
X8333Y8743D02*
Y8939D01*
X9058Y7888D02*
Y8188D01*
X8908Y7738D02*
X9058Y7888D01*
X8709Y7738D02*
X8908D01*
X8684Y7713D02*
X8709Y7738D01*
X8684Y7313D02*
Y7713D01*
X8993Y8223D02*
X9133Y8363D01*
Y8638D01*
X8733Y8443D02*
X8908Y8618D01*
Y8768D01*
X8838Y8838D02*
X8908Y8768D01*
X8538Y8838D02*
X8838D01*
X8353Y9023D02*
X8538Y8838D01*
X10593Y7623D02*
X10682Y7534D01*
Y7188D02*
Y7534D01*
X8528Y8538D02*
X8733Y8743D01*
X8893Y8223D02*
X9008Y8108D01*
Y7963D02*
Y8108D01*
X8908Y7863D02*
X9008Y7963D01*
X8845Y7863D02*
X8908D01*
X8684Y8024D02*
X8845Y7863D01*
X8583Y8024D02*
X8684D01*
X8558Y7999D02*
X8583Y8024D01*
X8558Y7250D02*
Y7999D01*
Y7250D02*
X8595Y7213D01*
Y6990D02*
Y7213D01*
X8533Y6928D02*
X8595Y6990D01*
X8433Y6878D02*
X8498Y6813D01*
X8533D01*
X8633Y6913D01*
Y7690D01*
X9133Y7913D02*
X9193Y7973D01*
Y8223D01*
X8633Y8443D02*
X8694Y8382D01*
Y8163D02*
Y8382D01*
X8669Y8138D02*
X8694Y8163D01*
X8518Y8138D02*
X8669D01*
X8433Y8223D02*
X8518Y8138D01*
X10458Y7658D02*
X10493Y7623D01*
X10458Y7658D02*
Y7813D01*
X10633Y7863D02*
Y8168D01*
X10363Y8413D02*
X10934D01*
X10293Y8343D02*
X10363Y8413D01*
X10093Y8343D02*
X10263Y8513D01*
X10858D01*
X10883Y7513D02*
Y8263D01*
X9993Y8223D02*
X10228Y7988D01*
X10093Y8223D02*
X10353Y7963D01*
X10505D01*
X10558Y7910D01*
Y7838D02*
Y7910D01*
Y7838D02*
X10758Y7638D01*
Y7340D02*
Y7638D01*
X10733Y7315D02*
X10758Y7340D01*
X8833Y8443D02*
X8958Y8568D01*
Y8819D01*
X8864Y8913D02*
X8958Y8819D01*
X8563Y8913D02*
X8864D01*
X8453Y9023D02*
X8563Y8913D01*
X9493Y8073D02*
Y8223D01*
X9108Y7688D02*
X9493Y8073D01*
X8758Y7688D02*
X9108D01*
X8733Y7663D02*
X8758Y7688D01*
X8733Y7413D02*
Y7663D01*
Y7413D02*
X8758Y7388D01*
Y6788D02*
Y7388D01*
Y6788D02*
X8883Y6663D01*
X9733D01*
X9808Y6738D01*
Y7063D01*
X9883Y7138D01*
X10118D01*
X10253Y7003D01*
X10103Y7813D02*
X10293Y7623D01*
X10973Y7273D02*
Y7503D01*
X9558Y7163D02*
Y7268D01*
X8458Y7788D02*
Y7988D01*
X8308Y7638D02*
X8458Y7788D01*
X8308Y6738D02*
Y7638D01*
Y6738D02*
X8458Y6588D01*
X9913D01*
X9988Y6663D01*
Y6938D01*
X9853Y8363D02*
X9928Y8288D01*
X10128D01*
X10193Y8223D01*
X8458Y7203D02*
X8533Y7128D01*
X8458Y7203D02*
Y7544D01*
X8793Y8223D02*
X8958Y8058D01*
Y8012D02*
Y8058D01*
X8884Y7938D02*
X8958Y8012D01*
X8759Y8063D02*
X8884Y7938D01*
X8564Y8063D02*
X8759D01*
X8514Y8013D02*
X8564Y8063D01*
X8514Y7763D02*
Y8013D01*
X8358Y7607D02*
X8514Y7763D01*
X8358Y7053D02*
Y7607D01*
Y7053D02*
X8433Y6978D01*
X9193Y7623D02*
X9458Y7358D01*
Y6838D02*
Y7358D01*
Y6838D02*
X9523Y6773D01*
X9093Y7623D02*
X9408Y7308D01*
Y6978D02*
Y7308D01*
X9303Y6873D02*
X9408Y6978D01*
X9523Y7073D02*
X9583Y7013D01*
X9683D01*
X9708Y7038D01*
Y7213D01*
X8893Y7623D02*
X9178Y7338D01*
X9693Y7623D02*
Y7759D01*
X10517Y7799D02*
X10693Y7623D01*
X10517Y7799D02*
Y7863D01*
X10492Y7888D02*
X10517Y7863D01*
X8733Y8163D02*
X8883Y8013D01*
X8733Y8163D02*
Y8263D01*
X9033Y8563D01*
Y8743D01*
X8233Y7563D02*
Y7651D01*
X8333Y7751D01*
Y7988D01*
X8258Y8063D02*
X8333Y7988D01*
X8134Y8063D02*
X8258D01*
X8034Y8163D02*
X8134Y8063D01*
X8034Y8163D02*
Y8751D01*
X8133Y8850D01*
X10553Y6863D02*
X10583Y6893D01*
X10758Y7068D01*
X10553Y6923D02*
X10583Y6893D01*
X9558Y7268D02*
X9633D01*
X9923Y6773D02*
Y6873D01*
Y6973D01*
X10973Y7273D02*
X11228Y7018D01*
X11033Y6823D02*
X11228Y7018D01*
X11413Y7203D01*
X9633Y7073D02*
Y7268D01*
Y7343D01*
X9693Y7403D01*
X9793Y7503D01*
Y7623D01*
Y8023D01*
X9058Y8188D02*
X9093Y8223D01*
X9253Y8383D01*
X10053Y6863D02*
Y6938D01*
Y7003D01*
X9988Y6938D02*
X10053D01*
X8533Y8413D02*
X8543D01*
X9203Y6773D02*
Y6873D01*
Y6973D01*
X8003Y7863D02*
Y7963D01*
Y8013D01*
X11433Y7503D02*
X11613Y7323D01*
X10453Y6863D02*
Y7003D01*
Y7083D01*
D13*
X8484Y7028D02*
X8533D01*
X8963Y6714D02*
Y6763D01*
X8914D02*
X8963D01*
X9011D01*
X8003Y7514D02*
Y7563D01*
X7954D02*
X8003D01*
X7954Y7663D02*
X8003D01*
X7954Y7763D02*
X8003D01*
X9203Y6724D02*
Y6773D01*
X9154D02*
X9203D01*
X9154Y6873D02*
X9203D01*
X9154Y6973D02*
X9203D01*
X9154Y7073D02*
X9203D01*
Y7121D01*
X9844Y7403D02*
X9893D01*
Y7354D02*
Y7403D01*
Y7451D01*
Y7403D02*
X9941D01*
X10004D02*
X10053D01*
X9893Y7623D02*
Y7665D01*
X9993Y7474D02*
Y7523D01*
X7954Y7863D02*
X8003D01*
X7954Y7963D02*
X8003D01*
Y8011D01*
X7973Y8434D02*
Y8483D01*
X7924D02*
X7973D01*
Y8531D01*
X8584Y8223D02*
X8633D01*
X8153Y8974D02*
Y9023D01*
Y9071D01*
X8233Y8700D02*
Y8743D01*
Y8785D01*
X9584Y8643D02*
X9633D01*
Y8594D02*
Y8643D01*
X9681D01*
X9693Y8180D02*
Y8223D01*
Y8265D01*
X9744Y8643D02*
X9793D01*
Y8594D02*
Y8643D01*
X9633D02*
Y8691D01*
X9793Y8643D02*
Y8691D01*
X9453Y8974D02*
Y9023D01*
X9501D01*
X9453D02*
Y9071D01*
X10771Y6923D02*
X10833D01*
X10895D01*
X10053Y7354D02*
Y7403D01*
Y7451D01*
X10153Y7354D02*
Y7403D01*
Y7451D01*
X10253Y7354D02*
Y7403D01*
Y7451D01*
X10353Y7354D02*
Y7403D01*
X10453Y7354D02*
Y7403D01*
X10353D02*
Y7451D01*
X10453Y7403D02*
Y7451D01*
X10553Y7354D02*
Y7403D01*
X11613Y7154D02*
Y7203D01*
X11564D02*
X11613D01*
X11661D01*
X11613D02*
Y7251D01*
X11073Y7454D02*
Y7503D01*
X11121D01*
X11613Y7274D02*
Y7323D01*
X11564D02*
X11613D01*
X11661D01*
X11613D02*
Y7371D01*
X11553Y7554D02*
Y7603D01*
X11504D02*
X11553D01*
X11601D01*
X11553D02*
Y7651D01*
X10793Y8300D02*
Y8343D01*
X10835D01*
X10084Y9003D02*
X10133D01*
Y8954D02*
Y9003D01*
X10181D01*
X10133D02*
Y9051D01*
X11413Y8101D02*
Y8163D01*
X11351D02*
X11413D01*
X11475D01*
X11413D02*
Y8225D01*
X11593Y8561D02*
Y8623D01*
X11324Y9023D02*
X11373D01*
X11421D01*
X11373D02*
Y9071D01*
X11531Y8623D02*
X11593D01*
X11655D01*
X11593D02*
Y8685D01*
D14*
X10753Y8903D02*
D03*
X8003Y7863D02*
D03*
Y7963D02*
D03*
Y7663D02*
D03*
X11073Y7503D02*
D03*
X10553Y6763D02*
D03*
X10453D02*
D03*
X10353D02*
D03*
X8003Y7563D02*
D03*
X9203Y6873D02*
D03*
Y6773D02*
D03*
X8153Y9023D02*
D03*
X8003Y7763D02*
D03*
X9203Y7073D02*
D03*
Y6973D02*
D03*
X8963Y6763D02*
D03*
X9893Y7523D02*
D03*
X10653Y8903D02*
D03*
X10553D02*
D03*
X10453D02*
D03*
X8533Y7128D02*
D03*
X11373Y8923D02*
D03*
X8953Y9023D02*
D03*
X10253Y6763D02*
D03*
X10153D02*
D03*
X10053D02*
D03*
D15*
X10753Y9003D02*
D03*
X8103Y7863D02*
D03*
Y7963D02*
D03*
Y7663D02*
D03*
X11073Y7603D02*
D03*
X10973Y7503D02*
D03*
Y7603D02*
D03*
X11073Y7703D02*
D03*
X10973D02*
D03*
Y8103D02*
D03*
X11073D02*
D03*
X10973Y8003D02*
D03*
X11073D02*
D03*
Y7803D02*
D03*
X10973Y7903D02*
D03*
Y7803D02*
D03*
X11073Y7903D02*
D03*
X8623Y7963D02*
D03*
X8223D02*
D03*
X10453Y6863D02*
D03*
X10353D02*
D03*
X9893Y9043D02*
D03*
Y8643D02*
D03*
X7973Y8683D02*
D03*
Y8483D02*
D03*
X11353Y7603D02*
D03*
X11553D02*
D03*
X9053Y9023D02*
D03*
X10353Y7003D02*
D03*
X9153Y9023D02*
D03*
X10253Y7003D02*
D03*
Y6863D02*
D03*
X8453Y9023D02*
D03*
X10453Y7003D02*
D03*
X9303Y7073D02*
D03*
X9523D02*
D03*
X9303Y6973D02*
D03*
X9523D02*
D03*
X9303Y6873D02*
D03*
X9523D02*
D03*
X9303Y6773D02*
D03*
X9523D02*
D03*
X11613Y7203D02*
D03*
X10133Y9003D02*
D03*
X9633Y8643D02*
D03*
X9893Y7403D02*
D03*
X8633Y8223D02*
D03*
X11613Y7323D02*
D03*
X8533Y7028D02*
D03*
X11373Y9023D02*
D03*
X9453D02*
D03*
X8103Y7563D02*
D03*
X9793Y8643D02*
D03*
X10553Y7403D02*
D03*
X10453D02*
D03*
X10353D02*
D03*
X10253D02*
D03*
X10153D02*
D03*
X10053D02*
D03*
X9993Y7523D02*
D03*
X8623Y7763D02*
D03*
Y7863D02*
D03*
X8103Y7763D02*
D03*
X8223D02*
D03*
Y7863D02*
D03*
X8953Y7003D02*
D03*
X8963Y6863D02*
D03*
X10333Y9003D02*
D03*
X10453D02*
D03*
X10553D02*
D03*
X10653D02*
D03*
X8133Y8323D02*
D03*
X8333Y8223D02*
D03*
Y8323D02*
D03*
X8433D02*
D03*
X8633D02*
D03*
X8433Y8223D02*
D03*
X10093Y7523D02*
D03*
X8433Y6878D02*
D03*
X8533Y6928D02*
D03*
X8433Y6978D02*
D03*
X8953Y7403D02*
D03*
X8853D02*
D03*
X8353Y9023D02*
D03*
X8653D02*
D03*
X9353D02*
D03*
X10053Y7003D02*
D03*
Y6863D02*
D03*
X9253Y9023D02*
D03*
X10153Y7003D02*
D03*
Y6863D02*
D03*
X8553Y9023D02*
D03*
X11413Y7203D02*
D03*
X9633Y8443D02*
D03*
X9693Y7403D02*
D03*
X8133Y8223D02*
D03*
X8433Y7078D02*
D03*
X8253Y9023D02*
D03*
X9923Y7073D02*
D03*
Y6973D02*
D03*
Y6873D02*
D03*
Y6773D02*
D03*
X8853Y7003D02*
D03*
X11413Y7323D02*
D03*
X9793Y9043D02*
D03*
X10553Y7003D02*
D03*
Y6863D02*
D03*
D16*
X9993Y8643D02*
D03*
X10093D02*
D03*
X10193D02*
D03*
X10293D02*
D03*
X10393D02*
D03*
X10493D02*
D03*
X10593D02*
D03*
X10693D02*
D03*
X10793Y8343D02*
D03*
Y8643D02*
D03*
X10693Y8343D02*
D03*
X10593D02*
D03*
X10493D02*
D03*
X10393D02*
D03*
X10293D02*
D03*
X10193D02*
D03*
X10093D02*
D03*
X9993D02*
D03*
X8133Y8743D02*
D03*
X8333D02*
D03*
X8633D02*
D03*
X8433D02*
D03*
X8533D02*
D03*
X8733Y8443D02*
D03*
Y8743D02*
D03*
X8633Y8443D02*
D03*
X8533D02*
D03*
X8433D02*
D03*
X8333D02*
D03*
X8233D02*
D03*
Y8743D02*
D03*
X8833Y8443D02*
D03*
Y8743D02*
D03*
X9293Y7623D02*
D03*
X10293D02*
D03*
X9493Y8223D02*
D03*
X10693Y7623D02*
D03*
X10093Y8223D02*
D03*
X9993D02*
D03*
X9893D02*
D03*
X9793D02*
D03*
X10193Y7623D02*
D03*
X9693D02*
D03*
X8893D02*
D03*
X10393D02*
D03*
X8993D02*
D03*
X10493D02*
D03*
X9093D02*
D03*
X10493Y8223D02*
D03*
X9193Y7623D02*
D03*
X10393Y8223D02*
D03*
X9893Y7623D02*
D03*
X9693Y8223D02*
D03*
X9393D02*
D03*
X10593D02*
D03*
X9293D02*
D03*
X9993Y7623D02*
D03*
X10093D02*
D03*
X9593D02*
D03*
X9193Y8223D02*
D03*
X8893D02*
D03*
X8793D02*
D03*
X9493Y7623D02*
D03*
X10593D02*
D03*
X10193Y8223D02*
D03*
X8993D02*
D03*
X9093D02*
D03*
X10293D02*
D03*
X9793Y7623D02*
D03*
X9593Y8223D02*
D03*
X9393Y7623D02*
D03*
X10693Y8223D02*
D03*
D17*
X8133Y8443D02*
D03*
X8793Y7623D02*
D03*
D18*
X11193Y8523D02*
D03*
X11593Y8423D02*
D03*
Y8623D02*
D03*
X11413Y8163D02*
D03*
X11013Y9043D02*
D03*
Y8243D02*
D03*
D19*
X10833Y7023D02*
D03*
D20*
Y6823D02*
D03*
Y6923D02*
D03*
D21*
X11533D02*
D03*
X8183Y6803D02*
D03*
Y7203D02*
D03*
D22*
X11413Y7963D02*
D03*
D23*
X9433Y8743D02*
D03*
X9033Y8812D02*
D03*
X10421Y8051D02*
D03*
X11058Y8788D02*
D03*
X9533Y7414D02*
D03*
X11488Y7863D02*
D03*
X9633Y7073D02*
D03*
X8333Y8939D02*
D03*
X8684Y7313D02*
D03*
X9133Y8638D02*
D03*
X10682Y7188D02*
D03*
X8528Y8538D02*
D03*
X8633Y7690D02*
D03*
X9133Y7913D02*
D03*
X10458Y7813D02*
D03*
X10633Y7863D02*
D03*
Y8168D02*
D03*
X10934Y8413D02*
D03*
X10858Y8513D02*
D03*
X10883Y8263D02*
D03*
Y7513D02*
D03*
X10228Y7988D02*
D03*
X10733Y7315D02*
D03*
X10103Y7813D02*
D03*
X9558Y7163D02*
D03*
X8458Y7988D02*
D03*
X9853Y8363D02*
D03*
X8458Y7544D02*
D03*
X9708Y7213D02*
D03*
X9178Y7338D02*
D03*
X9693Y7759D02*
D03*
X10492Y7888D02*
D03*
X8883Y8013D02*
D03*
X9033Y8743D02*
D03*
X8233Y7563D02*
D03*
X8133Y8850D02*
D03*
M02*
