%FSLAX23Y23*%
%MOIN*%
G70*
G01*
G75*
%ADD10C,0.020*%
%ADD11C,0.050*%
%ADD12C,0.025*%
%ADD13C,0.010*%
%ADD14R,0.071X0.071*%
%ADD15C,0.071*%
%ADD16C,0.059*%
%ADD17R,0.059X0.059*%
%ADD18C,0.098*%
%ADD19R,0.098X0.071*%
%ADD20O,0.098X0.071*%
%ADD21C,0.150*%
%ADD22R,0.098X0.098*%
%ADD23C,0.050*%
%ADD24C,0.012*%
%ADD25C,0.030*%
%ADD26C,0.015*%
%ADD27R,0.079X0.079*%
%ADD28C,0.079*%
%ADD29C,0.067*%
%ADD30R,0.067X0.067*%
%ADD31C,0.106*%
%ADD32R,0.106X0.079*%
%ADD33O,0.106X0.079*%
%ADD34C,0.158*%
%ADD35R,0.106X0.106*%
%ADD36C,0.058*%
D13*
X8083Y9013D02*
X8082Y9023D01*
X8081Y9032D01*
X8078Y9042D01*
X8075Y9051D01*
X8070Y9060D01*
X8065Y9069D01*
X8059Y9077D01*
X8052Y9084D01*
X8045Y9091D01*
X8037Y9097D01*
X8028Y9102D01*
X8019Y9106D01*
X8010Y9109D01*
X8000Y9111D01*
X7990Y9112D01*
X7980Y9113D01*
X7970Y9112D01*
X7960Y9110D01*
X7951Y9107D01*
X7941Y9104D01*
X7933Y9099D01*
X7924Y9094D01*
X7916Y9088D01*
X7909Y9081D01*
X7903Y9073D01*
X7897Y9065D01*
X7893Y9056D01*
X7889Y9047D01*
X7886Y9037D01*
X7884Y9028D01*
X7883Y9018D01*
Y9008D01*
X7884Y8998D01*
X7886Y8988D01*
X7889Y8978D01*
X7893Y8969D01*
X7897Y8961D01*
X7903Y8952D01*
X7909Y8945D01*
X7916Y8938D01*
X7924Y8931D01*
X7933Y8926D01*
X7941Y8921D01*
X7951Y8918D01*
X7960Y8915D01*
X7970Y8913D01*
X7980Y8913D01*
X7990Y8913D01*
X8000Y8914D01*
X8010Y8916D01*
X8019Y8920D01*
X8028Y8924D01*
X8037Y8929D01*
X8045Y8934D01*
X8052Y8941D01*
X8059Y8948D01*
X8065Y8956D01*
X8070Y8965D01*
X8075Y8974D01*
X8078Y8983D01*
X8081Y8993D01*
X8082Y9003D01*
X8083Y9013D01*
X11783D02*
X11782Y9023D01*
X11781Y9032D01*
X11778Y9042D01*
X11775Y9051D01*
X11770Y9060D01*
X11765Y9069D01*
X11759Y9077D01*
X11752Y9084D01*
X11745Y9091D01*
X11737Y9097D01*
X11728Y9102D01*
X11719Y9106D01*
X11710Y9109D01*
X11700Y9111D01*
X11690Y9112D01*
X11680Y9113D01*
X11670Y9112D01*
X11660Y9110D01*
X11651Y9107D01*
X11641Y9104D01*
X11633Y9099D01*
X11624Y9094D01*
X11616Y9088D01*
X11609Y9081D01*
X11603Y9073D01*
X11597Y9065D01*
X11593Y9056D01*
X11589Y9047D01*
X11586Y9037D01*
X11584Y9028D01*
X11583Y9018D01*
Y9008D01*
X11584Y8998D01*
X11586Y8988D01*
X11589Y8978D01*
X11593Y8969D01*
X11597Y8961D01*
X11603Y8952D01*
X11609Y8945D01*
X11616Y8938D01*
X11624Y8931D01*
X11633Y8926D01*
X11641Y8921D01*
X11651Y8918D01*
X11660Y8915D01*
X11670Y8913D01*
X11680Y8913D01*
X11690Y8913D01*
X11700Y8914D01*
X11710Y8916D01*
X11719Y8920D01*
X11728Y8924D01*
X11737Y8929D01*
X11745Y8934D01*
X11752Y8941D01*
X11759Y8948D01*
X11765Y8956D01*
X11770Y8965D01*
X11775Y8974D01*
X11778Y8983D01*
X11781Y8993D01*
X11782Y9003D01*
X11783Y9013D01*
Y6613D02*
X11782Y6623D01*
X11781Y6632D01*
X11778Y6642D01*
X11775Y6651D01*
X11770Y6660D01*
X11765Y6669D01*
X11759Y6677D01*
X11752Y6684D01*
X11745Y6691D01*
X11737Y6697D01*
X11728Y6702D01*
X11719Y6706D01*
X11710Y6709D01*
X11700Y6711D01*
X11690Y6712D01*
X11680Y6713D01*
X11670Y6712D01*
X11660Y6710D01*
X11651Y6707D01*
X11641Y6704D01*
X11633Y6699D01*
X11624Y6694D01*
X11616Y6688D01*
X11609Y6681D01*
X11603Y6673D01*
X11597Y6665D01*
X11593Y6656D01*
X11589Y6647D01*
X11586Y6637D01*
X11584Y6628D01*
X11583Y6618D01*
Y6608D01*
X11584Y6598D01*
X11586Y6588D01*
X11589Y6578D01*
X11593Y6569D01*
X11597Y6561D01*
X11603Y6552D01*
X11609Y6545D01*
X11616Y6538D01*
X11624Y6531D01*
X11633Y6526D01*
X11641Y6521D01*
X11651Y6518D01*
X11660Y6515D01*
X11670Y6513D01*
X11680Y6513D01*
X11690Y6513D01*
X11700Y6514D01*
X11710Y6516D01*
X11719Y6520D01*
X11728Y6524D01*
X11737Y6529D01*
X11745Y6534D01*
X11752Y6541D01*
X11759Y6548D01*
X11765Y6556D01*
X11770Y6565D01*
X11775Y6574D01*
X11778Y6583D01*
X11781Y6593D01*
X11782Y6603D01*
X11783Y6613D01*
X8083D02*
X8082Y6623D01*
X8081Y6632D01*
X8078Y6642D01*
X8075Y6651D01*
X8070Y6660D01*
X8065Y6669D01*
X8059Y6677D01*
X8052Y6684D01*
X8045Y6691D01*
X8037Y6697D01*
X8028Y6702D01*
X8019Y6706D01*
X8010Y6709D01*
X8000Y6711D01*
X7990Y6712D01*
X7980Y6713D01*
X7970Y6712D01*
X7960Y6710D01*
X7951Y6707D01*
X7941Y6704D01*
X7933Y6699D01*
X7924Y6694D01*
X7916Y6688D01*
X7909Y6681D01*
X7903Y6673D01*
X7897Y6665D01*
X7893Y6656D01*
X7889Y6647D01*
X7886Y6637D01*
X7884Y6628D01*
X7883Y6618D01*
Y6608D01*
X7884Y6598D01*
X7886Y6588D01*
X7889Y6578D01*
X7893Y6569D01*
X7897Y6561D01*
X7903Y6552D01*
X7909Y6545D01*
X7916Y6538D01*
X7924Y6531D01*
X7933Y6526D01*
X7941Y6521D01*
X7951Y6518D01*
X7960Y6515D01*
X7970Y6513D01*
X7980Y6513D01*
X7990Y6513D01*
X8000Y6514D01*
X8010Y6516D01*
X8019Y6520D01*
X8028Y6524D01*
X8037Y6529D01*
X8045Y6534D01*
X8052Y6541D01*
X8059Y6548D01*
X8065Y6556D01*
X8070Y6565D01*
X8075Y6574D01*
X8078Y6583D01*
X8081Y6593D01*
X8082Y6603D01*
X8083Y6613D01*
X7883Y6513D02*
X11783D01*
X7883Y9113D02*
X11783D01*
Y6513D02*
Y9113D01*
X7883Y6513D02*
Y9113D01*
M02*
