%FSLAX23Y23*%
%MOIN*%
G70*
G01*
G75*
%ADD10C,0.020*%
%ADD11C,0.050*%
%ADD12C,0.025*%
%ADD13C,0.010*%
%ADD14R,0.071X0.071*%
%ADD15C,0.071*%
%ADD16C,0.059*%
%ADD17R,0.059X0.059*%
%ADD18C,0.098*%
%ADD19R,0.098X0.071*%
%ADD20O,0.098X0.071*%
%ADD21C,0.150*%
%ADD22R,0.098X0.098*%
%ADD23C,0.050*%
D10*
X8402Y6928D02*
X8394Y6922D01*
X8387Y6914D01*
X8381Y6906D01*
X8377Y6897D01*
X8375Y6887D01*
X8374Y6877D01*
X8375Y6867D01*
X8378Y6857D01*
X8382Y6848D01*
X8388Y6839D01*
X8396Y6832D01*
X8404Y6827D01*
X8413Y6822D01*
X8423Y6820D01*
X8433Y6819D01*
X8443Y6820D01*
X8453Y6823D01*
X8462Y6827D01*
X8470Y6833D01*
X8478Y6840D01*
X8483Y6849D01*
X8488Y6858D01*
X8490Y6868D01*
X8491Y6878D01*
X8402Y7028D02*
X8394Y7022D01*
X8387Y7015D01*
X8382Y7006D01*
X8378Y6997D01*
X8375Y6988D01*
X8374Y6978D01*
X8375Y6968D01*
X8378Y6958D01*
X8382Y6949D01*
X8387Y6941D01*
X8394Y6934D01*
X8402Y6928D01*
X8397Y7124D02*
X8389Y7117D01*
X8383Y7109D01*
X8378Y7100D01*
X8375Y7090D01*
X8374Y7080D01*
X8375Y7069D01*
X8377Y7059D01*
X8381Y7050D01*
X8387Y7041D01*
X8394Y7034D01*
X8402Y7028D01*
X8475Y7018D02*
X8469Y7023D01*
X8463Y7028D01*
X8469Y7032D01*
X8475Y7037D01*
X8408Y7188D02*
X8402Y7180D01*
X8398Y7172D01*
X8397Y7163D01*
X8408Y7188D02*
X8402Y7180D01*
X8398Y7172D01*
X8397Y7163D01*
X8491Y6878D02*
X8490Y6887D01*
X8475Y7037D02*
X8474Y7028D01*
X8475Y7018D01*
X8490Y6887D02*
X8498Y6881D01*
X8506Y6875D01*
X8515Y6872D01*
X8525Y6870D01*
X8535Y6869D01*
X8545Y6870D01*
X8554Y6873D01*
X8563Y6878D01*
X8571Y6884D01*
X8578Y6891D01*
X8584Y6899D01*
X8588Y6908D01*
X8590Y6918D01*
X8591Y6928D01*
X8590Y6938D01*
X8588Y6947D01*
X8584Y6956D01*
X8578Y6965D01*
X8571Y6972D01*
X8563Y6978D01*
X8571Y6984D01*
X8578Y6991D01*
X8584Y6999D01*
X8588Y7008D01*
X8590Y7018D01*
X8591Y7028D01*
X8590Y7037D01*
X8588Y7046D01*
X8585Y7054D01*
X8580Y7062D01*
X8574Y7069D01*
X8508Y7273D02*
X8498Y7272D01*
X8490Y7268D01*
X8483Y7263D01*
X8508Y7273D02*
X8498Y7272D01*
X8490Y7268D01*
X8483Y7263D01*
X8709Y7238D02*
X8716Y7232D01*
X8724Y7228D01*
X8734Y7227D01*
X8709Y7238D02*
X8716Y7232D01*
X8724Y7228D01*
X8734Y7227D01*
X8643Y7263D02*
X8635Y7268D01*
X8627Y7272D01*
X8618Y7273D01*
X8643Y7263D02*
X8635Y7268D01*
X8627Y7272D01*
X8618Y7273D01*
X8656Y7352D02*
X8649Y7346D01*
X8643Y7338D01*
X8638Y7329D01*
X8636Y7319D01*
X8636Y7309D01*
X8637Y7299D01*
X8641Y7290D01*
X8647Y7282D01*
X8654Y7275D01*
X8662Y7270D01*
X8672Y7266D01*
X8681Y7265D01*
X8061Y7521D02*
X8069Y7515D01*
X8077Y7510D01*
X8086Y7506D01*
X8096Y7505D01*
X8106Y7504D01*
X8116Y7506D01*
X8125Y7509D01*
X8134Y7513D01*
X8142Y7519D01*
X8148Y7526D01*
X8154Y7534D01*
X8158Y7543D01*
X8160Y7553D01*
X8161Y7563D01*
X8160Y7573D01*
X8158Y7582D01*
X8154Y7591D01*
X8148Y7600D01*
X8141Y7607D01*
X8133Y7613D01*
X8158Y7614D02*
X8165Y7608D01*
X8173Y7604D01*
X8183Y7603D01*
X8158Y7614D02*
X8165Y7608D01*
X8173Y7604D01*
X8183Y7603D01*
X8133Y7613D02*
X8140Y7618D01*
X8147Y7624D01*
X8149Y7698D02*
X8142Y7706D01*
X8133Y7713D01*
X8142Y7719D01*
X8149Y7727D01*
X8207Y7603D02*
X8199Y7597D01*
X8193Y7589D01*
X8188Y7580D01*
X8185Y7570D01*
X8185Y7560D01*
X8186Y7550D01*
X8190Y7541D01*
X8195Y7532D01*
X8202Y7525D01*
X8211Y7520D01*
X8220Y7516D01*
X8230Y7515D01*
X8184Y7688D02*
X8176Y7693D01*
X8168Y7697D01*
X8159Y7698D01*
X8184Y7688D02*
X8176Y7693D01*
X8168Y7697D01*
X8159Y7698D01*
X8176Y7727D02*
X8183Y7720D01*
X8190Y7714D01*
X8199Y7709D01*
X8208Y7706D01*
X8217Y7704D01*
X8227Y7704D01*
X8237Y7706D01*
X8246Y7709D01*
X8254Y7714D01*
X8262Y7719D01*
X8269Y7727D01*
X8274Y7735D01*
X8278Y7744D01*
X8280Y7753D01*
X8281Y7763D01*
X8149Y7998D02*
X8142Y8006D01*
X8135Y8012D01*
X8126Y8016D01*
X8116Y8020D01*
X8106Y8021D01*
X8096Y8021D01*
X8087Y8019D01*
X8077Y8015D01*
X8069Y8010D01*
X8061Y8004D01*
X8281Y7763D02*
X8280Y7773D01*
X8278Y7782D01*
X8274Y7791D01*
X8268Y7800D01*
X8261Y7807D01*
X8253Y7813D01*
X8261Y7819D01*
X8268Y7826D01*
X8274Y7834D01*
X8278Y7843D01*
X8280Y7853D01*
X8281Y7863D01*
Y7963D02*
X8280Y7972D01*
X8278Y7982D01*
X8274Y7991D01*
X8269Y7999D01*
X8262Y8006D01*
X8254Y8012D01*
X8246Y8016D01*
X8237Y8019D01*
X8227Y8021D01*
X8217Y8021D01*
X8208Y8019D01*
X8199Y8016D01*
X8190Y8011D01*
X8183Y8005D01*
X8176Y7998D01*
X8102Y8273D02*
X8094Y8267D01*
X8087Y8259D01*
X8081Y8251D01*
X8077Y8242D01*
X8075Y8232D01*
X8074Y8222D01*
X8075Y8212D01*
X8078Y8202D01*
X8082Y8193D01*
X8088Y8184D01*
X8096Y8177D01*
X8104Y8172D01*
X8113Y8167D01*
X8123Y8165D01*
X8133Y8164D01*
X8143Y8165D01*
X8153Y8168D01*
X8162Y8172D01*
X8170Y8178D01*
X8178Y8185D01*
X8183Y8194D01*
X8188Y8203D01*
X8190Y8213D01*
X8191Y8223D01*
X8281Y7863D02*
X8280Y7873D01*
X8278Y7882D01*
X8274Y7891D01*
X8268Y7900D01*
X8261Y7907D01*
X8253Y7913D01*
X8261Y7919D01*
X8268Y7926D01*
X8274Y7934D01*
X8278Y7943D01*
X8280Y7953D01*
X8281Y7963D01*
X8591Y7713D02*
X8587Y7704D01*
X8585Y7694D01*
X8585Y7684D01*
X8587Y7674D01*
X8558Y7738D02*
X8566Y7731D01*
X8576Y7728D01*
X8583Y7720D01*
X8591Y7713D01*
X8558Y7738D02*
X8566Y7731D01*
X8576Y7728D01*
X8347Y7963D02*
X8348Y7953D01*
X8352Y7945D01*
X8358Y7938D01*
X8347Y7963D02*
X8348Y7953D01*
X8352Y7945D01*
X8358Y7938D01*
Y8038D02*
X8352Y8030D01*
X8348Y8022D01*
X8347Y8013D01*
X8302Y8273D02*
X8294Y8267D01*
X8287Y8259D01*
X8281Y8251D01*
X8277Y8242D01*
X8275Y8232D01*
X8274Y8222D01*
X8275Y8212D01*
X8278Y8202D01*
X8282Y8193D01*
X8288Y8185D01*
X8295Y8178D01*
X8303Y8172D01*
X8312Y8168D01*
X8322Y8165D01*
X8332Y8164D01*
X8342Y8165D01*
X8352Y8167D01*
X8361Y8172D01*
X8369Y8177D01*
X8377Y8184D01*
X8383Y8192D01*
X8358Y8038D02*
X8352Y8030D01*
X8348Y8022D01*
X8347Y8013D01*
X8483Y8148D02*
X8473Y8147D01*
X8465Y8143D01*
X8458Y8138D01*
X8483Y8148D02*
X8473Y8147D01*
X8465Y8143D01*
X8458Y8138D01*
X8383Y8192D02*
X8389Y8184D01*
X8396Y8177D01*
X8404Y8171D01*
X8414Y8167D01*
X8423Y8165D01*
X8433Y8164D01*
X8443Y8165D01*
X8453Y8168D01*
X8462Y8172D01*
X8471Y8178D01*
X8478Y8185D01*
X8483Y8194D01*
X8488Y8203D01*
X8490Y8213D01*
X8491Y8223D01*
X8602Y8273D02*
X8594Y8267D01*
X8587Y8260D01*
X8582Y8252D01*
X8578Y8243D01*
X8575Y8233D01*
X8574Y8224D01*
X8575Y8214D01*
X8577Y8204D01*
X8581Y8195D01*
X8586Y8187D01*
X8593Y8180D01*
X8601Y8174D01*
X8609Y8169D01*
X8619Y8166D01*
X8628Y8164D01*
X8638Y8164D01*
X8648Y8166D01*
X8795Y7010D02*
X8794Y7000D01*
X8795Y6991D01*
X8798Y6981D01*
X8803Y6972D01*
X8809Y6964D01*
X8816Y6957D01*
X8824Y6952D01*
X8833Y6947D01*
X8843Y6945D01*
X8853Y6944D01*
X8863Y6945D01*
X8872Y6948D01*
X8881Y6952D01*
X8890Y6957D01*
X8897Y6964D01*
X8903Y6972D01*
X9004Y6821D02*
X9010Y6828D01*
X9015Y6836D01*
X9018Y6844D01*
X9020Y6853D01*
X9021Y6863D01*
X9020Y6873D01*
X9018Y6882D01*
X9014Y6891D01*
X9008Y6900D01*
X9001Y6907D01*
X8993Y6913D01*
X8984Y6917D01*
X8974Y6920D01*
X8965Y6921D01*
X8955Y6921D01*
X8945Y6918D01*
X8936Y6915D01*
X8927Y6909D01*
X8920Y6902D01*
X8914Y6895D01*
X8909Y6886D01*
X8906Y6876D01*
X8904Y6866D01*
X8904Y6857D01*
X8906Y6847D01*
X8910Y6837D01*
X8915Y6829D01*
X8921Y6821D01*
X8903Y6972D02*
X8909Y6964D01*
X8916Y6957D01*
X8924Y6951D01*
X8934Y6947D01*
X8943Y6945D01*
X8953Y6944D01*
X8963Y6945D01*
X8973Y6948D01*
X8982Y6952D01*
X8991Y6958D01*
X8998Y6965D01*
X9003Y6974D01*
X9008Y6983D01*
X9010Y6993D01*
X9011Y7003D01*
X9261Y6731D02*
X9269Y6725D01*
X9277Y6720D01*
X9287Y6716D01*
X9296Y6714D01*
X9306Y6714D01*
X9316Y6716D01*
X9326Y6719D01*
X9335Y6724D01*
X9342Y6730D01*
X9349Y6737D01*
X9476D02*
X9483Y6730D01*
X9490Y6724D01*
X9499Y6719D01*
X9508Y6716D01*
X9517Y6714D01*
X9527Y6714D01*
X9537Y6716D01*
X9546Y6719D01*
X9554Y6724D01*
X9562Y6729D01*
X9569Y6737D01*
X9574Y6745D01*
X9578Y6754D01*
X9580Y6763D01*
X9581Y6773D01*
X9892Y6823D02*
X9884Y6817D01*
X9877Y6810D01*
X9872Y6801D01*
X9868Y6792D01*
X9865Y6783D01*
X9864Y6773D01*
X9865Y6763D01*
X9867Y6753D01*
X9871Y6744D01*
X9877Y6736D01*
X9884Y6729D01*
X9892Y6723D01*
X9901Y6718D01*
X9910Y6716D01*
X9920Y6714D01*
X9930Y6715D01*
X9940Y6717D01*
X9949Y6720D01*
X9957Y6725D01*
X9965Y6732D01*
X9581Y6773D02*
X9580Y6783D01*
X9578Y6792D01*
X9574Y6801D01*
X9568Y6810D01*
X9561Y6817D01*
X9553Y6823D01*
X9561Y6829D01*
X9568Y6836D01*
X9574Y6844D01*
X9578Y6853D01*
X9580Y6863D01*
X9581Y6873D01*
X9580Y6883D01*
X9578Y6892D01*
X9574Y6901D01*
X9568Y6910D01*
X9561Y6917D01*
X9553Y6923D01*
X9561Y6929D01*
X9568Y6936D01*
X9574Y6944D01*
X9578Y6953D01*
X9580Y6963D01*
X9581Y6973D01*
X9580Y6983D01*
X9578Y6992D01*
X9574Y7001D01*
X9568Y7010D01*
X9561Y7017D01*
X9553Y7023D01*
X9892Y6923D02*
X9884Y6917D01*
X9877Y6910D01*
X9872Y6901D01*
X9868Y6892D01*
X9865Y6883D01*
X9864Y6873D01*
X9865Y6863D01*
X9868Y6853D01*
X9872Y6844D01*
X9877Y6836D01*
X9884Y6829D01*
X9892Y6823D01*
Y7023D02*
X9884Y7017D01*
X9877Y7010D01*
X9872Y7001D01*
X9868Y6992D01*
X9865Y6983D01*
X9864Y6973D01*
X9865Y6963D01*
X9868Y6953D01*
X9872Y6944D01*
X9877Y6936D01*
X9884Y6929D01*
X9892Y6923D01*
X8860Y7061D02*
X8853Y7061D01*
X8845Y7061D01*
X9011Y7003D02*
X9010Y7013D01*
X9007Y7023D01*
X9003Y7033D01*
X8997Y7041D01*
X8989Y7048D01*
X8981Y7054D01*
X8971Y7058D01*
X8961Y7061D01*
X9013Y7198D02*
X9003Y7197D01*
X8995Y7193D01*
X8988Y7188D01*
X9013Y7198D02*
X9003Y7197D01*
X8995Y7193D01*
X8988Y7188D01*
X9553Y7023D02*
X9561Y7029D01*
X9568Y7036D01*
X9574Y7044D01*
X9578Y7053D01*
X9580Y7063D01*
X9581Y7073D01*
X9580Y7082D01*
X9578Y7091D01*
X9574Y7100D01*
X9569Y7108D01*
X9563Y7115D01*
X9542Y7208D02*
X9533Y7204D01*
X9525Y7198D01*
X9563Y7115D02*
X9574Y7117D01*
X9583Y7122D01*
X9592Y7129D01*
X9598Y7137D01*
X9603Y7147D01*
X9630Y7121D02*
X9620Y7119D01*
X9610Y7115D01*
X9602Y7109D01*
X9595Y7102D01*
X9589Y7093D01*
X9586Y7084D01*
X9585Y7074D01*
X9585Y7064D01*
X9588Y7054D01*
X9593Y7045D01*
X9600Y7037D01*
X9608Y7031D01*
X9617Y7027D01*
X9627Y7025D01*
X9638Y7025D01*
X9647Y7027D01*
X9657Y7031D01*
X9665Y7037D01*
X9590Y8170D02*
X9600Y8171D01*
X9610Y8173D01*
X9619Y8177D01*
X9627Y8183D01*
X9633Y8190D01*
X9639Y8198D01*
X9643Y8207D01*
X9647Y8197D01*
X9652Y8189D01*
X9660Y8182D01*
X9668Y8176D01*
X9678Y8172D01*
X9688Y8170D01*
X9698D01*
X9708Y8172D01*
X9717Y8176D01*
X9726Y8182D01*
X9733Y8189D01*
X9739Y8197D01*
X9743Y8207D01*
X9951Y7403D02*
X9950Y7413D01*
X9948Y7422D01*
X9944Y7432D01*
X9938Y7440D01*
X9931Y7447D01*
X9923Y7453D01*
X9914Y7457D01*
X9904Y7460D01*
X9894Y7461D01*
X9884Y7460D01*
X9874Y7458D01*
X9865Y7454D01*
X9857Y7449D01*
X9849Y7442D01*
X9843Y7434D01*
X8027Y8505D02*
X8022Y8514D01*
X8016Y8522D01*
X8009Y8529D01*
X8000Y8534D01*
X7991Y8538D01*
X7981Y8541D01*
X7971Y8541D01*
X7961Y8540D01*
X7952Y8537D01*
X7943Y8533D01*
X7934Y8527D01*
X7927Y8520D01*
X7922Y8511D01*
X7918Y8502D01*
X7915Y8493D01*
X7914Y8483D01*
X7915Y8473D01*
X7918Y8463D01*
X7922Y8454D01*
X7927Y8445D01*
X7934Y8438D01*
X7943Y8432D01*
X7952Y8428D01*
X7961Y8425D01*
X7971Y8424D01*
X7981Y8425D01*
X7991Y8427D01*
X8000Y8431D01*
X8009Y8437D01*
X8016Y8443D01*
X8022Y8451D01*
X8075Y8310D02*
X8078Y8301D01*
X8082Y8293D01*
X8088Y8285D01*
X8095Y8278D01*
X8102Y8273D01*
X8033Y8513D02*
X8027Y8505D01*
X8033Y8513D02*
X8027Y8505D01*
X8031Y8683D02*
X8031Y8690D01*
X8108Y8573D02*
X8098Y8572D01*
X8090Y8568D01*
X8083Y8563D01*
X8108Y8573D02*
X8098Y8572D01*
X8090Y8568D01*
X8083Y8563D01*
X8191Y8223D02*
X8191Y8230D01*
X8491Y8223D02*
X8490Y8233D01*
X8488Y8242D01*
X8484Y8251D01*
X8478Y8260D01*
X8471Y8267D01*
X8463Y8273D01*
X8275Y8315D02*
X8277Y8304D01*
X8281Y8295D01*
X8287Y8286D01*
X8294Y8279D01*
X8302Y8273D01*
X8463D02*
X8471Y8279D01*
X8478Y8286D01*
X8484Y8294D01*
X8488Y8303D01*
X8490Y8313D01*
X8491Y8323D01*
X8490Y8333D01*
X8488Y8343D01*
X8483Y8352D01*
X8677Y8261D02*
X8670Y8267D01*
X8663Y8273D01*
X8683Y8269D02*
X8677Y8261D01*
X8683Y8269D02*
X8677Y8261D01*
X8582Y8352D02*
X8578Y8343D01*
X8575Y8333D01*
X8574Y8323D01*
X8575Y8313D01*
X8577Y8303D01*
X8581Y8294D01*
X8587Y8286D01*
X8594Y8279D01*
X8602Y8273D01*
X8663D02*
X8671Y8279D01*
X8678Y8286D01*
X8684Y8294D01*
X8688Y8303D01*
X8690Y8313D01*
X8691Y8323D01*
X8690Y8333D01*
X8688Y8343D01*
X8683Y8352D01*
X8583Y8459D02*
X8578Y8468D01*
X8572Y8477D01*
X8565Y8484D01*
X8556Y8490D01*
X8546Y8493D01*
X8554Y8498D01*
X8562Y8504D01*
X8568Y8511D01*
X8572Y8519D01*
X8575Y8528D01*
X8576Y8538D01*
X8683Y8459D02*
X8679Y8468D01*
X8673Y8476D01*
X8666Y8484D01*
X8657Y8489D01*
X8648Y8493D01*
X8638Y8495D01*
X8628D01*
X8618Y8493D01*
X8608Y8489D01*
X8600Y8484D01*
X8592Y8476D01*
X8587Y8468D01*
X8583Y8459D01*
X8576Y8538D02*
X8575Y8548D01*
X8571Y8557D01*
X8566Y8566D01*
X8560Y8573D01*
X8552Y8579D01*
X8542Y8583D01*
X8532Y8585D01*
X8522Y8585D01*
X8513Y8583D01*
X8503Y8579D01*
X8495Y8573D01*
X7980Y8741D02*
X7970Y8741D01*
X7960Y8740D01*
X7951Y8737D01*
X7942Y8732D01*
X7934Y8726D01*
X7927Y8719D01*
X7921Y8710D01*
X7917Y8701D01*
X7915Y8691D01*
X7914Y8681D01*
X7915Y8671D01*
X7918Y8661D01*
X7923Y8652D01*
X7929Y8644D01*
X7936Y8637D01*
X7944Y8631D01*
X7954Y8627D01*
X7963Y8625D01*
X7973Y8624D01*
X7983Y8625D01*
X7993Y8628D01*
X8002Y8632D01*
X8011Y8638D01*
X8018Y8645D01*
X8023Y8654D01*
X8028Y8663D01*
X8030Y8673D01*
X8031Y8683D01*
X8094Y8707D02*
X8101Y8700D01*
X8110Y8695D01*
X8119Y8692D01*
X8129Y8690D01*
X8139Y8691D01*
X8149Y8693D01*
X8158Y8697D01*
X8166Y8702D01*
X8173Y8709D01*
X8179Y8717D01*
X8183Y8727D01*
X8187Y8717D01*
X8192Y8709D01*
X8200Y8702D01*
X8208Y8696D01*
X8218Y8692D01*
X8228Y8690D01*
X8238D01*
X8248Y8692D01*
X8257Y8696D01*
X8266Y8702D01*
X8273Y8709D01*
X8279Y8717D01*
X8283Y8727D01*
X8183Y8759D02*
X8179Y8768D01*
X8173Y8776D01*
X8166Y8783D01*
X8158Y8789D01*
X8149Y8793D01*
X8139Y8795D01*
X8129Y8795D01*
X8119Y8793D01*
X8110Y8790D01*
X8101Y8785D01*
X8094Y8778D01*
X8283Y8759D02*
X8279Y8768D01*
X8273Y8776D01*
X8266Y8784D01*
X8257Y8789D01*
X8248Y8793D01*
X8238Y8795D01*
X8228D01*
X8218Y8793D01*
X8208Y8789D01*
X8200Y8784D01*
X8192Y8776D01*
X8187Y8768D01*
X8183Y8759D01*
X8008Y8868D02*
X8002Y8860D01*
X7998Y8852D01*
X7997Y8843D01*
X8008Y8868D02*
X8002Y8860D01*
X7998Y8852D01*
X7997Y8843D01*
X7911Y8907D02*
X7919Y8901D01*
X7928Y8897D01*
X7938Y8893D01*
X7947Y8890D01*
X7957Y8887D01*
X7967Y8886D01*
X7977Y8885D01*
X7987Y8885D01*
X7997Y8885D01*
X8007Y8887D01*
X8017Y8889D01*
X8027Y8893D01*
X8036Y8896D01*
X8094Y9076D02*
X8088Y9085D01*
X8085Y8845D02*
X8087Y8835D01*
X8091Y8826D01*
X8096Y8819D01*
X8103Y8812D01*
X8111Y8807D01*
X8120Y8803D01*
X8130Y8802D01*
X8139Y8802D01*
X8149Y8804D01*
X8157Y8808D01*
X8165Y8814D01*
X8303Y9053D02*
X8297Y9061D01*
X8290Y9068D01*
X8282Y9073D01*
X8274Y9077D01*
X8264Y9080D01*
X8255Y9081D01*
X8245Y9081D01*
X8236Y9079D01*
X8227Y9075D01*
X8218Y9070D01*
X8211Y9064D01*
X8283Y8727D02*
X8287Y8717D01*
X8292Y8709D01*
X8300Y8702D01*
X8308Y8696D01*
X8318Y8692D01*
X8328Y8690D01*
X8338D01*
X8348Y8692D01*
X8357Y8696D01*
X8366Y8702D01*
X8373Y8709D01*
X8379Y8717D01*
X8383Y8727D01*
Y8759D02*
X8379Y8768D01*
X8373Y8776D01*
X8366Y8784D01*
X8357Y8789D01*
X8348Y8793D01*
X8338Y8795D01*
X8328D01*
X8318Y8793D01*
X8308Y8789D01*
X8300Y8784D01*
X8292Y8776D01*
X8287Y8768D01*
X8283Y8759D01*
X8435Y8795D02*
X8425Y8795D01*
X8416Y8792D01*
X8407Y8788D01*
X8399Y8783D01*
X8392Y8776D01*
X8386Y8768D01*
X8383Y8759D01*
Y8727D02*
X8387Y8717D01*
X8392Y8709D01*
X8400Y8702D01*
X8408Y8696D01*
X8418Y8692D01*
X8428Y8690D01*
X8438D01*
X8448Y8692D01*
X8457Y8696D01*
X8466Y8702D01*
X8473Y8709D01*
X8479Y8717D01*
X8483Y8727D01*
X8486Y8718D01*
X8492Y8710D01*
X8499Y8703D01*
X8507Y8697D01*
X8516Y8693D01*
X8525Y8691D01*
X8535Y8690D01*
X8403Y9053D02*
X8397Y9061D01*
X8390Y9068D01*
X8381Y9074D01*
X8372Y9078D01*
X8363Y9080D01*
X8353Y9081D01*
X8343Y9080D01*
X8333Y9078D01*
X8324Y9074D01*
X8316Y9068D01*
X8309Y9061D01*
X8303Y9053D01*
X8503D02*
X8497Y9061D01*
X8490Y9068D01*
X8481Y9074D01*
X8472Y9078D01*
X8463Y9080D01*
X8453Y9081D01*
X8443Y9080D01*
X8433Y9078D01*
X8424Y9074D01*
X8416Y9068D01*
X8409Y9061D01*
X8403Y9053D01*
X8603D02*
X8597Y9061D01*
X8590Y9068D01*
X8581Y9074D01*
X8572Y9078D01*
X8563Y9080D01*
X8553Y9081D01*
X8543Y9080D01*
X8533Y9078D01*
X8524Y9074D01*
X8516Y9068D01*
X8509Y9061D01*
X8503Y9053D01*
X8545Y8965D02*
X8554Y8964D01*
X8564Y8965D01*
X8573Y8968D01*
X8582Y8972D01*
X8590Y8978D01*
X8597Y8984D01*
X8603Y8992D01*
X8742Y8313D02*
X8732Y8312D01*
X8724Y8308D01*
X8717Y8303D01*
X8742Y8313D02*
X8732Y8312D01*
X8724Y8308D01*
X8717Y8303D01*
X9363D02*
X9355Y8308D01*
X9347Y8312D01*
X9338Y8313D01*
X9363Y8303D02*
X9355Y8308D01*
X9347Y8312D01*
X9338Y8313D01*
X9443Y8239D02*
X9439Y8248D01*
X9433Y8256D01*
X9427Y8263D01*
X9419Y8268D01*
X9410Y8272D01*
X9400Y8275D01*
X9390Y8275D01*
X8730Y8495D02*
X8720Y8493D01*
X8710Y8490D01*
X8701Y8484D01*
X8693Y8477D01*
X8687Y8468D01*
X8683Y8459D01*
X9160Y8598D02*
X9165Y8602D01*
X9543Y8239D02*
X9539Y8248D01*
X9533Y8256D01*
X9526Y8264D01*
X9517Y8269D01*
X9508Y8273D01*
X9498Y8275D01*
X9488D01*
X9478Y8273D01*
X9468Y8269D01*
X9460Y8264D01*
X9452Y8256D01*
X9447Y8248D01*
X9443Y8239D01*
X9643D02*
X9639Y8248D01*
X9633Y8256D01*
X9626Y8264D01*
X9617Y8269D01*
X9608Y8273D01*
X9598Y8275D01*
X9588D01*
X9578Y8273D01*
X9568Y8269D01*
X9560Y8264D01*
X9552Y8256D01*
X9547Y8248D01*
X9543Y8239D01*
X9743D02*
X9739Y8248D01*
X9733Y8256D01*
X9726Y8264D01*
X9717Y8269D01*
X9708Y8273D01*
X9698Y8275D01*
X9688D01*
X9678Y8273D01*
X9668Y8269D01*
X9660Y8264D01*
X9652Y8256D01*
X9647Y8248D01*
X9643Y8239D01*
X9743Y8207D02*
X9746Y8198D01*
X9752Y8190D01*
X9759Y8183D01*
X9767Y8177D01*
X9776Y8173D01*
X9785Y8171D01*
X9795Y8170D01*
X9843Y8239D02*
X9839Y8248D01*
X9833Y8256D01*
X9826Y8264D01*
X9817Y8269D01*
X9808Y8273D01*
X9798Y8275D01*
X9788D01*
X9778Y8273D01*
X9768Y8269D01*
X9760Y8264D01*
X9752Y8256D01*
X9747Y8248D01*
X9743Y8239D01*
X9943D02*
X9939Y8248D01*
X9933Y8256D01*
X9926Y8264D01*
X9917Y8269D01*
X9908Y8273D01*
X9898Y8275D01*
X9888D01*
X9878Y8273D01*
X9868Y8269D01*
X9860Y8264D01*
X9852Y8256D01*
X9847Y8248D01*
X9843Y8239D01*
X9578Y8352D02*
X9587Y8353D01*
X9595Y8357D01*
X9603Y8363D01*
X9578Y8352D02*
X9587Y8353D01*
X9595Y8357D01*
X9603Y8363D01*
X9625Y8385D02*
X9635Y8384D01*
X9645Y8385D01*
X9654Y8388D01*
X9663Y8393D01*
X9671Y8399D01*
X9678Y8406D01*
X9684Y8414D01*
X9688Y8423D01*
X9690Y8433D01*
X9691Y8443D01*
X9433Y8602D02*
X9442Y8603D01*
X9450Y8607D01*
X9458Y8613D01*
X9433Y8602D02*
X9442Y8603D01*
X9450Y8607D01*
X9458Y8613D01*
X9691Y8443D02*
X9690Y8452D01*
X9688Y8461D01*
X9685Y8469D01*
X9680Y8477D01*
X9805Y8360D02*
X9806Y8351D01*
X9810Y8342D01*
X9815Y8333D01*
X9821Y8326D01*
X9829Y8321D01*
X9838Y8317D01*
X9848Y8315D01*
X9858Y8315D01*
X9867Y8317D01*
X9876Y8321D01*
X9844Y8588D02*
X9837Y8593D01*
X9829Y8597D01*
X9844Y8588D02*
X9837Y8593D01*
X9829Y8597D01*
X9836Y8604D01*
X9843Y8612D01*
X9848Y8604D01*
X9855Y8598D01*
X9863Y8592D01*
X9872Y8588D01*
X9882Y8585D01*
X9891Y8584D01*
X9901Y8585D01*
X9911Y8587D01*
X9920Y8591D01*
X9928Y8596D01*
X9935Y8602D01*
X9941Y8610D01*
X9946Y8619D01*
X8603Y8992D02*
X8609Y8984D01*
X8616Y8977D01*
X8624Y8971D01*
X8634Y8967D01*
X8643Y8965D01*
X8653Y8964D01*
X8663Y8965D01*
X8673Y8968D01*
X8682Y8972D01*
X8691Y8978D01*
X8698Y8985D01*
X8703Y8994D01*
X8708Y9003D01*
X8710Y9013D01*
X8711Y9023D01*
Y9023D02*
X8710Y9033D01*
X8708Y9042D01*
X8703Y9052D01*
X8698Y9060D01*
X8691Y9067D01*
X8682Y9073D01*
X8673Y9077D01*
X8663Y9080D01*
X8653Y9081D01*
X8643Y9080D01*
X8634Y9078D01*
X8624Y9074D01*
X8616Y9068D01*
X8609Y9061D01*
X8603Y9053D01*
X9461Y8965D02*
X9471Y8967D01*
X9481Y8971D01*
X9489Y8977D01*
X9497Y8984D01*
X9503Y8993D01*
X9507Y9002D01*
X9510Y9012D01*
X9511Y9023D01*
X9103Y9053D02*
X9097Y9061D01*
X9090Y9068D01*
X9082Y9073D01*
X9074Y9077D01*
X9064Y9080D01*
X9055Y9081D01*
X9045Y9081D01*
X9036Y9079D01*
X9027Y9075D01*
X9018Y9070D01*
X9011Y9064D01*
X9511Y9023D02*
X9510Y9033D01*
X9508Y9042D01*
X9503Y9052D01*
X9498Y9060D01*
X9491Y9067D01*
X9482Y9073D01*
X9473Y9077D01*
X9463Y9080D01*
X9453Y9081D01*
X9443Y9080D01*
X9434Y9078D01*
X9424Y9074D01*
X9416Y9068D01*
X9409Y9061D01*
X9403Y9053D01*
X9203D02*
X9197Y9061D01*
X9190Y9068D01*
X9181Y9074D01*
X9172Y9078D01*
X9163Y9080D01*
X9153Y9081D01*
X9143Y9080D01*
X9133Y9078D01*
X9124Y9074D01*
X9116Y9068D01*
X9109Y9061D01*
X9103Y9053D01*
X9303D02*
X9297Y9061D01*
X9290Y9068D01*
X9281Y9074D01*
X9272Y9078D01*
X9263Y9080D01*
X9253Y9081D01*
X9243Y9080D01*
X9233Y9078D01*
X9224Y9074D01*
X9216Y9068D01*
X9209Y9061D01*
X9203Y9053D01*
X9403D02*
X9397Y9061D01*
X9390Y9068D01*
X9381Y9074D01*
X9372Y9078D01*
X9363Y9080D01*
X9353Y9081D01*
X9343Y9080D01*
X9333Y9078D01*
X9324Y9074D01*
X9316Y9068D01*
X9309Y9061D01*
X9303Y9053D01*
X9533Y8688D02*
X9538Y8695D01*
X9542Y8703D01*
X9543Y8713D01*
X9533Y8688D02*
X9538Y8695D01*
X9542Y8703D01*
X9543Y8713D01*
X9691Y8643D02*
X9690Y8653D01*
X9688Y8663D01*
X9683Y8672D01*
X9677Y8680D01*
X9670Y8687D01*
X9662Y8693D01*
X9653Y8698D01*
X9643Y8700D01*
X9633Y8701D01*
X9623Y8700D01*
X9613Y8698D01*
X9604Y8693D01*
X9595Y8688D01*
X9588Y8680D01*
X9582Y8672D01*
X9578Y8663D01*
X9575Y8653D01*
X9574Y8643D01*
X9575Y8633D01*
X9578Y8623D01*
X9582Y8614D01*
X9588Y8605D01*
X9595Y8598D01*
X9671D02*
X9678Y8605D01*
X9683Y8614D01*
X9688Y8623D01*
X9690Y8633D01*
X9691Y8643D01*
X9843Y8673D02*
X9837Y8681D01*
X9829Y8688D01*
X9821Y8694D01*
X9812Y8698D01*
X9802Y8700D01*
X9792Y8701D01*
X9782Y8700D01*
X9772Y8697D01*
X9763Y8693D01*
X9755Y8687D01*
X9748Y8680D01*
X9742Y8672D01*
X9738Y8663D01*
X9735Y8653D01*
X9734Y8643D01*
X9735Y8633D01*
X9738Y8623D01*
X9742Y8614D01*
X9748Y8605D01*
X9755Y8598D01*
X9900Y8701D02*
X9891Y8701D01*
X9881Y8700D01*
X9872Y8697D01*
X9863Y8693D01*
X9855Y8688D01*
X9848Y8681D01*
X9843Y8673D01*
X9543Y8868D02*
X9542Y8877D01*
X9538Y8885D01*
X9533Y8893D01*
X9543Y8868D02*
X9542Y8877D01*
X9538Y8885D01*
X9533Y8893D01*
X9752Y9085D02*
X9745Y9077D01*
X9740Y9068D01*
X9736Y9059D01*
X9734Y9049D01*
X9734Y9039D01*
X9736Y9029D01*
X9739Y9019D01*
X9744Y9010D01*
X9750Y9002D01*
X9758Y8996D01*
X9766Y8990D01*
X9776Y8987D01*
X9786Y8985D01*
X9796Y8984D01*
X9806Y8986D01*
X9815Y8989D01*
X9824Y8993D01*
X9832Y9000D01*
X9839Y9007D01*
X9846D02*
X9853Y9000D01*
X9860Y8994D01*
X9869Y8989D01*
X9878Y8986D01*
X9887Y8984D01*
X9897Y8984D01*
X9907Y8986D01*
X9916Y8989D01*
X9924Y8994D01*
X9932Y8999D01*
X9939Y9007D01*
X9944Y9015D01*
X9948Y9024D01*
X9950Y9033D01*
X9951Y9043D01*
X9965Y6732D02*
X9973Y6728D01*
X9983Y6727D01*
X9876Y7037D02*
X9884Y7029D01*
X9892Y7023D01*
X9965Y6732D02*
X9973Y6728D01*
X9983Y6727D01*
X10611Y6863D02*
X10610Y6873D01*
X10607Y6884D01*
X10602Y6894D01*
X10596Y6902D01*
X10611Y6858D02*
X10611Y6863D01*
X10773Y6787D02*
X10780Y6779D01*
X10788Y6773D01*
X10798Y6768D01*
X10808Y6765D01*
X10819Y6764D01*
X10846D02*
X10856Y6765D01*
X10866Y6768D01*
X10875Y6772D01*
X10884Y6778D01*
X10891Y6785D01*
X10897Y6793D01*
X10901Y6803D01*
X10904Y6812D01*
X10905Y6823D01*
X10904Y6833D01*
X10901Y6842D01*
X10897Y6851D01*
X10891Y6860D01*
X10885Y6867D01*
X10876Y6873D01*
X10658Y6902D02*
X10667Y6903D01*
X10675Y6907D01*
X10683Y6913D01*
X10658Y6902D02*
X10667Y6903D01*
X10675Y6907D01*
X10683Y6913D01*
X10758Y6988D02*
X10761Y6991D01*
X10758Y6988D02*
X10761Y6991D01*
X10789Y6873D02*
X10780Y6866D01*
X10773Y6858D01*
X10778Y6964D02*
X10772Y6957D01*
X10767Y6949D01*
X10763Y6940D01*
X10761Y6930D01*
X10761Y6921D01*
X10762Y6911D01*
X10764Y6902D01*
X10769Y6893D01*
X10774Y6885D01*
X10781Y6878D01*
X10789Y6873D01*
X10876D02*
X10885Y6879D01*
X10891Y6886D01*
X10897Y6894D01*
X10901Y6903D01*
X10904Y6913D01*
X10905Y6923D01*
X10904Y6932D01*
X10902Y6941D01*
X10898Y6949D01*
X10893Y6957D01*
X10887Y6964D01*
X9943Y7373D02*
X9948Y7382D01*
X9950Y7392D01*
X9951Y7403D01*
X10103Y7433D02*
X10097Y7441D01*
X10089Y7448D01*
X10081Y7454D01*
X10072Y7458D01*
X10062Y7460D01*
X10052Y7461D01*
X10042Y7460D01*
X10032Y7457D01*
X10023Y7453D01*
X10014Y7447D01*
X10007Y7440D01*
X10002Y7431D01*
X9997Y7422D01*
X9995Y7412D01*
X9994Y7402D01*
X9995Y7392D01*
X9998Y7382D01*
X10002Y7373D01*
X10203Y7433D02*
X10197Y7441D01*
X10190Y7448D01*
X10181Y7454D01*
X10172Y7458D01*
X10163Y7460D01*
X10153Y7461D01*
X10143Y7460D01*
X10133Y7458D01*
X10124Y7454D01*
X10116Y7448D01*
X10109Y7441D01*
X10103Y7433D01*
X10303D02*
X10297Y7441D01*
X10290Y7448D01*
X10281Y7454D01*
X10272Y7458D01*
X10263Y7460D01*
X10253Y7461D01*
X10243Y7460D01*
X10233Y7458D01*
X10224Y7454D01*
X10216Y7448D01*
X10209Y7441D01*
X10203Y7433D01*
X10403D02*
X10397Y7441D01*
X10390Y7448D01*
X10381Y7454D01*
X10372Y7458D01*
X10363Y7460D01*
X10353Y7461D01*
X10343Y7460D01*
X10333Y7458D01*
X10324Y7454D01*
X10316Y7448D01*
X10309Y7441D01*
X10303Y7433D01*
X10503D02*
X10497Y7441D01*
X10490Y7448D01*
X10481Y7454D01*
X10472Y7458D01*
X10463Y7460D01*
X10453Y7461D01*
X10443Y7460D01*
X10433Y7458D01*
X10424Y7454D01*
X10416Y7448D01*
X10409Y7441D01*
X10403Y7433D01*
X9951Y7481D02*
X9958Y7475D01*
X9967Y7470D01*
X9976Y7467D01*
X9985Y7465D01*
X9995Y7464D01*
X10004Y7465D01*
X10014Y7468D01*
X10022Y7472D01*
X10030Y7478D01*
X10037Y7484D01*
X10043Y7492D01*
X10049Y7484D01*
X10056Y7477D01*
X10064Y7471D01*
X10074Y7467D01*
X10083Y7465D01*
X10093Y7464D01*
X10103Y7465D01*
X10113Y7468D01*
X10122Y7472D01*
X10131Y7478D01*
X10138Y7485D01*
X10143Y7494D01*
X10148Y7503D01*
X10150Y7513D01*
X10151Y7523D01*
X10117Y7576D02*
X10125Y7582D01*
X10133Y7589D01*
X10139Y7597D01*
X10143Y7607D01*
X10151Y7523D02*
X10150Y7532D01*
X10148Y7541D01*
X10144Y7550D01*
X10139Y7558D01*
X10133Y7565D01*
X10125Y7571D01*
X10117Y7576D01*
X10143Y7607D02*
X10147Y7597D01*
X10152Y7589D01*
X10160Y7582D01*
X10168Y7576D01*
X10178Y7572D01*
X10188Y7570D01*
X10198D01*
X10208Y7572D01*
X10217Y7576D01*
X10226Y7582D01*
X10233Y7589D01*
X10239Y7597D01*
X10243Y7607D01*
X10247Y7597D01*
X10252Y7589D01*
X10260Y7582D01*
X10268Y7576D01*
X10278Y7572D01*
X10288Y7570D01*
X10298D01*
X10308Y7572D01*
X10317Y7576D01*
X10326Y7582D01*
X10333Y7589D01*
X10339Y7597D01*
X10343Y7607D01*
X10346Y7598D01*
X10352Y7590D01*
X10359Y7583D01*
X10367Y7577D01*
X10376Y7573D01*
X10385Y7571D01*
X10395Y7570D01*
X10603Y7374D02*
X10608Y7383D01*
X10610Y7393D01*
X10611Y7403D01*
X10683Y7438D02*
X10673Y7437D01*
X10665Y7433D01*
X10658Y7428D01*
X10683Y7438D02*
X10673Y7437D01*
X10665Y7433D01*
X10658Y7428D01*
X10611Y7403D02*
X10610Y7413D01*
X10608Y7422D01*
X10603Y7432D01*
X10598Y7440D01*
X10591Y7447D01*
X10582Y7453D01*
X10573Y7457D01*
X10563Y7460D01*
X10553Y7461D01*
X10543Y7460D01*
X10534Y7458D01*
X10524Y7454D01*
X10516Y7448D01*
X10509Y7441D01*
X10503Y7433D01*
X10478Y7488D02*
X10485Y7482D01*
X10493Y7478D01*
X10503Y7477D01*
X10478Y7488D02*
X10485Y7482D01*
X10493Y7478D01*
X10503Y7477D01*
X10850D02*
X10858Y7471D01*
X10866Y7467D01*
X10876Y7465D01*
X10885Y7465D01*
X10894Y7466D01*
X10903Y7469D01*
X10911Y7474D01*
X10918Y7481D01*
X10745Y8223D02*
X10744Y8233D01*
X10741Y8243D01*
X10737Y8251D01*
X10730Y8259D01*
X10723Y8265D01*
X10715Y8270D01*
X10705Y8274D01*
X10695Y8275D01*
X10686Y8275D01*
X10676Y8272D01*
X10667Y8268D01*
X10659Y8263D01*
X10652Y8256D01*
X10646Y8248D01*
X10643Y8239D01*
X10918Y7481D02*
X10923Y7472D01*
X10928Y7464D01*
X10935Y7458D01*
X10943Y7452D01*
X10952Y7448D01*
X10961Y7445D01*
X10971Y7444D01*
X10980Y7445D01*
X10990Y7447D01*
X10999Y7450D01*
X11007Y7455D01*
X11014Y7461D01*
X11631Y6923D02*
X11630Y6933D01*
X11629Y6942D01*
X11626Y6952D01*
X11623Y6961D01*
X11618Y6970D01*
X11613Y6979D01*
X11607Y6986D01*
X11600Y6994D01*
X11593Y7000D01*
X11584Y7006D01*
X11576Y7011D01*
X11567Y7015D01*
X11557Y7018D01*
X11547Y7020D01*
X11538Y7021D01*
X11528D01*
X11518Y7020D01*
X11508Y7018D01*
X11499Y7015D01*
X11489Y7011D01*
X11481Y7006D01*
X11473Y7000D01*
X11465Y6994D01*
X11458Y6986D01*
X11452Y6979D01*
X11447Y6970D01*
X11443Y6961D01*
X11439Y6952D01*
X11437Y6942D01*
X11435Y6933D01*
X11435Y6923D01*
X11435Y6913D01*
X11437Y6903D01*
X11439Y6893D01*
X11443Y6884D01*
X11447Y6875D01*
X11452Y6867D01*
X11458Y6859D01*
X11465Y6852D01*
X11473Y6845D01*
X11481Y6839D01*
X11489Y6835D01*
X11499Y6831D01*
X11508Y6828D01*
X11518Y6826D01*
X11528Y6825D01*
X11538D01*
X11547Y6826D01*
X11557Y6828D01*
X11567Y6831D01*
X11576Y6835D01*
X11584Y6839D01*
X11593Y6845D01*
X11600Y6852D01*
X11607Y6859D01*
X11613Y6867D01*
X11618Y6875D01*
X11623Y6884D01*
X11626Y6893D01*
X11629Y6903D01*
X11630Y6913D01*
X11631Y6923D01*
X11471Y7203D02*
X11470Y7213D01*
X11468Y7222D01*
X11464Y7231D01*
X11458Y7239D01*
X11451Y7247D01*
X11443Y7252D01*
X11434Y7257D01*
X11425Y7260D01*
X11415Y7261D01*
X11405Y7261D01*
X11395Y7259D01*
X11386Y7255D01*
X11378Y7250D01*
X11370Y7243D01*
X11364Y7235D01*
X11359Y7227D01*
X11356Y7217D01*
X11354Y7208D01*
Y7198D01*
X11356Y7188D01*
X11359Y7179D01*
X11364Y7170D01*
X11370Y7162D01*
X11378Y7156D01*
X11386Y7150D01*
X11395Y7147D01*
X11405Y7145D01*
X11415Y7144D01*
X11425Y7145D01*
X11434Y7148D01*
X11443Y7153D01*
X11451Y7159D01*
X11458Y7166D01*
X11464Y7174D01*
X11468Y7183D01*
X11470Y7193D01*
X11471Y7203D01*
X11405Y7265D02*
X11415Y7264D01*
X11425Y7265D01*
X11434Y7268D01*
X11443Y7273D01*
X11451Y7279D01*
X11458Y7286D01*
X11464Y7294D01*
X11468Y7303D01*
X11470Y7313D01*
X11471Y7323D01*
X11470Y7332D01*
X11468Y7340D01*
X11465Y7348D01*
X11461Y7356D01*
X11671Y7203D02*
X11670Y7213D01*
X11668Y7222D01*
X11664Y7231D01*
X11658Y7239D01*
X11651Y7247D01*
X11643Y7252D01*
X11634Y7257D01*
X11625Y7260D01*
X11615Y7261D01*
X11605Y7261D01*
X11595Y7259D01*
X11586Y7255D01*
X11578Y7250D01*
X11570Y7243D01*
X11564Y7235D01*
X11559Y7227D01*
X11556Y7217D01*
X11554Y7208D01*
Y7198D01*
X11556Y7188D01*
X11559Y7179D01*
X11564Y7170D01*
X11570Y7162D01*
X11578Y7156D01*
X11586Y7150D01*
X11595Y7147D01*
X11605Y7145D01*
X11615Y7144D01*
X11625Y7145D01*
X11634Y7148D01*
X11643Y7153D01*
X11651Y7159D01*
X11658Y7166D01*
X11664Y7174D01*
X11668Y7183D01*
X11670Y7193D01*
X11671Y7203D01*
Y7323D02*
X11670Y7333D01*
X11668Y7342D01*
X11664Y7351D01*
X11658Y7359D01*
X11651Y7367D01*
X11643Y7372D01*
X11634Y7377D01*
X11625Y7380D01*
X11615Y7381D01*
X11605Y7381D01*
X11595Y7379D01*
X11586Y7375D01*
X11578Y7370D01*
X11570Y7363D01*
X11564Y7355D01*
X11559Y7347D01*
X11556Y7337D01*
X11554Y7328D01*
Y7318D01*
X11556Y7308D01*
X11559Y7299D01*
X11564Y7290D01*
X11570Y7282D01*
X11578Y7276D01*
X11586Y7270D01*
X11595Y7267D01*
X11605Y7265D01*
X11615Y7264D01*
X11625Y7265D01*
X11634Y7268D01*
X11643Y7273D01*
X11651Y7279D01*
X11658Y7286D01*
X11664Y7294D01*
X11668Y7303D01*
X11670Y7313D01*
X11671Y7323D01*
X11755Y6718D02*
X11746Y6724D01*
X11737Y6728D01*
X11728Y6732D01*
X11718Y6736D01*
X11709Y6738D01*
X11699Y6740D01*
X11689Y6741D01*
X11679Y6741D01*
X11668Y6740D01*
X11659Y6738D01*
X11733Y6813D02*
X11738Y6820D01*
X11742Y6828D01*
X11743Y6838D01*
X11733Y6813D02*
X11738Y6820D01*
X11742Y6828D01*
X11743Y6838D01*
X11461Y7823D02*
X11470Y7818D01*
X11480Y7815D01*
X11490Y7815D01*
X11500Y7816D01*
X11510Y7820D01*
X11519Y7826D01*
X11526Y7834D01*
X11531Y7842D01*
X11534Y7852D01*
X11536Y7863D01*
X11611Y7603D02*
X11610Y7613D01*
X11608Y7622D01*
X11604Y7631D01*
X11598Y7639D01*
X11591Y7647D01*
X11583Y7652D01*
X11574Y7657D01*
X11565Y7660D01*
X11555Y7661D01*
X11545Y7661D01*
X11535Y7659D01*
X11526Y7655D01*
X11518Y7650D01*
X11510Y7643D01*
X11504Y7635D01*
X11499Y7627D01*
X11496Y7617D01*
X11494Y7608D01*
Y7598D01*
X11496Y7588D01*
X11499Y7579D01*
X11504Y7570D01*
X11510Y7562D01*
X11518Y7556D01*
X11526Y7550D01*
X11535Y7547D01*
X11545Y7545D01*
X11555Y7544D01*
X11565Y7545D01*
X11574Y7548D01*
X11583Y7553D01*
X11591Y7559D01*
X11598Y7566D01*
X11604Y7574D01*
X11608Y7583D01*
X11610Y7593D01*
X11611Y7603D01*
X11536Y7863D02*
X11535Y7871D01*
X11532Y7880D01*
X11528Y7888D01*
X11523Y7895D01*
X11381Y8098D02*
X11391Y8094D01*
X11401Y8092D01*
X11412Y8091D01*
X11422Y8091D01*
X11433Y8094D01*
X11443Y8097D01*
X11452Y8102D01*
X11434Y8232D02*
X11424Y8234D01*
X11414Y8235D01*
X11405Y8234D01*
X11395Y8233D01*
X11386Y8230D01*
X11377Y8225D01*
X11369Y8220D01*
X11362Y8214D01*
X11355Y8206D01*
X11350Y8198D01*
X11346Y8190D01*
X11343Y8180D01*
X11743Y8138D02*
X11742Y8147D01*
X11738Y8155D01*
X11733Y8163D01*
X11743Y8138D02*
X11742Y8147D01*
X11738Y8155D01*
X11733Y8163D01*
X9950Y8253D02*
X9946Y8246D01*
X9943Y8239D01*
X9933Y8263D02*
X9940Y8257D01*
X9950Y8253D01*
X9933Y8263D02*
X9940Y8257D01*
X9950Y8253D01*
X9876Y8321D02*
X9883Y8313D01*
X9876Y8321D02*
X9883Y8313D01*
X10031Y8378D02*
X10024Y8385D01*
X10016Y8390D01*
X10006Y8393D01*
X9997Y8395D01*
X9987Y8395D01*
X9977Y8393D01*
X9968Y8389D01*
X9960Y8384D01*
X9953Y8377D01*
X9947Y8369D01*
X9943Y8360D01*
X10143Y8359D02*
X10139Y8368D01*
X10133Y8376D01*
X10126Y8383D01*
X10118Y8389D01*
X10109Y8393D01*
X10099Y8395D01*
X10089Y8395D01*
X10079Y8393D01*
X10070Y8390D01*
X10061Y8385D01*
X10054Y8378D01*
X10643Y8239D02*
X10639Y8248D01*
X10633Y8256D01*
X10626Y8263D01*
X10618Y8269D01*
X10609Y8273D01*
X10599Y8275D01*
X10589Y8275D01*
X10580Y8274D01*
X10570Y8270D01*
X10231Y8378D02*
X10224Y8385D01*
X10215Y8390D01*
X10206Y8393D01*
X10196Y8395D01*
X10186Y8395D01*
X10177Y8393D01*
X10167Y8389D01*
X10159Y8383D01*
X10152Y8376D01*
X10147Y8368D01*
X10143Y8359D01*
X10343D02*
X10339Y8368D01*
X10333Y8376D01*
X10326Y8383D01*
X10318Y8389D01*
X10309Y8393D01*
X10299Y8395D01*
X10289Y8395D01*
X10279Y8393D01*
X10270Y8390D01*
X10261Y8385D01*
X10254Y8378D01*
X10431D02*
X10424Y8385D01*
X10415Y8390D01*
X10406Y8393D01*
X10396Y8395D01*
X10386Y8395D01*
X10377Y8393D01*
X10367Y8389D01*
X10359Y8383D01*
X10352Y8376D01*
X10347Y8368D01*
X10343Y8359D01*
X10543D02*
X10539Y8368D01*
X10533Y8376D01*
X10526Y8383D01*
X10518Y8389D01*
X10509Y8393D01*
X10499Y8395D01*
X10489Y8395D01*
X10479Y8393D01*
X10470Y8390D01*
X10461Y8385D01*
X10454Y8378D01*
X10631D02*
X10624Y8385D01*
X10615Y8390D01*
X10606Y8393D01*
X10596Y8395D01*
X10586Y8395D01*
X10577Y8393D01*
X10567Y8389D01*
X10559Y8383D01*
X10552Y8376D01*
X10547Y8368D01*
X10543Y8359D01*
X9943Y8474D02*
X9942Y8483D01*
X9938Y8491D01*
X9933Y8499D01*
X9943Y8474D02*
X9942Y8483D01*
X9938Y8491D01*
X9933Y8499D01*
X10590Y8290D02*
X10599Y8291D01*
X10608Y8293D01*
X10617Y8296D01*
X10625Y8301D01*
X10631Y8307D01*
X10654D02*
X10661Y8300D01*
X10670Y8295D01*
X10679Y8292D01*
X10689Y8290D01*
X10699Y8291D01*
X10709Y8293D01*
X10718Y8297D01*
X10726Y8302D01*
X10733Y8309D01*
X10739Y8317D01*
X10743Y8327D01*
Y8359D02*
X10739Y8368D01*
X10733Y8376D01*
X10726Y8383D01*
X10718Y8389D01*
X10709Y8393D01*
X10699Y8395D01*
X10689Y8395D01*
X10679Y8393D01*
X10670Y8390D01*
X10661Y8385D01*
X10654Y8378D01*
X10783Y8246D02*
X10773Y8245D01*
X10765Y8241D01*
X10758Y8236D01*
X10783Y8246D02*
X10773Y8245D01*
X10765Y8241D01*
X10758Y8236D01*
X10835Y8260D02*
X10838Y8246D01*
X10822Y8288D02*
X10823Y8278D01*
X10827Y8270D01*
X10833Y8263D01*
X10743Y8327D02*
X10746Y8318D01*
X10752Y8310D01*
X10759Y8303D01*
X10767Y8297D01*
X10776Y8293D01*
X10785Y8291D01*
X10795Y8290D01*
X10804Y8291D01*
X10814Y8295D01*
X10822Y8299D01*
Y8386D02*
X10814Y8391D01*
X10804Y8394D01*
X10795Y8395D01*
X10785Y8395D01*
X10776Y8392D01*
X10767Y8388D01*
X10759Y8383D01*
X10752Y8376D01*
X10746Y8368D01*
X10743Y8359D01*
X10822Y8288D02*
X10823Y8278D01*
X10827Y8270D01*
X10833Y8263D01*
X10965Y8449D02*
X10956Y8455D01*
X10947Y8459D01*
X10937Y8461D01*
X10926Y8460D01*
X10917Y8457D01*
X10907Y8453D01*
X10899Y8446D01*
X10893Y8438D01*
Y8480D02*
X10898Y8487D01*
X10902Y8495D01*
X10905Y8504D01*
X10906Y8513D01*
X10905Y8522D01*
X10902Y8532D01*
X10897Y8540D01*
X10890Y8548D01*
X10883Y8554D01*
X10874Y8558D01*
X10864Y8560D01*
X10855Y8561D01*
X10845Y8559D01*
X10836Y8555D01*
X10828Y8550D01*
X10821Y8543D01*
X10815Y8535D01*
X10812Y8526D01*
X10810Y8516D01*
X10810Y8507D01*
X10812Y8497D01*
X10816Y8488D01*
X10822Y8480D01*
X9946Y8619D02*
X9951Y8610D01*
X9958Y8603D01*
X9966Y8597D01*
X9975Y8593D01*
X9985Y8591D01*
X9995Y8590D01*
X10004Y8592D01*
X10014Y8595D01*
X10071D02*
X10081Y8592D01*
X10090Y8590D01*
X10100Y8591D01*
X10110Y8593D01*
X10118Y8597D01*
X10127Y8603D01*
X10133Y8610D01*
X10139Y8618D01*
X10143Y8627D01*
X10271Y8595D02*
X10280Y8592D01*
X10290Y8590D01*
X10299Y8591D01*
X10308Y8593D01*
X10317Y8596D01*
X10325Y8601D01*
X10332Y8608D01*
X10337Y8615D01*
X10342Y8624D01*
X10343Y8625D02*
X10347Y8616D01*
X10353Y8609D01*
X10359Y8602D01*
X10367Y8597D01*
X10376Y8593D01*
X10386Y8591D01*
X10395Y8590D01*
X10405Y8592D01*
X10414Y8595D01*
X10191Y9003D02*
X10190Y9013D01*
X10188Y9022D01*
X10184Y9031D01*
X10178Y9039D01*
X10171Y9047D01*
X10163Y9052D01*
X10154Y9057D01*
X10145Y9060D01*
X10135Y9061D01*
X10125Y9061D01*
X10115Y9059D01*
X10106Y9055D01*
X10098Y9050D01*
X10090Y9043D01*
X10084Y9035D01*
X10079Y9027D01*
X10076Y9017D01*
X10074Y9007D01*
X10074Y8997D01*
X10076Y8988D01*
X10079Y8978D01*
X10084Y8970D01*
X10091Y8962D01*
X10098Y8955D01*
X10107Y8950D01*
X10116Y8947D01*
X10126Y8945D01*
X10135Y8944D01*
X10145Y8946D01*
X10190Y8990D02*
X10191Y9003D01*
X10143Y8627D02*
X10146Y8618D01*
X10152Y8610D01*
X10159Y8603D01*
X10167Y8597D01*
X10176Y8593D01*
X10185Y8591D01*
X10195Y8590D01*
X10205Y8592D01*
X10214Y8595D01*
X10253Y9038D02*
X10243Y9037D01*
X10235Y9033D01*
X10228Y9028D01*
X10253Y9038D02*
X10243Y9037D01*
X10235Y9033D01*
X10228Y9028D01*
X9951Y9043D02*
X9950Y9052D01*
X9948Y9061D01*
X9944Y9070D01*
X9940Y9078D01*
X9933Y9085D01*
X10379Y9038D02*
X10373Y9045D01*
X10365Y9051D01*
X10356Y9056D01*
X10347Y9059D01*
X10337Y9061D01*
X10328D01*
X10318Y9059D01*
X10309Y9056D01*
X10300Y9051D01*
X10293Y9045D01*
X10286Y9038D01*
X10489Y9048D02*
X10481Y9054D01*
X10471Y9058D01*
X10461Y9061D01*
X10451Y9061D01*
X10441Y9060D01*
X10431Y9057D01*
X10421Y9052D01*
X10413Y9046D01*
X10406Y9038D01*
X10471Y8595D02*
X10481Y8592D01*
X10490Y8590D01*
X10500Y8591D01*
X10509Y8593D01*
X10518Y8597D01*
X10526Y8602D01*
X10533Y8609D01*
X10538Y8617D01*
X10542Y8626D01*
X10671Y8595D02*
X10680Y8592D01*
X10690Y8590D01*
X10699Y8591D01*
X10708Y8593D01*
X10717Y8596D01*
X10725Y8601D01*
X10732Y8608D01*
X10737Y8615D01*
X10742Y8624D01*
X10543Y8626D02*
X10547Y8617D01*
X10552Y8609D01*
X10559Y8602D01*
X10567Y8597D01*
X10576Y8593D01*
X10585Y8591D01*
X10595Y8590D01*
X10605Y8592D01*
X10614Y8595D01*
X10599Y9038D02*
X10592Y9046D01*
X10584Y9052D01*
X10575Y9057D01*
X10565Y9060D01*
X10554Y9061D01*
X10544Y9061D01*
X10534Y9058D01*
X10524Y9054D01*
X10516Y9048D01*
X10794Y8961D02*
X10799Y8967D01*
X10787Y8729D02*
X10793Y8736D01*
X10797Y8744D01*
X10800Y8753D01*
X10801Y8763D01*
X10787Y8729D02*
X10793Y8736D01*
X10797Y8744D01*
X10800Y8753D01*
X10801Y8763D01*
X10743Y8625D02*
X10747Y8616D01*
X10753Y8609D01*
X10759Y8602D01*
X10767Y8597D01*
X10776Y8593D01*
X10786Y8591D01*
X10795Y8590D01*
X10805Y8592D01*
X10814Y8595D01*
X10814Y8691D02*
X10803Y8694D01*
X10792Y8695D01*
X10781Y8694D01*
X10771Y8690D01*
X10699Y9038D02*
X10693Y9045D01*
X10685Y9051D01*
X10676Y9056D01*
X10667Y9059D01*
X10658Y9061D01*
X10648D01*
X10638Y9059D01*
X10629Y9056D01*
X10620Y9051D01*
X10613Y9045D01*
X10606Y9038D01*
X10799D02*
X10793Y9045D01*
X10785Y9051D01*
X10776Y9056D01*
X10767Y9059D01*
X10757Y9061D01*
X10748D01*
X10738Y9059D01*
X10729Y9056D01*
X10720Y9051D01*
X10713Y9045D01*
X10706Y9038D01*
X10954Y9085D02*
X10949Y9076D01*
X10945Y9067D01*
X10942Y9058D01*
X10941Y9048D01*
X10941Y9038D01*
X11066Y8291D02*
X11061Y8296D01*
X11247Y8277D02*
X11239Y8283D01*
X11231Y8287D01*
X11222Y8290D01*
X11213Y8291D01*
X11247Y8277D02*
X11239Y8283D01*
X11231Y8287D01*
X11222Y8290D01*
X11213Y8291D01*
X11262Y8503D02*
X11264Y8513D01*
X11265Y8523D01*
X11201Y8594D02*
X11191Y8595D01*
X11181Y8594D01*
X11171Y8591D01*
X11161Y8588D01*
X11153Y8582D01*
X11145Y8576D01*
X11137Y8569D01*
X11132Y8561D01*
X11127Y8552D01*
X11123Y8542D01*
X11121Y8532D01*
X11121Y8522D01*
X11121Y8512D01*
X11124Y8502D01*
X11127Y8493D01*
X11132Y8484D01*
X11138Y8476D01*
X11145Y8468D01*
X11153Y8462D01*
X11162Y8457D01*
X11172Y8454D01*
X11182Y8451D01*
X11192Y8451D01*
X11202Y8451D01*
X11212Y8453D01*
X11265Y8523D02*
X11264Y8531D01*
X11523Y8228D02*
X11522Y8237D01*
X11518Y8245D01*
X11513Y8253D01*
X11523Y8228D02*
X11522Y8237D01*
X11518Y8245D01*
X11513Y8253D01*
X11523Y8442D02*
X11521Y8432D01*
X11521Y8422D01*
X11521Y8413D01*
X11523Y8403D01*
X11527Y8394D01*
X11531Y8385D01*
X11537Y8377D01*
X11544Y8370D01*
X11551Y8364D01*
X11560Y8359D01*
X11569Y8355D01*
X11578Y8352D01*
X11588Y8351D01*
X11598Y8351D01*
X11607Y8352D01*
X11617Y8355D01*
X11626Y8359D01*
X11634Y8364D01*
X11642Y8370D01*
X11649Y8377D01*
X11654Y8385D01*
X11659Y8394D01*
X11662Y8403D01*
X11664Y8413D01*
X11665Y8423D01*
Y8423D02*
X11664Y8433D01*
X11662Y8443D01*
X11658Y8452D01*
X11653Y8461D01*
X11647Y8469D01*
X11640Y8477D01*
X11632Y8483D01*
X11623Y8488D01*
X11614Y8492D01*
X11604Y8494D01*
X11594Y8495D01*
X11583Y8494D01*
X11573Y8492D01*
X11017Y8677D02*
X11009Y8683D01*
X11001Y8687D01*
X10992Y8690D01*
X10983Y8691D01*
X11017Y8677D02*
X11009Y8683D01*
X11001Y8687D01*
X10992Y8690D01*
X10983Y8691D01*
X11061Y8613D02*
X11060Y8622D01*
X11057Y8631D01*
X11053Y8639D01*
X11047Y8647D01*
X11061Y8613D02*
X11060Y8622D01*
X11057Y8631D01*
X11053Y8639D01*
X11047Y8647D01*
X11106Y8790D02*
X11104Y8800D01*
X11100Y8809D01*
X11095Y8818D01*
X11088Y8825D01*
X11080Y8830D01*
X11070Y8834D01*
X11060Y8836D01*
X11050Y8835D01*
X11040Y8832D01*
X11031Y8828D01*
X11024Y8822D01*
X11017Y8814D01*
X11013Y8805D01*
X11010Y8795D01*
X11010Y8785D01*
X11011Y8775D01*
X11015Y8766D01*
X11020Y8757D01*
X11028Y8750D01*
X11036Y8745D01*
X11045Y8741D01*
X11055Y8740D01*
X10973Y8967D02*
X10983Y8969D01*
X10993Y8973D01*
X10973Y8967D02*
X10983Y8969D01*
X10993Y8973D01*
X11003Y8971D01*
X11013Y8971D01*
X11023Y8971D01*
X11033Y8974D01*
X11043Y8977D01*
X11052Y8982D01*
X11060Y8988D01*
X11067Y8996D01*
X11073Y9004D01*
X11078Y9013D01*
X11082Y9022D01*
X11084Y9032D01*
X11085Y9043D01*
Y9043D02*
X11084Y9054D01*
X11081Y9065D01*
X11077Y9075D01*
X11071Y9085D01*
X11337Y8643D02*
X11338Y8633D01*
X11342Y8625D01*
X11348Y8618D01*
X11337Y8643D02*
X11338Y8633D01*
X11342Y8625D01*
X11348Y8618D01*
X11665Y8623D02*
X11664Y8633D01*
X11662Y8642D01*
X11658Y8652D01*
X11654Y8661D01*
X11648Y8669D01*
X11641Y8676D01*
X11633Y8682D01*
X11624Y8687D01*
X11615Y8691D01*
X11605Y8694D01*
X11595Y8695D01*
X11585Y8694D01*
X11575Y8693D01*
X11566Y8689D01*
X11557Y8685D01*
X11548Y8679D01*
X11541Y8673D01*
X11534Y8665D01*
X11529Y8656D01*
X11525Y8647D01*
X11522Y8638D01*
X11521Y8628D01*
Y8618D01*
X11522Y8608D01*
X11525Y8598D01*
X11529Y8589D01*
X11534Y8580D01*
X11541Y8573D01*
X11548Y8566D01*
X11557Y8560D01*
X11566Y8556D01*
X11575Y8553D01*
X11585Y8551D01*
X11595Y8551D01*
X11605Y8552D01*
X11615Y8554D01*
X11624Y8558D01*
X11633Y8563D01*
X11641Y8569D01*
X11648Y8576D01*
X11654Y8584D01*
X11658Y8593D01*
X11662Y8603D01*
X11664Y8613D01*
X11665Y8623D01*
X11431Y9023D02*
X11430Y9033D01*
X11428Y9042D01*
X11424Y9051D01*
X11418Y9060D01*
X11411Y9067D01*
X11403Y9073D01*
X11394Y9077D01*
X11384Y9080D01*
X11375Y9081D01*
X11365Y9081D01*
X11355Y9078D01*
X11346Y9075D01*
X11337Y9069D01*
X11330Y9062D01*
X11324Y9055D01*
X11319Y9046D01*
X11316Y9036D01*
X11314Y9026D01*
X11314Y9017D01*
X11316Y9007D01*
X11320Y8997D01*
X11325Y8989D01*
X11331Y8981D01*
X11414D02*
X11420Y8988D01*
X11425Y8996D01*
X11428Y9004D01*
X11430Y9013D01*
X11431Y9023D01*
X11577Y9085D02*
X11571Y9076D01*
X11567Y9067D01*
X11563Y9058D01*
X11560Y9048D01*
X11557Y9038D01*
X11556Y9028D01*
X11555Y9018D01*
X11555Y9008D01*
X11555Y8998D01*
X11557Y8988D01*
X11559Y8978D01*
X11562Y8969D01*
X11566Y8959D01*
X11571Y8950D01*
X11576Y8942D01*
X11582Y8933D01*
X11589Y8926D01*
X11596Y8919D01*
X11603Y8912D01*
X11612Y8906D01*
X11620Y8901D01*
X11629Y8896D01*
X11639Y8892D01*
X11648Y8889D01*
X11658Y8887D01*
X11668Y8885D01*
X11678Y8885D01*
X11688Y8885D01*
X11698Y8886D01*
X11708Y8887D01*
X11718Y8890D01*
X11728Y8893D01*
X11737Y8897D01*
X11746Y8901D01*
X11755Y8907D01*
X8368Y6863D02*
X8376D01*
X8368Y6843D02*
X8386D01*
X8368Y6883D02*
X8374D01*
X8368Y6903D02*
X8380D01*
X8393Y6703D02*
Y6835D01*
Y6920D02*
Y6935D01*
X8368Y6943D02*
X8386D01*
X8368Y6923D02*
X8395D01*
X8368Y6963D02*
X8376D01*
X8368Y6983D02*
X8374D01*
X8368Y7003D02*
X8380D01*
X8368Y7043D02*
X8386D01*
X8368Y6727D02*
Y7348D01*
X8373Y6723D02*
Y7352D01*
X8368Y7063D02*
X8376D01*
X8368Y7083D02*
X8374D01*
X8368Y7103D02*
X8380D01*
X8368Y6727D02*
X8472Y6623D01*
X8368Y7023D02*
X8395D01*
X8368Y6823D02*
X8413D01*
X8433Y6663D02*
Y6819D01*
X8453Y6643D02*
Y6823D01*
X8413Y6683D02*
Y6823D01*
X8368Y7123D02*
X8395D01*
X8368Y7143D02*
X8397D01*
X8368Y7163D02*
X8397D01*
X8393Y7020D02*
Y7035D01*
Y7120D02*
Y7352D01*
X8397Y7124D02*
Y7163D01*
X7991Y7504D02*
X8022Y7473D01*
X8013Y7483D02*
X8262D01*
X8013Y7483D02*
Y7504D01*
X7991D02*
X8061D01*
X8033Y7473D02*
Y7504D01*
X8022Y7473D02*
X8272D01*
X8053D02*
Y7504D01*
X8253Y7473D02*
Y7492D01*
X8073Y7473D02*
Y7512D01*
X8093Y7473D02*
Y7505D01*
X8061Y7504D02*
Y7521D01*
X7993Y7503D02*
X8242D01*
X8113Y7473D02*
Y7505D01*
X8133Y7473D02*
Y7512D01*
X8145Y7523D02*
X8206D01*
X8233Y7473D02*
Y7512D01*
X8213Y7473D02*
Y7519D01*
X8368Y7183D02*
X8403D01*
X8368Y7203D02*
X8422D01*
X8368Y7223D02*
X8442D01*
X8368Y7243D02*
X8462D01*
X8408Y7188D02*
X8483Y7263D01*
X8368Y7263D02*
X8482D01*
X8368Y7283D02*
X8646D01*
X8368Y7303D02*
X8637D01*
X8368Y7323D02*
X8637D01*
X8230Y7515D02*
X8272Y7473D01*
X8368Y7343D02*
X8646D01*
X8413Y7193D02*
Y7352D01*
X8433Y7213D02*
Y7352D01*
X8368Y7348D02*
X8372Y7352D01*
X8453Y7233D02*
Y7352D01*
X8372D02*
X8656D01*
X8473Y6623D02*
Y6835D01*
X8493Y6623D02*
Y6885D01*
X8491Y6883D02*
X8495D01*
X8513Y6623D02*
Y6873D01*
X8533Y6623D02*
Y6869D01*
X8553Y6623D02*
Y6873D01*
X8573Y6623D02*
Y6885D01*
X8473Y7020D02*
Y7035D01*
X8470Y7023D02*
X8474D01*
X8593Y6623D02*
Y7202D01*
X8573Y6970D02*
Y6985D01*
X8574Y7069D02*
X8591D01*
X8579Y7063D02*
X8742D01*
X8713Y6623D02*
Y7092D01*
X8733Y6623D02*
Y7072D01*
X8591Y7083D02*
X8722D01*
X8589Y7043D02*
X8762D01*
X8753Y6623D02*
Y7052D01*
X8591Y7069D02*
Y7186D01*
Y7103D02*
X8702D01*
X8591Y7143D02*
X8662D01*
X8591Y7123D02*
X8682D01*
X8613Y6623D02*
Y7192D01*
X8633Y6623D02*
Y7172D01*
X8653Y6623D02*
Y7152D01*
X8693Y6623D02*
Y7112D01*
X8673Y6623D02*
Y7132D01*
X8506Y7186D02*
X8522Y7202D01*
X8506Y7186D02*
X8591D01*
X8513D02*
Y7192D01*
X8533Y7186D02*
Y7202D01*
X8553Y7186D02*
Y7202D01*
X8573Y7186D02*
Y7202D01*
X8522D02*
X8603D01*
X8473Y7253D02*
Y7352D01*
X8493Y7270D02*
Y7352D01*
X8513Y7273D02*
Y7352D01*
X8533Y7273D02*
Y7352D01*
X8553Y7273D02*
Y7352D01*
X8573Y7273D02*
Y7352D01*
X8593Y7273D02*
Y7352D01*
X8613Y7273D02*
Y7352D01*
X8591Y7183D02*
X8622D01*
X8591Y7163D02*
X8642D01*
X8693Y7213D02*
Y7253D01*
X8663Y7243D02*
X8703D01*
X8733Y7173D02*
Y7227D01*
X8753Y7153D02*
Y7227D01*
X8713Y7193D02*
Y7234D01*
X8508Y7273D02*
X8618D01*
X8633Y7270D02*
Y7352D01*
X8673Y7233D02*
Y7266D01*
X8681Y7265D02*
X8709Y7238D01*
X8653Y7253D02*
Y7276D01*
X8643Y7263D02*
X8683D01*
X8153Y7473D02*
Y7532D01*
X8173Y7473D02*
Y7605D01*
X8161Y7563D02*
X8185D01*
X8145Y7623D02*
X8148D01*
X8153Y7593D02*
Y7618D01*
X8147Y7624D02*
X8158Y7614D01*
X8153Y7698D02*
Y7727D01*
X8149Y7698D02*
X8159D01*
X8173Y7695D02*
Y7727D01*
X8158Y7543D02*
X8189D01*
X8158Y7583D02*
X8189D01*
X8145Y7603D02*
X8206D01*
X8183Y7603D02*
X8207D01*
X8193Y7473D02*
Y7536D01*
Y7589D02*
Y7603D01*
X8197Y7674D02*
X8587D01*
X8189Y7683D02*
X8585D01*
X8145Y7703D02*
X8586D01*
X8184Y7688D02*
X8197Y7674D01*
X8213D02*
Y7705D01*
X8193Y7679D02*
Y7712D01*
X8233Y7674D02*
Y7705D01*
X8253Y7674D02*
Y7712D01*
X8061Y8004D02*
Y8021D01*
X7968D02*
X8061D01*
X8153Y7998D02*
Y8168D01*
X8149Y7727D02*
X8176D01*
X8113Y8020D02*
Y8168D01*
X8133Y8013D02*
Y8164D01*
X7968Y8021D02*
Y8203D01*
X7973Y8021D02*
Y8207D01*
X7993Y8021D02*
Y8227D01*
X8013Y8021D02*
Y8247D01*
X8073Y8013D02*
Y8307D01*
X8173Y7998D02*
Y8180D01*
X8033Y8021D02*
Y8267D01*
X8093Y8020D02*
Y8180D01*
X8053Y8021D02*
Y8287D01*
X8145Y7723D02*
X8180D01*
X7968Y8023D02*
X8349D01*
X7968Y8043D02*
X8362D01*
X7968Y8063D02*
X8382D01*
X8149Y7998D02*
X8176D01*
X8145Y8003D02*
X8180D01*
X7968Y8083D02*
X8402D01*
X7968Y8103D02*
X8422D01*
X7968Y8123D02*
X8442D01*
X7968Y8143D02*
X8464D01*
X8193Y8013D02*
Y8232D01*
X8213Y8020D02*
Y8252D01*
X7968Y8163D02*
X8644D01*
X8233Y8020D02*
Y8272D01*
X8273Y7674D02*
Y7732D01*
Y7793D02*
Y7832D01*
X8278Y7883D02*
X8412D01*
X8281Y7863D02*
X8432D01*
X8393Y7674D02*
Y7902D01*
X8413Y7674D02*
Y7882D01*
X8433Y7674D02*
Y7862D01*
X8453Y7674D02*
Y7842D01*
X8273Y7893D02*
Y7932D01*
X8265Y7903D02*
X8392D01*
X8293Y7674D02*
Y8180D01*
X8313Y7674D02*
Y8168D01*
X8333Y7674D02*
Y8164D01*
X8373Y7674D02*
Y7922D01*
X8353Y7674D02*
Y7944D01*
X8553Y7674D02*
Y7742D01*
X8265Y7723D02*
X8580D01*
X8281Y7763D02*
X8532D01*
X8278Y7743D02*
X8552D01*
X8573Y7674D02*
Y7729D01*
X8265Y7803D02*
X8492D01*
X8278Y7783D02*
X8512D01*
X8278Y7843D02*
X8452D01*
X8265Y7823D02*
X8472D01*
X8473Y7674D02*
Y7822D01*
X8493Y7674D02*
Y7802D01*
X8513Y7674D02*
Y7782D01*
X8533Y7674D02*
Y7762D01*
X8358Y7938D02*
X8558Y7738D01*
X8278Y7943D02*
X8353D01*
X8265Y7923D02*
X8372D01*
X8278Y7983D02*
X8347D01*
X8265Y8003D02*
X8347D01*
X8281Y7963D02*
X8347D01*
Y8013D01*
X8253Y8013D02*
Y8292D01*
X8273Y7993D02*
Y8312D01*
X8353Y8032D02*
Y8168D01*
X8373Y8053D02*
Y8180D01*
X8413Y8093D02*
Y8168D01*
X8393Y8073D02*
Y8180D01*
X8433Y8113D02*
Y8164D01*
X8358Y8038D02*
X8458Y8138D01*
X8453Y8133D02*
Y8168D01*
X8483Y8148D02*
X8630D01*
X8613D02*
Y8168D01*
X8633Y8151D02*
Y8164D01*
X8630Y8148D02*
X8648Y8166D01*
X8473Y8147D02*
Y8180D01*
X8493Y8148D02*
Y8352D01*
X8513Y8148D02*
Y8352D01*
X8533Y8148D02*
Y8352D01*
X8553Y8148D02*
Y8352D01*
X8573Y8148D02*
Y8352D01*
X8593Y8148D02*
Y8180D01*
X8373Y6723D02*
X8904D01*
X8913Y6623D02*
Y6704D01*
X8368Y6743D02*
X8904D01*
X8368Y6763D02*
X8904D01*
X8933Y6623D02*
Y6704D01*
X8953Y6623D02*
Y6704D01*
X8793Y6623D02*
Y7012D01*
X8813Y6623D02*
Y6960D01*
X8368Y6783D02*
X8904D01*
X8368Y6803D02*
X8904D01*
X8833Y6623D02*
Y6948D01*
X8853Y6623D02*
Y6944D01*
X8873Y6623D02*
Y6948D01*
X8904Y6704D02*
Y6821D01*
X8893Y6623D02*
Y6960D01*
X8453Y6643D02*
X11462D01*
X8433Y6663D02*
X11482D01*
X8413Y6683D02*
X11502D01*
X8393Y6703D02*
X11522D01*
X8973Y6623D02*
Y6704D01*
X8472Y6623D02*
X11443D01*
X8993D02*
Y6704D01*
X9013Y6623D02*
Y6704D01*
X8904D02*
X9021D01*
Y6723D02*
X9144D01*
X9021Y6743D02*
X9144D01*
X9021Y6704D02*
Y6821D01*
X9144Y6714D02*
X9261D01*
X9144D02*
Y6814D01*
X9021Y6763D02*
X9144D01*
X9021Y6783D02*
X9144D01*
X8479Y6843D02*
X8908D01*
X8453Y6823D02*
X8920D01*
X8489Y6863D02*
X8904D01*
X8570Y6883D02*
X8908D01*
X8913Y6821D02*
Y6832D01*
X8904Y6821D02*
X8921D01*
X8586Y6903D02*
X8920D01*
X8953Y6920D02*
Y6944D01*
X8570Y6983D02*
X8798D01*
X8579Y6963D02*
X8810D01*
X8591Y7023D02*
X8782D01*
X8586Y7003D02*
X8794D01*
X8913Y6893D02*
Y6960D01*
X8933Y6913D02*
Y6948D01*
X8973Y6920D02*
Y6948D01*
X8895Y6963D02*
X8910D01*
X9004Y6821D02*
X9021D01*
X9005Y6823D02*
X9144D01*
X9005Y6903D02*
X9144D01*
X9013Y6821D02*
Y6832D01*
X9021Y6803D02*
X9144D01*
X9018Y6843D02*
X9144D01*
X9021Y6863D02*
X9144D01*
X9018Y6883D02*
X9144D01*
X8591Y6923D02*
X9144D01*
X8589Y6943D02*
X9144D01*
X8993Y6913D02*
Y6960D01*
X8995Y6963D02*
X9144D01*
X9008Y6983D02*
X9144D01*
X9011Y7003D02*
X9144D01*
X9008Y7023D02*
X9144D01*
X9153Y6623D02*
Y6714D01*
X9173Y6623D02*
Y6714D01*
X9193Y6623D02*
Y6714D01*
X9213Y6623D02*
Y6714D01*
X9233Y6623D02*
Y6714D01*
X9253Y6623D02*
Y6714D01*
X9293Y6623D02*
Y6715D01*
X9313Y6623D02*
Y6715D01*
X9261Y6714D02*
Y6731D01*
Y6723D02*
X9272D01*
X9273Y6623D02*
Y6722D01*
X9333Y6623D02*
Y6722D01*
X9353Y6623D02*
Y6737D01*
X9373Y6623D02*
Y6737D01*
X9393Y6623D02*
Y6737D01*
X9413Y6623D02*
Y6737D01*
X9433Y6623D02*
Y6737D01*
X9453Y6623D02*
Y6737D01*
X9333Y6723D02*
X9492D01*
X9493Y6623D02*
Y6722D01*
X9513Y6623D02*
Y6715D01*
X9533Y6623D02*
Y6715D01*
X9553Y6623D02*
Y6722D01*
X9553Y6723D02*
X9892D01*
X9473Y6623D02*
Y6737D01*
X9573Y6623D02*
Y6742D01*
X9349Y6737D02*
X9476D01*
X9613Y6623D02*
Y7029D01*
X9633Y6623D02*
Y7025D01*
X9653Y6623D02*
Y7029D01*
X9573Y6743D02*
X9872D01*
X9144Y6814D02*
Y6831D01*
Y6814D02*
Y6831D01*
Y6914D01*
X9573Y6803D02*
Y6842D01*
X9144Y6914D02*
Y6931D01*
Y6914D02*
Y6931D01*
Y7014D01*
Y7031D01*
X9573Y6903D02*
Y6942D01*
X9573Y6803D02*
X9872D01*
X9553Y6823D02*
X9892D01*
X9573Y6843D02*
X9872D01*
X9573Y6903D02*
X9872D01*
X9580Y6763D02*
X9865D01*
X9580Y6783D02*
X9865D01*
X9580Y6863D02*
X9865D01*
X9873Y6803D02*
Y6842D01*
X9580Y6883D02*
X9865D01*
X9573Y6943D02*
X9872D01*
X9553Y6923D02*
X9892D01*
X9573Y7003D02*
X9872D01*
X9553Y7023D02*
X9892D01*
X9873Y6903D02*
Y6942D01*
X9580Y6963D02*
X9865D01*
X9580Y6983D02*
X9865D01*
X8773Y6623D02*
Y7032D01*
X8823Y7083D02*
X8882D01*
X8803Y7103D02*
X8902D01*
X8783Y7123D02*
X8922D01*
X8973Y7058D02*
Y7072D01*
X8843Y7063D02*
X8862D01*
X8860Y7061D02*
X8988Y7188D01*
X8603Y7202D02*
X8795Y7010D01*
X8643Y7263D02*
X8845Y7061D01*
X8793Y7113D02*
Y7227D01*
X8813Y7093D02*
Y7227D01*
X8833Y7073D02*
Y7227D01*
X8853Y7061D02*
Y7227D01*
X8873Y7073D02*
Y7227D01*
X8893Y7093D02*
Y7227D01*
X8913Y7113D02*
Y7227D01*
X8993Y7045D02*
Y7092D01*
X8963Y7063D02*
X9144D01*
X8983Y7083D02*
X9144D01*
X9013Y6893D02*
Y7112D01*
X9144Y7014D02*
Y7031D01*
X8995Y7043D02*
X9144D01*
X9003Y7103D02*
X9144D01*
X9033Y6623D02*
Y7127D01*
X9053Y6623D02*
Y7127D01*
X8961Y7061D02*
X9027Y7127D01*
X9023Y7123D02*
X9144D01*
X9073Y6623D02*
Y7127D01*
X9093Y6623D02*
Y7127D01*
X9113Y6623D02*
Y7127D01*
X9133Y6623D02*
Y7127D01*
X9144Y7031D02*
Y7127D01*
X8773Y7133D02*
Y7227D01*
X8763Y7143D02*
X8942D01*
X8743Y7163D02*
X8962D01*
X8723Y7183D02*
X8982D01*
X8933Y7133D02*
Y7227D01*
X8953Y7153D02*
Y7227D01*
X8973Y7173D02*
Y7227D01*
X8993Y7192D02*
Y7227D01*
X9013Y7198D02*
Y7227D01*
X9033Y7198D02*
Y7227D01*
X9053Y7198D02*
Y7227D01*
X9073Y7198D02*
Y7227D01*
X9093Y7198D02*
Y7227D01*
X9113Y7198D02*
Y7227D01*
X9133Y7198D02*
Y7227D01*
X9027Y7127D02*
X9144D01*
X9013Y7198D02*
X9525D01*
X8683Y7223D02*
X9527D01*
X8703Y7203D02*
X9531D01*
X9153Y7198D02*
Y7227D01*
X9173Y7198D02*
Y7227D01*
X9193Y7198D02*
Y7227D01*
X9213Y7198D02*
Y7227D01*
X9233Y7198D02*
Y7227D01*
X9253Y7198D02*
Y7227D01*
X9273Y7198D02*
Y7227D01*
X9293Y7198D02*
Y7227D01*
X8734D02*
X9523D01*
X9313Y7198D02*
Y7227D01*
X9333Y7198D02*
Y7227D01*
X9353Y7198D02*
Y7227D01*
X9373Y7198D02*
Y7227D01*
X9393Y7198D02*
Y7227D01*
X9573Y7003D02*
Y7042D01*
X9573Y7043D02*
X9595D01*
X9573Y7103D02*
X9595D01*
X9580Y7063D02*
X9586D01*
X9593Y6623D02*
Y7046D01*
X9573Y7103D02*
Y7117D01*
X9580Y7083D02*
X9586D01*
X9413Y7198D02*
Y7227D01*
X9433Y7198D02*
Y7227D01*
X9453Y7198D02*
Y7227D01*
X9473Y7198D02*
Y7227D01*
X9593Y7099D02*
Y7130D01*
X9493Y7198D02*
Y7227D01*
X9513Y7198D02*
Y7227D01*
X9673Y6623D02*
Y7037D01*
X9693Y6623D02*
Y7037D01*
X9713Y6623D02*
Y7037D01*
X9733Y6623D02*
Y7037D01*
X9753Y6623D02*
Y7037D01*
X9773Y6623D02*
Y7037D01*
X9793Y6623D02*
Y7037D01*
X9813Y6623D02*
Y7037D01*
X9833Y6623D02*
Y7037D01*
X9601Y7143D02*
X9607D01*
X9584Y7123D02*
X9627D01*
X9853Y6623D02*
Y7037D01*
X9873Y7003D02*
Y7037D01*
X9613Y7116D02*
Y7137D01*
X9665Y7037D02*
X9876D01*
X9603Y7147D02*
X9630Y7121D01*
X9533Y7204D02*
Y7217D01*
X9523Y7227D02*
X9542Y7208D01*
X9533Y8099D02*
Y8112D01*
X9519Y8099D02*
X9590Y8170D01*
X9553Y8099D02*
Y8132D01*
X9573Y8099D02*
Y8152D01*
X9593Y8099D02*
Y8170D01*
X9693Y8099D02*
Y8170D01*
X9613Y8099D02*
Y8174D01*
X9633Y8099D02*
Y8189D01*
X9653Y8099D02*
Y8189D01*
X9673Y8099D02*
Y8174D01*
X9713Y8099D02*
Y8174D01*
X9733Y8099D02*
Y8189D01*
X9753Y8099D02*
Y8189D01*
X9843Y7443D02*
X9850D01*
X9523Y8103D02*
X9862D01*
X9519Y8099D02*
X9866D01*
X9843Y7434D02*
Y7464D01*
X9853Y7445D02*
Y7464D01*
X9873Y7458D02*
Y7464D01*
X9843Y7463D02*
X10930D01*
X9843Y7464D02*
X9951D01*
X9773Y8099D02*
Y8174D01*
X9543Y8123D02*
X9842D01*
X9583Y8163D02*
X9802D01*
X9563Y8143D02*
X9822D01*
X9793Y8099D02*
Y8170D01*
X9795Y8170D02*
X9866Y8099D01*
X9813D02*
Y8152D01*
X9853Y8099D02*
Y8112D01*
X9833Y8099D02*
Y8132D01*
X7911Y8263D02*
X7927D01*
X7911Y8283D02*
X7947D01*
X7911Y8303D02*
X7967D01*
X7911Y8323D02*
X7987D01*
X7973Y8308D02*
Y8424D01*
X7911Y8246D02*
X8022Y8357D01*
X7911Y8343D02*
X8007D01*
X7911Y8363D02*
X8022D01*
X7911Y8443D02*
X7930D01*
X7933Y8268D02*
Y8440D01*
X7911Y8483D02*
X7914D01*
X7911Y8463D02*
X7918D01*
X7953Y8288D02*
Y8428D01*
X7993Y8328D02*
Y8428D01*
X8013Y8348D02*
Y8440D01*
X8022Y8357D02*
Y8451D01*
X7968Y8203D02*
X8078D01*
X7968Y8183D02*
X8090D01*
X7988Y8223D02*
X8074D01*
X8008Y8243D02*
X8078D01*
X8188Y8203D02*
X8278D01*
X8175Y8183D02*
X8290D01*
X8028Y8263D02*
X8090D01*
X8093Y8265D02*
Y8280D01*
X7911Y8383D02*
X8022D01*
X7911Y8403D02*
X8022D01*
X7911Y8423D02*
X8022D01*
X7968Y8203D02*
X8075Y8310D01*
X8015Y8443D02*
X8022D01*
X8048Y8283D02*
X8090D01*
X8068Y8303D02*
X8078D01*
X7911Y8503D02*
X7918D01*
X7911Y8523D02*
X7930D01*
X7953Y8538D02*
Y8628D01*
X7973Y8541D02*
Y8624D01*
X7911Y8663D02*
X7918D01*
X7911Y8643D02*
X7930D01*
X7911Y8683D02*
X7914D01*
X7911Y8703D02*
X7918D01*
X7933Y8525D02*
Y8640D01*
X8033Y8513D02*
Y8692D01*
X7993Y8538D02*
Y8628D01*
X8013Y8525D02*
Y8640D01*
X7911Y8543D02*
X8062D01*
X7911Y8563D02*
X8082D01*
X7911Y8583D02*
X8511D01*
X7911Y8603D02*
X8622D01*
X8015Y8523D02*
X8042D01*
X8033Y8513D02*
X8083Y8563D01*
X8108Y8573D02*
X8495D01*
X8015Y8643D02*
X8582D01*
X7911Y8623D02*
X8602D01*
X8031Y8683D02*
X8542D01*
X8028Y8663D02*
X8562D01*
X8113Y8573D02*
Y8694D01*
X8133Y8573D02*
Y8690D01*
X8043Y8703D02*
X8099D01*
X8153Y8573D02*
Y8694D01*
X8167Y8703D02*
X8199D01*
X8191Y8223D02*
X8274D01*
X8203Y8243D02*
X8278D01*
X8223Y8263D02*
X8290D01*
X8375Y8183D02*
X8390D01*
X8488Y8203D02*
X8578D01*
X8491Y8223D02*
X8574D01*
X8191Y8230D02*
X8275Y8315D01*
X8263Y8303D02*
X8278D01*
X8243Y8283D02*
X8290D01*
X8293Y8265D02*
Y8280D01*
X8473Y8265D02*
Y8280D01*
X8491Y8323D02*
X8574D01*
X8475Y8183D02*
X8590D01*
X8488Y8243D02*
X8578D01*
X8475Y8263D02*
X8590D01*
X8593Y8265D02*
Y8280D01*
X8488Y8303D02*
X8578D01*
X8475Y8283D02*
X8590D01*
X8673Y8265D02*
Y8280D01*
X8693Y8279D02*
Y8352D01*
X8675Y8283D02*
X8696D01*
X8713Y8299D02*
Y8352D01*
X8233Y8573D02*
Y8690D01*
X8488Y8343D02*
X8578D01*
X8333Y8573D02*
Y8690D01*
X8433Y8573D02*
Y8690D01*
X8553Y8491D02*
Y8497D01*
X8573Y8477D02*
Y8521D01*
X8553Y8579D02*
Y8672D01*
X8573Y8554D02*
Y8652D01*
X8213Y8573D02*
Y8694D01*
X8253Y8573D02*
Y8694D01*
X8267Y8703D02*
X8299D01*
X8313Y8573D02*
Y8694D01*
X8353Y8573D02*
Y8694D01*
X8413Y8573D02*
Y8694D01*
X8453Y8573D02*
Y8694D01*
X8533Y8585D02*
Y8690D01*
X8513Y8583D02*
Y8694D01*
X8483Y8352D02*
X8582D01*
X8567Y8483D02*
X8599D01*
X8693Y8477D02*
Y8532D01*
X8667Y8483D02*
X8699D01*
X8713Y8491D02*
Y8512D01*
X8573Y8523D02*
X8702D01*
X8575Y8543D02*
X8682D01*
X8544Y8583D02*
X8642D01*
X8569Y8563D02*
X8662D01*
X8593Y8477D02*
Y8632D01*
X8673Y8477D02*
Y8552D01*
X8613Y8491D02*
Y8612D01*
X8653Y8491D02*
Y8572D01*
X8633Y8495D02*
Y8592D01*
X7911Y8723D02*
X7930D01*
X7911Y8743D02*
X7982D01*
X7911Y8763D02*
X7997D01*
X8053Y8533D02*
Y8707D01*
X8073Y8553D02*
Y8707D01*
X7980Y8741D02*
X7997Y8757D01*
X8031Y8690D02*
X8047Y8707D01*
X7911Y8246D02*
Y8907D01*
X7913Y8248D02*
Y8905D01*
X7933Y8725D02*
Y8895D01*
X7911Y8783D02*
X7997D01*
X7953Y8738D02*
Y8888D01*
X7973Y8741D02*
Y8885D01*
X7993Y8753D02*
Y8885D01*
X8068Y8778D02*
Y8828D01*
X7997Y8757D02*
Y8843D01*
X8093Y8570D02*
Y8707D01*
X8047D02*
X8094D01*
X8068Y8778D02*
X8094D01*
X8173Y8573D02*
Y8709D01*
X8193Y8573D02*
Y8709D01*
X8073Y8778D02*
Y8832D01*
X8093Y8778D02*
Y8823D01*
X8068Y8783D02*
X8099D01*
X8173Y8777D02*
Y8814D01*
X8113Y8791D02*
Y8806D01*
X8167Y8783D02*
X8199D01*
X8193Y8777D02*
Y8814D01*
X7911Y8803D02*
X7997D01*
X7911Y8823D02*
X7997D01*
X7911Y8843D02*
X7997D01*
X7911Y8863D02*
X8003D01*
X8068Y8828D02*
X8085Y8845D01*
X8068Y8823D02*
X8093D01*
X7911Y8883D02*
X8022D01*
X8008Y8868D02*
X8036Y8896D01*
X7911Y8903D02*
X7917D01*
X8013Y8873D02*
Y8888D01*
X8093Y9078D02*
Y9085D01*
X8094Y9076D02*
Y9081D01*
X8113D02*
Y9085D01*
X8068Y8803D02*
X8123D01*
X8133Y8795D02*
Y8802D01*
X8142Y8803D02*
X8442D01*
X8153Y8791D02*
Y8806D01*
X8213Y8791D02*
Y8814D01*
X8233Y8795D02*
Y8814D01*
X8165D02*
X8454D01*
X8133Y9081D02*
Y9085D01*
X8094Y9081D02*
X8211D01*
X8153D02*
Y9085D01*
X8173Y9081D02*
Y9085D01*
X8211Y9064D02*
Y9081D01*
X8193D02*
Y9085D01*
X8213Y9065D02*
Y9085D01*
X8233Y9078D02*
Y9085D01*
X8273Y8573D02*
Y8709D01*
X8293Y8573D02*
Y8709D01*
X8267Y8783D02*
X8299D01*
X8373Y8573D02*
Y8709D01*
X8393Y8573D02*
Y8709D01*
X8367Y8703D02*
X8399D01*
X8367Y8783D02*
X8399D01*
X8273Y8777D02*
Y8814D01*
X8253Y8791D02*
Y8814D01*
X8293Y8777D02*
Y8814D01*
X8373Y8777D02*
Y8814D01*
X8393Y8777D02*
Y8814D01*
X8313Y8791D02*
Y8814D01*
X8333Y8795D02*
Y8814D01*
X8353Y8791D02*
Y8814D01*
X8413Y8791D02*
Y8814D01*
X8433Y8795D02*
Y8814D01*
X8473Y8573D02*
Y8709D01*
X8493Y8573D02*
Y8709D01*
X8435Y8795D02*
X8454Y8814D01*
X8467Y8703D02*
X8499D01*
X8513Y8923D02*
Y8932D01*
X8503Y8923D02*
X8545Y8965D01*
X8533Y8923D02*
Y8952D01*
X8553Y8923D02*
Y8964D01*
X8573Y8923D02*
Y8968D01*
X8593Y8923D02*
Y8980D01*
X8613Y8923D02*
Y8980D01*
X8653Y8923D02*
Y8964D01*
X8633Y8923D02*
Y8968D01*
X8293Y9065D02*
Y9085D01*
X8295Y9063D02*
X8310D01*
X8253Y9081D02*
Y9085D01*
X8273Y9078D02*
Y9085D01*
X8313Y9065D02*
Y9085D01*
X8395Y9063D02*
X8410D01*
X8333Y9078D02*
Y9085D01*
X8393Y9065D02*
Y9085D01*
X8353Y9081D02*
Y9085D01*
X8373Y9078D02*
Y9085D01*
X8413Y9065D02*
Y9085D01*
X8493Y9065D02*
Y9085D01*
X8433Y9078D02*
Y9085D01*
X8453Y9081D02*
Y9085D01*
X8473Y9078D02*
Y9085D01*
X8495Y9063D02*
X8510D01*
X8513Y9065D02*
Y9085D01*
X8533Y9078D02*
Y9085D01*
X8673Y8923D02*
Y8968D01*
X8693Y8923D02*
Y8980D01*
X8595Y8983D02*
X8610D01*
X8595Y9063D02*
X8610D01*
X8593Y9065D02*
Y9085D01*
X8613Y9065D02*
Y9085D01*
X8553Y9081D02*
Y9085D01*
X8573Y9078D02*
Y9085D01*
X8693Y9065D02*
Y9085D01*
X8713Y8923D02*
Y9085D01*
X8633Y9078D02*
Y9085D01*
X8653Y9081D02*
Y9085D01*
X8673Y9078D02*
Y9085D01*
X8683Y8269D02*
X8717Y8303D01*
X8688Y8303D02*
X8716D01*
X8733Y8312D02*
Y8352D01*
X8753Y8313D02*
Y8352D01*
X8773Y8313D02*
Y8352D01*
X8793Y8313D02*
Y8352D01*
X8813Y8313D02*
Y8352D01*
X8833Y8313D02*
Y8352D01*
X8853Y8313D02*
Y8352D01*
X8873Y8313D02*
Y8352D01*
X8893Y8313D02*
Y8352D01*
X8913Y8313D02*
Y8352D01*
X8933Y8313D02*
Y8352D01*
X8953Y8313D02*
Y8352D01*
X8973Y8313D02*
Y8352D01*
X9363Y8303D02*
X9390Y8275D01*
X8742Y8313D02*
X9338D01*
X9427Y8263D02*
X9459D01*
X9363Y8303D02*
X9892D01*
X9383Y8283D02*
X9912D01*
X8993Y8313D02*
Y8352D01*
X9013Y8313D02*
Y8352D01*
X9033Y8313D02*
Y8352D01*
X9053Y8313D02*
Y8352D01*
X9413Y8271D02*
Y8352D01*
X9433Y8257D02*
Y8352D01*
X9353Y8310D02*
Y8352D01*
X9373Y8293D02*
Y8352D01*
X9393Y8275D02*
Y8352D01*
X9073Y8313D02*
Y8352D01*
X9093Y8313D02*
Y8352D01*
X9113Y8313D02*
Y8352D01*
X9133Y8313D02*
Y8352D01*
X9153Y8313D02*
Y8352D01*
X9173Y8313D02*
Y8352D01*
X9193Y8313D02*
Y8352D01*
X9213Y8313D02*
Y8352D01*
X8560Y8503D02*
X8722D01*
X9173Y8598D02*
Y8602D01*
X9233Y8313D02*
Y8352D01*
X9253Y8313D02*
Y8352D01*
X9193Y8598D02*
Y8602D01*
X9213Y8598D02*
Y8602D01*
X9233Y8598D02*
Y8602D01*
X8688Y8343D02*
X9809D01*
X8691Y8323D02*
X9826D01*
X8683Y8352D02*
X9578D01*
X9160Y8598D02*
X9595D01*
X9273Y8313D02*
Y8352D01*
X9293Y8313D02*
Y8352D01*
X9253Y8598D02*
Y8602D01*
X9313Y8313D02*
Y8352D01*
X9333Y8313D02*
Y8352D01*
X9273Y8598D02*
Y8602D01*
X9293Y8598D02*
Y8602D01*
X9313Y8598D02*
Y8602D01*
X9165D02*
X9433D01*
X9333Y8598D02*
Y8602D01*
X9353Y8598D02*
Y8602D01*
X9373Y8598D02*
Y8602D01*
X9393Y8598D02*
Y8602D01*
X9413Y8598D02*
Y8602D01*
X9453Y8257D02*
Y8352D01*
X9473Y8271D02*
Y8352D01*
X9493Y8275D02*
Y8352D01*
X9627Y8183D02*
X9659D01*
X9527Y8263D02*
X9559D01*
X9627D02*
X9659D01*
X9533Y8257D02*
Y8352D01*
X9553Y8257D02*
Y8352D01*
X9513Y8271D02*
Y8352D01*
X9573Y8271D02*
Y8352D01*
X9633Y8257D02*
Y8384D01*
X9653Y8257D02*
Y8388D01*
X9593Y8275D02*
Y8355D01*
X9613Y8271D02*
Y8372D01*
X9673Y8271D02*
Y8400D01*
X9727Y8183D02*
X9759D01*
X9727Y8263D02*
X9759D01*
X9827D02*
X9859D01*
X9733Y8257D02*
Y8432D01*
X9753Y8257D02*
Y8412D01*
X9693Y8275D02*
Y8472D01*
X9713Y8271D02*
Y8452D01*
X9833Y8257D02*
Y8319D01*
X9853Y8257D02*
Y8315D01*
X9773Y8271D02*
Y8392D01*
X9873Y8271D02*
Y8319D01*
X9813Y8271D02*
Y8336D01*
X9603Y8363D02*
X9625Y8385D01*
X9691Y8443D02*
X9722D01*
X9688Y8423D02*
X9742D01*
X9680Y8477D02*
X9688D01*
X9688Y8463D02*
X9702D01*
X9433Y8598D02*
Y8602D01*
X9439Y8603D02*
X9590D01*
X9453Y8598D02*
Y8608D01*
X9468Y8623D02*
X9578D01*
X9675Y8603D02*
X9750D01*
X9688Y8623D02*
X9738D01*
X9688Y8477D02*
X9805Y8360D01*
X9603Y8363D02*
X9802D01*
X9675Y8403D02*
X9762D01*
X9623Y8383D02*
X9782D01*
X9793Y8275D02*
Y8372D01*
X9873Y8559D02*
Y8588D01*
X9869Y8563D02*
X10965D01*
X9849Y8583D02*
X10965D01*
X9671Y8598D02*
X9755D01*
X9853Y8579D02*
Y8600D01*
X9844Y8588D02*
X9933Y8499D01*
X9833Y8595D02*
Y8600D01*
X9835Y8603D02*
X9850D01*
X8535Y8690D02*
X8730Y8495D01*
X8503Y8923D02*
X8803D01*
X8523Y8943D02*
X8822D01*
X8543Y8963D02*
X8842D01*
X8695Y8983D02*
X8862D01*
X8708Y9003D02*
X8882D01*
X8733Y8923D02*
Y9085D01*
X8753Y8923D02*
Y9085D01*
X8773Y8923D02*
Y9085D01*
X8793Y8923D02*
Y9085D01*
X8813Y8933D02*
Y9085D01*
X8833Y8953D02*
Y9085D01*
X8853Y8973D02*
Y9085D01*
X8873Y8993D02*
Y9085D01*
X8893Y9013D02*
Y9085D01*
X8803Y8923D02*
X8894Y9014D01*
X9458Y8613D02*
X9533Y8688D01*
X8711Y9023D02*
X8894D01*
X8708Y9043D02*
X8894D01*
X9461Y8965D02*
X9533Y8893D01*
X9463Y8963D02*
X10090D01*
X8894Y9014D02*
Y9081D01*
X8695Y9063D02*
X8894D01*
X9095D02*
X9110D01*
X8913Y9081D02*
Y9085D01*
X8894Y9081D02*
X9011D01*
X8933D02*
Y9085D01*
X8953Y9081D02*
Y9085D01*
X9011Y9064D02*
Y9081D01*
X9013Y9065D02*
Y9085D01*
X8973Y9081D02*
Y9085D01*
X8993Y9081D02*
Y9085D01*
X9033Y9078D02*
Y9085D01*
X9093Y9065D02*
Y9085D01*
X9053Y9081D02*
Y9085D01*
X9073Y9078D02*
Y9085D01*
X9113Y9065D02*
Y9085D01*
X9193Y9065D02*
Y9085D01*
X9133Y9078D02*
Y9085D01*
X9153Y9081D02*
Y9085D01*
X9173Y9078D02*
Y9085D01*
X9195Y9063D02*
X9210D01*
X9213Y9065D02*
Y9085D01*
X9233Y9078D02*
Y9085D01*
X8090Y9083D02*
X9750D01*
X9295Y9063D02*
X9310D01*
X9395D02*
X9410D01*
X9253Y9081D02*
Y9085D01*
X9273Y9078D02*
Y9085D01*
X9293Y9065D02*
Y9085D01*
X9313Y9065D02*
Y9085D01*
X9333Y9078D02*
Y9085D01*
X9353Y9081D02*
Y9085D01*
X8088D02*
X9752D01*
X9393Y9065D02*
Y9085D01*
X9413Y9065D02*
Y9085D01*
X9373Y9078D02*
Y9085D01*
X9433Y9078D02*
Y9085D01*
X9453Y9081D02*
Y9085D01*
X9473Y8598D02*
Y8627D01*
X9493Y8598D02*
Y8647D01*
X9488Y8643D02*
X9574D01*
X9508Y8663D02*
X9578D01*
X9513Y8598D02*
Y8667D01*
X9528Y8683D02*
X9590D01*
X9533Y8598D02*
Y8687D01*
X9553Y8598D02*
Y9085D01*
X9573Y8598D02*
Y9085D01*
X9593Y8685D02*
Y9085D01*
X9613Y8698D02*
Y9085D01*
X9653Y8698D02*
Y9085D01*
X9673Y8685D02*
Y9085D01*
X9675Y8683D02*
X9750D01*
X9691Y8643D02*
X9734D01*
X9688Y8663D02*
X9738D01*
X9835Y8683D02*
X9850D01*
X9693Y8598D02*
Y9085D01*
X9713Y8598D02*
Y9085D01*
X9733Y8598D02*
Y9085D01*
X9753Y8685D02*
Y9000D01*
X9773Y8698D02*
Y8988D01*
X9833Y8685D02*
Y9000D01*
X9853Y8685D02*
Y9000D01*
X9493Y8933D02*
Y8980D01*
X9473Y8953D02*
Y8968D01*
X9508Y9003D02*
X9750D01*
X9793Y8701D02*
Y8984D01*
X9813Y8698D02*
Y8988D01*
X9543Y8713D02*
Y8868D01*
X9508Y9043D02*
X9734D01*
X9495Y9063D02*
X9738D01*
X9473Y9078D02*
Y9085D01*
X9493Y9065D02*
Y9085D01*
X9533Y8893D02*
Y9085D01*
X9633Y8701D02*
Y9085D01*
X9513Y8913D02*
Y9085D01*
X9511Y9023D02*
X9738D01*
X9542Y8703D02*
X9902D01*
X9543Y8723D02*
X9922D01*
X9543Y8743D02*
X9942D01*
X9543Y8763D02*
X9962D01*
X9543Y8783D02*
X9982D01*
X9543Y8803D02*
X10002D01*
X9543Y8823D02*
X10022D01*
X9543Y8843D02*
X10042D01*
X9543Y8863D02*
X10062D01*
X9523Y8903D02*
X10102D01*
X9503Y8923D02*
X10122D01*
X9495Y8983D02*
X10078D01*
X9483Y8943D02*
X10142D01*
X9873Y8698D02*
Y8988D01*
X9540Y8883D02*
X10082D01*
X9839Y9007D02*
X9846D01*
X9835Y9003D02*
X9850D01*
X10013Y6623D02*
Y6704D01*
X10033Y6623D02*
Y6704D01*
X10053Y6623D02*
Y6704D01*
X10073Y6623D02*
Y6704D01*
X10093Y6623D02*
Y6704D01*
X10113Y6623D02*
Y6704D01*
X10133Y6623D02*
Y6704D01*
X10153Y6623D02*
Y6704D01*
X9873Y6623D02*
Y6742D01*
X9893Y6623D02*
Y6722D01*
X9913Y6623D02*
Y6715D01*
X9933Y6623D02*
Y6715D01*
X9953Y6623D02*
Y6722D01*
X9973Y6623D02*
Y6729D01*
X9993Y6623D02*
Y6727D01*
X10173Y6623D02*
Y6704D01*
X10193Y6623D02*
Y6704D01*
X10213Y6623D02*
Y6704D01*
X10233Y6623D02*
Y6704D01*
X10253Y6623D02*
Y6704D01*
X10273Y6623D02*
Y6704D01*
X10293Y6623D02*
Y6704D01*
X10313Y6623D02*
Y6704D01*
X10333Y6623D02*
Y6704D01*
X10353Y6623D02*
Y6704D01*
X10373Y6623D02*
Y6704D01*
X10393Y6623D02*
Y6704D01*
X10413Y6623D02*
Y6704D01*
X10433Y6623D02*
Y6704D01*
X10453Y6623D02*
Y6704D01*
X10473Y6623D02*
Y6704D01*
X10493Y6623D02*
Y6704D01*
X10513Y6623D02*
Y6704D01*
X10533Y6623D02*
Y6704D01*
X9994D02*
X10094D01*
X10111D01*
X10094D02*
X10111D01*
X10194D01*
X10211D01*
X10194D02*
X10211D01*
X10294D01*
X10311D01*
X9953Y6723D02*
X9994D01*
Y6704D02*
Y6727D01*
X10294Y6704D02*
X10311D01*
X9983Y6727D02*
X9994D01*
X10311Y6704D02*
X10394D01*
X10411D01*
X10394D02*
X10411D01*
X10494D01*
X10511D01*
X10494D02*
X10511D01*
X10553Y6623D02*
Y6704D01*
X10573Y6623D02*
Y6704D01*
X10593Y6623D02*
Y6704D01*
X10511D02*
X10611D01*
X10613Y6623D02*
Y6772D01*
X10611Y6704D02*
Y6771D01*
X10596Y6902D02*
X10658D01*
X10608Y6883D02*
X10776D01*
X10611Y6771D02*
X10627Y6787D01*
X10613Y6858D02*
Y6902D01*
Y6858D02*
X10773D01*
X10611Y6863D02*
X10776D01*
X10633Y6623D02*
Y6787D01*
X10653Y6623D02*
Y6787D01*
X10623Y6783D02*
X10776D01*
X10793Y6623D02*
Y6770D01*
X10813Y6623D02*
Y6765D01*
X10833Y6623D02*
Y6764D01*
X10819D02*
X10846D01*
X10853Y6623D02*
Y6765D01*
X10673Y6623D02*
Y6787D01*
X10693Y6623D02*
Y6787D01*
X10633Y6858D02*
Y6902D01*
X10627Y6787D02*
X10773D01*
X10713Y6623D02*
Y6787D01*
X10733Y6623D02*
Y6787D01*
X10753Y6623D02*
Y6787D01*
X10773Y6623D02*
Y6787D01*
X10873Y6623D02*
Y6770D01*
X10893Y6623D02*
Y6787D01*
X10913Y6623D02*
Y7165D01*
X10933Y6623D02*
Y7185D01*
X10953Y6623D02*
Y7205D01*
X10973Y6623D02*
Y7225D01*
X10993Y6623D02*
Y7245D01*
X11013Y6623D02*
Y7265D01*
X11033Y6623D02*
Y7265D01*
X11053Y6623D02*
Y7265D01*
X11073Y6623D02*
Y7265D01*
X11093Y6623D02*
Y7265D01*
X11113Y6623D02*
Y7265D01*
X11133Y6623D02*
Y7265D01*
X11153Y6623D02*
Y7265D01*
X11173Y6623D02*
Y7265D01*
X10653Y6858D02*
Y6902D01*
X10664Y6903D02*
X10764D01*
X10673Y6858D02*
Y6905D01*
X10693Y6858D02*
Y6922D01*
X10693Y6923D02*
X10761D01*
X10773Y6858D02*
Y6887D01*
X10713Y6858D02*
Y6942D01*
X10733Y6858D02*
Y6962D01*
X10683Y6913D02*
X10758Y6988D01*
X10713Y6943D02*
X10764D01*
X10753Y6858D02*
Y6982D01*
X10761Y6964D02*
Y6991D01*
X10753Y6983D02*
X10761D01*
X10733Y6963D02*
X10776D01*
X10761Y6964D02*
X10778D01*
X10893Y6858D02*
Y6887D01*
X10773Y6958D02*
Y6964D01*
X10881Y7081D02*
X10905D01*
X10881D02*
Y7133D01*
X11013Y7265D01*
X10893Y6958D02*
Y6964D01*
X10887D02*
X10905D01*
X10893Y7081D02*
Y7145D01*
X10905Y6964D02*
Y7081D01*
X10951Y7203D02*
X11354D01*
X9943Y7373D02*
X10002D01*
X9935Y7443D02*
X10010D01*
X9951Y7403D02*
X9994D01*
X9948Y7383D02*
X9998D01*
X9948Y7423D02*
X9998D01*
X9953Y7373D02*
Y7480D01*
X9973Y7373D02*
Y7468D01*
X9933Y7445D02*
Y7464D01*
X9993Y7373D02*
Y7464D01*
X10013Y7445D02*
Y7468D01*
X10093Y7445D02*
Y7464D01*
X10095Y7443D02*
X10110D01*
X10195D02*
X10210D01*
X10295D02*
X10310D01*
X10395D02*
X10410D01*
X10113Y7445D02*
Y7468D01*
X10193Y7445D02*
Y7570D01*
X10213Y7445D02*
Y7574D01*
X10293Y7445D02*
Y7570D01*
X10313Y7445D02*
Y7574D01*
X10413Y7445D02*
Y7552D01*
X10393Y7445D02*
Y7570D01*
X9913Y7458D02*
Y7464D01*
X10033Y7458D02*
Y7480D01*
X9951Y7464D02*
Y7481D01*
X10073Y7458D02*
Y7468D01*
X10133Y7458D02*
Y7480D01*
X10035Y7483D02*
X10050D01*
X10053Y7461D02*
Y7480D01*
X10173Y7458D02*
Y7574D01*
X10233Y7458D02*
Y7589D01*
X10133Y7565D02*
Y7589D01*
X10127Y7583D02*
X10159D01*
X10153Y7461D02*
Y7589D01*
X10148Y7503D02*
X10462D01*
X10135Y7483D02*
X10484D01*
X10135Y7563D02*
X10402D01*
X10148Y7543D02*
X10422D01*
X10273Y7458D02*
Y7574D01*
X10433Y7458D02*
Y7532D01*
X10151Y7523D02*
X10442D01*
X10453Y7461D02*
Y7512D01*
X10395Y7570D02*
X10478Y7488D01*
X10253Y7461D02*
Y7589D01*
X10227Y7583D02*
X10259D01*
X10333Y7458D02*
Y7589D01*
X10373Y7458D02*
Y7574D01*
X10353Y7461D02*
Y7589D01*
X10327Y7583D02*
X10359D01*
X10603Y7374D02*
X10658Y7428D01*
X10608Y7383D02*
X10612D01*
X10611Y7403D02*
X10632D01*
X10608Y7423D02*
X10652D01*
X10613Y7383D02*
Y7477D01*
X10633Y7403D02*
Y7477D01*
X10653Y7423D02*
Y7477D01*
X10673Y7437D02*
Y7477D01*
X10693Y7438D02*
Y7477D01*
X10713Y7438D02*
Y7477D01*
X11193Y6623D02*
Y7265D01*
X11213Y6623D02*
Y7265D01*
X11233Y6623D02*
Y7265D01*
X11253Y6623D02*
Y7265D01*
X11273Y6623D02*
Y7265D01*
X11293Y6623D02*
Y7265D01*
X11313Y6623D02*
Y7265D01*
X11333Y6623D02*
Y7265D01*
X11353Y6623D02*
Y7265D01*
X10733Y7438D02*
Y7477D01*
X10683Y7438D02*
X11080D01*
X10753D02*
Y7477D01*
X10773Y7438D02*
Y7477D01*
X10793Y7438D02*
Y7477D01*
X10813Y7438D02*
Y7477D01*
X10833Y7438D02*
Y7477D01*
X10873Y7438D02*
Y7466D01*
X10853Y7438D02*
Y7475D01*
X10495Y7443D02*
X10510D01*
X10513Y7445D02*
Y7477D01*
X10533Y7458D02*
Y7477D01*
X10553Y7461D02*
Y7477D01*
X10893Y7438D02*
Y7466D01*
X10933Y7438D02*
Y7460D01*
X10573Y7458D02*
Y7477D01*
X10593Y7445D02*
Y7477D01*
X10473Y7458D02*
Y7492D01*
X10493Y7445D02*
Y7479D01*
X10913Y7438D02*
Y7475D01*
X10503Y7477D02*
X10850D01*
X10745Y8223D02*
X10758Y8236D01*
X10953Y7438D02*
Y7448D01*
X10973Y7438D02*
Y7444D01*
X10993Y7438D02*
Y7448D01*
X10595Y7443D02*
X11084D01*
X11033Y7438D02*
Y7444D01*
X11053Y7438D02*
Y7444D01*
X11073Y7438D02*
Y7444D01*
X11080Y7438D02*
X11086Y7444D01*
X11014D02*
X11086D01*
X11013Y7438D02*
Y7460D01*
X11014Y7444D02*
Y7461D01*
X11333Y8191D02*
Y8332D01*
X11247Y8277D02*
X11343Y8180D01*
X11313Y8211D02*
Y8352D01*
X11321Y8203D02*
X11353D01*
X11353Y8202D02*
Y8312D01*
X10889Y6863D02*
X11455D01*
X10901Y6843D02*
X11476D01*
X10901Y6903D02*
X11437D01*
X10889Y6883D02*
X11443D01*
X11453Y6633D02*
Y6866D01*
X11473Y6653D02*
Y6845D01*
X10905Y6923D02*
X11435D01*
X11493Y6673D02*
Y6833D01*
X10901Y6943D02*
X11437D01*
X10889Y6963D02*
X11443D01*
X10905Y6983D02*
X11455D01*
X10905Y7003D02*
X11476D01*
X11373Y6623D02*
Y7160D01*
X11393Y6623D02*
Y7148D01*
X11413Y6623D02*
Y7144D01*
X11433Y6623D02*
Y7148D01*
X11453Y6979D02*
Y7160D01*
X10611Y6723D02*
X11542D01*
X10611Y6743D02*
X11562D01*
X10611Y6763D02*
X11582D01*
X10889Y6783D02*
X11602D01*
X11513Y6693D02*
Y6827D01*
X11533Y6713D02*
Y6825D01*
X10901Y6803D02*
X11622D01*
X10905Y6823D02*
X11642D01*
X11553Y6733D02*
Y6827D01*
X11443Y6623D02*
X11672Y6852D01*
X10905Y7023D02*
X11672D01*
X11573Y6753D02*
Y6833D01*
X11593Y6773D02*
Y6845D01*
X11573Y7012D02*
Y7160D01*
X11589Y6843D02*
X11662D01*
X11589Y7003D02*
X11672D01*
X10931Y7183D02*
X11358D01*
X10911Y7163D02*
X11370D01*
X10971Y7223D02*
X11358D01*
X10991Y7243D02*
X11370D01*
X11468Y7183D02*
X11558D01*
X11471Y7203D02*
X11554D01*
X11468Y7223D02*
X11558D01*
X11373Y7245D02*
Y7265D01*
X11393Y7258D02*
Y7265D01*
X11013D02*
X11403D01*
X11433Y7258D02*
Y7268D01*
X11453Y7245D02*
Y7280D01*
X11468Y7303D02*
X11558D01*
X11471Y7323D02*
X11554D01*
X10881Y7083D02*
X11672D01*
X10881Y7103D02*
X11672D01*
X10881Y7123D02*
X11672D01*
X10891Y7143D02*
X11672D01*
X10905Y7043D02*
X11672D01*
X10905Y7063D02*
X11672D01*
X11455Y7163D02*
X11570D01*
X11455Y7243D02*
X11570D01*
X11455Y7283D02*
X11570D01*
X11011Y7263D02*
X11672D01*
X11461Y7363D02*
X11570D01*
X11461Y7383D02*
X11672D01*
X11573Y7245D02*
Y7280D01*
X11468Y7343D02*
X11558D01*
X11613Y6793D02*
Y6866D01*
X11659Y6738D02*
X11733Y6813D01*
X11610Y6863D02*
X11672D01*
X11622Y6883D02*
X11672D01*
X11713Y6737D02*
Y6792D01*
X11733Y6730D02*
Y6812D01*
X11673Y6740D02*
Y6752D01*
X11693Y6740D02*
Y6772D01*
X11613Y6979D02*
Y7144D01*
X11622Y6963D02*
X11672D01*
X11593Y7000D02*
Y7148D01*
X11610Y6983D02*
X11672D01*
X11633Y6813D02*
Y7148D01*
X11653Y6833D02*
Y7160D01*
X11629Y6903D02*
X11672D01*
X11631Y6923D02*
X11672D01*
X11629Y6943D02*
X11672D01*
X11663Y6743D02*
X11755D01*
X11683Y6763D02*
X11755D01*
X11703Y6783D02*
X11755D01*
X11748Y6723D02*
X11755D01*
X11723Y6803D02*
X11755D01*
X11740Y6823D02*
X11755D01*
X11743Y6843D02*
X11755D01*
X11743Y6863D02*
X11755D01*
X11743Y6883D02*
X11755D01*
X11743Y6903D02*
X11755D01*
X11743Y6923D02*
X11755D01*
X11743Y6943D02*
X11755D01*
X11743Y6963D02*
X11755D01*
X11743Y6983D02*
X11755D01*
X11743Y7003D02*
X11755D01*
X11593Y7258D02*
Y7268D01*
X11655Y7163D02*
X11672D01*
X11668Y7183D02*
X11672D01*
X11668Y7223D02*
X11672D01*
X11655Y7243D02*
X11672D01*
X11633Y7258D02*
Y7268D01*
X11653Y7245D02*
Y7280D01*
X11655Y7283D02*
X11672D01*
X11668Y7303D02*
X11672D01*
X11668Y7343D02*
X11672D01*
X11655Y7363D02*
X11672D01*
X11743Y7023D02*
X11755D01*
X11743Y7043D02*
X11755D01*
X11743Y7063D02*
X11755D01*
X11743Y7083D02*
X11755D01*
X11743Y7103D02*
X11755D01*
X11743Y7123D02*
X11755D01*
X11743Y7143D02*
X11755D01*
X11743Y7163D02*
X11755D01*
X11743Y7183D02*
X11755D01*
X11743Y7203D02*
X11755D01*
X11743Y7223D02*
X11755D01*
X11743Y7243D02*
X11755D01*
X11743Y7263D02*
X11755D01*
X11743Y7283D02*
X11755D01*
X11743Y7303D02*
X11755D01*
X11743Y7323D02*
X11755D01*
X11743Y7343D02*
X11755D01*
X11743Y7363D02*
X11755D01*
X11461Y7356D02*
Y7603D01*
Y7563D02*
X11510D01*
X11461Y7603D02*
X11494D01*
X11461Y7583D02*
X11498D01*
X11513Y7019D02*
Y7560D01*
X11533Y7021D02*
Y7548D01*
X11461Y7623D02*
X11498D01*
X11461Y7603D02*
Y7823D01*
X11473Y7000D02*
Y7817D01*
X11461Y7643D02*
X11510D01*
X11493Y7012D02*
Y7815D01*
X11513Y7645D02*
Y7822D01*
X11533Y7658D02*
Y7846D01*
X11461Y7403D02*
X11672D01*
X11461Y7423D02*
X11672D01*
X11461Y7443D02*
X11672D01*
X11461Y7463D02*
X11672D01*
X11461Y7483D02*
X11672D01*
X11461Y7503D02*
X11672D01*
X11461Y7523D02*
X11672D01*
X11461Y7543D02*
X11672D01*
X11461Y7663D02*
X11672D01*
X11461Y7683D02*
X11672D01*
X11461Y7703D02*
X11672D01*
X11461Y7723D02*
X11672D01*
X11461Y7743D02*
X11672D01*
X11461Y7763D02*
X11672D01*
X11461Y7783D02*
X11672D01*
X11461Y7803D02*
X11672D01*
X11514Y7823D02*
X11672D01*
X11531Y7843D02*
X11672D01*
X11393Y8051D02*
Y8093D01*
X11381Y8063D02*
X11409Y8035D01*
X11381Y8063D02*
X11452D01*
X11381Y8083D02*
X11452D01*
X11413Y8035D02*
Y8091D01*
X11409Y8035D02*
X11452D01*
X11433D02*
Y8093D01*
X11401Y8043D02*
X11452D01*
X11381Y8063D02*
Y8098D01*
X11301Y8223D02*
X11373D01*
X11452Y8035D02*
Y8102D01*
X11523Y7895D02*
Y8228D01*
Y8203D02*
X11592D01*
X11523Y7903D02*
X11672D01*
X11523Y7923D02*
X11672D01*
X11523Y7943D02*
X11672D01*
X11523Y7963D02*
X11672D01*
X11531Y7883D02*
X11672D01*
X11523Y7983D02*
X11672D01*
X11523Y8003D02*
X11672D01*
X11523Y8023D02*
X11672D01*
X11523Y8043D02*
X11672D01*
X11523Y8063D02*
X11672D01*
X11523Y8083D02*
X11672D01*
X11264Y8531D02*
X11672Y8123D01*
X11106Y8790D02*
X11733Y8163D01*
X11523Y8103D02*
X11672D01*
X11523Y8123D02*
X11672D01*
X11523Y8183D02*
X11612D01*
X11523Y8143D02*
X11652D01*
X11523Y8163D02*
X11632D01*
X11553Y7019D02*
Y7544D01*
X11573Y7365D02*
Y7548D01*
X11593Y7378D02*
Y7560D01*
X11595Y7563D02*
X11672D01*
X11608Y7583D02*
X11672D01*
X11611Y7603D02*
X11672D01*
X11593Y7645D02*
Y8202D01*
X11553Y7661D02*
Y8242D01*
X11573Y7658D02*
Y8222D01*
X11653Y7365D02*
Y8142D01*
X11672Y6852D02*
Y8123D01*
X11613Y7381D02*
Y8182D01*
X11608Y7623D02*
X11672D01*
X11633Y7378D02*
Y8162D01*
X11743Y7383D02*
X11755D01*
X11743Y7403D02*
X11755D01*
X11743Y7423D02*
X11755D01*
X11743Y7443D02*
X11755D01*
X11743Y7463D02*
X11755D01*
X11743Y7483D02*
X11755D01*
X11743Y7503D02*
X11755D01*
X11743Y7523D02*
X11755D01*
X11743Y7543D02*
X11755D01*
X11743Y7563D02*
X11755D01*
X11743Y7583D02*
X11755D01*
X11595Y7643D02*
X11672D01*
X11743Y7603D02*
X11755D01*
Y6718D02*
Y8907D01*
X11753Y6720D02*
Y8905D01*
X11743Y6838D02*
Y8138D01*
Y7623D02*
X11755D01*
X11743Y7643D02*
X11755D01*
X11743Y7663D02*
X11755D01*
X11743Y7683D02*
X11755D01*
X11743Y7703D02*
X11755D01*
X11743Y7723D02*
X11755D01*
X11743Y7743D02*
X11755D01*
X11743Y7763D02*
X11755D01*
X11743Y7783D02*
X11755D01*
X11743Y7803D02*
X11755D01*
X11533Y7879D02*
Y8262D01*
X11536Y7863D02*
X11672D01*
X11693Y8203D02*
Y8885D01*
X11713Y8183D02*
Y8888D01*
X11743Y7823D02*
X11755D01*
X11743Y7843D02*
X11755D01*
X11733Y8163D02*
Y8895D01*
X11743Y7863D02*
X11755D01*
X11743Y7883D02*
X11755D01*
X11743Y7903D02*
X11755D01*
X11743Y7923D02*
X11755D01*
X11743Y7943D02*
X11755D01*
X11743Y7963D02*
X11755D01*
X11743Y7983D02*
X11755D01*
X11743Y8003D02*
X11755D01*
X11743Y8023D02*
X11755D01*
X11743Y8043D02*
X11755D01*
X11733Y8163D02*
X11755D01*
X11713Y8183D02*
X11755D01*
X11693Y8203D02*
X11755D01*
X11743Y8063D02*
X11755D01*
X11743Y8083D02*
X11755D01*
X11743Y8103D02*
X11755D01*
X11743Y8123D02*
X11755D01*
X11743Y8143D02*
X11755D01*
X9883Y8313D02*
X9933Y8263D01*
X9927Y8263D02*
X9932D01*
X9893Y8275D02*
Y8302D01*
X9913Y8271D02*
Y8282D01*
X9933Y8257D02*
Y8262D01*
X9943Y8383D02*
X9959D01*
X9943Y8360D02*
Y8474D01*
X10031Y8378D02*
X10054D01*
X10033D02*
Y8595D01*
X10027Y8383D02*
X10059D01*
X10053Y8378D02*
Y8595D01*
X10231Y8378D02*
X10254D01*
X10127Y8383D02*
X10159D01*
X10227D02*
X10259D01*
X10570Y8270D02*
X10590Y8290D01*
X10327Y8383D02*
X10359D01*
X10431Y8378D02*
X10454D01*
X10233D02*
Y8595D01*
X10253Y8378D02*
Y8595D01*
X10433Y8378D02*
Y8595D01*
X10453Y8378D02*
Y8595D01*
X9893Y8539D02*
Y8584D01*
X9913Y8519D02*
Y8588D01*
X9993Y8395D02*
Y8590D01*
X10093Y8395D02*
Y8590D01*
X10193Y8395D02*
Y8590D01*
X10293Y8395D02*
Y8590D01*
X9973Y8391D02*
Y8594D01*
X10013Y8391D02*
Y8594D01*
X10073Y8391D02*
Y8594D01*
X10014Y8595D02*
X10071D01*
X10113Y8391D02*
Y8594D01*
X10173Y8391D02*
Y8594D01*
X10213Y8391D02*
Y8594D01*
X10214Y8595D02*
X10271D01*
X10273Y8391D02*
Y8594D01*
X9943Y8403D02*
X10822D01*
X9943Y8423D02*
X10822D01*
X9929Y8503D02*
X10811D01*
X9909Y8523D02*
X10811D01*
X10427Y8383D02*
X10459D01*
X10527D02*
X10559D01*
X9942Y8483D02*
X10820D01*
X9943Y8443D02*
X10822D01*
X9943Y8463D02*
X10822D01*
X10313Y8391D02*
Y8594D01*
X10373Y8391D02*
Y8594D01*
X10393Y8395D02*
Y8590D01*
X9889Y8543D02*
X10820D01*
X10413Y8391D02*
Y8594D01*
X10473Y8391D02*
Y8594D01*
X10414Y8595D02*
X10471D01*
X10493Y8395D02*
Y8590D01*
X10513Y8391D02*
Y8594D01*
X10613Y8271D02*
Y8294D01*
X10627Y8263D02*
X10659D01*
X10593Y8275D02*
Y8290D01*
X10627Y8303D02*
X10659D01*
X10673Y8271D02*
Y8294D01*
X10741Y8243D02*
X10767D01*
X10693Y8275D02*
Y8290D01*
X10713Y8271D02*
Y8294D01*
X10633Y8257D02*
Y8307D01*
X10653Y8257D02*
Y8307D01*
X10631D02*
X10654D01*
X10733Y8257D02*
Y8309D01*
X10753Y8231D02*
Y8309D01*
X10727Y8303D02*
X10759D01*
X10583Y8283D02*
X10822D01*
X10727Y8263D02*
X10832D01*
X10783Y8246D02*
X10838D01*
X10833D02*
Y8262D01*
X10833Y8263D02*
X10835Y8260D01*
X10773Y8245D02*
Y8294D01*
X10793Y8246D02*
Y8290D01*
X10813Y8246D02*
Y8294D01*
X10822Y8288D02*
Y8299D01*
X10631Y8378D02*
X10654D01*
X10627Y8383D02*
X10659D01*
X10593Y8395D02*
Y8590D01*
X10693Y8395D02*
Y8590D01*
X10727Y8383D02*
X10759D01*
X10822Y8386D02*
Y8480D01*
X10793Y8395D02*
Y8590D01*
X10813Y8391D02*
Y8496D01*
X10573Y8391D02*
Y8594D01*
X10633Y8378D02*
Y8595D01*
X10613Y8391D02*
Y8594D01*
X10614Y8595D02*
X10671D01*
X10653Y8378D02*
Y8595D01*
X10673Y8391D02*
Y8594D01*
X10713Y8391D02*
Y8594D01*
X10773Y8391D02*
Y8594D01*
X10813Y8529D02*
Y8594D01*
X10893Y8438D02*
Y8480D01*
Y8443D02*
X10896D01*
X10893Y8463D02*
X10965D01*
X10895Y8483D02*
X10965D01*
X10905Y8503D02*
X10965D01*
X10905Y8523D02*
X10965D01*
X10895Y8543D02*
X10965D01*
X10833Y8554D02*
Y8595D01*
X10853Y8560D02*
Y8595D01*
X10873Y8558D02*
Y8595D01*
X10913Y8456D02*
Y8595D01*
X10965Y8449D02*
Y8593D01*
X10893Y8545D02*
Y8595D01*
X10933Y8461D02*
Y8595D01*
X10953Y8457D02*
Y8595D01*
X9933Y8499D02*
Y8600D01*
X9935Y8603D02*
X9959D01*
X9893Y8701D02*
Y8984D01*
X9913Y8713D02*
Y8988D01*
X9953Y8377D02*
Y8609D01*
X10093Y8893D02*
Y8960D01*
X10113Y8913D02*
Y8948D01*
X9933Y8733D02*
Y9000D01*
X9953Y8753D02*
Y9085D01*
X9973Y8773D02*
Y9085D01*
X9935Y9003D02*
X10074D01*
X9993Y8793D02*
Y9085D01*
X10013Y8813D02*
Y9085D01*
X10033Y8833D02*
Y9085D01*
X10053Y8853D02*
Y9085D01*
X10073Y8873D02*
Y9085D01*
X10133Y8377D02*
Y8609D01*
X10153Y8377D02*
Y8609D01*
X10127Y8603D02*
X10159D01*
X10333Y8377D02*
Y8609D01*
X10353Y8377D02*
Y8609D01*
X10327Y8603D02*
X10359D01*
X10133Y8933D02*
Y8944D01*
X9900Y8701D02*
X10145Y8946D01*
X10193Y8993D02*
Y9085D01*
X10191Y9003D02*
X10202D01*
X10190Y8990D02*
X10228Y9028D01*
X9948Y9023D02*
X10078D01*
X9951Y9043D02*
X10090D01*
X10188Y9023D02*
X10222D01*
X10093Y9045D02*
Y9085D01*
X10113Y9058D02*
Y9085D01*
X10133Y9061D02*
Y9085D01*
X10213Y9013D02*
Y9085D01*
X10233Y9032D02*
Y9085D01*
X10153Y9058D02*
Y9085D01*
X10173Y9045D02*
Y9085D01*
X10253Y9038D02*
Y9085D01*
Y9038D02*
X10286D01*
X10175Y9043D02*
X10290D01*
X9948Y9063D02*
X10943D01*
X9935Y9083D02*
X10953D01*
X10273Y9038D02*
Y9085D01*
X10379Y9038D02*
X10406D01*
X10375Y9043D02*
X10410D01*
X10293Y9045D02*
Y9085D01*
X10313Y9058D02*
Y9085D01*
X10333Y9061D02*
Y9085D01*
X9933D02*
X10954D01*
X10373Y9045D02*
Y9085D01*
X10393Y9038D02*
Y9085D01*
X10353Y9058D02*
Y9085D01*
X10413Y9045D02*
Y9085D01*
X10433Y9058D02*
Y9085D01*
X10533Y8377D02*
Y8609D01*
X10553Y8377D02*
Y8609D01*
X10527Y8603D02*
X10559D01*
X10733Y8377D02*
Y8609D01*
X10753Y8377D02*
Y8609D01*
X10727Y8603D02*
X10759D01*
X10771Y8690D02*
Y8713D01*
X10787Y8729D01*
X10773Y8691D02*
Y8715D01*
X10793Y8695D02*
Y8736D01*
X10801Y8763D02*
Y8844D01*
X10794Y8961D02*
X10811D01*
X10814Y8595D02*
X10963D01*
X10814Y8691D02*
X10983D01*
X10801Y8844D02*
X10811D01*
Y8961D01*
X10813Y8691D02*
Y8967D01*
X10833Y8691D02*
Y8967D01*
X10853Y8691D02*
Y8967D01*
X10873Y8691D02*
Y8967D01*
X10799D02*
X10973D01*
X10893Y8691D02*
Y8967D01*
X10913Y8691D02*
Y8967D01*
X10933Y8691D02*
Y8967D01*
X10953Y8691D02*
Y8967D01*
X10973Y8691D02*
Y8967D01*
X10493Y9048D02*
Y9085D01*
X10489Y9048D02*
X10516D01*
X10453Y9061D02*
Y9085D01*
X10473Y9058D02*
Y9085D01*
X10599Y9038D02*
X10606D01*
X10513Y9048D02*
Y9085D01*
X10595Y9043D02*
X10610D01*
X10533Y9058D02*
Y9085D01*
X10593Y9045D02*
Y9085D01*
X10553Y9061D02*
Y9085D01*
X10573Y9058D02*
Y9085D01*
X10613Y9045D02*
Y9085D01*
X10693Y9045D02*
Y9085D01*
X10633Y9058D02*
Y9085D01*
X10653Y9061D02*
Y9085D01*
X10673Y9058D02*
Y9085D01*
X10699Y9038D02*
X10706D01*
X10695Y9043D02*
X10710D01*
X10713Y9045D02*
Y9085D01*
X10799Y9038D02*
X10941D01*
X10795Y9043D02*
X10941D01*
X10733Y9058D02*
Y9085D01*
X10753Y9061D02*
Y9085D01*
X10773Y9058D02*
Y9085D01*
X10813Y9038D02*
Y9085D01*
X10833Y9038D02*
Y9085D01*
X10793Y9045D02*
Y9085D01*
X10853Y9038D02*
Y9085D01*
X10873Y9038D02*
Y9085D01*
X10893Y9038D02*
Y9085D01*
X10913Y9038D02*
Y9085D01*
X10933Y9038D02*
Y9085D01*
X11066Y8291D02*
X11213D01*
X11061Y8383D02*
X11282D01*
X11061Y8363D02*
X11302D01*
X11273Y8251D02*
Y8392D01*
X11293Y8231D02*
Y8372D01*
X11133Y8291D02*
Y8483D01*
X11153Y8291D02*
Y8463D01*
X11061Y8296D02*
Y8613D01*
Y8403D02*
X11262D01*
X11233Y8286D02*
Y8432D01*
X11253Y8271D02*
Y8412D01*
X11173Y8291D02*
Y8453D01*
X11193Y8291D02*
Y8451D01*
X11213Y8291D02*
Y8452D01*
X11239Y8283D02*
X11382D01*
X11261Y8263D02*
X11402D01*
X11061Y8323D02*
X11342D01*
X11061Y8303D02*
X11362D01*
X11373Y8223D02*
Y8292D01*
X11393Y8232D02*
Y8272D01*
X11413Y8235D02*
Y8252D01*
X11281Y8243D02*
X11422D01*
X11212Y8453D02*
X11434Y8232D01*
X11262Y8503D02*
X11513Y8253D01*
X11061Y8343D02*
X11322D01*
X11353Y8413D02*
Y8442D01*
X11393Y8373D02*
Y8402D01*
X11403Y8363D02*
X11432D01*
X11373Y8393D02*
Y8422D01*
X11383Y8383D02*
X11412D01*
X11363Y8403D02*
X11392D01*
X11061Y8443D02*
X11222D01*
X11061Y8423D02*
X11242D01*
X11061Y8483D02*
X11133D01*
X11061Y8463D02*
X11153D01*
X11061Y8503D02*
X11123D01*
X11273Y8493D02*
Y8522D01*
X11061Y8523D02*
X11121D01*
X11061Y8543D02*
X11123D01*
X11061Y8563D02*
X11133D01*
X11061Y8583D02*
X11153D01*
X11061Y8603D02*
X11192D01*
X11265Y8523D02*
X11272D01*
X11060Y8623D02*
X11172D01*
X11193Y8595D02*
Y8602D01*
X11293Y8473D02*
Y8502D01*
X11303Y8463D02*
X11332D01*
X11263Y8503D02*
X11292D01*
X11283Y8483D02*
X11312D01*
X11333Y8433D02*
Y8462D01*
X11343Y8423D02*
X11372D01*
X11313Y8453D02*
Y8482D01*
X11323Y8443D02*
X11352D01*
X11393Y8503D02*
X11462D01*
X11333Y8563D02*
X11402D01*
X11348Y8618D02*
X11523Y8442D01*
X11293Y8603D02*
X11362D01*
X11313Y8583D02*
X11382D01*
X11393Y8503D02*
Y8572D01*
X11373Y8523D02*
X11442D01*
X11353Y8543D02*
Y8612D01*
X11353Y8543D02*
X11422D01*
X11373Y8523D02*
Y8592D01*
X11493Y8273D02*
Y8302D01*
X11503Y8263D02*
X11532D01*
X11463Y8303D02*
X11492D01*
X11483Y8283D02*
X11512D01*
X11513Y8253D02*
Y8282D01*
X11520Y8243D02*
X11552D01*
X11433Y8333D02*
Y8362D01*
X11443Y8323D02*
X11472D01*
X11413Y8353D02*
Y8382D01*
X11423Y8343D02*
X11452D01*
X11453Y8313D02*
Y8342D01*
X11473Y8293D02*
Y8322D01*
X11513Y8383D02*
Y8452D01*
X11533Y8363D02*
Y8383D01*
X11513Y8383D02*
X11533D01*
X11523Y8223D02*
X11572D01*
X11593Y8303D02*
X11755D01*
X11573Y8323D02*
X11755D01*
X11553Y8343D02*
X11755D01*
X11673Y8223D02*
X11755D01*
X11653Y8243D02*
X11755D01*
X11593Y8303D02*
Y8351D01*
X11633Y8263D02*
X11755D01*
X11613Y8283D02*
X11755D01*
X11553Y8343D02*
Y8363D01*
X11573Y8323D02*
Y8353D01*
X11533Y8363D02*
X11553D01*
X11633Y8263D02*
Y8363D01*
X11653Y8243D02*
Y8383D01*
X11613Y8283D02*
Y8353D01*
X11632Y8363D02*
X11755D01*
X11652Y8383D02*
X11755D01*
X11453Y8443D02*
Y8512D01*
X11453Y8443D02*
X11522D01*
X11413Y8483D02*
X11482D01*
X11433Y8463D02*
X11502D01*
X11493Y8403D02*
Y8472D01*
X11493Y8403D02*
X11523D01*
X11473Y8423D02*
Y8492D01*
X11473Y8423D02*
X11521D01*
X11413Y8483D02*
Y8552D01*
X11433Y8463D02*
Y8532D01*
X11463Y8603D02*
X11523D01*
X11483Y8583D02*
X11533D01*
X11553Y8513D02*
Y8563D01*
X11573Y8493D02*
Y8553D01*
X11533Y8533D02*
Y8583D01*
X11503Y8563D02*
X11553D01*
X11563Y8503D02*
X11755D01*
X11543Y8523D02*
X11755D01*
X11523Y8543D02*
X11755D01*
X11662Y8403D02*
X11755D01*
X11665Y8423D02*
X11755D01*
X11662Y8443D02*
X11755D01*
X11652Y8463D02*
X11755D01*
X11632Y8483D02*
X11755D01*
X11593Y8495D02*
Y8551D01*
X11613Y8492D02*
Y8553D01*
X11633Y8483D02*
Y8563D01*
X11653Y8462D02*
Y8583D01*
X11632Y8563D02*
X11755D01*
X11652Y8583D02*
X11755D01*
X11662Y8603D02*
X11755D01*
X11017Y8677D02*
X11047Y8647D01*
X11009Y8683D02*
X11112D01*
X11093Y8291D02*
Y8702D01*
X11113Y8291D02*
Y8682D01*
X10993Y8690D02*
Y8973D01*
X10771Y8703D02*
X11092D01*
X10796Y8743D02*
X11041D01*
X10781Y8723D02*
X11072D01*
X11053Y8639D02*
Y8740D01*
X11073Y8291D02*
Y8722D01*
X11013Y8680D02*
Y8771D01*
X11033Y8661D02*
Y8747D01*
X11133Y8562D02*
Y8662D01*
X11153Y8583D02*
Y8642D01*
X11031Y8663D02*
X11132D01*
X11050Y8643D02*
X11152D01*
X11173Y8592D02*
Y8622D01*
X11273Y8623D02*
X11343D01*
X11253Y8643D02*
X11337D01*
X11233Y8663D02*
X11337D01*
X11213Y8683D02*
X11337D01*
X11055Y8740D02*
X11201Y8594D01*
X11193Y8703D02*
X11337D01*
X11173Y8723D02*
Y9085D01*
X11173Y8723D02*
X11337D01*
X11253Y8643D02*
Y9085D01*
X11273Y8623D02*
Y9085D01*
X11193Y8703D02*
Y9085D01*
X11213Y8683D02*
Y9085D01*
X11233Y8663D02*
Y9085D01*
X10801Y8783D02*
X11010D01*
X10801Y8763D02*
X11017D01*
X10801Y8803D02*
X11012D01*
X10801Y8823D02*
X11025D01*
X11013Y8804D02*
Y8971D01*
X10811Y8883D02*
X11314D01*
X11033Y8829D02*
Y8973D01*
X11073Y8833D02*
Y9003D01*
X11053Y8835D02*
Y8983D01*
X11133Y8763D02*
Y9085D01*
X11153Y8743D02*
Y9085D01*
X11093Y8820D02*
Y9085D01*
X11113Y8783D02*
Y9085D01*
X10801Y8843D02*
X11337D01*
X10811Y8863D02*
X11337D01*
X10811Y8903D02*
X11314D01*
X10811Y8923D02*
X11314D01*
X11153Y8743D02*
X11337D01*
X11133Y8763D02*
X11337D01*
X11113Y8783D02*
X11337D01*
X11103Y8803D02*
X11337D01*
X11090Y8823D02*
X11337D01*
X10811Y8943D02*
X11314D01*
X10795Y8963D02*
X11314D01*
X11072Y9003D02*
X11318D01*
X11052Y8983D02*
X11330D01*
X11082Y9023D02*
X11314D01*
X11085Y9043D02*
X11318D01*
X11082Y9063D02*
X11330D01*
X11072Y9083D02*
X11575D01*
X11071Y9085D02*
X11577D01*
X11333Y8563D02*
Y8864D01*
X11337Y8643D02*
Y8864D01*
X11443Y8623D02*
X11521D01*
X11423Y8643D02*
X11523D01*
X11408Y8657D02*
Y8864D01*
Y8663D02*
X11533D01*
X11293Y8603D02*
Y9085D01*
X11313Y8583D02*
Y9085D01*
X11413Y8653D02*
Y8864D01*
X11433Y8633D02*
Y9085D01*
X11493Y8573D02*
Y9085D01*
X11513Y8553D02*
Y9085D01*
X11453Y8613D02*
Y9085D01*
X11473Y8593D02*
Y9085D01*
X11533Y8662D02*
Y9085D01*
X11408Y8657D02*
X11573Y8492D01*
X11408Y8683D02*
X11553D01*
X11408Y8703D02*
X11755D01*
X11665Y8623D02*
X11755D01*
X11662Y8643D02*
X11755D01*
X11652Y8663D02*
X11755D01*
X11632Y8683D02*
X11755D01*
X11553Y8683D02*
Y9085D01*
X11573Y8692D02*
Y8947D01*
X11408Y8723D02*
X11755D01*
X11408Y8743D02*
X11755D01*
X11653Y8662D02*
Y8888D01*
X11673Y8223D02*
Y8885D01*
X11593Y8695D02*
Y8922D01*
X11633Y8683D02*
Y8895D01*
X11613Y8692D02*
Y8905D01*
X11314Y8864D02*
Y8981D01*
Y8864D02*
X11337D01*
X11314Y8981D02*
X11331D01*
X11408Y8864D02*
X11431D01*
Y8981D01*
X11414D02*
X11431D01*
X11428Y9003D02*
X11555D01*
X11333Y9065D02*
Y9085D01*
X11353Y9078D02*
Y9085D01*
X11373Y9081D02*
Y9085D01*
X11393Y9078D02*
Y9085D01*
X11413Y9065D02*
Y9085D01*
X11408Y8763D02*
X11755D01*
X11408Y8783D02*
X11755D01*
X11408Y8803D02*
X11755D01*
X11408Y8823D02*
X11755D01*
X11408Y8843D02*
X11755D01*
X11408Y8863D02*
X11755D01*
X11431Y8903D02*
X11617D01*
X11431Y8883D02*
X11755D01*
X11748Y8903D02*
X11755D01*
X11415Y8983D02*
X11558D01*
X11431Y8923D02*
X11592D01*
X11428Y9043D02*
X11558D01*
X11415Y9063D02*
X11565D01*
X11431Y8943D02*
X11575D01*
X11431Y9023D02*
X11555D01*
X11431Y8963D02*
X11565D01*
X11573Y9078D02*
Y9085D01*
D11*
X11013Y8243D02*
Y8613D01*
X10983Y8643D02*
X11013Y8613D01*
X10793Y8643D02*
X10983D01*
X11333Y8043D02*
X11413Y7963D01*
X11333Y8043D02*
Y8123D01*
X11213Y8243D02*
X11333Y8123D01*
X11013Y8243D02*
X11213D01*
X11403Y7313D02*
X11413Y7323D01*
X10993Y7313D02*
X11403D01*
X10833Y7153D02*
X10993Y7313D01*
X10833Y7023D02*
Y7153D01*
X9993Y8643D02*
X10093D01*
Y8733D01*
X10263Y8903D01*
X10453D01*
X10193Y8643D02*
X10293D01*
X10553Y8843D02*
Y8903D01*
X10523Y8813D02*
X10553Y8843D01*
X10413Y8813D02*
X10523D01*
X10313Y8713D02*
X10413Y8813D01*
X10313Y8663D02*
Y8713D01*
X10293Y8643D02*
X10313Y8663D01*
X10393Y8643D02*
X10493D01*
X10653Y8803D02*
Y8903D01*
X10623Y8773D02*
X10653Y8803D01*
X10583Y8773D02*
X10623D01*
X10503Y8693D02*
X10583Y8773D01*
X10503Y8653D02*
Y8693D01*
X10493Y8643D02*
X10503Y8653D01*
X10593Y8643D02*
X10693D01*
X10753Y8763D02*
Y8903D01*
X10723Y8733D02*
X10753Y8763D01*
X10723Y8673D02*
Y8733D01*
X10693Y8643D02*
X10723Y8673D01*
X11353Y7603D02*
X11413D01*
Y7323D02*
Y7603D01*
Y7963D01*
D12*
X9153Y9023D02*
X9433Y8743D01*
X11009Y8167D02*
X11073Y8103D01*
X10937Y8167D02*
X11009D01*
X10883Y8113D02*
X10937Y8167D01*
X10607Y8113D02*
X10883D01*
X10557Y8163D02*
X10607Y8113D01*
X9953Y8163D02*
X10557D01*
X9893Y8223D02*
X9953Y8163D01*
X10933Y8063D02*
X10973Y8103D01*
X10583Y8063D02*
X10933D01*
X10533Y8113D02*
X10583Y8063D01*
X9903Y8113D02*
X10533D01*
X9793Y8223D02*
X9903Y8113D01*
X9483Y7113D02*
X9523Y7073D01*
X9343Y7113D02*
X9483D01*
X9303Y7073D02*
X9343Y7113D01*
X9993Y8343D02*
X10093D01*
X9303Y6973D02*
X9523D01*
X10193Y8343D02*
X10293D01*
X9303Y6873D02*
X9523D01*
X10393Y8343D02*
X10493D01*
X9303Y6773D02*
X9523D01*
X10593Y8343D02*
X10693D01*
X11011Y7441D02*
X11073Y7503D01*
X10591Y7441D02*
X11011D01*
X10553Y7403D02*
X10591Y7441D01*
X10253Y7403D02*
X10263Y7413D01*
X10343D01*
X10353Y7403D01*
X10153D02*
X10253D01*
X9893D02*
X10053D01*
X11333Y6923D02*
X11613Y7203D01*
X9033Y6763D02*
X9043Y6773D01*
X9203D01*
X8533Y7028D02*
X8798Y6763D01*
X7973Y8483D02*
X8233Y8743D01*
X8103Y7763D02*
X8223D01*
X8103Y7863D02*
X8223D01*
X8103Y7963D02*
X8223D01*
X10453Y9003D02*
X10463Y9013D01*
X10543D01*
X10553Y9003D01*
X10973D02*
X11013Y9043D01*
X9893Y7523D02*
X9993Y7623D01*
X8853Y7403D02*
X8953D01*
X8433Y8743D02*
X8502Y8812D01*
X9033D01*
X9453Y9023D02*
X9633Y8843D01*
X9893Y8643D02*
X10253Y9003D01*
X10673Y8463D02*
X10793Y8343D01*
X9973Y8463D02*
X10673D01*
X9483Y8113D02*
X9593Y8223D01*
X8773Y8113D02*
X9483D01*
X8623Y7963D02*
X8773Y8113D01*
X10408Y8064D02*
X10421Y8051D01*
X8824Y8064D02*
X10408D01*
X8623Y7863D02*
X8824Y8064D01*
X9973Y6773D02*
X9983Y6763D01*
X9923Y6773D02*
X9973D01*
X10553Y6763D02*
X10613Y6823D01*
X10833D01*
X11373Y8643D02*
X11593Y8423D01*
X11373Y8643D02*
Y8923D01*
X9793Y9043D02*
X9893D01*
X11058Y8788D02*
X11708Y8138D01*
Y6838D02*
Y8138D01*
X11458Y6588D02*
X11708Y6838D01*
X8458Y6588D02*
X11458D01*
X8333Y6713D02*
X8458Y6588D01*
X8333Y6713D02*
Y7363D01*
X8358Y7388D01*
X8707D01*
X8783Y7464D01*
X9483D01*
X9533Y7414D01*
X8633Y8223D02*
X8748Y8338D01*
X9578D01*
X9693Y8223D01*
X10053Y7403D02*
X10103Y7453D01*
X10153Y7403D01*
X11488Y7863D02*
Y8228D01*
X11193Y8523D02*
X11488Y8228D01*
X9633Y7073D02*
X9923D01*
X8618Y7238D02*
X8853Y7003D01*
X8508Y7238D02*
X8618D01*
X8433Y7163D02*
X8508Y7238D01*
X8433Y7078D02*
Y7163D01*
X8333Y8939D02*
X8469D01*
X8553Y9023D01*
X10228Y8288D02*
X10293Y8223D01*
X9958Y8288D02*
X10228D01*
X9908Y8338D02*
X9958Y8288D01*
X9908Y8338D02*
Y8474D01*
X9819Y8563D02*
X9908Y8474D01*
X8813Y8563D02*
X9819D01*
X8633Y8743D02*
X8813Y8563D01*
X8684Y7313D02*
X8734Y7263D01*
X9538D01*
X9663Y7138D01*
X10018D01*
X10153Y7003D01*
X9133Y8638D02*
X9433D01*
X9508Y8713D01*
Y8868D01*
X9353Y9023D02*
X9508Y8868D01*
X9844Y7188D02*
X10682D01*
X9719Y7313D02*
X9844Y7188D01*
X9650Y7313D02*
X9719D01*
X9608Y7355D02*
X9650Y7313D01*
X9608Y7355D02*
Y7488D01*
X9583Y7513D02*
X9608Y7488D01*
X8733Y7513D02*
X9583D01*
X8658Y7438D02*
X8733Y7513D01*
X8008Y7438D02*
X8658D01*
X7933Y7513D02*
X8008Y7438D01*
X7933Y7513D02*
Y8218D01*
X8058Y8343D01*
Y8488D01*
X8108Y8538D01*
X8528D01*
X8633Y7690D02*
X8706D01*
X8929Y7913D01*
X9133D01*
X11073Y7703D02*
X11158Y7618D01*
Y7466D02*
Y7618D01*
X11095Y7403D02*
X11158Y7466D01*
X10683Y7403D02*
X11095D01*
X10618Y7338D02*
X10683Y7403D01*
X9858Y7338D02*
X10618D01*
X9808Y7388D02*
X9858Y7338D01*
X9808Y7388D02*
Y7513D01*
X9783Y7538D02*
X9808Y7513D01*
X9678Y7538D02*
X9783D01*
X9593Y7623D02*
X9678Y7538D01*
X8583Y7763D02*
X8623D01*
X8383Y7963D02*
X8583Y7763D01*
X8383Y7963D02*
Y8013D01*
X8483Y8113D01*
X8645D01*
X8708Y8176D01*
Y8244D01*
X8742Y8278D01*
X9338D01*
X9393Y8223D01*
X10458Y7813D02*
X10583D01*
X10633Y7863D01*
Y8168D02*
X10740D01*
X10783Y8211D01*
X10932D01*
X10934Y8213D01*
Y8413D01*
X10858Y8288D02*
Y8513D01*
Y8288D02*
X10883Y8263D01*
X10503Y7513D02*
X10883D01*
X10393Y7623D02*
X10503Y7513D01*
X10933Y7963D02*
X10973Y8003D01*
X10253Y7963D02*
X10933D01*
X10228Y7988D02*
X10253Y7963D01*
X10733Y7315D02*
X10783Y7365D01*
X11133D01*
X11233Y7465D01*
Y7843D01*
X11073Y8003D02*
X11233Y7843D01*
X8883Y7813D02*
X10103D01*
X8709Y7639D02*
X8883Y7813D01*
X8183Y7639D02*
X8709D01*
X8159Y7663D02*
X8183Y7639D01*
X8103Y7663D02*
X8159D01*
X10353Y7003D02*
X10418Y6938D01*
X10658D01*
X10733Y7013D01*
Y7213D01*
X10683Y7263D02*
X10733Y7213D01*
X9851Y7263D02*
X10683D01*
X9758Y7356D02*
X9851Y7263D01*
X9758Y7356D02*
Y7463D01*
X9733Y7488D02*
X9758Y7463D01*
X9674Y7488D02*
X9733D01*
X9599Y7563D02*
X9674Y7488D01*
X8853Y7003D02*
X9013Y7163D01*
X9558D01*
X8818Y8888D02*
X8953Y9023D01*
X8278Y8888D02*
X8818D01*
X8228Y8938D02*
X8278Y8888D01*
X8228Y8938D02*
X8253Y8963D01*
Y9023D01*
X8033Y8743D02*
X8133D01*
X8033D02*
Y8843D01*
X8128Y8938D01*
X8228D01*
X7973Y8683D02*
X8033Y8743D01*
X8133Y8223D02*
X8298Y8388D01*
X9578D01*
X9633Y8443D01*
X8933Y8163D02*
X8993Y8223D01*
X8758Y8163D02*
X8933D01*
X8658Y8063D02*
X8758Y8163D01*
X8533Y8063D02*
X8658D01*
X8458Y7988D02*
X8533Y8063D01*
Y8743D02*
X8763Y8513D01*
X9703D01*
X9853Y8363D01*
X10888Y7688D02*
X10973Y7603D01*
X9558Y7688D02*
X10888D01*
X9493Y7623D02*
X9558Y7688D01*
X8458Y7544D02*
X8515Y7601D01*
X8771D01*
X8793Y7623D01*
X8521Y8223D02*
X8633D01*
X8336Y8038D02*
X8521Y8223D01*
X8078Y8038D02*
X8336D01*
X8003Y7963D02*
X8078Y8038D01*
X10833Y6663D02*
X10933Y6763D01*
X9313Y6663D02*
X10833D01*
X9203Y6773D02*
X9313Y6663D01*
X9893Y8763D02*
X10133Y9003D01*
X10538Y8288D02*
X10593Y8343D01*
X10458Y8288D02*
X10538D01*
X10393Y8223D02*
X10458Y8288D01*
X9667Y7213D02*
X9708D01*
X9542Y7338D02*
X9667Y7213D01*
X9178Y7338D02*
X9542D01*
X9693Y7759D02*
X10917D01*
X10973Y7703D01*
X9908Y7888D02*
X10492D01*
X9783Y8013D02*
X9908Y7888D01*
X8883Y8013D02*
X9783D01*
X8833Y8743D02*
X9033D01*
X8558Y7488D02*
X8633Y7563D01*
X8308Y7488D02*
X8558D01*
X8233Y7563D02*
X8308Y7488D01*
X8133Y8850D02*
X8970D01*
X9053Y8933D01*
Y9023D01*
X9983Y6763D02*
X10053D01*
X10153D01*
X10253D01*
X10353D01*
X10453D01*
X10553D01*
X10253Y9003D02*
X10333D01*
X10453D01*
X10553D02*
X10653D01*
X10753D01*
X10973D01*
X8798Y6763D02*
X8963D01*
X9033D01*
X9633Y8643D02*
Y8688D01*
Y8763D01*
Y8843D01*
Y8688D02*
X9748D01*
X9633Y8763D02*
X9893D01*
X10833Y6923D02*
X10933D01*
X11333D01*
X10933Y6763D02*
Y6923D01*
X10353Y7403D02*
X10453D01*
X10553D01*
X9793Y8643D02*
X9973Y8463D01*
X9748Y8688D02*
X9793Y8643D01*
X8633Y7563D02*
X9353D01*
X9599D01*
X9293Y7623D02*
X9353Y7563D01*
D13*
X8484Y7028D02*
X8533D01*
X8581D01*
X8003Y7514D02*
Y7563D01*
Y7963D02*
Y8011D01*
X8963Y6714D02*
Y6763D01*
X8914D02*
X8963D01*
X9011D01*
X9203Y6724D02*
Y6773D01*
X9154D02*
X9203D01*
X9154Y6873D02*
X9203D01*
X9154Y6973D02*
X9203D01*
X9154Y7073D02*
X9203D01*
X7973Y8434D02*
Y8483D01*
X7924D02*
X7973D01*
Y8531D01*
X8584Y8223D02*
X8633D01*
Y8174D02*
Y8223D01*
X8233Y8700D02*
Y8743D01*
Y8785D01*
X8153Y9023D02*
Y9071D01*
X9693Y8180D02*
Y8223D01*
Y8265D01*
X9453Y8974D02*
Y9023D01*
X9501D01*
X9453D02*
Y9071D01*
X9584Y8643D02*
X9633D01*
Y8691D01*
Y8643D02*
X9681D01*
X9744D02*
X9793D01*
Y8691D01*
X10771Y6923D02*
X10833D01*
X10895D01*
X9893Y7403D02*
X9941D01*
X10004D02*
X10053D01*
X9893D02*
Y7451D01*
X10053Y7403D02*
Y7451D01*
X10153Y7403D02*
Y7451D01*
X10253Y7403D02*
Y7451D01*
X10353Y7403D02*
Y7451D01*
X9993Y7474D02*
Y7523D01*
X10553Y7403D02*
X10601D01*
X10453D02*
Y7451D01*
X10553Y7403D02*
Y7451D01*
X11073Y7454D02*
Y7503D01*
X11564Y7203D02*
X11613D01*
X11564Y7323D02*
X11613D01*
Y7154D02*
Y7203D01*
X11661D01*
X11613D02*
Y7251D01*
Y7274D02*
Y7323D01*
Y7371D01*
Y7323D02*
X11661D01*
X11504Y7603D02*
X11553D01*
X11413Y8101D02*
Y8163D01*
Y8225D01*
X11553Y7554D02*
Y7603D01*
X11601D01*
X11553D02*
Y7651D01*
X10793Y8300D02*
Y8343D01*
Y8385D01*
X10133Y8954D02*
Y9003D01*
X10084D02*
X10133D01*
X10181D01*
X10133D02*
Y9051D01*
X11593Y8561D02*
Y8623D01*
X11531D02*
X11593D01*
X11655D01*
X11593D02*
Y8685D01*
X11324Y9023D02*
X11373D01*
X11421D01*
X11373D02*
Y9071D01*
D14*
X10753Y8903D02*
D03*
X8003Y7863D02*
D03*
Y7963D02*
D03*
Y7663D02*
D03*
X11073Y7503D02*
D03*
X10553Y6763D02*
D03*
X10453D02*
D03*
X10353D02*
D03*
X8003Y7563D02*
D03*
X9203Y6873D02*
D03*
Y6773D02*
D03*
X8153Y9023D02*
D03*
X8003Y7763D02*
D03*
X9203Y7073D02*
D03*
Y6973D02*
D03*
X8963Y6763D02*
D03*
X9893Y7523D02*
D03*
X10653Y8903D02*
D03*
X10553D02*
D03*
X10453D02*
D03*
X8533Y7128D02*
D03*
X11373Y8923D02*
D03*
X8953Y9023D02*
D03*
X10253Y6763D02*
D03*
X10153D02*
D03*
X10053D02*
D03*
D15*
X10753Y9003D02*
D03*
X8103Y7863D02*
D03*
Y7963D02*
D03*
Y7663D02*
D03*
X11073Y7603D02*
D03*
X10973Y7503D02*
D03*
Y7603D02*
D03*
X11073Y7703D02*
D03*
X10973D02*
D03*
Y8103D02*
D03*
X11073D02*
D03*
X10973Y8003D02*
D03*
X11073D02*
D03*
Y7803D02*
D03*
X10973Y7903D02*
D03*
Y7803D02*
D03*
X11073Y7903D02*
D03*
X8623Y7963D02*
D03*
X8223D02*
D03*
X10453Y6863D02*
D03*
X10353D02*
D03*
X9893Y9043D02*
D03*
Y8643D02*
D03*
X7973Y8683D02*
D03*
Y8483D02*
D03*
X11353Y7603D02*
D03*
X11553D02*
D03*
X9053Y9023D02*
D03*
X10353Y7003D02*
D03*
X9153Y9023D02*
D03*
X10253Y7003D02*
D03*
Y6863D02*
D03*
X8453Y9023D02*
D03*
X10453Y7003D02*
D03*
X9303Y7073D02*
D03*
X9523D02*
D03*
X9303Y6973D02*
D03*
X9523D02*
D03*
X9303Y6873D02*
D03*
X9523D02*
D03*
X9303Y6773D02*
D03*
X9523D02*
D03*
X11613Y7203D02*
D03*
X10133Y9003D02*
D03*
X9633Y8643D02*
D03*
X9893Y7403D02*
D03*
X8633Y8223D02*
D03*
X11613Y7323D02*
D03*
X8533Y7028D02*
D03*
X11373Y9023D02*
D03*
X9453D02*
D03*
X8103Y7563D02*
D03*
X9793Y8643D02*
D03*
X10553Y7403D02*
D03*
X10453D02*
D03*
X10353D02*
D03*
X10253D02*
D03*
X10153D02*
D03*
X10053D02*
D03*
X9993Y7523D02*
D03*
X8623Y7763D02*
D03*
Y7863D02*
D03*
X8103Y7763D02*
D03*
X8223D02*
D03*
Y7863D02*
D03*
X8953Y7003D02*
D03*
X8963Y6863D02*
D03*
X10333Y9003D02*
D03*
X10453D02*
D03*
X10553D02*
D03*
X10653D02*
D03*
X8133Y8323D02*
D03*
X8333Y8223D02*
D03*
Y8323D02*
D03*
X8433D02*
D03*
X8633D02*
D03*
X8433Y8223D02*
D03*
X10093Y7523D02*
D03*
X8433Y6878D02*
D03*
X8533Y6928D02*
D03*
X8433Y6978D02*
D03*
X8953Y7403D02*
D03*
X8853D02*
D03*
X8353Y9023D02*
D03*
X8653D02*
D03*
X9353D02*
D03*
X10053Y7003D02*
D03*
Y6863D02*
D03*
X9253Y9023D02*
D03*
X10153Y7003D02*
D03*
Y6863D02*
D03*
X8553Y9023D02*
D03*
X11413Y7203D02*
D03*
X9633Y8443D02*
D03*
X9693Y7403D02*
D03*
X8133Y8223D02*
D03*
X8433Y7078D02*
D03*
X8253Y9023D02*
D03*
X9923Y7073D02*
D03*
Y6973D02*
D03*
Y6873D02*
D03*
Y6773D02*
D03*
X8853Y7003D02*
D03*
X11413Y7323D02*
D03*
X9793Y9043D02*
D03*
X10553Y7003D02*
D03*
Y6863D02*
D03*
D16*
X9993Y8643D02*
D03*
X10093D02*
D03*
X10193D02*
D03*
X10293D02*
D03*
X10393D02*
D03*
X10493D02*
D03*
X10593D02*
D03*
X10693D02*
D03*
X10793Y8343D02*
D03*
Y8643D02*
D03*
X10693Y8343D02*
D03*
X10593D02*
D03*
X10493D02*
D03*
X10393D02*
D03*
X10293D02*
D03*
X10193D02*
D03*
X10093D02*
D03*
X9993D02*
D03*
X8133Y8743D02*
D03*
X8333D02*
D03*
X8633D02*
D03*
X8433D02*
D03*
X8533D02*
D03*
X8733Y8443D02*
D03*
Y8743D02*
D03*
X8633Y8443D02*
D03*
X8533D02*
D03*
X8433D02*
D03*
X8333D02*
D03*
X8233D02*
D03*
Y8743D02*
D03*
X8833Y8443D02*
D03*
Y8743D02*
D03*
X9293Y7623D02*
D03*
X10293D02*
D03*
X9493Y8223D02*
D03*
X10693Y7623D02*
D03*
X10093Y8223D02*
D03*
X9993D02*
D03*
X9893D02*
D03*
X9793D02*
D03*
X10193Y7623D02*
D03*
X9693D02*
D03*
X8893D02*
D03*
X10393D02*
D03*
X8993D02*
D03*
X10493D02*
D03*
X9093D02*
D03*
X10493Y8223D02*
D03*
X9193Y7623D02*
D03*
X10393Y8223D02*
D03*
X9893Y7623D02*
D03*
X9693Y8223D02*
D03*
X9393D02*
D03*
X10593D02*
D03*
X9293D02*
D03*
X9993Y7623D02*
D03*
X10093D02*
D03*
X9593D02*
D03*
X9193Y8223D02*
D03*
X8893D02*
D03*
X8793D02*
D03*
X9493Y7623D02*
D03*
X10593D02*
D03*
X10193Y8223D02*
D03*
X8993D02*
D03*
X9093D02*
D03*
X10293D02*
D03*
X9793Y7623D02*
D03*
X9593Y8223D02*
D03*
X9393Y7623D02*
D03*
X10693Y8223D02*
D03*
D17*
X8133Y8443D02*
D03*
X8793Y7623D02*
D03*
D18*
X11193Y8523D02*
D03*
X11593Y8423D02*
D03*
Y8623D02*
D03*
X11413Y8163D02*
D03*
X11013Y9043D02*
D03*
Y8243D02*
D03*
D19*
X10833Y7023D02*
D03*
D20*
Y6823D02*
D03*
Y6923D02*
D03*
D21*
X11533D02*
D03*
X8183Y6803D02*
D03*
Y7203D02*
D03*
D22*
X11413Y7963D02*
D03*
D23*
X9433Y8743D02*
D03*
X9033Y8812D02*
D03*
X10421Y8051D02*
D03*
X11058Y8788D02*
D03*
X9533Y7414D02*
D03*
X11488Y7863D02*
D03*
X9633Y7073D02*
D03*
X8333Y8939D02*
D03*
X8684Y7313D02*
D03*
X9133Y8638D02*
D03*
X10682Y7188D02*
D03*
X8528Y8538D02*
D03*
X8633Y7690D02*
D03*
X9133Y7913D02*
D03*
X10458Y7813D02*
D03*
X10633Y7863D02*
D03*
Y8168D02*
D03*
X10934Y8413D02*
D03*
X10858Y8513D02*
D03*
X10883Y8263D02*
D03*
Y7513D02*
D03*
X10228Y7988D02*
D03*
X10733Y7315D02*
D03*
X10103Y7813D02*
D03*
X9558Y7163D02*
D03*
X8458Y7988D02*
D03*
X9853Y8363D02*
D03*
X8458Y7544D02*
D03*
X9708Y7213D02*
D03*
X9178Y7338D02*
D03*
X9693Y7759D02*
D03*
X10492Y7888D02*
D03*
X8883Y8013D02*
D03*
X9033Y8743D02*
D03*
X8233Y7563D02*
D03*
X8133Y8850D02*
D03*
M02*
