M72
M48
T1F00S00C0.028
T2F00S00C0.032
T3F00S00C0.039
T4F00S00C0.047
T5F00S00C0.052
T6F00S00C0.055
T7F00S00C0.126
%
T01
X004Y011
X00625Y01081
X008Y01227
X00851Y0085
X0105Y0155
X00625Y01525
X013Y0145
X01345Y00875
X017Y00951
X01725Y007
X018Y0061
X01875Y0075
X0186Y01296
X0227Y0135
X02395Y01525
X02588Y01588
X02659Y01425
X02625Y0135
X028Y014
X0305Y0105
X029Y00852
X02849Y00725
X03655Y014
X0305Y018
X03101Y0195
X03025Y0205
X03225Y02325
X028Y01705
X0202Y019
X016Y0228
X012
Y02349
X013Y02175
X00695Y02075
X005Y02476
X003Y02387
T02
X0096Y0116
X0106
X0116
X0126
X0136
X0146
X0156
X0166
X0176
X0186
X0196
X0206
X0216
X0226
X0236
X0246
X0256
X0266
X0276
X0286
Y0176
X0276
Y0188
X0286
X0296
Y0218
X0286
X0276
X0266
X0256
X0246
X0236
X0226
X0216
Y0188
X0226
X0236
X0246
X0256
X0266
Y0176
X0256
X0246
X0236
X0226
X0216
X0206
X0196
X0186
X0176
X0166
X0156
X0146
X0136
X0126
X0116
X0106
X0096
X01Y0198
X009
X008
X007
X006
X005
X004
X003
Y0228
X004
X005
X006
X007
X008
X009
X01
T03
X006Y00415
Y00515
Y00615
X007Y00565
Y00465
Y00665
X0102Y0054
X0112
Y0094
X0102
X0079Y013
Y014
Y015
X0039
Y014
Y013
X0027
Y014
X0017
Y015
X0027
Y012
X0017
Y011
X0027
X0017Y013
X0113Y004
Y003
X0137Y0031
X0147
Y0041
Y0051
Y0061
X0137
Y0051
Y0041
X0169
Y0051
Y0061
Y0031
X0209
Y0041
Y0051
Y0061
X0222Y0054
X0232
X0242
X0252
X0262
Y004
Y003
X0252
Y004
X0242
X0232
X0222
Y003
X0232
X0242
Y0094
X0252
X0262
X0232
X0222
X0206
Y0106
X0216
X0226
X0186Y0094
X0272
Y0054
Y004
Y003
X0314Y0104
Y0114
X0324
Y0124
X0314
Y0134
X0324
Y0144
Y0154
Y0164
X0314
Y0154
Y0144
X0324Y0104
X0352Y0114
X0372
X0378Y0086
Y0074
X0358
Y0086
X0354Y0246
Y0256
X0292Y0254
Y0244
X0282
Y0254
X0272
Y0244
X0262
Y0254
X025
X023
X0206Y0258
X0196
X0162Y0256
X0152
X0142
X0132
X0122
X018Y0218
X0196
X0206
X018Y0198
X008Y0186
Y0176
X006
X005
Y0186
X006
X003
Y0176
X0014Y0202
Y0222
X0032Y0256
X0042
X0052
X0062
X0072
X0082
X0112
T04
X03Y0036
Y0046
Y0056
T05
X0318Y0178
X0336Y0206
X0376Y0196
Y0216
X0318Y0258
T06
X0358Y015
Y017
T07
X0035Y0034
Y0074
X037Y0046
M30
