%FSLAX23Y23*%
%MOIN*%
G70*
G01*
G75*
%ADD10C,0.040*%
%ADD11C,0.050*%
%ADD12C,0.060*%
%ADD13C,0.059*%
%ADD14R,0.050X0.050*%
%ADD15C,0.071*%
%ADD16C,0.150*%
%ADD17C,0.062*%
%ADD18R,0.062X0.062*%
%ADD19O,0.079X0.098*%
%ADD20R,0.079X0.098*%
%ADD21R,0.063X0.063*%
%ADD22C,0.063*%
%ADD23C,0.098*%
%ADD24R,0.098X0.098*%
%ADD25C,0.010*%
%ADD26C,0.008*%
%ADD27C,0.012*%
D10*
X9545Y5688D02*
X9905D01*
D25*
X11190Y8257D02*
X11192Y8248D01*
X11197Y8240D01*
X11205Y8234D01*
X11215Y8233D01*
X11225Y8234D01*
X11233Y8240D01*
X11238Y8248D01*
X11240Y8257D01*
X9785Y8417D02*
X9785Y8428D01*
X9784Y8437D01*
X9782Y8447D01*
X9780Y8457D01*
X9777Y8467D01*
X9773Y8476D01*
X9769Y8485D01*
X9764Y8494D01*
X9759Y8502D01*
X9753Y8510D01*
X9746Y8518D01*
X9739Y8525D01*
X9732Y8532D01*
X9724Y8538D01*
X9716Y8544D01*
X9707Y8549D01*
X9698Y8554D01*
X9689Y8557D01*
X9679Y8561D01*
X9670Y8563D01*
X9660Y8565D01*
X9650Y8567D01*
X9640Y8567D01*
X9630D01*
X9620Y8567D01*
X9610Y8565D01*
X9600Y8563D01*
X9591Y8561D01*
X9581Y8557D01*
X9572Y8554D01*
X9563Y8549D01*
X9554Y8544D01*
X9546Y8538D01*
X9538Y8532D01*
X9531Y8525D01*
X9524Y8518D01*
X9517Y8510D01*
X9511Y8502D01*
X9506Y8494D01*
X9501Y8485D01*
X9497Y8476D01*
X9493Y8467D01*
X9490Y8457D01*
X9488Y8447D01*
X9486Y8437D01*
X9485Y8428D01*
X9485Y8417D01*
X9485Y8407D01*
X9486Y8398D01*
X9488Y8388D01*
X9490Y8378D01*
X9493Y8368D01*
X9497Y8359D01*
X9501Y8350D01*
X9506Y8341D01*
X9511Y8333D01*
X9517Y8325D01*
X9524Y8317D01*
X9531Y8310D01*
X9538Y8303D01*
X9546Y8297D01*
X9554Y8291D01*
X9563Y8286D01*
X9572Y8281D01*
X9581Y8278D01*
X9591Y8274D01*
X9600Y8272D01*
X9610Y8270D01*
X9620Y8268D01*
X9630Y8268D01*
X9640D01*
X9650Y8268D01*
X9660Y8270D01*
X9670Y8272D01*
X9679Y8274D01*
X9689Y8278D01*
X9698Y8281D01*
X9707Y8286D01*
X9716Y8291D01*
X9724Y8297D01*
X9732Y8303D01*
X9739Y8310D01*
X9746Y8317D01*
X9753Y8325D01*
X9759Y8333D01*
X9764Y8341D01*
X9769Y8350D01*
X9773Y8359D01*
X9777Y8368D01*
X9780Y8378D01*
X9782Y8388D01*
X9784Y8398D01*
X9785Y8407D01*
X9785Y8417D01*
X9255Y7747D02*
X9255Y7758D01*
X9254Y7767D01*
X9252Y7777D01*
X9250Y7787D01*
X9247Y7797D01*
X9243Y7806D01*
X9239Y7815D01*
X9234Y7824D01*
X9229Y7832D01*
X9223Y7840D01*
X9216Y7848D01*
X9209Y7855D01*
X9202Y7862D01*
X9194Y7868D01*
X9186Y7874D01*
X9177Y7879D01*
X9168Y7884D01*
X9159Y7887D01*
X9149Y7891D01*
X9140Y7893D01*
X9130Y7895D01*
X9120Y7897D01*
X9110Y7897D01*
X9100D01*
X9090Y7897D01*
X9080Y7895D01*
X9070Y7893D01*
X9061Y7891D01*
X9051Y7887D01*
X9042Y7884D01*
X9033Y7879D01*
X9024Y7874D01*
X9016Y7868D01*
X9008Y7862D01*
X9001Y7855D01*
X8994Y7848D01*
X8987Y7840D01*
X8981Y7832D01*
X8976Y7824D01*
X8971Y7815D01*
X8967Y7806D01*
X8963Y7797D01*
X8960Y7787D01*
X8958Y7777D01*
X8956Y7767D01*
X8955Y7758D01*
X8955Y7747D01*
X8955Y7737D01*
X8956Y7728D01*
X8958Y7718D01*
X8960Y7708D01*
X8963Y7698D01*
X8967Y7689D01*
X8971Y7680D01*
X8976Y7671D01*
X8981Y7663D01*
X8987Y7655D01*
X8994Y7647D01*
X9001Y7640D01*
X9008Y7633D01*
X9016Y7627D01*
X9024Y7621D01*
X9033Y7616D01*
X9042Y7611D01*
X9051Y7608D01*
X9061Y7604D01*
X9070Y7602D01*
X9080Y7600D01*
X9090Y7598D01*
X9100Y7598D01*
X9110D01*
X9120Y7598D01*
X9130Y7600D01*
X9140Y7602D01*
X9149Y7604D01*
X9159Y7608D01*
X9168Y7611D01*
X9177Y7616D01*
X9186Y7621D01*
X9194Y7627D01*
X9202Y7633D01*
X9209Y7640D01*
X9216Y7647D01*
X9223Y7655D01*
X9229Y7663D01*
X9234Y7671D01*
X9239Y7680D01*
X9243Y7689D01*
X9247Y7698D01*
X9250Y7708D01*
X9252Y7718D01*
X9254Y7728D01*
X9255Y7737D01*
X9255Y7747D01*
X9335Y5787D02*
X9335Y5798D01*
X9334Y5807D01*
X9332Y5817D01*
X9330Y5827D01*
X9327Y5837D01*
X9323Y5846D01*
X9319Y5855D01*
X9314Y5864D01*
X9309Y5872D01*
X9303Y5880D01*
X9296Y5888D01*
X9289Y5895D01*
X9282Y5902D01*
X9274Y5908D01*
X9266Y5914D01*
X9257Y5919D01*
X9248Y5924D01*
X9239Y5927D01*
X9229Y5931D01*
X9220Y5933D01*
X9210Y5935D01*
X9200Y5937D01*
X9190Y5937D01*
X9180D01*
X9170Y5937D01*
X9160Y5935D01*
X9150Y5933D01*
X9141Y5931D01*
X9131Y5927D01*
X9122Y5924D01*
X9113Y5919D01*
X9104Y5914D01*
X9096Y5908D01*
X9088Y5902D01*
X9081Y5895D01*
X9074Y5888D01*
X9067Y5880D01*
X9061Y5872D01*
X9056Y5864D01*
X9051Y5855D01*
X9047Y5846D01*
X9043Y5837D01*
X9040Y5827D01*
X9038Y5817D01*
X9036Y5807D01*
X9035Y5798D01*
X9035Y5787D01*
X9035Y5777D01*
X9036Y5768D01*
X9038Y5758D01*
X9040Y5748D01*
X9043Y5738D01*
X9047Y5729D01*
X9051Y5720D01*
X9056Y5711D01*
X9061Y5703D01*
X9067Y5695D01*
X9074Y5687D01*
X9081Y5680D01*
X9088Y5673D01*
X9096Y5667D01*
X9104Y5661D01*
X9113Y5656D01*
X9122Y5651D01*
X9131Y5648D01*
X9141Y5644D01*
X9150Y5642D01*
X9160Y5640D01*
X9170Y5638D01*
X9180Y5638D01*
X9190D01*
X9200Y5638D01*
X9210Y5640D01*
X9220Y5642D01*
X9229Y5644D01*
X9239Y5648D01*
X9248Y5651D01*
X9257Y5656D01*
X9266Y5661D01*
X9274Y5667D01*
X9282Y5673D01*
X9289Y5680D01*
X9296Y5687D01*
X9303Y5695D01*
X9309Y5703D01*
X9314Y5711D01*
X9319Y5720D01*
X9323Y5729D01*
X9327Y5738D01*
X9330Y5748D01*
X9332Y5758D01*
X9334Y5768D01*
X9335Y5777D01*
X9335Y5787D01*
X11040Y9247D02*
X11042Y9238D01*
X11048Y9230D01*
X11056Y9224D01*
X11065Y9222D01*
X11075Y9224D01*
X11083Y9230D01*
X11088Y9238D01*
X11090Y9247D01*
X10400Y8097D02*
X10402Y8088D01*
X10407Y8080D01*
X10415Y8074D01*
X10425Y8073D01*
X10435Y8074D01*
X10443Y8080D01*
X10448Y8088D01*
X10450Y8097D01*
X11210Y7137D02*
X11212Y7128D01*
X11217Y7120D01*
X11225Y7114D01*
X11235Y7113D01*
X11245Y7114D01*
X11253Y7120D01*
X11258Y7128D01*
X11260Y7137D01*
X9640Y7318D02*
X9642Y7308D01*
X9647Y7300D01*
X9655Y7294D01*
X9665Y7293D01*
X9675Y7294D01*
X9683Y7300D01*
X9688Y7308D01*
X9690Y7318D01*
X11920Y6528D02*
X11922Y6518D01*
X11928Y6510D01*
X11936Y6505D01*
X11945Y6503D01*
X11955Y6505D01*
X11963Y6510D01*
X11968Y6518D01*
X11970Y6528D01*
X9085Y7258D02*
X9094Y7259D01*
X9103Y7263D01*
X9109Y7270D01*
X9114Y7278D01*
X9115Y7287D01*
X9114Y7387D02*
X9113Y7397D01*
X9109Y7405D01*
X9102Y7411D01*
X9094Y7415D01*
X9085Y7417D01*
X9094Y8377D02*
X9093Y8387D01*
X9089Y8395D01*
X9082Y8401D01*
X9074Y8405D01*
X9065Y8407D01*
Y8248D02*
X9074Y8249D01*
X9083Y8253D01*
X9089Y8260D01*
X9094Y8268D01*
X9095Y8278D01*
X11150Y7358D02*
Y8257D01*
Y7358D02*
X11280D01*
Y8257D01*
X11240D02*
X11280D01*
X11150D02*
X11190D01*
X9675Y6028D02*
X9705D01*
X9545D02*
X9575D01*
X9675Y5978D02*
Y6028D01*
X9575Y5978D02*
X9675D01*
X9575D02*
Y6078D01*
X9675D01*
Y6028D02*
Y6078D01*
X11675Y5987D02*
Y6017D01*
Y6117D02*
Y6147D01*
X11625Y6017D02*
X11675D01*
X11625D02*
Y6117D01*
X11725D01*
Y6017D02*
Y6117D01*
X11675Y6017D02*
X11725D01*
X11575Y5987D02*
Y6017D01*
Y6117D02*
Y6147D01*
X11525Y6017D02*
X11575D01*
X11525D02*
Y6117D01*
X11625D01*
Y6017D02*
Y6117D01*
X11575Y6017D02*
X11625D01*
X11675Y6287D02*
Y6317D01*
Y6417D02*
Y6447D01*
X11625Y6317D02*
X11675D01*
X11625D02*
Y6417D01*
X11725D01*
Y6317D02*
Y6417D01*
X11675Y6317D02*
X11725D01*
X11575Y6418D02*
Y6448D01*
Y6288D02*
Y6318D01*
Y6418D02*
X11625D01*
Y6318D02*
Y6418D01*
X11525Y6318D02*
X11625D01*
X11525D02*
Y6418D01*
X11575D01*
X10845Y6608D02*
Y6637D01*
Y6738D02*
Y6767D01*
X10795Y6637D02*
X10845D01*
X10795D02*
Y6738D01*
X10895D01*
Y6637D02*
Y6738D01*
X10845Y6637D02*
X10895D01*
X9635Y8217D02*
Y8257D01*
X9615Y8238D02*
X9655D01*
X8575Y7918D02*
Y8417D01*
Y7918D02*
X8675D01*
Y8417D01*
X8575D02*
X8675D01*
X8575Y8318D02*
X8675D01*
X9685Y7528D02*
Y7827D01*
Y7528D02*
X9785D01*
Y7827D01*
X9685D02*
X9785D01*
X9685Y7727D02*
X9785D01*
X8905Y7747D02*
X8945D01*
X8925Y7727D02*
Y7767D01*
X9735Y6847D02*
X9765D01*
X9605D02*
X9635D01*
X9735Y6798D02*
Y6847D01*
X9635Y6798D02*
X9735D01*
X9635D02*
Y6898D01*
X9735D01*
Y6847D02*
Y6898D01*
X12335Y5927D02*
Y6227D01*
X12235D02*
X12335D01*
X12235Y5927D02*
Y6227D01*
Y5927D02*
X12335D01*
X12235Y6028D02*
X12335D01*
X9345Y5787D02*
X9385D01*
X9365Y5767D02*
Y5807D01*
X9135Y5977D02*
Y6028D01*
Y5977D02*
X9235D01*
Y6077D01*
X9135D02*
X9235D01*
X9135Y6028D02*
Y6077D01*
X9235Y6028D02*
X9265D01*
X9105D02*
X9135D01*
X12225Y8988D02*
X12325D01*
X12225Y9087D02*
X12325D01*
Y8488D02*
Y9087D01*
X12225Y8488D02*
X12325D01*
X12225D02*
Y9087D01*
X9251Y8578D02*
Y9097D01*
X8538D02*
X9251D01*
X8538Y8578D02*
X9251D01*
X8538D02*
Y9097D01*
X8575Y6938D02*
Y7438D01*
Y6938D02*
X8675D01*
Y7438D01*
X8575D02*
X8675D01*
X8575Y7338D02*
X8675D01*
X9505Y7727D02*
X9605D01*
X9505Y7827D02*
X9605D01*
Y7528D02*
Y7827D01*
X9505Y7528D02*
X9605D01*
X9505D02*
Y7827D01*
X9530Y5848D02*
X9920D01*
X9530Y5688D02*
Y5848D01*
X9920Y5688D02*
Y5848D01*
X10965Y8547D02*
Y9247D01*
Y8547D02*
X11165D01*
Y9247D01*
X11090D02*
X11165D01*
X10965D02*
X11040D01*
X10175Y8097D02*
X10400D01*
X10450D02*
X10675D01*
Y6097D02*
Y8097D01*
X10175Y6097D02*
X10675D01*
X10175D02*
Y8097D01*
X11170Y6238D02*
Y7137D01*
Y6238D02*
X11300D01*
Y7137D01*
X11260D02*
X11300D01*
X11170D02*
X11210D01*
X9565Y7318D02*
X9640D01*
X9690D02*
X9765D01*
Y6918D02*
Y7318D01*
X9565Y6918D02*
X9765D01*
X9565D02*
Y7318D01*
X12225Y7467D02*
Y8267D01*
Y7467D02*
X12325D01*
Y8267D01*
X12225D02*
X12325D01*
X12225Y8167D02*
X12325D01*
X11845Y5728D02*
Y6528D01*
Y5728D02*
X12045D01*
Y6528D01*
X11970D02*
X12045D01*
X11845D02*
X11920D01*
X9035Y7258D02*
X9085D01*
X9035Y7418D02*
X9084D01*
X9035Y7258D02*
Y7418D01*
X9115Y7287D02*
Y7387D01*
X9095Y8278D02*
Y8377D01*
X9015Y8248D02*
Y8408D01*
X9064D01*
X9015Y8248D02*
X9065D01*
X10395Y9097D02*
X10455D01*
X10655D02*
Y9148D01*
X10455D02*
X10655D01*
X10455Y9047D02*
Y9148D01*
Y9047D02*
X10655D01*
Y9097D01*
X10715D01*
X10655Y8898D02*
X10715D01*
X10655Y8847D02*
Y8898D01*
X10455Y8847D02*
X10655D01*
X10455D02*
Y8948D01*
X10655D01*
Y8898D02*
Y8948D01*
X10395Y8898D02*
X10455D01*
X10395Y8698D02*
X10455D01*
X10655D02*
Y8748D01*
X10455D02*
X10655D01*
X10455Y8648D02*
Y8748D01*
Y8648D02*
X10655D01*
Y8698D01*
X10715D01*
X11365Y8698D02*
X11425D01*
Y8748D01*
X11625D01*
Y8648D02*
Y8748D01*
X11425Y8648D02*
X11625D01*
X11425D02*
Y8698D01*
X11625D02*
X11685D01*
X11625Y8898D02*
X11685D01*
X11425Y8847D02*
Y8898D01*
Y8847D02*
X11625D01*
Y8948D01*
X11425D02*
X11625D01*
X11425Y8898D02*
Y8948D01*
X11365Y8898D02*
X11425D01*
X11365Y9097D02*
X11425D01*
Y9148D01*
X11625D01*
Y9047D02*
Y9148D01*
X11425Y9047D02*
X11625D01*
X11425D02*
Y9097D01*
X11625D02*
X11685D01*
X10655Y9198D02*
X10715D01*
X10455Y9148D02*
Y9198D01*
Y9148D02*
X10655D01*
Y9248D01*
X10455D02*
X10655D01*
X10455Y9198D02*
Y9248D01*
X10395Y9198D02*
X10455D01*
X10395Y8998D02*
X10455D01*
Y9047D01*
X10655D01*
Y8948D02*
Y9047D01*
X10455Y8948D02*
X10655D01*
X10455D02*
Y8998D01*
X10655D02*
X10715D01*
X10655Y8797D02*
X10715D01*
X10455Y8748D02*
Y8797D01*
Y8748D02*
X10655D01*
Y8847D01*
X10455D02*
X10655D01*
X10455Y8797D02*
Y8847D01*
X10395Y8797D02*
X10455D01*
X11625Y8797D02*
X11685D01*
X11625Y8748D02*
Y8797D01*
X11425Y8748D02*
X11625D01*
X11425D02*
Y8847D01*
X11625D01*
Y8797D02*
Y8847D01*
X11365Y8797D02*
X11425D01*
X11365Y8998D02*
X11425D01*
X11625D02*
Y9047D01*
X11425D02*
X11625D01*
X11425Y8948D02*
Y9047D01*
Y8948D02*
X11625D01*
Y8998D01*
X11685D01*
X11625Y9198D02*
X11685D01*
X11625Y9148D02*
Y9198D01*
X11425Y9148D02*
X11625D01*
X11425D02*
Y9248D01*
X11625D01*
Y9198D02*
Y9248D01*
X11365Y9198D02*
X11425D01*
X8955Y7037D02*
Y7097D01*
X8905Y7298D02*
X8955D01*
X8905Y7097D02*
Y7298D01*
Y7097D02*
X9005D01*
Y7298D01*
X8955D02*
X9005D01*
X8955D02*
Y7358D01*
X8925Y7997D02*
Y8057D01*
X8875D02*
X8925D01*
X8875D02*
Y8257D01*
X8975D01*
Y8057D02*
Y8257D01*
X8925Y8057D02*
X8975D01*
X8925Y8257D02*
Y8318D01*
X9755Y8148D02*
X9815D01*
X9555Y8097D02*
Y8148D01*
Y8097D02*
X9755D01*
Y8198D01*
X9555D02*
X9755D01*
X9555Y8148D02*
Y8198D01*
X9495Y8148D02*
X9555D01*
X9495Y7948D02*
X9555D01*
Y7997D01*
X9755D01*
Y7898D02*
Y7997D01*
X9555Y7898D02*
X9755D01*
X9555D02*
Y7948D01*
X9755D02*
X9815D01*
X9215Y7037D02*
Y7097D01*
X9165Y7298D02*
X9215D01*
X9165Y7097D02*
Y7298D01*
Y7097D02*
X9265D01*
Y7298D01*
X9215D02*
X9265D01*
X9215D02*
Y7358D01*
X9185Y8257D02*
Y8318D01*
Y8257D02*
X9235D01*
Y8057D02*
Y8257D01*
X9135Y8057D02*
X9235D01*
X9135D02*
Y8257D01*
X9185D01*
Y7997D02*
Y8057D01*
X9225Y6468D02*
Y6528D01*
Y6267D02*
X9275D01*
Y6468D01*
X9175D02*
X9275D01*
X9175Y6267D02*
Y6468D01*
Y6267D02*
X9225D01*
Y6207D02*
Y6267D01*
X9315Y7298D02*
Y7358D01*
Y7298D02*
X9365D01*
Y7097D02*
Y7298D01*
X9265Y7097D02*
X9365D01*
X9265D02*
Y7298D01*
X9315D01*
Y7037D02*
Y7097D01*
X9285Y7997D02*
Y8057D01*
X9235Y8257D02*
X9285D01*
X9235Y8057D02*
Y8257D01*
Y8057D02*
X9335D01*
Y8257D01*
X9285D02*
X9335D01*
X9285D02*
Y8318D01*
X9755Y8047D02*
X9815D01*
X9755Y7997D02*
Y8047D01*
X9555Y7997D02*
X9755D01*
X9555D02*
Y8097D01*
X9755D01*
Y8047D02*
Y8097D01*
X9495Y8047D02*
X9555D01*
X11985Y7218D02*
X12045D01*
X11785Y7168D02*
Y7218D01*
Y7168D02*
X11985D01*
Y7267D01*
X11785D02*
X11985D01*
X11785Y7218D02*
Y7267D01*
X11725Y7218D02*
X11785D01*
X11725Y7117D02*
X11785D01*
Y7168D01*
X11985D01*
Y7068D02*
Y7168D01*
X11785Y7068D02*
X11985D01*
X11785D02*
Y7117D01*
X11985D02*
X12045D01*
X11985Y7017D02*
X12045D01*
X11785Y6968D02*
Y7017D01*
Y6968D02*
X11985D01*
Y7068D01*
X11785D02*
X11985D01*
X11785Y7017D02*
Y7068D01*
X11725Y7017D02*
X11785D01*
X11725Y6918D02*
X11785D01*
Y6968D01*
X11985D01*
Y6867D02*
Y6968D01*
X11785Y6867D02*
X11985D01*
X11785D02*
Y6918D01*
X11985D02*
X12045D01*
X11985Y6818D02*
X12045D01*
X11785Y6767D02*
Y6818D01*
Y6767D02*
X11985D01*
Y6867D01*
X11785D02*
X11985D01*
X11785Y6818D02*
Y6867D01*
X11725Y6818D02*
X11785D01*
X11725Y8208D02*
X11785D01*
Y8257D01*
X11985D01*
Y8158D02*
Y8257D01*
X11785Y8158D02*
X11985D01*
X11785D02*
Y8208D01*
X11985D02*
X12045D01*
X11985Y8108D02*
X12045D01*
X11785Y8057D02*
Y8108D01*
Y8057D02*
X11985D01*
Y8158D01*
X11785D02*
X11985D01*
X11785Y8108D02*
Y8158D01*
X11725Y8108D02*
X11785D01*
X11725Y8007D02*
X11785D01*
Y8057D01*
X11985D01*
Y7957D02*
Y8057D01*
X11785Y7957D02*
X11985D01*
X11785D02*
Y8007D01*
X11985D02*
X12045D01*
X11985Y7907D02*
X12045D01*
X11785Y7858D02*
Y7907D01*
Y7858D02*
X11985D01*
Y7957D01*
X11785D02*
X11985D01*
X11785Y7907D02*
Y7957D01*
X11725Y7907D02*
X11785D01*
X11725Y7807D02*
X11785D01*
Y7858D01*
X11985D01*
Y7758D02*
Y7858D01*
X11785Y7758D02*
X11985D01*
X11785D02*
Y7807D01*
X11985D02*
X12045D01*
X11985Y7707D02*
X12045D01*
X11785Y7657D02*
Y7707D01*
Y7657D02*
X11985D01*
Y7758D01*
X11785D02*
X11985D01*
X11785Y7707D02*
Y7758D01*
X11725Y7707D02*
X11785D01*
X11725Y7608D02*
X11785D01*
Y7657D01*
X11985D01*
Y7557D02*
Y7657D01*
X11785Y7557D02*
X11985D01*
X11785D02*
Y7608D01*
X11985D02*
X12045D01*
X9325Y6207D02*
Y6267D01*
X9275Y6468D02*
X9325D01*
X9275Y6267D02*
Y6468D01*
Y6267D02*
X9375D01*
Y6468D01*
X9325D02*
X9375D01*
X9325D02*
Y6528D01*
X11725Y7508D02*
X11785D01*
Y7557D01*
X11985D01*
Y7457D02*
Y7557D01*
X11785Y7457D02*
X11985D01*
X11785D02*
Y7508D01*
X11985D02*
X12045D01*
X10395Y8438D02*
Y8458D01*
Y8438D02*
X10715D01*
Y8477D01*
Y8458D02*
Y8477D01*
X10395Y8458D02*
X10715D01*
X10395D02*
Y8477D01*
Y8578D01*
X10715D01*
Y8557D02*
Y8578D01*
Y8477D02*
Y8557D01*
X11695Y8458D02*
Y8538D01*
Y8557D01*
X11375D02*
X11695D01*
X11375Y8458D02*
Y8557D01*
Y8438D02*
Y8458D01*
Y8438D02*
X11695D01*
Y8458D01*
Y8417D02*
Y8458D01*
X11375Y8417D02*
X11695D01*
X11375D02*
Y8438D01*
X11855Y8837D02*
X11875D01*
X11855Y8517D02*
Y8837D01*
Y8517D02*
X11895D01*
X11875D02*
X11895D01*
X11875D02*
Y8837D01*
X11895D01*
X11995D01*
Y8517D02*
Y8837D01*
X11975Y8517D02*
X11995D01*
X11895D02*
X11975D01*
X11895Y8917D02*
X11975D01*
X11995D01*
Y9238D01*
X11895D02*
X11995D01*
X11875D02*
X11895D01*
X11875Y8917D02*
Y9238D01*
Y8917D02*
X11895D01*
X11855D02*
X11895D01*
X11855D02*
Y9238D01*
X11875D01*
X9085Y6207D02*
Y6274D01*
Y6461D02*
Y6528D01*
X9145Y6274D02*
Y6461D01*
X9025Y6274D02*
Y6461D01*
Y6274D02*
X9145D01*
X9025Y6461D02*
X9145D01*
X9025Y6318D02*
X9145D01*
X8994Y6398D02*
Y6798D01*
X8545Y6398D02*
X8994D01*
X8545D02*
Y6798D01*
X8994D01*
X8545Y6318D02*
X8994D01*
X8545Y5918D02*
Y6318D01*
Y5918D02*
X8994D01*
X8994D02*
Y6318D01*
X11035Y9318D02*
X11065D01*
X11165D02*
X11195D01*
X11065D02*
Y9368D01*
X11165D01*
Y9267D02*
Y9368D01*
X11065Y9267D02*
X11165D01*
X11065D02*
Y9318D01*
X10095Y9257D02*
X10115D01*
X10095Y8938D02*
Y9257D01*
Y8938D02*
X10135D01*
X10115D02*
X10135D01*
X10115D02*
Y9257D01*
X10135D01*
X10235D01*
Y8938D02*
Y9257D01*
X10215Y8938D02*
X10235D01*
X10135D02*
X10215D01*
X10095Y8837D02*
X10115D01*
X10095Y8517D02*
Y8837D01*
Y8517D02*
X10135D01*
X10115D02*
X10135D01*
X10115D02*
Y8837D01*
X10135D01*
X10235D01*
Y8517D02*
Y8837D01*
X10215Y8517D02*
X10235D01*
X10135D02*
X10215D01*
X12225Y6437D02*
Y7237D01*
Y6437D02*
X12325D01*
Y7237D01*
X12225D02*
X12325D01*
X12225Y7137D02*
X12325D01*
X11115Y5727D02*
X11135Y5688D01*
X11155Y5727D01*
X11175Y5688D02*
Y5697D01*
X11185D01*
Y5688D01*
X11175D01*
X11265Y5737D02*
X11255Y5747D01*
X11235D01*
X11225Y5737D01*
Y5697D01*
X11235Y5688D01*
X11255D01*
X11265Y5697D01*
Y5717D01*
X11245D01*
X11285Y5688D02*
Y5727D01*
X11305Y5747D01*
X11325Y5727D01*
Y5688D01*
Y5717D01*
X11285D01*
X11345Y5688D02*
Y5747D01*
X11385Y5688D01*
Y5747D01*
X11405D02*
X11445D01*
X11425D01*
Y5688D01*
X11465D02*
Y5747D01*
X11495D01*
X11505Y5737D01*
Y5717D01*
X11495Y5707D01*
X11465D01*
X11485D02*
X11505Y5688D01*
X11525Y5747D02*
Y5737D01*
X11545Y5717D01*
X11565Y5737D01*
Y5747D01*
X11545Y5717D02*
Y5688D01*
X11585Y5737D02*
X11595Y5747D01*
X11615D01*
X11625Y5737D01*
Y5697D01*
X11615Y5688D01*
X11595D01*
X11585Y5697D01*
Y5737D01*
X11685Y5688D02*
X11645D01*
X11685Y5727D01*
Y5737D01*
X11675Y5747D01*
X11655D01*
X11645Y5737D01*
X8795Y8361D02*
Y8387D01*
X8775D01*
Y8374D01*
Y8387D01*
X8755D01*
X8795Y8348D02*
Y8334D01*
Y8341D01*
X8755D01*
Y8348D01*
Y8334D01*
Y8314D02*
X8795D01*
X8755Y8288D01*
X8795D01*
Y8274D02*
Y8261D01*
Y8268D01*
X8755D01*
Y8274D01*
Y8261D01*
X8788Y8214D02*
X8795Y8221D01*
Y8234D01*
X8788Y8241D01*
X8782D01*
X8775Y8234D01*
Y8221D01*
X8768Y8214D01*
X8762D01*
X8755Y8221D01*
Y8234D01*
X8762Y8241D01*
X8795Y8201D02*
X8755D01*
X8775D01*
Y8174D01*
X8795D01*
X8755D01*
X8788Y8094D02*
X8795Y8101D01*
Y8114D01*
X8788Y8121D01*
X8762D01*
X8755Y8114D01*
Y8101D01*
X8762Y8094D01*
X8775D01*
Y8108D01*
X8755Y8081D02*
X8782D01*
X8795Y8068D01*
X8782Y8054D01*
X8755D01*
X8775D01*
Y8081D01*
X8795Y8041D02*
Y8014D01*
Y8028D01*
X8755D01*
X8795Y7974D02*
Y8001D01*
X8755D01*
Y7974D01*
X8775Y8001D02*
Y7988D01*
X8798Y7371D02*
X8805Y7378D01*
Y7391D01*
X8798Y7398D01*
X8792D01*
X8785Y7391D01*
Y7378D01*
X8778Y7371D01*
X8772D01*
X8765Y7378D01*
Y7391D01*
X8772Y7398D01*
X8805Y7358D02*
Y7331D01*
Y7344D01*
X8765D01*
Y7318D02*
X8792D01*
X8805Y7304D01*
X8792Y7291D01*
X8765D01*
X8785D01*
Y7318D01*
X8765Y7278D02*
X8805D01*
Y7258D01*
X8798Y7251D01*
X8785D01*
X8778Y7258D01*
Y7278D01*
Y7264D02*
X8765Y7251D01*
X8805Y7238D02*
Y7211D01*
Y7224D01*
X8765D01*
X8798Y7131D02*
X8805Y7138D01*
Y7151D01*
X8798Y7158D01*
X8772D01*
X8765Y7151D01*
Y7138D01*
X8772Y7131D01*
X8785D01*
Y7144D01*
X8765Y7118D02*
X8792D01*
X8805Y7104D01*
X8792Y7091D01*
X8765D01*
X8785D01*
Y7118D01*
X8805Y7078D02*
Y7051D01*
Y7064D01*
X8765D01*
X8805Y7011D02*
Y7038D01*
X8765D01*
Y7011D01*
X8785Y7038D02*
Y7024D01*
X12135Y8538D02*
X12175D01*
Y8557D01*
X12168Y8564D01*
X12142D01*
X12135Y8557D01*
Y8538D01*
Y8577D02*
Y8591D01*
Y8584D01*
X12175D01*
Y8577D01*
Y8591D01*
X12142Y8637D02*
X12135Y8631D01*
Y8617D01*
X12142Y8611D01*
X12168D01*
X12175Y8617D01*
Y8631D01*
X12168Y8637D01*
X12155D01*
Y8624D01*
X12135Y8651D02*
Y8664D01*
Y8657D01*
X12175D01*
Y8651D01*
Y8664D01*
X12135Y8684D02*
Y8711D01*
Y8697D01*
X12175D01*
X12142Y8791D02*
X12135Y8784D01*
Y8771D01*
X12142Y8764D01*
X12148D01*
X12155Y8771D01*
Y8784D01*
X12162Y8791D01*
X12168D01*
X12175Y8784D01*
Y8771D01*
X12168Y8764D01*
X12135Y8831D02*
Y8804D01*
X12175D01*
Y8831D01*
X12155Y8804D02*
Y8817D01*
X12135Y8844D02*
X12175D01*
Y8871D01*
X12135Y8911D02*
Y8884D01*
X12175D01*
Y8911D01*
X12155Y8884D02*
Y8897D01*
X12142Y8951D02*
X12135Y8944D01*
Y8931D01*
X12142Y8924D01*
X12168D01*
X12175Y8931D01*
Y8944D01*
X12168Y8951D01*
X12135Y8964D02*
Y8991D01*
Y8977D01*
X12175D01*
X12152Y7604D02*
X12145Y7597D01*
Y7584D01*
X12152Y7577D01*
X12158D01*
X12165Y7584D01*
Y7597D01*
X12172Y7604D01*
X12178D01*
X12185Y7597D01*
Y7584D01*
X12178Y7577D01*
X12145Y7644D02*
Y7617D01*
X12185D01*
Y7644D01*
X12165Y7617D02*
Y7631D01*
X12152Y7684D02*
X12145Y7677D01*
Y7664D01*
X12152Y7657D01*
X12178D01*
X12185Y7664D01*
Y7677D01*
X12178Y7684D01*
X12165D01*
Y7671D01*
X12185Y7697D02*
X12145D01*
X12158Y7711D01*
X12145Y7724D01*
X12185D01*
X12145Y7764D02*
Y7737D01*
X12185D01*
Y7764D01*
X12165Y7737D02*
Y7751D01*
X12185Y7777D02*
X12145D01*
X12185Y7804D01*
X12145D01*
Y7817D02*
Y7844D01*
Y7831D01*
X12185D01*
X12152Y7924D02*
X12145Y7917D01*
Y7904D01*
X12152Y7897D01*
X12158D01*
X12165Y7904D01*
Y7917D01*
X12172Y7924D01*
X12178D01*
X12185Y7917D01*
Y7904D01*
X12178Y7897D01*
X12145Y7964D02*
Y7937D01*
X12185D01*
Y7964D01*
X12165Y7937D02*
Y7951D01*
X12145Y7977D02*
X12185D01*
Y8004D01*
X12145Y8044D02*
Y8017D01*
X12185D01*
Y8044D01*
X12165Y8017D02*
Y8031D01*
X12152Y8084D02*
X12145Y8077D01*
Y8064D01*
X12152Y8057D01*
X12178D01*
X12185Y8064D01*
Y8077D01*
X12178Y8084D01*
X12145Y8097D02*
Y8124D01*
Y8111D01*
X12185D01*
X12145Y6827D02*
X12185D01*
Y6854D01*
X12145Y6894D02*
Y6867D01*
X12185D01*
Y6894D01*
X12165Y6867D02*
Y6881D01*
X12145Y6907D02*
X12185D01*
Y6927D01*
X12178Y6934D01*
X12152D01*
X12145Y6927D01*
Y6907D01*
X12152Y6974D02*
X12145Y6967D01*
Y6954D01*
X12152Y6947D01*
X12158D01*
X12165Y6954D01*
Y6967D01*
X12172Y6974D01*
X12178D01*
X12185Y6967D01*
Y6954D01*
X12178Y6947D01*
X12185Y6017D02*
X12145D01*
Y6037D01*
X12152Y6044D01*
X12165D01*
X12172Y6037D01*
Y6017D01*
Y6031D02*
X12185Y6044D01*
X12152Y6084D02*
X12145Y6077D01*
Y6064D01*
X12152Y6057D01*
X12158D01*
X12165Y6064D01*
Y6077D01*
X12172Y6084D01*
X12178D01*
X12185Y6077D01*
Y6064D01*
X12178Y6057D01*
X12185Y6124D02*
Y6097D01*
X12158Y6124D01*
X12152D01*
X12145Y6117D01*
Y6104D01*
X12152Y6097D01*
Y6137D02*
X12145Y6144D01*
Y6157D01*
X12152Y6164D01*
X12158D01*
X12165Y6157D01*
Y6151D01*
Y6157D01*
X12172Y6164D01*
X12178D01*
X12185Y6157D01*
Y6144D01*
X12178Y6137D01*
X12185Y6204D02*
Y6177D01*
X12158Y6204D01*
X12152D01*
X12145Y6197D01*
Y6184D01*
X12152Y6177D01*
X9015Y6707D02*
X9042D01*
X9028Y6721D02*
Y6694D01*
X9055Y6727D02*
Y6701D01*
X9068Y6688D01*
X9082Y6701D01*
Y6727D01*
X9122Y6721D02*
X9115Y6727D01*
X9102D01*
X9095Y6721D01*
Y6714D01*
X9102Y6707D01*
X9115D01*
X9122Y6701D01*
Y6694D01*
X9115Y6688D01*
X9102D01*
X9095Y6694D01*
X9135Y6727D02*
Y6694D01*
X9142Y6688D01*
X9155D01*
X9162Y6694D01*
Y6727D01*
X9175Y6688D02*
Y6727D01*
X9195D01*
X9202Y6721D01*
Y6707D01*
X9195Y6701D01*
X9175D01*
X9215Y6688D02*
Y6727D01*
X9235D01*
X9242Y6721D01*
Y6707D01*
X9235Y6701D01*
X9215D01*
X9255Y6727D02*
Y6688D01*
X9282D01*
X9295Y6727D02*
Y6721D01*
X9308Y6707D01*
X9322Y6721D01*
Y6727D01*
X9308Y6707D02*
Y6688D01*
X9325Y8917D02*
X9338D01*
X9332D01*
Y8877D01*
X9325D01*
X9338D01*
X9385Y8911D02*
X9378Y8917D01*
X9365D01*
X9358Y8911D01*
Y8884D01*
X9365Y8877D01*
X9378D01*
X9385Y8884D01*
X9398Y8917D02*
Y8877D01*
X9418D01*
X9425Y8884D01*
Y8911D01*
X9418Y8917D01*
X9398D01*
D26*
X9622Y6031D02*
X9615Y6037D01*
X9602D01*
X9595Y6031D01*
Y6004D01*
X9602Y5997D01*
X9615D01*
X9622Y6004D01*
X9635Y6031D02*
X9642Y6037D01*
X9655D01*
X9662Y6031D01*
Y6024D01*
X9655Y6017D01*
X9648D01*
X9655D01*
X9662Y6011D01*
Y6004D01*
X9655Y5997D01*
X9642D01*
X9635Y6004D01*
X11895Y6607D02*
Y6574D01*
X11902Y6568D01*
X11915D01*
X11922Y6574D01*
Y6607D01*
X11962D02*
X11935D01*
Y6587D01*
X11948Y6594D01*
X11955D01*
X11962Y6587D01*
Y6574D01*
X11955Y6568D01*
X11942D01*
X11935Y6574D01*
X11552Y6354D02*
X11545Y6347D01*
Y6334D01*
X11552Y6327D01*
X11578D01*
X11585Y6334D01*
Y6347D01*
X11578Y6354D01*
X11552Y6367D02*
X11545Y6374D01*
Y6387D01*
X11552Y6394D01*
X11558D01*
X11565Y6387D01*
X11572Y6394D01*
X11578D01*
X11585Y6387D01*
Y6374D01*
X11578Y6367D01*
X11572D01*
X11565Y6374D01*
X11558Y6367D01*
X11552D01*
X11565Y6374D02*
Y6387D01*
X11698Y6081D02*
X11705Y6088D01*
Y6101D01*
X11698Y6108D01*
X11672D01*
X11665Y6101D01*
Y6088D01*
X11672Y6081D01*
X11665Y6068D02*
Y6054D01*
Y6061D01*
X11705D01*
X11698Y6068D01*
X11665Y6034D02*
Y6021D01*
Y6028D01*
X11705D01*
X11698Y6034D01*
X11598Y6091D02*
X11605Y6098D01*
Y6111D01*
X11598Y6117D01*
X11572D01*
X11565Y6111D01*
Y6098D01*
X11572Y6091D01*
X11565Y6078D02*
Y6064D01*
Y6071D01*
X11605D01*
X11598Y6078D01*
Y6044D02*
X11605Y6038D01*
Y6024D01*
X11598Y6018D01*
X11572D01*
X11565Y6024D01*
Y6038D01*
X11572Y6044D01*
X11598D01*
X11662Y6364D02*
X11655Y6357D01*
Y6344D01*
X11662Y6338D01*
X11688D01*
X11695Y6344D01*
Y6357D01*
X11688Y6364D01*
Y6377D02*
X11695Y6384D01*
Y6397D01*
X11688Y6404D01*
X11662D01*
X11655Y6397D01*
Y6384D01*
X11662Y6377D01*
X11668D01*
X11675Y6384D01*
Y6404D01*
X12252Y8367D02*
X12238D01*
X12245D01*
Y8334D01*
X12238Y8328D01*
X12232D01*
X12225Y8334D01*
X12265Y8328D02*
X12278D01*
X12272D01*
Y8367D01*
X12265Y8361D01*
X12298Y8328D02*
X12312D01*
X12305D01*
Y8367D01*
X12298Y8361D01*
X9625Y7217D02*
X9652Y7177D01*
Y7217D02*
X9625Y7177D01*
X9665D02*
X9678D01*
X9672D01*
Y7217D01*
X9665Y7211D01*
X11165Y8347D02*
Y8314D01*
X11172Y8307D01*
X11185D01*
X11192Y8314D01*
Y8347D01*
X11225Y8307D02*
Y8347D01*
X11205Y8327D01*
X11232D01*
X11175Y7217D02*
Y7184D01*
X11182Y7177D01*
X11195D01*
X11202Y7184D01*
Y7217D01*
X11215Y7211D02*
X11222Y7217D01*
X11235D01*
X11242Y7211D01*
Y7204D01*
X11235Y7197D01*
X11228D01*
X11235D01*
X11242Y7191D01*
Y7184D01*
X11235Y7177D01*
X11222D01*
X11215Y7184D01*
X10305Y7927D02*
Y7894D01*
X10312Y7887D01*
X10325D01*
X10332Y7894D01*
Y7927D01*
X10372Y7887D02*
X10345D01*
X10372Y7914D01*
Y7921D01*
X10365Y7927D01*
X10352D01*
X10345Y7921D01*
X11015Y9177D02*
Y9144D01*
X11022Y9137D01*
X11035D01*
X11042Y9144D01*
Y9177D01*
X11055Y9137D02*
X11068D01*
X11062D01*
Y9177D01*
X11055Y9171D01*
X9775Y5907D02*
Y5947D01*
X9795D01*
X9802Y5941D01*
Y5927D01*
X9795Y5921D01*
X9775D01*
X9788D02*
X9802Y5907D01*
X9842Y5947D02*
X9815D01*
Y5907D01*
X9842D01*
X9815Y5927D02*
X9828D01*
X9882Y5941D02*
X9875Y5947D01*
X9862D01*
X9855Y5941D01*
Y5914D01*
X9862Y5907D01*
X9875D01*
X9882Y5914D01*
Y5927D01*
X9868D01*
X9895Y5907D02*
X9908D01*
X9902D01*
Y5947D01*
X9895Y5941D01*
X11795Y7468D02*
Y7507D01*
X11815D01*
X11822Y7501D01*
Y7487D01*
X11815Y7481D01*
X11795D01*
X11808D02*
X11822Y7468D01*
X11835Y7501D02*
X11842Y7507D01*
X11855D01*
X11862Y7501D01*
Y7494D01*
X11855Y7487D01*
X11848D01*
X11855D01*
X11862Y7481D01*
Y7474D01*
X11855Y7468D01*
X11842D01*
X11835Y7474D01*
X11902Y7507D02*
X11888Y7501D01*
X11875Y7487D01*
Y7474D01*
X11882Y7468D01*
X11895D01*
X11902Y7474D01*
Y7481D01*
X11895Y7487D01*
X11875D01*
X9305Y6418D02*
X9345D01*
Y6398D01*
X9338Y6391D01*
X9325D01*
X9318Y6398D01*
Y6418D01*
Y6404D02*
X9305Y6391D01*
X9338Y6378D02*
X9345Y6371D01*
Y6358D01*
X9338Y6351D01*
X9332D01*
X9325Y6358D01*
Y6364D01*
Y6358D01*
X9318Y6351D01*
X9312D01*
X9305Y6358D01*
Y6371D01*
X9312Y6378D01*
X9345Y6311D02*
Y6338D01*
X9325D01*
X9332Y6324D01*
Y6318D01*
X9325Y6311D01*
X9312D01*
X9305Y6318D01*
Y6331D01*
X9312Y6338D01*
X11805Y7577D02*
Y7617D01*
X11825D01*
X11832Y7611D01*
Y7597D01*
X11825Y7591D01*
X11805D01*
X11818D02*
X11832Y7577D01*
X11845Y7611D02*
X11852Y7617D01*
X11865D01*
X11872Y7611D01*
Y7604D01*
X11865Y7597D01*
X11858D01*
X11865D01*
X11872Y7591D01*
Y7584D01*
X11865Y7577D01*
X11852D01*
X11845Y7584D01*
X11905Y7577D02*
Y7617D01*
X11885Y7597D01*
X11912D01*
X11795Y7677D02*
Y7717D01*
X11815D01*
X11822Y7711D01*
Y7697D01*
X11815Y7691D01*
X11795D01*
X11808D02*
X11822Y7677D01*
X11835Y7711D02*
X11842Y7717D01*
X11855D01*
X11862Y7711D01*
Y7704D01*
X11855Y7697D01*
X11848D01*
X11855D01*
X11862Y7691D01*
Y7684D01*
X11855Y7677D01*
X11842D01*
X11835Y7684D01*
X11875Y7711D02*
X11882Y7717D01*
X11895D01*
X11902Y7711D01*
Y7704D01*
X11895Y7697D01*
X11888D01*
X11895D01*
X11902Y7691D01*
Y7684D01*
X11895Y7677D01*
X11882D01*
X11875Y7684D01*
X11805Y7778D02*
Y7817D01*
X11825D01*
X11832Y7811D01*
Y7797D01*
X11825Y7791D01*
X11805D01*
X11818D02*
X11832Y7778D01*
X11845Y7811D02*
X11852Y7817D01*
X11865D01*
X11872Y7811D01*
Y7804D01*
X11865Y7797D01*
X11858D01*
X11865D01*
X11872Y7791D01*
Y7784D01*
X11865Y7778D01*
X11852D01*
X11845Y7784D01*
X11912Y7778D02*
X11885D01*
X11912Y7804D01*
Y7811D01*
X11905Y7817D01*
X11892D01*
X11885Y7811D01*
X11805Y7878D02*
Y7917D01*
X11825D01*
X11832Y7911D01*
Y7897D01*
X11825Y7891D01*
X11805D01*
X11818D02*
X11832Y7878D01*
X11845Y7911D02*
X11852Y7917D01*
X11865D01*
X11872Y7911D01*
Y7904D01*
X11865Y7897D01*
X11858D01*
X11865D01*
X11872Y7891D01*
Y7884D01*
X11865Y7878D01*
X11852D01*
X11845Y7884D01*
X11885Y7878D02*
X11898D01*
X11892D01*
Y7917D01*
X11885Y7911D01*
X11805Y7988D02*
Y8027D01*
X11825D01*
X11832Y8021D01*
Y8007D01*
X11825Y8001D01*
X11805D01*
X11818D02*
X11832Y7988D01*
X11845Y8021D02*
X11852Y8027D01*
X11865D01*
X11872Y8021D01*
Y8014D01*
X11865Y8007D01*
X11858D01*
X11865D01*
X11872Y8001D01*
Y7994D01*
X11865Y7988D01*
X11852D01*
X11845Y7994D01*
X11885Y8021D02*
X11892Y8027D01*
X11905D01*
X11912Y8021D01*
Y7994D01*
X11905Y7988D01*
X11892D01*
X11885Y7994D01*
Y8021D01*
X11805Y8078D02*
Y8117D01*
X11825D01*
X11832Y8111D01*
Y8097D01*
X11825Y8091D01*
X11805D01*
X11818D02*
X11832Y8078D01*
X11872D02*
X11845D01*
X11872Y8104D01*
Y8111D01*
X11865Y8117D01*
X11852D01*
X11845Y8111D01*
X11885Y8084D02*
X11892Y8078D01*
X11905D01*
X11912Y8084D01*
Y8111D01*
X11905Y8117D01*
X11892D01*
X11885Y8111D01*
Y8104D01*
X11892Y8097D01*
X11912D01*
X11795Y8188D02*
Y8227D01*
X11815D01*
X11822Y8221D01*
Y8207D01*
X11815Y8201D01*
X11795D01*
X11808D02*
X11822Y8188D01*
X11862D02*
X11835D01*
X11862Y8214D01*
Y8221D01*
X11855Y8227D01*
X11842D01*
X11835Y8221D01*
X11875D02*
X11882Y8227D01*
X11895D01*
X11902Y8221D01*
Y8214D01*
X11895Y8207D01*
X11902Y8201D01*
Y8194D01*
X11895Y8188D01*
X11882D01*
X11875Y8194D01*
Y8201D01*
X11882Y8207D01*
X11875Y8214D01*
Y8221D01*
X11882Y8207D02*
X11895D01*
X11805Y6787D02*
Y6827D01*
X11825D01*
X11832Y6821D01*
Y6807D01*
X11825Y6801D01*
X11805D01*
X11818D02*
X11832Y6787D01*
X11872D02*
X11845D01*
X11872Y6814D01*
Y6821D01*
X11865Y6827D01*
X11852D01*
X11845Y6821D01*
X11885Y6827D02*
X11912D01*
Y6821D01*
X11885Y6794D01*
Y6787D01*
X11805Y6887D02*
Y6927D01*
X11825D01*
X11832Y6921D01*
Y6907D01*
X11825Y6901D01*
X11805D01*
X11818D02*
X11832Y6887D01*
X11872D02*
X11845D01*
X11872Y6914D01*
Y6921D01*
X11865Y6927D01*
X11852D01*
X11845Y6921D01*
X11912Y6927D02*
X11898Y6921D01*
X11885Y6907D01*
Y6894D01*
X11892Y6887D01*
X11905D01*
X11912Y6894D01*
Y6901D01*
X11905Y6907D01*
X11885D01*
X11805Y6997D02*
Y7037D01*
X11825D01*
X11832Y7031D01*
Y7017D01*
X11825Y7011D01*
X11805D01*
X11818D02*
X11832Y6997D01*
X11872D02*
X11845D01*
X11872Y7024D01*
Y7031D01*
X11865Y7037D01*
X11852D01*
X11845Y7031D01*
X11912Y7037D02*
X11885D01*
Y7017D01*
X11898Y7024D01*
X11905D01*
X11912Y7017D01*
Y7004D01*
X11905Y6997D01*
X11892D01*
X11885Y7004D01*
X11805Y7088D02*
Y7127D01*
X11825D01*
X11832Y7121D01*
Y7107D01*
X11825Y7101D01*
X11805D01*
X11818D02*
X11832Y7088D01*
X11872D02*
X11845D01*
X11872Y7114D01*
Y7121D01*
X11865Y7127D01*
X11852D01*
X11845Y7121D01*
X11905Y7088D02*
Y7127D01*
X11885Y7107D01*
X11912D01*
X11805Y7188D02*
Y7227D01*
X11825D01*
X11832Y7221D01*
Y7207D01*
X11825Y7201D01*
X11805D01*
X11818D02*
X11832Y7188D01*
X11872D02*
X11845D01*
X11872Y7214D01*
Y7221D01*
X11865Y7227D01*
X11852D01*
X11845Y7221D01*
X11885D02*
X11892Y7227D01*
X11905D01*
X11912Y7221D01*
Y7214D01*
X11905Y7207D01*
X11898D01*
X11905D01*
X11912Y7201D01*
Y7194D01*
X11905Y7188D01*
X11892D01*
X11885Y7194D01*
X9585Y8028D02*
Y8067D01*
X9605D01*
X9612Y8061D01*
Y8047D01*
X9605Y8041D01*
X9585D01*
X9598D02*
X9612Y8028D01*
X9652D02*
X9625D01*
X9652Y8054D01*
Y8061D01*
X9645Y8067D01*
X9632D01*
X9625Y8061D01*
X9692Y8028D02*
X9665D01*
X9692Y8054D01*
Y8061D01*
X9685Y8067D01*
X9672D01*
X9665Y8061D01*
X9265Y8208D02*
X9305D01*
Y8188D01*
X9298Y8181D01*
X9285D01*
X9278Y8188D01*
Y8208D01*
Y8194D02*
X9265Y8181D01*
Y8141D02*
Y8168D01*
X9292Y8141D01*
X9298D01*
X9305Y8148D01*
Y8161D01*
X9298Y8168D01*
X9265Y8128D02*
Y8114D01*
Y8121D01*
X9305D01*
X9298Y8128D01*
X9305Y7247D02*
X9345D01*
Y7228D01*
X9338Y7221D01*
X9325D01*
X9318Y7228D01*
Y7247D01*
Y7234D02*
X9305Y7221D01*
Y7181D02*
Y7208D01*
X9332Y7181D01*
X9338D01*
X9345Y7188D01*
Y7201D01*
X9338Y7208D01*
Y7168D02*
X9345Y7161D01*
Y7148D01*
X9338Y7141D01*
X9312D01*
X9305Y7148D01*
Y7161D01*
X9312Y7168D01*
X9338D01*
X9215Y6418D02*
X9255D01*
Y6398D01*
X9248Y6391D01*
X9235D01*
X9228Y6398D01*
Y6418D01*
Y6404D02*
X9215Y6391D01*
Y6378D02*
Y6364D01*
Y6371D01*
X9255D01*
X9248Y6378D01*
X9222Y6344D02*
X9215Y6338D01*
Y6324D01*
X9222Y6318D01*
X9248D01*
X9255Y6324D01*
Y6338D01*
X9248Y6344D01*
X9242D01*
X9235Y6338D01*
Y6318D01*
X9165Y8208D02*
X9205D01*
Y8188D01*
X9198Y8181D01*
X9185D01*
X9178Y8188D01*
Y8208D01*
Y8194D02*
X9165Y8181D01*
Y8168D02*
Y8154D01*
Y8161D01*
X9205D01*
X9198Y8168D01*
Y8134D02*
X9205Y8128D01*
Y8114D01*
X9198Y8108D01*
X9192D01*
X9185Y8114D01*
X9178Y8108D01*
X9172D01*
X9165Y8114D01*
Y8128D01*
X9172Y8134D01*
X9178D01*
X9185Y8128D01*
X9192Y8134D01*
X9198D01*
X9185Y8128D02*
Y8114D01*
X9195Y7238D02*
X9235D01*
Y7218D01*
X9228Y7211D01*
X9215D01*
X9208Y7218D01*
Y7238D01*
Y7224D02*
X9195Y7211D01*
Y7198D02*
Y7184D01*
Y7191D01*
X9235D01*
X9228Y7198D01*
X9235Y7164D02*
Y7138D01*
X9228D01*
X9202Y7164D01*
X9195D01*
X9595Y7918D02*
Y7957D01*
X9615D01*
X9622Y7951D01*
Y7937D01*
X9615Y7931D01*
X9595D01*
X9608D02*
X9622Y7918D01*
X9635D02*
X9648D01*
X9642D01*
Y7957D01*
X9635Y7951D01*
X9695Y7957D02*
X9682Y7951D01*
X9668Y7937D01*
Y7924D01*
X9675Y7918D01*
X9688D01*
X9695Y7924D01*
Y7931D01*
X9688Y7937D01*
X9668D01*
X9585Y8127D02*
Y8167D01*
X9605D01*
X9612Y8161D01*
Y8147D01*
X9605Y8141D01*
X9585D01*
X9598D02*
X9612Y8127D01*
X9625D02*
X9638D01*
X9632D01*
Y8167D01*
X9625Y8161D01*
X9685Y8167D02*
X9658D01*
Y8147D01*
X9672Y8154D01*
X9678D01*
X9685Y8147D01*
Y8134D01*
X9678Y8127D01*
X9665D01*
X9658Y8134D01*
X8915Y8208D02*
X8955D01*
Y8188D01*
X8948Y8181D01*
X8935D01*
X8928Y8188D01*
Y8208D01*
Y8194D02*
X8915Y8181D01*
Y8168D02*
Y8154D01*
Y8161D01*
X8955D01*
X8948Y8168D01*
X8915Y8114D02*
X8955D01*
X8935Y8134D01*
Y8108D01*
X8935Y7258D02*
X8975D01*
Y7238D01*
X8968Y7231D01*
X8955D01*
X8948Y7238D01*
Y7258D01*
Y7244D02*
X8935Y7231D01*
Y7218D02*
Y7204D01*
Y7211D01*
X8975D01*
X8968Y7218D01*
Y7184D02*
X8975Y7178D01*
Y7164D01*
X8968Y7158D01*
X8962D01*
X8955Y7164D01*
Y7171D01*
Y7164D01*
X8948Y7158D01*
X8942D01*
X8935Y7164D01*
Y7178D01*
X8942Y7184D01*
X11445Y9167D02*
Y9207D01*
X11465D01*
X11472Y9201D01*
Y9187D01*
X11465Y9181D01*
X11445D01*
X11458D02*
X11472Y9167D01*
X11485D02*
X11498D01*
X11492D01*
Y9207D01*
X11485Y9201D01*
X11545Y9167D02*
X11518D01*
X11545Y9194D01*
Y9201D01*
X11538Y9207D01*
X11525D01*
X11518Y9201D01*
X11455Y8977D02*
Y9017D01*
X11475D01*
X11482Y9011D01*
Y8997D01*
X11475Y8991D01*
X11455D01*
X11468D02*
X11482Y8977D01*
X11495D02*
X11508D01*
X11502D01*
Y9017D01*
X11495Y9011D01*
X11528Y8977D02*
X11542D01*
X11535D01*
Y9017D01*
X11528Y9011D01*
X11445Y8767D02*
Y8807D01*
X11465D01*
X11472Y8801D01*
Y8787D01*
X11465Y8781D01*
X11445D01*
X11458D02*
X11472Y8767D01*
X11485D02*
X11498D01*
X11492D01*
Y8807D01*
X11485Y8801D01*
X11518D02*
X11525Y8807D01*
X11538D01*
X11545Y8801D01*
Y8774D01*
X11538Y8767D01*
X11525D01*
X11518Y8774D01*
Y8801D01*
X10495Y8767D02*
Y8807D01*
X10515D01*
X10522Y8801D01*
Y8787D01*
X10515Y8781D01*
X10495D01*
X10508D02*
X10522Y8767D01*
X10535Y8774D02*
X10542Y8767D01*
X10555D01*
X10562Y8774D01*
Y8801D01*
X10555Y8807D01*
X10542D01*
X10535Y8801D01*
Y8794D01*
X10542Y8787D01*
X10562D01*
X10505Y8967D02*
Y9007D01*
X10525D01*
X10532Y9001D01*
Y8987D01*
X10525Y8981D01*
X10505D01*
X10518D02*
X10532Y8967D01*
X10545Y9001D02*
X10552Y9007D01*
X10565D01*
X10572Y9001D01*
Y8994D01*
X10565Y8987D01*
X10572Y8981D01*
Y8974D01*
X10565Y8967D01*
X10552D01*
X10545Y8974D01*
Y8981D01*
X10552Y8987D01*
X10545Y8994D01*
Y9001D01*
X10552Y8987D02*
X10565D01*
X10495Y9177D02*
Y9217D01*
X10515D01*
X10522Y9211D01*
Y9197D01*
X10515Y9191D01*
X10495D01*
X10508D02*
X10522Y9177D01*
X10535Y9217D02*
X10562D01*
Y9211D01*
X10535Y9184D01*
Y9177D01*
X11465Y9068D02*
Y9107D01*
X11485D01*
X11492Y9101D01*
Y9087D01*
X11485Y9081D01*
X11465D01*
X11478D02*
X11492Y9068D01*
X11532Y9107D02*
X11518Y9101D01*
X11505Y9087D01*
Y9074D01*
X11512Y9068D01*
X11525D01*
X11532Y9074D01*
Y9081D01*
X11525Y9087D01*
X11505D01*
X11475Y8868D02*
Y8907D01*
X11495D01*
X11502Y8901D01*
Y8887D01*
X11495Y8881D01*
X11475D01*
X11488D02*
X11502Y8868D01*
X11542Y8907D02*
X11515D01*
Y8887D01*
X11528Y8894D01*
X11535D01*
X11542Y8887D01*
Y8874D01*
X11535Y8868D01*
X11522D01*
X11515Y8874D01*
X11475Y8667D02*
Y8707D01*
X11495D01*
X11502Y8701D01*
Y8687D01*
X11495Y8681D01*
X11475D01*
X11488D02*
X11502Y8667D01*
X11535D02*
Y8707D01*
X11515Y8687D01*
X11542D01*
X10495Y8667D02*
Y8707D01*
X10515D01*
X10522Y8701D01*
Y8687D01*
X10515Y8681D01*
X10495D01*
X10508D02*
X10522Y8667D01*
X10535Y8701D02*
X10542Y8707D01*
X10555D01*
X10562Y8701D01*
Y8694D01*
X10555Y8687D01*
X10548D01*
X10555D01*
X10562Y8681D01*
Y8674D01*
X10555Y8667D01*
X10542D01*
X10535Y8674D01*
X10495Y8868D02*
Y8907D01*
X10515D01*
X10522Y8901D01*
Y8887D01*
X10515Y8881D01*
X10495D01*
X10508D02*
X10522Y8868D01*
X10562D02*
X10535D01*
X10562Y8894D01*
Y8901D01*
X10555Y8907D01*
X10542D01*
X10535Y8901D01*
X10495Y9068D02*
Y9107D01*
X10515D01*
X10522Y9101D01*
Y9087D01*
X10515Y9081D01*
X10495D01*
X10508D02*
X10522Y9068D01*
X10535D02*
X10548D01*
X10542D01*
Y9107D01*
X10535Y9101D01*
X9042Y8174D02*
Y8201D01*
X9035Y8207D01*
X9022D01*
X9015Y8201D01*
Y8174D01*
X9022Y8167D01*
X9035D01*
X9028Y8181D02*
X9042Y8167D01*
X9035D02*
X9042Y8174D01*
X9055Y8201D02*
X9062Y8207D01*
X9075D01*
X9082Y8201D01*
Y8194D01*
X9075Y8187D01*
X9082Y8181D01*
Y8174D01*
X9075Y8167D01*
X9062D01*
X9055Y8174D01*
Y8181D01*
X9062Y8187D01*
X9055Y8194D01*
Y8201D01*
X9062Y8187D02*
X9075D01*
X9072Y7174D02*
Y7201D01*
X9065Y7207D01*
X9052D01*
X9045Y7201D01*
Y7174D01*
X9052Y7168D01*
X9065D01*
X9058Y7181D02*
X9072Y7168D01*
X9065D02*
X9072Y7174D01*
X9085Y7207D02*
X9112D01*
Y7201D01*
X9085Y7174D01*
Y7168D01*
X11912Y9284D02*
Y9311D01*
X11905Y9317D01*
X11892D01*
X11885Y9311D01*
Y9284D01*
X11892Y9278D01*
X11905D01*
X11898Y9291D02*
X11912Y9278D01*
X11905D02*
X11912Y9284D01*
X11952Y9317D02*
X11938Y9311D01*
X11925Y9297D01*
Y9284D01*
X11932Y9278D01*
X11945D01*
X11952Y9284D01*
Y9291D01*
X11945Y9297D01*
X11925D01*
X11922Y8864D02*
Y8891D01*
X11915Y8897D01*
X11902D01*
X11895Y8891D01*
Y8864D01*
X11902Y8858D01*
X11915D01*
X11908Y8871D02*
X11922Y8858D01*
X11915D02*
X11922Y8864D01*
X11962Y8897D02*
X11935D01*
Y8877D01*
X11948Y8884D01*
X11955D01*
X11962Y8877D01*
Y8864D01*
X11955Y8858D01*
X11942D01*
X11935Y8864D01*
X11762Y8464D02*
Y8491D01*
X11755Y8497D01*
X11742D01*
X11735Y8491D01*
Y8464D01*
X11742Y8458D01*
X11755D01*
X11748Y8471D02*
X11762Y8458D01*
X11755D02*
X11762Y8464D01*
X11795Y8458D02*
Y8497D01*
X11775Y8477D01*
X11802D01*
X10762Y8494D02*
Y8521D01*
X10755Y8527D01*
X10742D01*
X10735Y8521D01*
Y8494D01*
X10742Y8488D01*
X10755D01*
X10748Y8501D02*
X10762Y8488D01*
X10755D02*
X10762Y8494D01*
X10775Y8521D02*
X10782Y8527D01*
X10795D01*
X10802Y8521D01*
Y8514D01*
X10795Y8507D01*
X10788D01*
X10795D01*
X10802Y8501D01*
Y8494D01*
X10795Y8488D01*
X10782D01*
X10775Y8494D01*
X10022Y8784D02*
Y8811D01*
X10015Y8817D01*
X10002D01*
X9995Y8811D01*
Y8784D01*
X10002Y8778D01*
X10015D01*
X10008Y8791D02*
X10022Y8778D01*
X10015D02*
X10022Y8784D01*
X10062Y8778D02*
X10035D01*
X10062Y8804D01*
Y8811D01*
X10055Y8817D01*
X10042D01*
X10035Y8811D01*
X10022Y9064D02*
Y9091D01*
X10015Y9097D01*
X10002D01*
X9995Y9091D01*
Y9064D01*
X10002Y9057D01*
X10015D01*
X10008Y9071D02*
X10022Y9057D01*
X10015D02*
X10022Y9064D01*
X10035Y9057D02*
X10048D01*
X10042D01*
Y9097D01*
X10035Y9091D01*
X12262Y6327D02*
X12248D01*
X12255D01*
Y6294D01*
X12248Y6287D01*
X12242D01*
X12235Y6294D01*
X12275Y6287D02*
X12288D01*
X12282D01*
Y6327D01*
X12275Y6321D01*
X12308D02*
X12315Y6327D01*
X12328D01*
X12335Y6321D01*
Y6294D01*
X12328Y6287D01*
X12315D01*
X12308Y6294D01*
Y6321D01*
X12262Y7337D02*
X12248D01*
X12255D01*
Y7304D01*
X12248Y7298D01*
X12242D01*
X12235Y7304D01*
X12275D02*
X12282Y7298D01*
X12295D01*
X12302Y7304D01*
Y7331D01*
X12295Y7337D01*
X12282D01*
X12275Y7331D01*
Y7324D01*
X12282Y7317D01*
X12302D01*
X9712Y7477D02*
X9698D01*
X9705D01*
Y7444D01*
X9698Y7438D01*
X9692D01*
X9685Y7444D01*
X9725Y7471D02*
X9732Y7477D01*
X9745D01*
X9752Y7471D01*
Y7464D01*
X9745Y7457D01*
X9752Y7451D01*
Y7444D01*
X9745Y7438D01*
X9732D01*
X9725Y7444D01*
Y7451D01*
X9732Y7457D01*
X9725Y7464D01*
Y7471D01*
X9732Y7457D02*
X9745D01*
X9542Y7477D02*
X9528D01*
X9535D01*
Y7444D01*
X9528Y7438D01*
X9522D01*
X9515Y7444D01*
X9555Y7477D02*
X9582D01*
Y7471D01*
X9555Y7444D01*
Y7438D01*
X8612Y8487D02*
X8598D01*
X8605D01*
Y8454D01*
X8598Y8448D01*
X8592D01*
X8585Y8454D01*
X8652Y8487D02*
X8638Y8481D01*
X8625Y8467D01*
Y8454D01*
X8632Y8448D01*
X8645D01*
X8652Y8454D01*
Y8461D01*
X8645Y8467D01*
X8625D01*
X8622Y7537D02*
X8608D01*
X8615D01*
Y7504D01*
X8608Y7497D01*
X8602D01*
X8595Y7504D01*
X8662Y7537D02*
X8635D01*
Y7517D01*
X8648Y7524D01*
X8655D01*
X8662Y7517D01*
Y7504D01*
X8655Y7497D01*
X8642D01*
X8635Y7504D01*
X9332Y9117D02*
X9318D01*
X9325D01*
Y9084D01*
X9318Y9078D01*
X9312D01*
X9305Y9084D01*
X9365Y9078D02*
Y9117D01*
X9345Y9097D01*
X9372D01*
X8772Y5877D02*
X8758D01*
X8765D01*
Y5844D01*
X8758Y5838D01*
X8752D01*
X8745Y5844D01*
X8785Y5871D02*
X8792Y5877D01*
X8805D01*
X8812Y5871D01*
Y5864D01*
X8805Y5857D01*
X8798D01*
X8805D01*
X8812Y5851D01*
Y5844D01*
X8805Y5838D01*
X8792D01*
X8785Y5844D01*
X8772Y6867D02*
X8758D01*
X8765D01*
Y6834D01*
X8758Y6827D01*
X8752D01*
X8745Y6834D01*
X8812Y6827D02*
X8785D01*
X8812Y6854D01*
Y6861D01*
X8805Y6867D01*
X8792D01*
X8785Y6861D01*
X12262Y9157D02*
X12248D01*
X12255D01*
Y9124D01*
X12248Y9118D01*
X12242D01*
X12235Y9124D01*
X12275Y9118D02*
X12288D01*
X12282D01*
Y9157D01*
X12275Y9151D01*
X9105Y6407D02*
X9065D01*
Y6388D01*
X9072Y6381D01*
X9098D01*
X9105Y6388D01*
Y6407D01*
X9065Y6368D02*
Y6354D01*
Y6361D01*
X9105D01*
X9098Y6368D01*
X9622Y8441D02*
X9615Y8447D01*
X9602D01*
X9595Y8441D01*
Y8414D01*
X9602Y8408D01*
X9615D01*
X9622Y8414D01*
X9635Y8447D02*
X9662D01*
Y8441D01*
X9635Y8414D01*
Y8408D01*
X9092Y7781D02*
X9085Y7787D01*
X9072D01*
X9065Y7781D01*
Y7754D01*
X9072Y7747D01*
X9085D01*
X9092Y7754D01*
X9132Y7787D02*
X9118Y7781D01*
X9105Y7767D01*
Y7754D01*
X9112Y7747D01*
X9125D01*
X9132Y7754D01*
Y7761D01*
X9125Y7767D01*
X9105D01*
X10858Y6701D02*
X10865Y6708D01*
Y6721D01*
X10858Y6727D01*
X10832D01*
X10825Y6721D01*
Y6708D01*
X10832Y6701D01*
X10865Y6661D02*
Y6688D01*
X10845D01*
X10852Y6674D01*
Y6668D01*
X10845Y6661D01*
X10832D01*
X10825Y6668D01*
Y6681D01*
X10832Y6688D01*
X9672Y6851D02*
X9665Y6857D01*
X9652D01*
X9645Y6851D01*
Y6824D01*
X9652Y6818D01*
X9665D01*
X9672Y6824D01*
X9705Y6818D02*
Y6857D01*
X9685Y6837D01*
X9712D01*
X9182Y6041D02*
X9175Y6047D01*
X9162D01*
X9155Y6041D01*
Y6014D01*
X9162Y6008D01*
X9175D01*
X9182Y6014D01*
X9222Y6008D02*
X9195D01*
X9222Y6034D01*
Y6041D01*
X9215Y6047D01*
X9202D01*
X9195Y6041D01*
X9152Y5821D02*
X9145Y5827D01*
X9132D01*
X9125Y5821D01*
Y5794D01*
X9132Y5787D01*
X9145D01*
X9152Y5794D01*
X9165Y5787D02*
X9178D01*
X9172D01*
Y5827D01*
X9165Y5821D01*
X11092Y9341D02*
X11085Y9347D01*
X11072D01*
X11065Y9341D01*
Y9314D01*
X11072Y9307D01*
X11085D01*
X11092Y9314D01*
X11105Y9307D02*
X11118D01*
X11112D01*
Y9347D01*
X11105Y9341D01*
X11165Y9307D02*
X11138D01*
X11165Y9334D01*
Y9341D01*
X11158Y9347D01*
X11145D01*
X11138Y9341D01*
D27*
X8805Y9318D02*
Y9397D01*
X8845D01*
X8858Y9384D01*
Y9357D01*
X8845Y9344D01*
X8805D01*
X8832D02*
X8858Y9318D01*
X8885D02*
Y9371D01*
X8912Y9397D01*
X8938Y9371D01*
Y9318D01*
Y9357D01*
X8885D01*
X8965Y9397D02*
X9018D01*
X8992D01*
Y9318D01*
X9045Y9357D02*
X9098D01*
X9125Y9318D02*
Y9397D01*
X9165D01*
X9178Y9384D01*
Y9357D01*
X9165Y9344D01*
X9125D01*
X9152D02*
X9178Y9318D01*
X9205D02*
Y9371D01*
X9232Y9397D01*
X9258Y9371D01*
Y9318D01*
Y9357D01*
X9205D01*
X9338Y9384D02*
X9325Y9397D01*
X9298D01*
X9285Y9384D01*
Y9331D01*
X9298Y9318D01*
X9325D01*
X9338Y9331D01*
X9418Y9397D02*
X9365D01*
Y9318D01*
X9418D01*
X9365Y9357D02*
X9391D01*
X9525Y9397D02*
X9578D01*
X9551D01*
Y9318D01*
X9605Y9397D02*
X9631D01*
X9618D01*
Y9318D01*
X9605D01*
X9631D01*
X9671D02*
Y9397D01*
X9698Y9371D01*
X9725Y9397D01*
Y9318D01*
X9751Y9397D02*
X9778D01*
X9765D01*
Y9318D01*
X9751D01*
X9778D01*
X9818D02*
Y9397D01*
X9871Y9318D01*
Y9397D01*
X9951Y9384D02*
X9938Y9397D01*
X9911D01*
X9898Y9384D01*
Y9331D01*
X9911Y9318D01*
X9938D01*
X9951Y9331D01*
Y9357D01*
X9925D01*
X10111Y9384D02*
X10098Y9397D01*
X10071D01*
X10058Y9384D01*
Y9371D01*
X10071Y9357D01*
X10098D01*
X10111Y9344D01*
Y9331D01*
X10098Y9318D01*
X10071D01*
X10058Y9331D01*
X10138Y9397D02*
Y9384D01*
X10165Y9357D01*
X10191Y9384D01*
Y9397D01*
X10165Y9357D02*
Y9318D01*
X10271Y9384D02*
X10258Y9397D01*
X10231D01*
X10218Y9384D01*
Y9371D01*
X10231Y9357D01*
X10258D01*
X10271Y9344D01*
Y9331D01*
X10258Y9318D01*
X10231D01*
X10218Y9331D01*
X10298Y9397D02*
X10351D01*
X10325D01*
Y9318D01*
X10431Y9397D02*
X10378D01*
Y9318D01*
X10431D01*
X10378Y9357D02*
X10404D01*
X10458Y9318D02*
Y9397D01*
X10484Y9371D01*
X10511Y9397D01*
Y9318D01*
X8838Y9221D02*
X8798D01*
X8785Y9207D01*
Y9181D01*
X8798Y9167D01*
X8838D01*
X8865D02*
Y9181D01*
X8878D01*
Y9167D01*
X8865D01*
X9012Y9247D02*
X9065D01*
X9038D01*
Y9167D01*
X9092Y9247D02*
X9118D01*
X9105D01*
Y9167D01*
X9092D01*
X9118D01*
X9212Y9234D02*
X9198Y9247D01*
X9172D01*
X9158Y9234D01*
Y9181D01*
X9172Y9167D01*
X9198D01*
X9212Y9181D01*
X9371Y9167D02*
X9318D01*
X9371Y9221D01*
Y9234D01*
X9358Y9247D01*
X9331D01*
X9318Y9234D01*
X9398D02*
X9411Y9247D01*
X9438D01*
X9451Y9234D01*
Y9181D01*
X9438Y9167D01*
X9411D01*
X9398Y9181D01*
Y9234D01*
X9478D02*
X9491Y9247D01*
X9518D01*
X9531Y9234D01*
Y9181D01*
X9518Y9167D01*
X9491D01*
X9478Y9181D01*
Y9234D01*
X9558Y9247D02*
X9611D01*
Y9234D01*
X9558Y9181D01*
Y9167D01*
X9798D02*
Y9221D01*
X9825Y9247D01*
X9851Y9221D01*
Y9167D01*
Y9207D01*
X9798D01*
X9931Y9247D02*
X9905D01*
X9918D01*
Y9181D01*
X9905Y9167D01*
X9891D01*
X9878Y9181D01*
X9958Y9247D02*
Y9167D01*
X9985Y9194D01*
X10011Y9167D01*
Y9247D01*
M02*
