%FSLAX23Y23*%
%MOIN*%
G70*
G01*
G75*
%ADD10C,0.040*%
%ADD11C,0.050*%
%ADD12C,0.060*%
%ADD13C,0.059*%
%ADD14R,0.050X0.050*%
%ADD15C,0.071*%
%ADD16C,0.150*%
%ADD17C,0.062*%
%ADD18R,0.062X0.062*%
%ADD19O,0.079X0.098*%
%ADD20R,0.079X0.098*%
%ADD21R,0.063X0.063*%
%ADD22C,0.063*%
%ADD23C,0.098*%
%ADD24R,0.098X0.098*%
%ADD25C,0.010*%
%ADD26C,0.008*%
%ADD27C,0.012*%
%ADD28C,0.058*%
%ADD29C,0.068*%
%ADD30C,0.067*%
%ADD31R,0.058X0.058*%
%ADD32C,0.079*%
%ADD33C,0.158*%
%ADD34C,0.070*%
%ADD35R,0.070X0.070*%
%ADD36O,0.087X0.106*%
%ADD37R,0.087X0.106*%
%ADD38R,0.071X0.071*%
%ADD39C,0.106*%
%ADD40R,0.106X0.106*%
D25*
X8728Y5738D02*
X8727Y5747D01*
X8725Y5757D01*
X8721Y5766D01*
X8716Y5775D01*
X8710Y5782D01*
X8702Y5788D01*
X8694Y5794D01*
X8684Y5797D01*
X8675Y5800D01*
X8665Y5800D01*
X8655Y5800D01*
X8646Y5797D01*
X8636Y5794D01*
X8628Y5788D01*
X8620Y5782D01*
X8614Y5775D01*
X8609Y5766D01*
X8605Y5757D01*
X8603Y5747D01*
X8602Y5738D01*
X8603Y5728D01*
X8605Y5718D01*
X8609Y5709D01*
X8614Y5700D01*
X8620Y5693D01*
X8628Y5687D01*
X8636Y5681D01*
X8646Y5678D01*
X8655Y5675D01*
X8665Y5674D01*
X8675Y5675D01*
X8684Y5678D01*
X8694Y5681D01*
X8702Y5687D01*
X8710Y5693D01*
X8716Y5700D01*
X8721Y5709D01*
X8725Y5718D01*
X8727Y5728D01*
X8728Y5738D01*
X12348D02*
X12347Y5747D01*
X12345Y5757D01*
X12341Y5766D01*
X12336Y5775D01*
X12330Y5782D01*
X12322Y5788D01*
X12314Y5794D01*
X12304Y5797D01*
X12295Y5800D01*
X12285Y5800D01*
X12275Y5800D01*
X12266Y5797D01*
X12256Y5794D01*
X12248Y5788D01*
X12240Y5782D01*
X12234Y5775D01*
X12229Y5766D01*
X12225Y5757D01*
X12223Y5747D01*
X12222Y5738D01*
X12223Y5728D01*
X12225Y5718D01*
X12229Y5709D01*
X12234Y5700D01*
X12240Y5693D01*
X12248Y5687D01*
X12256Y5681D01*
X12266Y5678D01*
X12275Y5675D01*
X12285Y5674D01*
X12295Y5675D01*
X12304Y5678D01*
X12314Y5681D01*
X12322Y5687D01*
X12330Y5693D01*
X12336Y5700D01*
X12341Y5709D01*
X12345Y5718D01*
X12347Y5728D01*
X12348Y5738D01*
X8728Y9297D02*
X8727Y9307D01*
X8725Y9317D01*
X8721Y9326D01*
X8716Y9335D01*
X8710Y9342D01*
X8702Y9348D01*
X8694Y9354D01*
X8684Y9357D01*
X8675Y9360D01*
X8665Y9361D01*
X8655Y9360D01*
X8646Y9357D01*
X8636Y9354D01*
X8628Y9348D01*
X8620Y9342D01*
X8614Y9335D01*
X8609Y9326D01*
X8605Y9317D01*
X8603Y9307D01*
X8602Y9297D01*
X8603Y9288D01*
X8605Y9278D01*
X8609Y9269D01*
X8614Y9260D01*
X8620Y9253D01*
X8628Y9247D01*
X8636Y9241D01*
X8646Y9238D01*
X8655Y9235D01*
X8665Y9234D01*
X8675Y9235D01*
X8684Y9238D01*
X8694Y9241D01*
X8702Y9247D01*
X8710Y9253D01*
X8716Y9260D01*
X8721Y9269D01*
X8725Y9278D01*
X8727Y9288D01*
X8728Y9297D01*
X12338D02*
X12337Y9307D01*
X12335Y9317D01*
X12331Y9326D01*
X12326Y9335D01*
X12320Y9342D01*
X12312Y9348D01*
X12304Y9354D01*
X12294Y9357D01*
X12285Y9360D01*
X12275Y9361D01*
X12265Y9360D01*
X12256Y9357D01*
X12246Y9354D01*
X12238Y9348D01*
X12230Y9342D01*
X12224Y9335D01*
X12219Y9326D01*
X12215Y9317D01*
X12213Y9307D01*
X12212Y9297D01*
X12213Y9288D01*
X12215Y9278D01*
X12219Y9269D01*
X12224Y9260D01*
X12230Y9253D01*
X12238Y9247D01*
X12246Y9241D01*
X12256Y9238D01*
X12265Y9235D01*
X12275Y9234D01*
X12285Y9235D01*
X12294Y9238D01*
X12304Y9241D01*
X12312Y9247D01*
X12320Y9253D01*
X12326Y9260D01*
X12331Y9269D01*
X12335Y9278D01*
X12337Y9288D01*
X12338Y9297D01*
X8468Y9485D02*
X12465D01*
X8465Y5537D02*
X12455D01*
X12465Y5548D02*
Y9485D01*
X8465Y5537D02*
Y9475D01*
M02*
