%FSLAX23Y23*%
%MOIN*%
G70*
G01*
G75*
%ADD10C,0.040*%
%ADD11C,0.050*%
%ADD12C,0.060*%
%ADD13C,0.059*%
%ADD14R,0.050X0.050*%
%ADD15C,0.071*%
%ADD16C,0.150*%
%ADD17C,0.062*%
%ADD18R,0.062X0.062*%
%ADD19O,0.079X0.098*%
%ADD20R,0.079X0.098*%
%ADD21R,0.063X0.063*%
%ADD22C,0.063*%
%ADD23C,0.098*%
%ADD24R,0.098X0.098*%
%ADD25C,0.010*%
%ADD26C,0.008*%
%ADD27C,0.012*%
%ADD28C,0.058*%
%ADD29C,0.068*%
%ADD30C,0.067*%
%ADD31R,0.058X0.058*%
%ADD32C,0.079*%
%ADD33C,0.158*%
%ADD34C,0.070*%
%ADD35R,0.070X0.070*%
%ADD36O,0.087X0.106*%
%ADD37R,0.087X0.106*%
%ADD38R,0.071X0.071*%
%ADD39C,0.106*%
%ADD40R,0.106X0.106*%
D15*
X12275Y8117D02*
D03*
Y8017D02*
D03*
Y7917D02*
D03*
Y7817D02*
D03*
Y7717D02*
D03*
Y7617D02*
D03*
Y7517D02*
D03*
D28*
X11065Y7807D02*
D03*
Y7907D02*
D03*
Y8007D02*
D03*
Y8208D02*
D03*
X11365D02*
D03*
Y8108D02*
D03*
Y8007D02*
D03*
Y7907D02*
D03*
Y7807D02*
D03*
X11065Y8108D02*
D03*
Y7407D02*
D03*
X11365D02*
D03*
Y7608D02*
D03*
Y7707D02*
D03*
Y7508D02*
D03*
X11065Y7608D02*
D03*
Y7508D02*
D03*
Y7707D02*
D03*
X8625Y8267D02*
D03*
Y8167D02*
D03*
Y8068D02*
D03*
Y7968D02*
D03*
X9735Y7677D02*
D03*
Y7577D02*
D03*
X12285Y6077D02*
D03*
Y6177D02*
D03*
X12275Y8538D02*
D03*
Y8637D02*
D03*
Y8738D02*
D03*
Y8837D02*
D03*
Y8938D02*
D03*
X8625Y7188D02*
D03*
Y6988D02*
D03*
Y7287D02*
D03*
Y7088D02*
D03*
X9555Y7577D02*
D03*
Y7677D02*
D03*
X10915Y9097D02*
D03*
X10915Y8997D02*
D03*
Y8897D02*
D03*
Y8797D02*
D03*
Y8697D02*
D03*
Y8597D02*
D03*
X11215D02*
D03*
Y8697D02*
D03*
Y8797D02*
D03*
Y8897D02*
D03*
Y8997D02*
D03*
Y9097D02*
D03*
Y9197D02*
D03*
X10725Y7347D02*
D03*
X10125D02*
D03*
X10725Y6347D02*
D03*
Y7548D02*
D03*
Y7448D02*
D03*
Y6747D02*
D03*
Y6847D02*
D03*
X10125Y7948D02*
D03*
X10725Y7648D02*
D03*
X10125Y6948D02*
D03*
X10725Y7148D02*
D03*
Y6948D02*
D03*
Y7048D02*
D03*
X10125Y7148D02*
D03*
X10725Y8047D02*
D03*
Y7948D02*
D03*
X10125Y6448D02*
D03*
Y6548D02*
D03*
X10725Y7847D02*
D03*
Y7747D02*
D03*
X10125Y7548D02*
D03*
Y7648D02*
D03*
Y7847D02*
D03*
Y7747D02*
D03*
Y7247D02*
D03*
Y6847D02*
D03*
Y6148D02*
D03*
X10725D02*
D03*
Y6247D02*
D03*
Y6448D02*
D03*
X10125Y6747D02*
D03*
Y6247D02*
D03*
X10725Y6648D02*
D03*
Y6548D02*
D03*
X10125Y7448D02*
D03*
Y7048D02*
D03*
X10725Y7247D02*
D03*
X11085Y6688D02*
D03*
Y6787D02*
D03*
Y6887D02*
D03*
Y7088D02*
D03*
X11385D02*
D03*
Y6988D02*
D03*
Y6887D02*
D03*
Y6787D02*
D03*
Y6688D02*
D03*
X11085Y6988D02*
D03*
Y6287D02*
D03*
X11385D02*
D03*
Y6387D02*
D03*
X11085D02*
D03*
X9815Y6968D02*
D03*
X9515Y7168D02*
D03*
X9815Y7068D02*
D03*
Y7168D02*
D03*
Y7267D02*
D03*
X9515Y6968D02*
D03*
Y7068D02*
D03*
X12095Y6478D02*
D03*
Y6278D02*
D03*
Y5978D02*
D03*
Y6178D02*
D03*
Y6078D02*
D03*
X11795Y5878D02*
D03*
X12095D02*
D03*
X11795Y5978D02*
D03*
Y6078D02*
D03*
Y6178D02*
D03*
Y6378D02*
D03*
Y6278D02*
D03*
X12095Y6378D02*
D03*
X11795Y5778D02*
D03*
X12095D02*
D03*
X9115Y7338D02*
D03*
X9065Y7387D02*
D03*
Y7287D02*
D03*
X9045Y8278D02*
D03*
Y8377D02*
D03*
X9095Y8328D02*
D03*
X10125Y6648D02*
D03*
X11085Y6588D02*
D03*
X10125Y6347D02*
D03*
X11085Y6488D02*
D03*
X11385D02*
D03*
Y6588D02*
D03*
X12275Y7087D02*
D03*
Y6987D02*
D03*
Y6887D02*
D03*
Y6787D02*
D03*
Y6687D02*
D03*
Y6487D02*
D03*
Y6587D02*
D03*
D29*
X9725Y6028D02*
D03*
X9525Y6028D02*
D03*
X11675Y5967D02*
D03*
X11675Y6167D02*
D03*
X11575Y5967D02*
D03*
X11575Y6167D02*
D03*
X11675Y6267D02*
D03*
X11675Y6467D02*
D03*
X11575Y6468D02*
D03*
X11575Y6268D02*
D03*
D30*
X10845Y6588D02*
D03*
Y6787D02*
D03*
X9785Y6847D02*
D03*
X9585D02*
D03*
X9085Y6028D02*
D03*
X9285D02*
D03*
D31*
X8625Y8368D02*
D03*
X9735Y7778D02*
D03*
X12285Y5977D02*
D03*
X12275Y9038D02*
D03*
X8625Y7387D02*
D03*
X9555Y7778D02*
D03*
X10915Y9197D02*
D03*
X10125Y8047D02*
D03*
X9515Y7267D02*
D03*
X11795Y6478D02*
D03*
X12275Y7187D02*
D03*
D32*
X9205Y7747D02*
D03*
X9005D02*
D03*
X9635Y8318D02*
D03*
Y8517D02*
D03*
X9285Y5787D02*
D03*
X9085D02*
D03*
D33*
X8845Y9038D02*
D03*
Y8637D02*
D03*
D34*
X9095Y8913D02*
D03*
X9195Y8762D02*
D03*
X9095Y8812D02*
D03*
X9195Y8863D02*
D03*
X9095Y8712D02*
D03*
X10755Y9097D02*
D03*
X10355Y9097D02*
D03*
Y8898D02*
D03*
X10755Y8898D02*
D03*
Y8698D02*
D03*
X10355Y8698D02*
D03*
X11725Y8698D02*
D03*
X11325Y8698D02*
D03*
Y8898D02*
D03*
X11725Y8898D02*
D03*
Y9097D02*
D03*
X11325Y9097D02*
D03*
X10355Y9198D02*
D03*
X10755Y9198D02*
D03*
Y8998D02*
D03*
X10355Y8998D02*
D03*
Y8797D02*
D03*
X10755Y8797D02*
D03*
X11325Y8797D02*
D03*
X11725Y8797D02*
D03*
Y8998D02*
D03*
X11325Y8998D02*
D03*
Y9198D02*
D03*
X11725Y9198D02*
D03*
X8955Y7398D02*
D03*
X8955Y6997D02*
D03*
X8925Y8358D02*
D03*
X8925Y7957D02*
D03*
X9455Y8148D02*
D03*
X9855Y8148D02*
D03*
Y7948D02*
D03*
X9455Y7948D02*
D03*
X9215Y7398D02*
D03*
X9215Y6997D02*
D03*
X9185Y7957D02*
D03*
X9185Y8358D02*
D03*
X9225Y6168D02*
D03*
X9225Y6568D02*
D03*
X9315Y6997D02*
D03*
X9315Y7398D02*
D03*
X9285Y8358D02*
D03*
X9285Y7957D02*
D03*
X9455Y8047D02*
D03*
X9855Y8047D02*
D03*
X11685Y7218D02*
D03*
X12085Y7218D02*
D03*
Y7117D02*
D03*
X11685Y7117D02*
D03*
Y7017D02*
D03*
X12085Y7017D02*
D03*
Y6918D02*
D03*
X11685Y6918D02*
D03*
Y6818D02*
D03*
X12085Y6818D02*
D03*
Y8208D02*
D03*
X11685Y8208D02*
D03*
Y8108D02*
D03*
X12085Y8108D02*
D03*
Y8007D02*
D03*
X11685Y8007D02*
D03*
Y7907D02*
D03*
X12085Y7907D02*
D03*
Y7807D02*
D03*
X11685Y7807D02*
D03*
Y7707D02*
D03*
X12085Y7707D02*
D03*
Y7608D02*
D03*
X11685Y7608D02*
D03*
X9325Y6568D02*
D03*
X9325Y6168D02*
D03*
X12085Y7508D02*
D03*
X11685Y7508D02*
D03*
X10455Y8517D02*
D03*
X10555D02*
D03*
X10655Y8517D02*
D03*
X11635Y8498D02*
D03*
X11535Y8498D02*
D03*
X11435D02*
D03*
X11935Y8778D02*
D03*
Y8677D02*
D03*
X11935Y8578D02*
D03*
Y8977D02*
D03*
X11935Y9078D02*
D03*
Y9177D02*
D03*
X9085Y6568D02*
D03*
X9085Y6168D02*
D03*
X11015Y9318D02*
D03*
X11215Y9318D02*
D03*
X10175Y9198D02*
D03*
Y9097D02*
D03*
X10175Y8998D02*
D03*
X10175Y8778D02*
D03*
Y8677D02*
D03*
X10175Y8578D02*
D03*
X10425Y8347D02*
D03*
X11295Y5874D02*
D03*
X10045Y5798D02*
D03*
X11745Y6747D02*
D03*
X10545Y8797D02*
D03*
X9695Y6834D02*
D03*
X11495Y8898D02*
D03*
X8695Y8222D02*
D03*
X10389Y8274D02*
D03*
X10216Y8448D02*
D03*
X10820Y7423D02*
D03*
X11075Y8547D02*
D03*
X10345Y7398D02*
D03*
X11145Y8898D02*
D03*
X10145Y8398D02*
D03*
X10462Y7847D02*
D03*
X10220Y8273D02*
D03*
X10345Y8148D02*
D03*
X10424Y5698D02*
D03*
X11271Y7597D02*
D03*
X11395Y5873D02*
D03*
X10125Y5747D02*
D03*
X10862Y6247D02*
D03*
X11345Y6111D02*
D03*
X11207Y7317D02*
D03*
X11220Y7698D02*
D03*
X10595Y8148D02*
D03*
X10395Y6183D02*
D03*
X10645Y6433D02*
D03*
X9833Y6648D02*
D03*
X11045Y9113D02*
D03*
X10320Y6597D02*
D03*
X10645Y5648D02*
D03*
X11201Y6203D02*
D03*
X10945Y5997D02*
D03*
X10345Y7097D02*
D03*
Y7948D02*
D03*
X9995Y8748D02*
D03*
X9695Y6497D02*
D03*
X8820Y6847D02*
D03*
X9155Y6798D02*
D03*
Y6398D02*
D03*
X10056D02*
D03*
X10495Y8198D02*
D03*
X10545Y7048D02*
D03*
X8995Y9323D02*
D03*
D35*
X9195Y8962D02*
D03*
D36*
X9625Y5768D02*
D03*
X9725D02*
D03*
D37*
X9825D02*
D03*
D38*
X12275Y8217D02*
D03*
D39*
X8915Y6497D02*
D03*
Y6017D02*
D03*
D40*
X8915Y6698D02*
D03*
Y6218D02*
D03*
M02*
