%FSLAX23Y23*%
%MOIN*%
G70*
G01*
G75*
%ADD10C,0.040*%
%ADD11C,0.050*%
%ADD12C,0.060*%
%ADD13C,0.059*%
%ADD14R,0.050X0.050*%
%ADD15C,0.071*%
%ADD16C,0.150*%
%ADD17C,0.062*%
%ADD18R,0.062X0.062*%
%ADD19O,0.079X0.098*%
%ADD20R,0.079X0.098*%
%ADD21R,0.063X0.063*%
%ADD22C,0.063*%
%ADD23C,0.098*%
%ADD24R,0.098X0.098*%
%ADD25C,0.010*%
%ADD26C,0.008*%
%ADD27C,0.012*%
%ADD28C,0.058*%
%ADD29C,0.068*%
%ADD30C,0.067*%
%ADD31R,0.058X0.058*%
%ADD32C,0.079*%
%ADD33C,0.158*%
%ADD34C,0.070*%
%ADD35R,0.070X0.070*%
%ADD36O,0.087X0.106*%
%ADD37R,0.087X0.106*%
%ADD38R,0.071X0.071*%
%ADD39C,0.106*%
%ADD40R,0.106X0.106*%
%ADD41C,0.007*%
D41*
X11049Y7807D02*
X11081D01*
X11065Y7792D02*
Y7824D01*
X11049Y7907D02*
X11081D01*
X11065Y7891D02*
Y7924D01*
X11049Y8007D02*
X11081D01*
X11065Y7991D02*
Y8024D01*
X11049Y8208D02*
X11081D01*
X11065Y8191D02*
Y8224D01*
X11349Y8208D02*
X11381D01*
X11365Y8191D02*
Y8224D01*
X11349Y8108D02*
X11381D01*
X11365Y8092D02*
Y8123D01*
X11349Y8007D02*
X11381D01*
X11365Y7991D02*
Y8024D01*
X11349Y7907D02*
X11381D01*
X11365Y7891D02*
Y7924D01*
X11349Y7807D02*
X11381D01*
X11365Y7792D02*
Y7824D01*
X11049Y8108D02*
X11081D01*
X11065Y8092D02*
Y8123D01*
X11049Y7407D02*
X11081D01*
X11065Y7391D02*
Y7424D01*
X11349Y7407D02*
X11381D01*
X11365Y7391D02*
Y7424D01*
X11349Y7608D02*
X11381D01*
X11365Y7591D02*
Y7623D01*
X11349Y7707D02*
X11381D01*
X11365Y7692D02*
Y7723D01*
X11349Y7508D02*
X11381D01*
X11365Y7491D02*
Y7523D01*
X11049Y7608D02*
X11081D01*
X11065Y7591D02*
Y7623D01*
X11049Y7508D02*
X11081D01*
X11065Y7491D02*
Y7523D01*
X11049Y7707D02*
X11081D01*
X11065Y7692D02*
Y7723D01*
X9709Y6028D02*
X9741D01*
X9725Y6012D02*
Y6044D01*
X9509Y6028D02*
X9541D01*
X9525Y6012D02*
Y6044D01*
X11659Y5967D02*
X11691D01*
X11675Y5951D02*
Y5983D01*
X11659Y6167D02*
X11691D01*
X11675Y6151D02*
Y6183D01*
X11559Y5967D02*
X11591D01*
X11575Y5951D02*
Y5983D01*
X11559Y6167D02*
X11591D01*
X11575Y6151D02*
Y6183D01*
X11659Y6267D02*
X11691D01*
X11675Y6251D02*
Y6283D01*
X11659Y6467D02*
X11691D01*
X11675Y6451D02*
Y6483D01*
X11559Y6468D02*
X11591D01*
X11575Y6452D02*
Y6484D01*
X11559Y6268D02*
X11591D01*
X11575Y6252D02*
Y6284D01*
X10829Y6588D02*
X10861D01*
X10845Y6571D02*
Y6603D01*
X10829Y6787D02*
X10861D01*
X10845Y6772D02*
Y6804D01*
X8609Y8368D02*
X8641D01*
X8625Y8351D02*
Y8384D01*
X8609Y8267D02*
X8641D01*
X8625Y8252D02*
Y8283D01*
X8609Y8167D02*
X8641D01*
X8625Y8151D02*
Y8184D01*
X8609Y8068D02*
X8641D01*
X8625Y8052D02*
Y8083D01*
X8609Y7968D02*
X8641D01*
X8625Y7951D02*
Y7984D01*
X9186Y7747D02*
X9224D01*
X9205Y7728D02*
Y7767D01*
X9769Y6847D02*
X9801D01*
X9785Y6832D02*
Y6864D01*
X9719Y7778D02*
X9751D01*
X9735Y7761D02*
Y7793D01*
X8986Y7747D02*
X9024D01*
X9005Y7728D02*
Y7767D01*
X9719Y7677D02*
X9751D01*
X9735Y7661D02*
Y7694D01*
X9719Y7577D02*
X9751D01*
X9735Y7562D02*
Y7594D01*
X9569Y6847D02*
X9601D01*
X9585Y6832D02*
Y6864D01*
X9616Y8318D02*
X9655D01*
X9635Y8298D02*
Y8337D01*
X9616Y8517D02*
X9655D01*
X9635Y8498D02*
Y8537D01*
X12269Y6077D02*
X12301D01*
X12285Y6062D02*
Y6094D01*
X12269Y5977D02*
X12301D01*
X12285Y5962D02*
Y5994D01*
X12269Y6177D02*
X12301D01*
X12285Y6161D02*
Y6194D01*
X9266Y5787D02*
X9304D01*
X9285Y5768D02*
Y5807D01*
X9066Y5787D02*
X9104D01*
X9085Y5768D02*
Y5807D01*
X9069Y6028D02*
X9101D01*
X9085Y6011D02*
Y6043D01*
X9269Y6028D02*
X9301D01*
X9285Y6011D02*
Y6043D01*
X12259Y8538D02*
X12291D01*
X12275Y8521D02*
Y8554D01*
X12259Y8637D02*
X12291D01*
X12275Y8622D02*
Y8653D01*
X12259Y8738D02*
X12291D01*
X12275Y8722D02*
Y8753D01*
X12259Y8837D02*
X12291D01*
X12275Y8821D02*
Y8854D01*
X12259Y8938D02*
X12291D01*
X12275Y8922D02*
Y8953D01*
X12259Y9038D02*
X12291D01*
X12275Y9021D02*
Y9054D01*
X8782Y9038D02*
X8908D01*
X8845Y8974D02*
Y9101D01*
X8782Y8637D02*
X8908D01*
X8845Y8575D02*
Y8700D01*
X9077Y8913D02*
X9113D01*
X9095Y8894D02*
Y8931D01*
X9177Y8962D02*
X9213D01*
X9195Y8944D02*
Y8981D01*
X9177Y8762D02*
X9213D01*
X9195Y8745D02*
Y8781D01*
X9077Y8812D02*
X9113D01*
X9095Y8795D02*
Y8830D01*
X9177Y8863D02*
X9213D01*
X9195Y8844D02*
Y8880D01*
X9077Y8712D02*
X9113D01*
X9095Y8694D02*
Y8731D01*
X8609Y7188D02*
X8641D01*
X8625Y7172D02*
Y7203D01*
X8609Y6988D02*
X8641D01*
X8625Y6971D02*
Y7003D01*
X8609Y7287D02*
X8641D01*
X8625Y7272D02*
Y7304D01*
X8609Y7387D02*
X8641D01*
X8625Y7372D02*
Y7404D01*
X8609Y7088D02*
X8641D01*
X8625Y7071D02*
Y7103D01*
X9539Y7577D02*
X9571D01*
X9555Y7562D02*
Y7594D01*
X9539Y7677D02*
X9571D01*
X9555Y7661D02*
Y7694D01*
X9539Y7778D02*
X9571D01*
X9555Y7761D02*
Y7793D01*
X9599Y5768D02*
X9651D01*
X9625Y5742D02*
Y5794D01*
X9799Y5768D02*
X9851D01*
X9825Y5742D02*
Y5794D01*
X9699Y5768D02*
X9751D01*
X9725Y5742D02*
Y5794D01*
X10899Y9197D02*
X10931D01*
X10915Y9181D02*
Y9213D01*
X10899Y9097D02*
X10931D01*
X10915Y9081D02*
Y9113D01*
X10899Y8997D02*
X10931D01*
X10915Y8981D02*
Y9013D01*
X10899Y8897D02*
X10931D01*
X10915Y8881D02*
Y8913D01*
X10899Y8797D02*
X10931D01*
X10915Y8781D02*
Y8813D01*
X10899Y8697D02*
X10931D01*
X10915Y8681D02*
Y8713D01*
X10899Y8597D02*
X10931D01*
X10915Y8581D02*
Y8613D01*
X11199Y8597D02*
X11231D01*
X11215Y8581D02*
Y8613D01*
X11199Y8697D02*
X11231D01*
X11215Y8681D02*
Y8713D01*
X11199Y8797D02*
X11231D01*
X11215Y8781D02*
Y8813D01*
X11199Y8897D02*
X11231D01*
X11215Y8881D02*
Y8913D01*
X11199Y8997D02*
X11231D01*
X11215Y8981D02*
Y9013D01*
X11199Y9097D02*
X11231D01*
X11215Y9081D02*
Y9113D01*
X11199Y9197D02*
X11231D01*
X11215Y9181D02*
Y9213D01*
X10709Y7347D02*
X10741D01*
X10725Y7332D02*
Y7364D01*
X10109Y7347D02*
X10141D01*
X10125Y7332D02*
Y7364D01*
X10709Y6347D02*
X10741D01*
X10725Y6332D02*
Y6364D01*
X10709Y7548D02*
X10741D01*
X10725Y7531D02*
Y7563D01*
X10709Y7448D02*
X10741D01*
X10725Y7431D02*
Y7464D01*
X10709Y6747D02*
X10741D01*
X10725Y6732D02*
Y6764D01*
X10709Y6847D02*
X10741D01*
X10725Y6832D02*
Y6864D01*
X10109Y7948D02*
X10141D01*
X10125Y7931D02*
Y7964D01*
X10709Y7648D02*
X10741D01*
X10725Y7631D02*
Y7663D01*
X10109Y6948D02*
X10141D01*
X10125Y6931D02*
Y6964D01*
X10709Y7148D02*
X10741D01*
X10725Y7131D02*
Y7163D01*
X10709Y6948D02*
X10741D01*
X10725Y6931D02*
Y6964D01*
X10709Y7048D02*
X10741D01*
X10725Y7031D02*
Y7063D01*
X10109Y7148D02*
X10141D01*
X10125Y7131D02*
Y7163D01*
X10709Y8047D02*
X10741D01*
X10725Y8031D02*
Y8064D01*
X10709Y7948D02*
X10741D01*
X10725Y7931D02*
Y7964D01*
X10109Y6448D02*
X10141D01*
X10125Y6431D02*
Y6464D01*
X10109Y6548D02*
X10141D01*
X10125Y6531D02*
Y6563D01*
X10709Y7847D02*
X10741D01*
X10725Y7832D02*
Y7864D01*
X10709Y7747D02*
X10741D01*
X10725Y7732D02*
Y7764D01*
X10109Y7548D02*
X10141D01*
X10125Y7531D02*
Y7563D01*
X10109Y7648D02*
X10141D01*
X10125Y7631D02*
Y7663D01*
X10109Y7847D02*
X10141D01*
X10125Y7832D02*
Y7864D01*
X10109Y7747D02*
X10141D01*
X10125Y7732D02*
Y7764D01*
X10109Y7247D02*
X10141D01*
X10125Y7232D02*
Y7264D01*
X10109Y8047D02*
X10141D01*
X10125Y8031D02*
Y8064D01*
X10109Y6847D02*
X10141D01*
X10125Y6832D02*
Y6864D01*
X10109Y6148D02*
X10141D01*
X10125Y6131D02*
Y6163D01*
X10709Y6148D02*
X10741D01*
X10725Y6131D02*
Y6163D01*
X10709Y6247D02*
X10741D01*
X10725Y6232D02*
Y6264D01*
X10709Y6448D02*
X10741D01*
X10725Y6431D02*
Y6464D01*
X10109Y6747D02*
X10141D01*
X10125Y6732D02*
Y6764D01*
X10109Y6247D02*
X10141D01*
X10125Y6232D02*
Y6264D01*
X10709Y6648D02*
X10741D01*
X10725Y6631D02*
Y6663D01*
X10709Y6548D02*
X10741D01*
X10725Y6531D02*
Y6563D01*
X10109Y7448D02*
X10141D01*
X10125Y7431D02*
Y7464D01*
X10109Y7048D02*
X10141D01*
X10125Y7031D02*
Y7063D01*
X10709Y7247D02*
X10741D01*
X10725Y7232D02*
Y7264D01*
X11069Y6688D02*
X11101D01*
X11085Y6672D02*
Y6703D01*
X11069Y6787D02*
X11101D01*
X11085Y6772D02*
Y6804D01*
X11069Y6887D02*
X11101D01*
X11085Y6872D02*
Y6904D01*
X11069Y7088D02*
X11101D01*
X11085Y7071D02*
Y7103D01*
X11369Y7088D02*
X11401D01*
X11385Y7071D02*
Y7103D01*
X11369Y6988D02*
X11401D01*
X11385Y6971D02*
Y7003D01*
X11369Y6887D02*
X11401D01*
X11385Y6872D02*
Y6904D01*
X11369Y6787D02*
X11401D01*
X11385Y6772D02*
Y6804D01*
X11369Y6688D02*
X11401D01*
X11385Y6672D02*
Y6703D01*
X11069Y6988D02*
X11101D01*
X11085Y6971D02*
Y7003D01*
X11069Y6287D02*
X11101D01*
X11085Y6272D02*
Y6304D01*
X11369Y6287D02*
X11401D01*
X11385Y6272D02*
Y6304D01*
X11369Y6387D02*
X11401D01*
X11385Y6372D02*
Y6404D01*
X11069Y6387D02*
X11101D01*
X11085Y6372D02*
Y6404D01*
X9799Y6968D02*
X9831D01*
X9815Y6951D02*
Y6984D01*
X9499Y7168D02*
X9531D01*
X9515Y7152D02*
Y7183D01*
X9799Y7068D02*
X9831D01*
X9815Y7051D02*
Y7083D01*
X9799Y7168D02*
X9831D01*
X9815Y7152D02*
Y7183D01*
X9799Y7267D02*
X9831D01*
X9815Y7252D02*
Y7284D01*
X9499Y6968D02*
X9531D01*
X9515Y6951D02*
Y6984D01*
X9499Y7267D02*
X9531D01*
X9515Y7252D02*
Y7284D01*
X9499Y7068D02*
X9531D01*
X9515Y7051D02*
Y7083D01*
X12257Y8217D02*
X12293D01*
X12275Y8199D02*
Y8235D01*
X12257Y8117D02*
X12293D01*
X12275Y8099D02*
Y8135D01*
X12257Y8017D02*
X12293D01*
X12275Y7999D02*
Y8035D01*
X12257Y7917D02*
X12293D01*
X12275Y7899D02*
Y7935D01*
X12257Y7817D02*
X12293D01*
X12275Y7799D02*
Y7835D01*
X12257Y7717D02*
X12293D01*
X12275Y7699D02*
Y7735D01*
X12257Y7617D02*
X12293D01*
X12275Y7599D02*
Y7635D01*
X12257Y7517D02*
X12293D01*
X12275Y7499D02*
Y7535D01*
X12079Y6478D02*
X12111D01*
X12095Y6462D02*
Y6494D01*
X12079Y6278D02*
X12111D01*
X12095Y6262D02*
Y6294D01*
X12079Y5978D02*
X12111D01*
X12095Y5962D02*
Y5994D01*
X12079Y6178D02*
X12111D01*
X12095Y6162D02*
Y6194D01*
X12079Y6078D02*
X12111D01*
X12095Y6062D02*
Y6094D01*
X11779Y5878D02*
X11811D01*
X11795Y5862D02*
Y5894D01*
X12079Y5878D02*
X12111D01*
X12095Y5862D02*
Y5894D01*
X11779Y5978D02*
X11811D01*
X11795Y5962D02*
Y5994D01*
X11779Y6078D02*
X11811D01*
X11795Y6062D02*
Y6094D01*
X11779Y6178D02*
X11811D01*
X11795Y6162D02*
Y6194D01*
X11779Y6378D02*
X11811D01*
X11795Y6362D02*
Y6394D01*
X11779Y6278D02*
X11811D01*
X11795Y6262D02*
Y6294D01*
X11779Y6478D02*
X11811D01*
X11795Y6462D02*
Y6494D01*
X12079Y6378D02*
X12111D01*
X12095Y6362D02*
Y6394D01*
X11779Y5778D02*
X11811D01*
X11795Y5762D02*
Y5794D01*
X12079Y5778D02*
X12111D01*
X12095Y5762D02*
Y5794D01*
X9101Y7338D02*
X9129D01*
X9115Y7324D02*
Y7352D01*
X9051Y7387D02*
X9079D01*
X9065Y7373D02*
Y7402D01*
X9051Y7287D02*
X9079D01*
X9065Y7273D02*
Y7301D01*
X9031Y8278D02*
X9059D01*
X9045Y8264D02*
Y8292D01*
X9031Y8377D02*
X9059D01*
X9045Y8363D02*
Y8392D01*
X9081Y8328D02*
X9109D01*
X9095Y8314D02*
Y8342D01*
X10739Y9097D02*
X10771D01*
X10755Y9082D02*
Y9113D01*
X10339Y9097D02*
X10371D01*
X10355Y9082D02*
Y9113D01*
X10339Y8898D02*
X10371D01*
X10355Y8882D02*
Y8913D01*
X10739Y8898D02*
X10771D01*
X10755Y8882D02*
Y8913D01*
X10739Y8698D02*
X10771D01*
X10755Y8682D02*
Y8714D01*
X10339Y8698D02*
X10371D01*
X10355Y8682D02*
Y8714D01*
X11709Y8698D02*
X11741D01*
X11725Y8682D02*
Y8714D01*
X11309Y8698D02*
X11341D01*
X11325Y8682D02*
Y8714D01*
X11309Y8898D02*
X11341D01*
X11325Y8882D02*
Y8913D01*
X11709Y8898D02*
X11741D01*
X11725Y8882D02*
Y8913D01*
X11709Y9097D02*
X11741D01*
X11725Y9082D02*
Y9113D01*
X11309Y9097D02*
X11341D01*
X11325Y9082D02*
Y9113D01*
X10339Y9198D02*
X10371D01*
X10355Y9182D02*
Y9214D01*
X10739Y9198D02*
X10771D01*
X10755Y9182D02*
Y9214D01*
X10739Y8998D02*
X10771D01*
X10755Y8981D02*
Y9014D01*
X10339Y8998D02*
X10371D01*
X10355Y8981D02*
Y9014D01*
X10339Y8797D02*
X10371D01*
X10355Y8781D02*
Y8814D01*
X10739Y8797D02*
X10771D01*
X10755Y8781D02*
Y8814D01*
X11309Y8797D02*
X11341D01*
X11325Y8781D02*
Y8814D01*
X11709Y8797D02*
X11741D01*
X11725Y8781D02*
Y8814D01*
X11709Y8998D02*
X11741D01*
X11725Y8981D02*
Y9014D01*
X11309Y8998D02*
X11341D01*
X11325Y8981D02*
Y9014D01*
X11309Y9198D02*
X11341D01*
X11325Y9182D02*
Y9214D01*
X11709Y9198D02*
X11741D01*
X11725Y9182D02*
Y9214D01*
X8939Y7398D02*
X8971D01*
X8955Y7381D02*
Y7413D01*
X8939Y6997D02*
X8971D01*
X8955Y6982D02*
Y7014D01*
X8909Y8358D02*
X8941D01*
X8925Y8342D02*
Y8373D01*
X8909Y7957D02*
X8941D01*
X8925Y7942D02*
Y7973D01*
X9439Y8148D02*
X9471D01*
X9455Y8132D02*
Y8163D01*
X9839Y8148D02*
X9871D01*
X9855Y8132D02*
Y8163D01*
X9839Y7948D02*
X9871D01*
X9855Y7931D02*
Y7964D01*
X9439Y7948D02*
X9471D01*
X9455Y7931D02*
Y7964D01*
X9199Y7398D02*
X9231D01*
X9215Y7381D02*
Y7413D01*
X9199Y6997D02*
X9231D01*
X9215Y6982D02*
Y7014D01*
X9169Y7957D02*
X9201D01*
X9185Y7942D02*
Y7973D01*
X9169Y8358D02*
X9201D01*
X9185Y8342D02*
Y8373D01*
X9209Y6168D02*
X9241D01*
X9225Y6152D02*
Y6183D01*
X9209Y6568D02*
X9241D01*
X9225Y6551D02*
Y6583D01*
X9299Y6997D02*
X9331D01*
X9315Y6982D02*
Y7014D01*
X9299Y7398D02*
X9331D01*
X9315Y7381D02*
Y7413D01*
X9269Y8358D02*
X9301D01*
X9285Y8342D02*
Y8373D01*
X9269Y7957D02*
X9301D01*
X9285Y7942D02*
Y7973D01*
X9439Y8047D02*
X9471D01*
X9455Y8031D02*
Y8064D01*
X9839Y8047D02*
X9871D01*
X9855Y8031D02*
Y8064D01*
X11669Y7218D02*
X11701D01*
X11685Y7201D02*
Y7234D01*
X12069Y7218D02*
X12101D01*
X12085Y7201D02*
Y7234D01*
X12069Y7117D02*
X12101D01*
X12085Y7102D02*
Y7134D01*
X11669Y7117D02*
X11701D01*
X11685Y7102D02*
Y7134D01*
X11669Y7017D02*
X11701D01*
X11685Y7002D02*
Y7034D01*
X12069Y7017D02*
X12101D01*
X12085Y7002D02*
Y7034D01*
X12069Y6918D02*
X12101D01*
X12085Y6902D02*
Y6933D01*
X11669Y6918D02*
X11701D01*
X11685Y6902D02*
Y6933D01*
X11669Y6818D02*
X11701D01*
X11685Y6801D02*
Y6833D01*
X12069Y6818D02*
X12101D01*
X12085Y6801D02*
Y6833D01*
X12069Y8208D02*
X12101D01*
X12085Y8191D02*
Y8224D01*
X11669Y8208D02*
X11701D01*
X11685Y8191D02*
Y8224D01*
X11669Y8108D02*
X11701D01*
X11685Y8092D02*
Y8123D01*
X12069Y8108D02*
X12101D01*
X12085Y8092D02*
Y8123D01*
X12069Y8007D02*
X12101D01*
X12085Y7991D02*
Y8024D01*
X11669Y8007D02*
X11701D01*
X11685Y7991D02*
Y8024D01*
X11669Y7907D02*
X11701D01*
X11685Y7891D02*
Y7924D01*
X12069Y7907D02*
X12101D01*
X12085Y7891D02*
Y7924D01*
X12069Y7807D02*
X12101D01*
X12085Y7792D02*
Y7824D01*
X11669Y7807D02*
X11701D01*
X11685Y7792D02*
Y7824D01*
X11669Y7707D02*
X11701D01*
X11685Y7692D02*
Y7723D01*
X12069Y7707D02*
X12101D01*
X12085Y7692D02*
Y7723D01*
X12069Y7608D02*
X12101D01*
X12085Y7591D02*
Y7623D01*
X11669Y7608D02*
X11701D01*
X11685Y7591D02*
Y7623D01*
X9309Y6568D02*
X9341D01*
X9325Y6551D02*
Y6583D01*
X9309Y6168D02*
X9341D01*
X9325Y6152D02*
Y6183D01*
X12069Y7508D02*
X12101D01*
X12085Y7491D02*
Y7523D01*
X11669Y7508D02*
X11701D01*
X11685Y7491D02*
Y7523D01*
X10437Y8517D02*
X10473D01*
X10455Y8500D02*
Y8535D01*
X10537Y8517D02*
X10573D01*
X10555Y8500D02*
Y8535D01*
X10637Y8517D02*
X10673D01*
X10655Y8500D02*
Y8535D01*
X11617Y8498D02*
X11653D01*
X11635Y8479D02*
Y8516D01*
X11517Y8498D02*
X11553D01*
X11535Y8479D02*
Y8516D01*
X11417Y8498D02*
X11453D01*
X11435Y8479D02*
Y8516D01*
X11917Y8778D02*
X11953D01*
X11935Y8759D02*
Y8795D01*
X11917Y8677D02*
X11953D01*
X11935Y8660D02*
Y8696D01*
X11917Y8578D02*
X11953D01*
X11935Y8559D02*
Y8595D01*
X11917Y8977D02*
X11953D01*
X11935Y8960D02*
Y8995D01*
X11917Y9078D02*
X11953D01*
X11935Y9059D02*
Y9095D01*
X11917Y9177D02*
X11953D01*
X11935Y9160D02*
Y9196D01*
X9067Y6568D02*
X9103D01*
X9085Y6549D02*
Y6585D01*
X9067Y6168D02*
X9103D01*
X9085Y6149D02*
Y6186D01*
X8889Y6497D02*
X8941D01*
X8915Y6471D02*
Y6523D01*
X8889Y6698D02*
X8941D01*
X8915Y6672D02*
Y6723D01*
X8889Y6218D02*
X8941D01*
X8915Y6192D02*
Y6244D01*
X8889Y6017D02*
X8941D01*
X8915Y5991D02*
Y6043D01*
X10999Y9318D02*
X11031D01*
X11015Y9302D02*
Y9333D01*
X11199Y9318D02*
X11231D01*
X11215Y9302D02*
Y9333D01*
X10157Y9198D02*
X10193D01*
X10175Y9179D02*
Y9215D01*
X10157Y9097D02*
X10193D01*
X10175Y9080D02*
Y9116D01*
X10157Y8998D02*
X10193D01*
X10175Y8979D02*
Y9016D01*
X10157Y8778D02*
X10193D01*
X10175Y8759D02*
Y8795D01*
X10157Y8677D02*
X10193D01*
X10175Y8660D02*
Y8696D01*
X10157Y8578D02*
X10193D01*
X10175Y8559D02*
Y8595D01*
X10109Y6648D02*
X10141D01*
X10125Y6631D02*
Y6663D01*
X11069Y6588D02*
X11101D01*
X11085Y6571D02*
Y6603D01*
X10109Y6347D02*
X10141D01*
X10125Y6332D02*
Y6364D01*
X11069Y6488D02*
X11101D01*
X11085Y6471D02*
Y6503D01*
X11369Y6488D02*
X11401D01*
X11385Y6471D02*
Y6503D01*
X11369Y6588D02*
X11401D01*
X11385Y6571D02*
Y6603D01*
X12259Y7187D02*
X12291D01*
X12275Y7171D02*
Y7203D01*
X12259Y7087D02*
X12291D01*
X12275Y7071D02*
Y7103D01*
X12259Y6987D02*
X12291D01*
X12275Y6971D02*
Y7003D01*
X12259Y6887D02*
X12291D01*
X12275Y6871D02*
Y6903D01*
X12259Y6787D02*
X12291D01*
X12275Y6771D02*
Y6803D01*
X12259Y6687D02*
X12291D01*
X12275Y6671D02*
Y6703D01*
X12259Y6487D02*
X12291D01*
X12275Y6471D02*
Y6503D01*
X12259Y6587D02*
X12291D01*
X12275Y6571D02*
Y6603D01*
X10409Y8347D02*
X10441D01*
X10425Y8332D02*
Y8363D01*
X11279Y5874D02*
X11311D01*
X11295Y5859D02*
Y5891D01*
X10029Y5798D02*
X10061D01*
X10045Y5781D02*
Y5813D01*
X11729Y6747D02*
X11761D01*
X11745Y6732D02*
Y6764D01*
X10529Y8797D02*
X10561D01*
X10545Y8781D02*
Y8814D01*
X9679Y6834D02*
X9711D01*
X9695Y6819D02*
Y6851D01*
X11479Y8898D02*
X11511D01*
X11495Y8882D02*
Y8913D01*
X8679Y8222D02*
X8711D01*
X8695Y8207D02*
Y8238D01*
X10373Y8274D02*
X10405D01*
X10389Y8259D02*
Y8290D01*
X10200Y8448D02*
X10232D01*
X10216Y8432D02*
Y8464D01*
X10804Y7423D02*
X10836D01*
X10820Y7406D02*
Y7438D01*
X11059Y8547D02*
X11091D01*
X11075Y8531D02*
Y8564D01*
X10329Y7398D02*
X10361D01*
X10345Y7381D02*
Y7413D01*
X11129Y8898D02*
X11161D01*
X11145Y8882D02*
Y8913D01*
X10129Y8398D02*
X10161D01*
X10145Y8382D02*
Y8413D01*
X10446Y7847D02*
X10478D01*
X10462Y7832D02*
Y7864D01*
X10204Y8273D02*
X10236D01*
X10220Y8257D02*
Y8288D01*
X10329Y8148D02*
X10361D01*
X10345Y8132D02*
Y8163D01*
X10408Y5698D02*
X10440D01*
X10424Y5681D02*
Y5714D01*
X11255Y7597D02*
X11287D01*
X11271Y7582D02*
Y7614D01*
X11379Y5873D02*
X11411D01*
X11395Y5858D02*
Y5890D01*
X10109Y5747D02*
X10141D01*
X10125Y5732D02*
Y5764D01*
X10846Y6247D02*
X10878D01*
X10862Y6232D02*
Y6264D01*
X11329Y6111D02*
X11361D01*
X11345Y6095D02*
Y6128D01*
X11191Y7317D02*
X11223D01*
X11207Y7300D02*
Y7332D01*
X11204Y7698D02*
X11236D01*
X11220Y7681D02*
Y7714D01*
X10579Y8148D02*
X10611D01*
X10595Y8132D02*
Y8163D01*
X10379Y6183D02*
X10411D01*
X10395Y6168D02*
Y6200D01*
X10629Y6433D02*
X10661D01*
X10645Y6418D02*
Y6450D01*
X9817Y6648D02*
X9849D01*
X9833Y6631D02*
Y6663D01*
X11029Y9113D02*
X11061D01*
X11045Y9097D02*
Y9128D01*
X10304Y6597D02*
X10336D01*
X10320Y6582D02*
Y6614D01*
X10629Y5648D02*
X10661D01*
X10645Y5631D02*
Y5663D01*
X11185Y6203D02*
X11217D01*
X11201Y6188D02*
Y6220D01*
X10929Y5997D02*
X10961D01*
X10945Y5982D02*
Y6014D01*
X10329Y7097D02*
X10361D01*
X10345Y7082D02*
Y7114D01*
X10329Y7948D02*
X10361D01*
X10345Y7931D02*
Y7964D01*
X9979Y8748D02*
X10011D01*
X9995Y8731D02*
Y8764D01*
X9679Y6497D02*
X9711D01*
X9695Y6482D02*
Y6514D01*
X8804Y6847D02*
X8836D01*
X8820Y6832D02*
Y6864D01*
X9139Y6798D02*
X9171D01*
X9155Y6781D02*
Y6813D01*
X9139Y6398D02*
X9171D01*
X9155Y6381D02*
Y6413D01*
X10040Y6398D02*
X10072D01*
X10056Y6381D02*
Y6413D01*
X10479Y8198D02*
X10511D01*
X10495Y8182D02*
Y8214D01*
X10529Y7048D02*
X10561D01*
X10545Y7031D02*
Y7063D01*
X8979Y9323D02*
X9011D01*
X8995Y9307D02*
Y9339D01*
M02*
