%FSLAX23Y23*%
%MOIN*%
G70*
G01*
G75*
%ADD10C,0.040*%
%ADD11C,0.050*%
%ADD12C,0.060*%
%ADD13C,0.059*%
%ADD14R,0.050X0.050*%
%ADD15C,0.071*%
%ADD16C,0.150*%
%ADD17C,0.062*%
%ADD18R,0.062X0.062*%
%ADD19O,0.079X0.098*%
%ADD20R,0.079X0.098*%
%ADD21R,0.063X0.063*%
%ADD22C,0.063*%
%ADD23C,0.098*%
%ADD24R,0.098X0.098*%
D10*
X10845Y6787D02*
Y7097D01*
X10795Y7148D02*
X10845Y7097D01*
X8625Y6988D02*
Y6997D01*
X9695Y6028D02*
X9725D01*
X9815Y5878D02*
X11195D01*
X11315Y5997D01*
X11395D01*
X11545Y6148D01*
X11575D01*
Y6167D01*
X11845Y9177D02*
X11935D01*
X11845D02*
Y9177D01*
X11825Y9198D02*
X11845Y9177D01*
X11795Y9198D02*
X11825D01*
X11795Y9198D02*
Y9198D01*
X11725Y9198D02*
X11795D01*
X10355Y8698D02*
Y8797D01*
X10295Y9198D02*
X10355D01*
X10295D02*
Y9198D01*
X10245D02*
X10295D01*
X10245Y9198D02*
Y9198D01*
X10175Y9198D02*
X10245D01*
X10355Y9097D02*
Y9198D01*
X11935Y9078D02*
X11975Y9038D01*
X12275D01*
X11918Y8380D02*
X12275Y8738D01*
X10692Y8380D02*
X11918D01*
X10555Y8517D02*
X10692Y8380D01*
X9285Y8318D02*
Y8358D01*
X9005Y7707D02*
Y7747D01*
Y7707D02*
X9315Y7398D01*
X9855Y7948D02*
Y8047D01*
X8925Y7957D02*
X8986D01*
X8995Y7949D01*
Y7948D02*
Y7949D01*
Y7948D02*
X9095Y7847D01*
X10125D01*
Y7847D02*
Y7847D01*
X9555Y7548D02*
Y7577D01*
X10125Y7548D02*
Y7548D01*
X9995Y6997D02*
X10045Y6948D01*
X11215Y9248D02*
Y9318D01*
X11195Y9227D02*
X11215Y9248D01*
X9795Y8148D02*
X9855D01*
X9795D02*
Y8148D01*
X9655D02*
X9795D01*
X9419Y7923D02*
X9430D01*
X9395Y7946D02*
X9419Y7923D01*
X9395Y7946D02*
Y7948D01*
X11635Y8498D02*
X11695D01*
Y8498D01*
X11791D01*
X11870Y8576D01*
Y8578D01*
X11935D01*
X11085Y6287D02*
X11120Y6323D01*
X11160D01*
X11235Y6398D02*
Y7157D01*
X11065Y7327D02*
X11235Y7157D01*
X11065Y7327D02*
Y7407D01*
X10945Y6847D02*
X11085Y6988D01*
X10945Y6548D02*
Y6847D01*
X10845Y6448D02*
X10945Y6548D01*
X10770Y6448D02*
X10845D01*
X10725Y6448D02*
X10770D01*
X8625Y8267D02*
Y8297D01*
X8845D02*
X8920Y8222D01*
X8941D01*
X8995Y8276D01*
Y8278D01*
X9045D01*
X12275Y6987D02*
X12275Y6987D01*
X12245D02*
X12275D01*
X12125Y7117D02*
X12245Y6997D01*
X12085Y7117D02*
X12125D01*
X12275Y6787D02*
X12275Y6787D01*
X12245D02*
X12275D01*
X12125Y6918D02*
X12245Y6798D01*
X12085Y6918D02*
X12125D01*
X10425Y8347D02*
X10445Y8328D01*
X11965D01*
X12275Y8637D01*
X10355Y8998D02*
X10395D01*
X10355Y8898D02*
X10395Y8938D01*
X12275Y8017D02*
X12275Y8017D01*
Y8023D01*
X12160D02*
X12275D01*
X12145Y8007D02*
X12160Y8023D01*
X12145Y8007D02*
Y8007D01*
X12085Y8007D02*
X12145D01*
X12275Y7617D02*
X12275Y7617D01*
Y7622D01*
X12160D02*
X12275D01*
X12145Y7608D02*
X12160Y7622D01*
X12145Y7608D02*
Y7608D01*
X12085Y7608D02*
X12145D01*
X11795Y6178D02*
X11795Y6178D01*
X11790Y6173D02*
X11795Y6178D01*
X11790Y6173D02*
X11790D01*
X11795Y6168D01*
X11750Y6122D02*
X11795Y6168D01*
X11700Y6122D02*
X11750D01*
X11675Y6148D02*
X11700Y6122D01*
X11675Y6148D02*
Y6167D01*
X12095Y6178D02*
X12095Y6178D01*
X12090Y6173D02*
X12095Y6178D01*
X12090Y6173D02*
X12090D01*
X12285Y5977D01*
X11245Y5825D02*
X11295Y5874D01*
X10072Y5825D02*
X11245D01*
X10045Y5798D02*
X10072Y5825D01*
X11545Y6548D02*
X11745Y6747D01*
X11410Y6548D02*
X11545D01*
X11385Y6573D02*
X11410Y6548D01*
X11385Y6573D02*
Y6588D01*
X11045Y6448D02*
X11085Y6488D01*
X11045Y6448D02*
Y6448D01*
X11020D02*
X11045D01*
X11020Y6173D02*
Y6448D01*
X10838Y5990D02*
X11020Y6173D01*
X10327Y5990D02*
X10838D01*
X10195Y6122D02*
X10327Y5990D01*
X10195Y6122D02*
Y6323D01*
X10170Y6347D02*
X10195Y6323D01*
X10125Y6347D02*
X10170D01*
X10125Y6347D02*
Y6347D01*
X11170Y9197D02*
Y9198D01*
X11028D02*
X11170D01*
X10962Y9264D02*
X11028Y9198D01*
X9195Y9264D02*
X10962D01*
X9095Y9163D02*
X9195Y9264D01*
X9095Y8913D02*
Y9163D01*
X11215Y9318D02*
X12025D01*
X12220Y9123D01*
X12295D01*
X12345Y9073D01*
Y6472D02*
Y9073D01*
X12295Y6423D02*
X12345Y6472D01*
X12245Y6423D02*
X12295D01*
X12170Y6497D02*
X12245Y6423D01*
X12164Y6497D02*
X12170D01*
X12145Y6478D02*
X12164Y6497D01*
X12145Y6478D02*
Y6478D01*
X12095Y6478D02*
X12145D01*
X8651Y8068D02*
X8670Y8049D01*
X8566Y8132D02*
Y8648D01*
X8831Y8913D01*
X9095D01*
X9275Y8047D02*
X9325Y7997D01*
X9285Y7957D02*
X9325Y7997D01*
X9815Y7247D02*
Y7267D01*
X9820Y7273D02*
X9900D01*
X10125Y7048D01*
Y7048D02*
Y7048D01*
X10695Y8797D02*
X10755D01*
X10695D02*
Y8797D01*
X11325D02*
X11420Y8703D01*
Y8623D02*
Y8703D01*
X11245Y8448D02*
X11420Y8623D01*
X10789Y8448D02*
X11245D01*
X10720Y8517D02*
X10789Y8448D01*
X10720Y8517D02*
Y8517D01*
X10655D02*
X10720D01*
X11325Y9198D02*
X11395Y9127D01*
Y9068D02*
Y9127D01*
X11325Y8998D02*
X11395Y9068D01*
X12275Y7187D02*
X12275Y7187D01*
Y7173D02*
Y7187D01*
X12270Y7173D02*
X12275D01*
X12045Y7398D02*
X12270Y7173D01*
X11365Y7398D02*
X12045D01*
X11365D02*
Y7407D01*
X9695Y6834D02*
X9745Y6785D01*
X9895D01*
X9958Y6847D01*
X10125D01*
Y6847D02*
Y6847D01*
X11395Y8898D02*
X11495D01*
X11395Y8898D02*
Y8898D01*
X11325Y8898D02*
X11395D01*
X11272Y6247D02*
X11273D01*
X11270Y6246D02*
X11272Y6247D01*
X11270Y6095D02*
Y6246D01*
X11106Y5931D02*
X11270Y6095D01*
X10045Y5931D02*
X11106D01*
X9853Y6122D02*
X10045Y5931D01*
X9714Y6122D02*
X9853D01*
X9539Y5948D02*
X9714Y6122D01*
X9040Y5948D02*
X9539D01*
X8970Y6017D02*
X9040Y5948D01*
X8915Y6017D02*
X8970D01*
X10125Y8047D02*
Y8047D01*
X9945D02*
X10125D01*
X9945Y8047D02*
Y8047D01*
X9855Y8047D02*
X9945D01*
X9825Y5768D02*
X9825Y5777D01*
X9845D01*
Y5722D02*
Y5777D01*
X9770Y5648D02*
X9845Y5722D01*
X9370Y5648D02*
X9770D01*
X9285Y5733D02*
X9370Y5648D01*
X9285Y5733D02*
Y5787D01*
X8695Y8222D02*
X8795Y8123D01*
X9090D01*
X9285Y8318D01*
X12012Y8274D02*
X12275Y8538D01*
X10389Y8274D02*
X12012D01*
X10166Y8498D02*
X10216Y8448D01*
X10035Y8498D02*
X10166D01*
X9870Y8663D02*
X10035Y8498D01*
X9870Y8663D02*
Y8722D01*
X10045Y8898D01*
Y9023D01*
X10120Y9097D01*
X10175D01*
X11535Y8498D02*
X11660Y8623D01*
X11745D01*
X11795Y8672D01*
Y8797D01*
X11870Y8873D01*
X12240D01*
X12275Y8837D01*
X11685Y6798D02*
Y6818D01*
X11535Y6648D02*
X11685Y6798D01*
X11410Y6648D02*
X11535D01*
X11385Y6673D02*
X11410Y6648D01*
X11385Y6673D02*
Y6688D01*
X11624Y6918D02*
X11685D01*
X11620Y6922D02*
X11624Y6918D01*
X11620Y6922D02*
Y6923D01*
X11445Y6747D02*
X11620Y6923D01*
X11410Y6747D02*
X11445D01*
X11385Y6773D02*
X11410Y6747D01*
X11385Y6773D02*
Y6787D01*
X11624Y7017D02*
X11685D01*
X11620Y7022D02*
X11624Y7017D01*
X11620Y7022D02*
Y7023D01*
X11445Y6847D02*
X11620Y7023D01*
X11410Y6847D02*
X11445D01*
X11385Y6872D02*
X11410Y6847D01*
X11385Y6872D02*
Y6887D01*
X11615Y7117D02*
X11685D01*
X11595Y7097D02*
X11615Y7117D01*
X11595Y7097D02*
Y7097D01*
X11445Y6948D02*
X11595Y7097D01*
X11410Y6948D02*
X11445D01*
X11385Y6972D02*
X11410Y6948D01*
X11385Y6972D02*
Y6988D01*
X11615Y7218D02*
X11685D01*
X11595Y7198D02*
X11615Y7218D01*
X11595Y7198D02*
Y7198D01*
X11435Y7198D02*
X11595D01*
X11385Y7148D02*
X11435Y7198D01*
X11385Y7088D02*
Y7148D01*
X11604Y7707D02*
X11685D01*
X11595Y7699D02*
X11604Y7707D01*
X11595Y7698D02*
Y7699D01*
X11545Y7648D02*
X11595Y7698D01*
X11415Y7648D02*
X11545D01*
X11365Y7698D02*
X11415Y7648D01*
X11365Y7698D02*
Y7707D01*
X11604Y7807D02*
X11685D01*
X11595Y7799D02*
X11604Y7807D01*
X11595Y7798D02*
Y7799D01*
X11520Y7722D02*
X11595Y7798D01*
X11440Y7722D02*
X11520D01*
X11365Y7798D02*
X11440Y7722D01*
X11365Y7798D02*
Y7807D01*
X11604Y8007D02*
X11685D01*
X11595Y7998D02*
X11604Y8007D01*
X11595Y7997D02*
Y7998D01*
X11545Y7948D02*
X11595Y7997D01*
X11415Y7948D02*
X11545D01*
X11365Y7997D02*
X11415Y7948D01*
X11365Y7997D02*
Y8007D01*
X11604Y8108D02*
X11685D01*
X11595Y8099D02*
X11604Y8108D01*
X11595Y8097D02*
Y8099D01*
X11520Y8023D02*
X11595Y8097D01*
X11440Y8023D02*
X11520D01*
X11365Y8097D02*
X11440Y8023D01*
X11365Y8097D02*
Y8108D01*
X11795Y5978D02*
X11795Y5978D01*
X11790Y5972D02*
X11795Y5978D01*
X11770Y5972D02*
X11790D01*
X11695Y6048D02*
X11770Y5972D01*
X11645Y6048D02*
X11695D01*
X11595Y5997D02*
X11645Y6048D01*
X11575Y5967D02*
Y5997D01*
X10725Y7648D02*
Y7648D01*
X10770D01*
X10795Y7622D01*
Y7448D02*
Y7622D01*
Y7448D02*
X10820Y7423D01*
X11075Y8547D02*
X11195Y8667D01*
Y8718D01*
X11215Y8697D01*
X11215Y8697D01*
X10725Y7747D02*
Y7747D01*
X10695D02*
X10725D01*
X10345Y7398D02*
X10695Y7747D01*
X11145Y8898D02*
X11170D01*
Y8897D02*
Y8898D01*
Y8897D02*
X11215D01*
X10725Y7823D02*
Y7847D01*
X10570Y7823D02*
X10725D01*
X10470Y7722D02*
X10570Y7823D01*
X10220Y7722D02*
X10470D01*
X10195Y7747D02*
X10220Y7722D01*
X10195Y7747D02*
Y8097D01*
X10295Y8198D01*
Y8498D01*
X10395Y8597D01*
X10745D01*
X10820Y8523D01*
X10952D01*
X11070Y8641D01*
Y8972D01*
X11170Y9073D01*
Y9097D01*
X11215D01*
X9195Y8762D02*
X9680D01*
X10045Y8398D01*
X10145D01*
X10462Y7847D02*
X10562Y7948D01*
X10725D01*
Y7948D02*
Y7948D01*
X8995Y8712D02*
X9095Y8812D01*
X8995Y8663D02*
Y8712D01*
Y8663D02*
X9035Y8623D01*
X9720D01*
X10070Y8273D01*
X10220D01*
X10270Y8073D02*
X10345Y8148D01*
X10270Y7893D02*
Y8073D01*
Y7893D02*
X10316Y7847D01*
X10366D01*
X10524Y8005D01*
X10725D02*
Y8047D01*
X11065Y7497D02*
Y7508D01*
Y7497D02*
X11145D01*
X11345Y7298D01*
X11770D01*
X11895Y7173D01*
Y5768D02*
Y7173D01*
X11845Y5719D02*
X11895Y5768D01*
X10445Y5719D02*
X11845D01*
X10424Y5698D02*
X10445Y5719D01*
X11065Y7597D02*
Y7608D01*
Y7597D02*
X11271D01*
X11293Y5772D02*
X11395Y5873D01*
X10169Y5772D02*
X11293D01*
X10145Y5747D02*
X10169Y5772D01*
X10125Y5747D02*
X10145D01*
X10725Y6148D02*
Y6148D01*
X10825Y6247D01*
X10862D01*
X11326Y6130D02*
X11345Y6111D01*
X11326Y6130D02*
Y7198D01*
X11207Y7317D02*
X11326Y7198D01*
X11065Y7698D02*
X11220D01*
X11065D02*
Y7707D01*
X11020Y7852D02*
X11065Y7807D01*
X10995Y7852D02*
X11020D01*
X10995D02*
Y7997D01*
X10824Y8168D02*
X10995Y7997D01*
X10616Y8168D02*
X10824D01*
X10595Y8148D02*
X10616Y8168D01*
X10395Y6183D02*
X10645Y6433D01*
X9433Y6648D02*
X9833D01*
X9083Y6997D02*
X9433Y6648D01*
X10915Y8597D02*
X10915Y8597D01*
X10915Y8597D02*
Y8597D01*
X10945D01*
X10995Y8648D01*
Y9062D01*
X11045Y9113D01*
X10125Y6448D02*
Y6448D01*
X9850Y6722D02*
X10125Y6448D01*
X9454Y6722D02*
X9850D01*
X9195Y6982D02*
X9454Y6722D01*
X9195Y6982D02*
Y6997D01*
X9215D01*
X10725Y6548D02*
Y6548D01*
X10675Y6597D02*
X10725Y6548D01*
X10320Y6597D02*
X10675D01*
X10645Y5648D02*
X11895D01*
X11995Y5747D01*
Y5923D01*
X12045Y5972D01*
X12095D01*
Y5978D01*
X10995Y5997D02*
X11201Y6203D01*
X10945Y5997D02*
X10995D01*
X10345Y7097D02*
Y7173D01*
X10170Y7347D02*
X10345Y7173D01*
X10125Y7347D02*
X10170D01*
X11085Y6787D02*
X11170Y6872D01*
Y7097D01*
X10895Y7372D02*
X11170Y7097D01*
X10895Y7372D02*
Y7972D01*
X10752Y8116D02*
X10895Y7972D01*
X10695Y8116D02*
X10752D01*
X10652Y8073D02*
X10695Y8116D01*
X10470Y8073D02*
X10652D01*
X10345Y7948D02*
X10470Y8073D01*
X11085Y6573D02*
Y6588D01*
X11045Y6573D02*
X11085D01*
X10945Y6472D02*
X11045Y6573D01*
X10945Y6202D02*
Y6472D01*
X10790Y6048D02*
X10945Y6202D01*
X10345Y6048D02*
X10790D01*
X10295Y6097D02*
X10345Y6048D01*
X10295Y6097D02*
Y6523D01*
X10170Y6648D02*
X10295Y6523D01*
X10125Y6648D02*
X10170D01*
X9325Y7997D02*
X9395D01*
Y7972D02*
Y7997D01*
X8625Y7088D02*
X8656D01*
X8670Y7074D01*
Y7073D02*
Y7074D01*
Y7073D02*
X9345D01*
X9420Y6997D01*
X9315D02*
X9420D01*
X9470Y7049D02*
X9489Y7068D01*
X9495Y7073D02*
X9620D01*
X10165Y8578D02*
X10175D01*
X10095Y8648D02*
X10165Y8578D01*
X10095Y8847D02*
X10175Y8927D01*
Y8998D01*
X10645Y8898D02*
X10695Y8948D01*
Y8972D01*
X10720Y8998D01*
X10755D01*
X9295Y6497D02*
X9695D01*
X8915Y6698D02*
X8990Y6622D01*
X8995D01*
Y6622D02*
Y6622D01*
Y6622D02*
X9050Y6568D01*
X9170Y6548D02*
Y6549D01*
X9164Y6548D02*
X9170D01*
X9145Y6567D02*
X9164Y6548D01*
X9145Y6567D02*
Y6568D01*
X10915Y9097D02*
X10915Y9097D01*
Y9097D01*
X10820D02*
X10915D01*
X10820Y9097D02*
Y9097D01*
X10755Y9097D02*
X10820D01*
X10870Y8897D02*
X10915D01*
X10870D02*
Y8898D01*
X10820D02*
X10870D01*
X10820Y8898D02*
Y8898D01*
X10755Y8898D02*
X10820D01*
X10870Y8697D02*
X10915D01*
X10870D02*
Y8698D01*
X10820D02*
X10870D01*
X10820Y8698D02*
Y8698D01*
X10755Y8698D02*
X10820D01*
X8820Y6847D02*
X8870Y6798D01*
X9155D01*
Y6398D02*
X10056D01*
X9245Y6068D02*
X9285Y6028D01*
X9245Y6068D02*
Y6068D01*
X9215Y6097D02*
X9245Y6068D01*
X9195Y6097D02*
X9215D01*
X9145Y6148D02*
X9195Y6097D01*
X9145Y6148D02*
Y6148D01*
X9126Y6168D02*
X9145Y6148D01*
X9085Y6168D02*
X9126D01*
X9050Y7273D02*
X9065Y7287D01*
X8684Y7273D02*
X9050D01*
X8670Y7286D02*
X8684Y7273D01*
X8625Y7287D02*
X8670D01*
X12275Y6687D02*
X12275Y6687D01*
X12245D02*
X12275D01*
X12235Y6698D02*
X12245Y6688D01*
X12135Y6698D02*
X12235D01*
X12085Y6747D02*
X12135Y6698D01*
X12085Y6747D02*
Y6818D01*
X10295Y8898D02*
X10355D01*
X10245Y8847D02*
X10295Y8898D01*
X10245Y8802D02*
Y8847D01*
X10220Y8778D02*
X10245Y8802D01*
X10175Y8778D02*
X10220D01*
X11034Y8208D02*
X11065D01*
X11020Y8222D02*
X11034Y8208D01*
X11020Y8222D02*
Y8222D01*
X10519D02*
X11020D01*
X10495Y8198D02*
X10519Y8222D01*
X10545Y7048D02*
X10725D01*
Y7048D02*
Y7048D01*
X12145Y6318D02*
X12285Y6177D01*
X12145Y6318D02*
Y6328D01*
X12095Y6378D02*
X12145Y6328D01*
X8995Y9323D02*
X10941D01*
X10945Y9318D01*
Y9318D02*
Y9318D01*
Y9318D02*
X11015D01*
X8625Y7188D02*
Y7198D01*
X8566Y7256D02*
X8625Y7198D01*
X8566Y7256D02*
Y7448D01*
X8845D01*
X8895Y7398D01*
X8955D01*
X10295Y6948D02*
X10495Y7148D01*
X9110Y5872D02*
X9570D01*
X9085Y5847D02*
X9110Y5872D01*
X9085Y5787D02*
Y5847D01*
X9725Y5768D02*
X9725Y5758D01*
X9720D02*
X9725D01*
X9720D02*
Y5798D01*
X9515Y6948D02*
Y6968D01*
Y6948D02*
X9795D01*
X9815Y6968D01*
X9470Y7048D02*
Y7049D01*
X9489Y7068D02*
X9490D01*
X9515D01*
X9420Y6997D02*
X9470Y7048D01*
X9490Y7068D01*
X9495Y7073D01*
X9620D02*
X9795Y7247D01*
X9820Y7273D01*
X8650Y8047D02*
X8670D01*
X9275D01*
X8625Y8068D02*
X8630D01*
X8651D01*
X8670Y8047D02*
Y8049D01*
X8630Y8068D02*
X8650Y8047D01*
X8566Y8132D02*
X8630Y8068D01*
X9395Y7972D02*
X9420Y7948D01*
X9395D02*
X9420D01*
X9455D01*
X9430Y7923D02*
X9455Y7948D01*
X9655Y8148D01*
X9795Y7247D02*
X9815D01*
X11170Y9197D02*
X11195D01*
X11215D01*
X11195D02*
Y9227D01*
X9050Y6568D02*
X9085D01*
X9145D01*
X9244Y6549D02*
X9295Y6497D01*
X9225Y6568D02*
X9244Y6549D01*
X9170D02*
X9244D01*
X10095Y8648D02*
Y8748D01*
Y8847D01*
X9995Y8748D02*
X10095D01*
X10545Y8797D02*
X10645D01*
X10695D01*
X10645D02*
Y8898D01*
X9735Y7548D02*
Y7577D01*
X9555Y7548D02*
X9735D01*
X10125D01*
X11160Y6323D02*
X11179Y6341D01*
X11235Y6398D01*
X11179Y6341D02*
X11273Y6247D01*
X8670Y7286D02*
Y7287D01*
X9285Y8318D02*
X9635D01*
X8625Y8297D02*
X8845D01*
X12245Y6987D02*
Y6997D01*
Y6787D02*
Y6798D01*
Y6687D02*
Y6688D01*
X10395Y8938D02*
Y8998D01*
X11575Y5997D02*
X11595D01*
X10524Y8005D02*
X10725D01*
X8625Y6997D02*
X8955D01*
X9083D01*
X9608Y5910D02*
X9720Y5798D01*
X9570Y5872D02*
X9608Y5910D01*
X9695Y5997D01*
Y6028D01*
X9695Y5997D02*
X9815Y5878D01*
X9695Y5997D02*
X9695Y5997D01*
X9815Y6997D02*
X9995D01*
X10045Y6948D02*
X10125D01*
X10295D01*
X9815Y6968D02*
Y6997D01*
Y7068D01*
Y7168D01*
X10495Y7148D02*
X10725D01*
X10795D01*
D11*
X11065Y7807D02*
D03*
Y7907D02*
D03*
Y8007D02*
D03*
Y8208D02*
D03*
X11365D02*
D03*
Y8108D02*
D03*
Y8007D02*
D03*
Y7907D02*
D03*
Y7807D02*
D03*
X11065Y8108D02*
D03*
Y7407D02*
D03*
X11365D02*
D03*
Y7608D02*
D03*
Y7707D02*
D03*
Y7508D02*
D03*
X11065Y7608D02*
D03*
Y7508D02*
D03*
Y7707D02*
D03*
X8625Y8267D02*
D03*
Y8167D02*
D03*
Y8068D02*
D03*
Y7968D02*
D03*
X9735Y7677D02*
D03*
Y7577D02*
D03*
X12285Y6077D02*
D03*
Y6177D02*
D03*
X12275Y8538D02*
D03*
Y8637D02*
D03*
Y8738D02*
D03*
Y8837D02*
D03*
Y8938D02*
D03*
X8625Y7188D02*
D03*
Y6988D02*
D03*
Y7287D02*
D03*
Y7088D02*
D03*
X9555Y7577D02*
D03*
Y7677D02*
D03*
X10915Y9097D02*
D03*
X10915Y8997D02*
D03*
Y8897D02*
D03*
Y8797D02*
D03*
Y8697D02*
D03*
Y8597D02*
D03*
X11215D02*
D03*
Y8697D02*
D03*
Y8797D02*
D03*
Y8897D02*
D03*
Y8997D02*
D03*
Y9097D02*
D03*
Y9197D02*
D03*
X10725Y7347D02*
D03*
X10125D02*
D03*
X10725Y6347D02*
D03*
Y7548D02*
D03*
Y7448D02*
D03*
Y6747D02*
D03*
Y6847D02*
D03*
X10125Y7948D02*
D03*
X10725Y7648D02*
D03*
X10125Y6948D02*
D03*
X10725Y7148D02*
D03*
Y6948D02*
D03*
Y7048D02*
D03*
X10125Y7148D02*
D03*
X10725Y8047D02*
D03*
Y7948D02*
D03*
X10125Y6448D02*
D03*
Y6548D02*
D03*
X10725Y7847D02*
D03*
Y7747D02*
D03*
X10125Y7548D02*
D03*
Y7648D02*
D03*
Y7847D02*
D03*
Y7747D02*
D03*
Y7247D02*
D03*
Y6847D02*
D03*
Y6148D02*
D03*
X10725D02*
D03*
Y6247D02*
D03*
Y6448D02*
D03*
X10125Y6747D02*
D03*
Y6247D02*
D03*
X10725Y6648D02*
D03*
Y6548D02*
D03*
X10125Y7448D02*
D03*
Y7048D02*
D03*
X10725Y7247D02*
D03*
X11085Y6688D02*
D03*
Y6787D02*
D03*
Y6887D02*
D03*
Y7088D02*
D03*
X11385D02*
D03*
Y6988D02*
D03*
Y6887D02*
D03*
Y6787D02*
D03*
Y6688D02*
D03*
X11085Y6988D02*
D03*
Y6287D02*
D03*
X11385D02*
D03*
Y6387D02*
D03*
X11085D02*
D03*
X9815Y6968D02*
D03*
X9515Y7168D02*
D03*
X9815Y7068D02*
D03*
Y7168D02*
D03*
Y7267D02*
D03*
X9515Y6968D02*
D03*
Y7068D02*
D03*
X12095Y6478D02*
D03*
Y6278D02*
D03*
Y5978D02*
D03*
Y6178D02*
D03*
Y6078D02*
D03*
X11795Y5878D02*
D03*
X12095D02*
D03*
X11795Y5978D02*
D03*
Y6078D02*
D03*
Y6178D02*
D03*
Y6378D02*
D03*
Y6278D02*
D03*
X12095Y6378D02*
D03*
X11795Y5778D02*
D03*
X12095D02*
D03*
X9115Y7338D02*
D03*
X9065Y7387D02*
D03*
Y7287D02*
D03*
X9045Y8278D02*
D03*
Y8377D02*
D03*
X9095Y8328D02*
D03*
X10125Y6648D02*
D03*
X11085Y6588D02*
D03*
X10125Y6347D02*
D03*
X11085Y6488D02*
D03*
X11385D02*
D03*
Y6588D02*
D03*
X12275Y7087D02*
D03*
Y6987D02*
D03*
Y6887D02*
D03*
Y6787D02*
D03*
Y6687D02*
D03*
Y6487D02*
D03*
Y6587D02*
D03*
D12*
X9725Y6028D02*
D03*
X9525Y6028D02*
D03*
X11675Y5967D02*
D03*
X11675Y6167D02*
D03*
X11575Y5967D02*
D03*
X11575Y6167D02*
D03*
X11675Y6267D02*
D03*
X11675Y6467D02*
D03*
X11575Y6468D02*
D03*
X11575Y6268D02*
D03*
D13*
X10845Y6588D02*
D03*
Y6787D02*
D03*
X9785Y6847D02*
D03*
X9585D02*
D03*
X9085Y6028D02*
D03*
X9285D02*
D03*
D14*
X8625Y8368D02*
D03*
X9735Y7778D02*
D03*
X12285Y5977D02*
D03*
X12275Y9038D02*
D03*
X8625Y7387D02*
D03*
X9555Y7778D02*
D03*
X10915Y9197D02*
D03*
X10125Y8047D02*
D03*
X9515Y7267D02*
D03*
X11795Y6478D02*
D03*
X12275Y7187D02*
D03*
D15*
X9205Y7747D02*
D03*
X9005D02*
D03*
X9635Y8318D02*
D03*
Y8517D02*
D03*
X9285Y5787D02*
D03*
X9085D02*
D03*
D16*
X8845Y9038D02*
D03*
Y8637D02*
D03*
D17*
X9095Y8913D02*
D03*
X9195Y8762D02*
D03*
X9095Y8812D02*
D03*
X9195Y8863D02*
D03*
X9095Y8712D02*
D03*
X10755Y9097D02*
D03*
X10355Y9097D02*
D03*
Y8898D02*
D03*
X10755Y8898D02*
D03*
Y8698D02*
D03*
X10355Y8698D02*
D03*
X11725Y8698D02*
D03*
X11325Y8698D02*
D03*
Y8898D02*
D03*
X11725Y8898D02*
D03*
Y9097D02*
D03*
X11325Y9097D02*
D03*
X10355Y9198D02*
D03*
X10755Y9198D02*
D03*
Y8998D02*
D03*
X10355Y8998D02*
D03*
Y8797D02*
D03*
X10755Y8797D02*
D03*
X11325Y8797D02*
D03*
X11725Y8797D02*
D03*
Y8998D02*
D03*
X11325Y8998D02*
D03*
Y9198D02*
D03*
X11725Y9198D02*
D03*
X8955Y7398D02*
D03*
X8955Y6997D02*
D03*
X8925Y8358D02*
D03*
X8925Y7957D02*
D03*
X9455Y8148D02*
D03*
X9855Y8148D02*
D03*
Y7948D02*
D03*
X9455Y7948D02*
D03*
X9215Y7398D02*
D03*
X9215Y6997D02*
D03*
X9185Y7957D02*
D03*
X9185Y8358D02*
D03*
X9225Y6168D02*
D03*
X9225Y6568D02*
D03*
X9315Y6997D02*
D03*
X9315Y7398D02*
D03*
X9285Y8358D02*
D03*
X9285Y7957D02*
D03*
X9455Y8047D02*
D03*
X9855Y8047D02*
D03*
X11685Y7218D02*
D03*
X12085Y7218D02*
D03*
Y7117D02*
D03*
X11685Y7117D02*
D03*
Y7017D02*
D03*
X12085Y7017D02*
D03*
Y6918D02*
D03*
X11685Y6918D02*
D03*
Y6818D02*
D03*
X12085Y6818D02*
D03*
Y8208D02*
D03*
X11685Y8208D02*
D03*
Y8108D02*
D03*
X12085Y8108D02*
D03*
Y8007D02*
D03*
X11685Y8007D02*
D03*
Y7907D02*
D03*
X12085Y7907D02*
D03*
Y7807D02*
D03*
X11685Y7807D02*
D03*
Y7707D02*
D03*
X12085Y7707D02*
D03*
Y7608D02*
D03*
X11685Y7608D02*
D03*
X9325Y6568D02*
D03*
X9325Y6168D02*
D03*
X12085Y7508D02*
D03*
X11685Y7508D02*
D03*
X10455Y8517D02*
D03*
X10555D02*
D03*
X10655Y8517D02*
D03*
X11635Y8498D02*
D03*
X11535Y8498D02*
D03*
X11435D02*
D03*
X11935Y8778D02*
D03*
Y8677D02*
D03*
X11935Y8578D02*
D03*
Y8977D02*
D03*
X11935Y9078D02*
D03*
Y9177D02*
D03*
X9085Y6568D02*
D03*
X9085Y6168D02*
D03*
X11015Y9318D02*
D03*
X11215Y9318D02*
D03*
X10175Y9198D02*
D03*
Y9097D02*
D03*
X10175Y8998D02*
D03*
X10175Y8778D02*
D03*
Y8677D02*
D03*
X10175Y8578D02*
D03*
X10425Y8347D02*
D03*
X11295Y5874D02*
D03*
X10045Y5798D02*
D03*
X11745Y6747D02*
D03*
X10545Y8797D02*
D03*
X9695Y6834D02*
D03*
X11495Y8898D02*
D03*
X8695Y8222D02*
D03*
X10389Y8274D02*
D03*
X10216Y8448D02*
D03*
X10820Y7423D02*
D03*
X11075Y8547D02*
D03*
X10345Y7398D02*
D03*
X11145Y8898D02*
D03*
X10145Y8398D02*
D03*
X10462Y7847D02*
D03*
X10220Y8273D02*
D03*
X10345Y8148D02*
D03*
X10424Y5698D02*
D03*
X11271Y7597D02*
D03*
X11395Y5873D02*
D03*
X10125Y5747D02*
D03*
X10862Y6247D02*
D03*
X11345Y6111D02*
D03*
X11207Y7317D02*
D03*
X11220Y7698D02*
D03*
X10595Y8148D02*
D03*
X10395Y6183D02*
D03*
X10645Y6433D02*
D03*
X9833Y6648D02*
D03*
X11045Y9113D02*
D03*
X10320Y6597D02*
D03*
X10645Y5648D02*
D03*
X11201Y6203D02*
D03*
X10945Y5997D02*
D03*
X10345Y7097D02*
D03*
Y7948D02*
D03*
X9995Y8748D02*
D03*
X9695Y6497D02*
D03*
X8820Y6847D02*
D03*
X9155Y6798D02*
D03*
Y6398D02*
D03*
X10056D02*
D03*
X10495Y8198D02*
D03*
X10545Y7048D02*
D03*
X8995Y9323D02*
D03*
D18*
X9195Y8962D02*
D03*
D19*
X9625Y5768D02*
D03*
X9725D02*
D03*
D20*
X9825D02*
D03*
D21*
X12275Y8217D02*
D03*
D22*
Y8117D02*
D03*
Y8017D02*
D03*
Y7917D02*
D03*
Y7817D02*
D03*
Y7717D02*
D03*
Y7617D02*
D03*
Y7517D02*
D03*
D23*
X8915Y6497D02*
D03*
Y6017D02*
D03*
D24*
X8915Y6698D02*
D03*
Y6218D02*
D03*
M02*
